<svg id="Layer_1" data-name="Layer 1" xmlns="http://www.w3.org/2000/svg" viewBox="0 0 412.89 473.77"><defs><style>.cls-1{fill:#866678;}.cls-2{fill:#fff8f8;stroke:#856779;}.cls-2,.cls-3,.cls-4,.cls-5{stroke-miterlimit:10;}.cls-2,.cls-3,.cls-4,.cls-5,.cls-6{stroke-width:2px;}.cls-3,.cls-6{fill:none;}.cls-3,.cls-5{stroke:#866678;}.cls-4{fill:#f79e88;stroke:#856879;}.cls-5{fill:#dcd4a1;}.cls-6{stroke:#fff8f8;stroke-linecap:round;stroke-linejoin:round;}</style></defs><title>Topology Website Elements</title><path class="cls-1" d="M28.83,10.84H390.78a22.11,22.11,0,0,1,22.11,22.11V447.34a26.43,26.43,0,0,1-26.43,26.43H28.83A22.11,22.11,0,0,1,6.72,451.66V32.95A22.11,22.11,0,0,1,28.83,10.84Z"/><rect class="cls-2" x="1" y="1" width="404.3" height="462.94" rx="22.11"/><line class="cls-3" x1="1" y1="48.85" x2="406.75" y2="48.85"/><circle class="cls-4" cx="29.74" cy="25.52" r="11.83"/><circle class="cls-5" cx="64.02" cy="25.52" r="11.83"/><line class="cls-6" x1="64.02" y1="19.87" x2="64.02" y2="31.17"/><line class="cls-6" x1="69.67" y1="25.52" x2="58.37" y2="25.52"/><line class="cls-6" x1="33.73" y1="21.52" x2="25.74" y2="29.51"/><line class="cls-6" x1="33.73" y1="29.51" x2="25.74" y2="21.52"/></svg>