<svg id="Layer_1" data-name="Layer 1" xmlns="http://www.w3.org/2000/svg" viewBox="0 0 665.48 222.6"><defs><style>.cls-1{font-size:17px;font-family:FiraCode-Light, Fira Code;font-weight:300;}.cls-1,.cls-4,.cls-8{fill:#866678;}.cls-2{fill:#ed1e24;}.cls-3{fill:#63c6c1;}.cls-5{fill:#faa51a;}.cls-6{fill:#f06ba8;}.cls-7{fill:#3853a4;}.cls-8,.cls-9{stroke:#866678;}.cls-8{stroke-linecap:round;stroke-linejoin:round;}.cls-9{fill:none;stroke-miterlimit:10;stroke-width:2px;}</style></defs><title>Topology Website Elements</title><text class="cls-1" transform="translate(14.21 109.33)">topology is a <tspan class="cls-2" x="148.75" y="0">community-driven</tspan><tspan x="318.75" y="0" xml:space="preserve"> technology that brings </tspan><tspan class="cls-3" x="573.74" y="0">random </tspan><tspan class="cls-3"><tspan x="31.87" y="24">access memory</tspan><tspan class="cls-4" x="170" y="24" xml:space="preserve"> to the </tspan><tspan class="cls-5" x="255" y="24">world computer</tspan><tspan class="cls-4" x="403.74" y="24" xml:space="preserve"> to power </tspan><tspan class="cls-6" x="509.99" y="24">lock-free </tspan></tspan><tspan class="cls-6"><tspan x="111.56" y="48">asynchronous</tspan><tspan class="cls-4" x="239.06" y="48"> </tspan><tspan class="cls-7" x="249.68" y="48">decentralized applications</tspan></tspan></text><path class="cls-8" d="M558.19,61.67v-29h4.74v29Zm1.34-25.24L535.08,1.48h5.55l21,30.1h-2.06l21.13-30.1H586l-24.63,35Z"/><path class="cls-8" d="M494.59,62.47a32.23,32.23,0,0,1-12.26-2.3,29.53,29.53,0,0,1-16.21-16.33,32.81,32.81,0,0,1-2.24-12.27,31.68,31.68,0,0,1,2.33-12.26,31,31,0,0,1,6.44-9.89,29.39,29.39,0,0,1,9.85-6.53A31.25,31.25,0,0,1,494.77.51a31.57,31.57,0,0,1,13.62,2.91,25.2,25.2,0,0,1,10,8.38l-3.32,3.27a22.27,22.27,0,0,0-8.68-7.41A25.25,25.25,0,0,0,494.77,5a26.24,26.24,0,0,0-13.43,3.44,24.38,24.38,0,0,0-9.22,9.44,27.87,27.87,0,0,0-3.32,13.68,27.82,27.82,0,0,0,3.32,13.68,24.09,24.09,0,0,0,9,9.36A25.72,25.72,0,0,0,494.42,58a25.39,25.39,0,0,0,12.44-2.91,20.23,20.23,0,0,0,8.24-8.47,28.61,28.61,0,0,0,3-13.42l2.42,1.77h-27V30.69H523v.8q0,9.89-3.58,16.85a24.41,24.41,0,0,1-9.94,10.51A29.56,29.56,0,0,1,494.59,62.47Z"/><path class="cls-8" d="M421.51,58.05a24.5,24.5,0,0,0,13-3.44,25.4,25.4,0,0,0,9-9.53,27.62,27.62,0,0,0,3.31-13.59,26.9,26.9,0,0,0-2-10.42,24.79,24.79,0,0,0-5.28-8.38,23,23,0,0,0-8.06-5.56,24.3,24.3,0,0,0-10-2A24.24,24.24,0,0,0,399.57,18a27.76,27.76,0,0,0-3.22,13.51A28.71,28.71,0,0,0,398.23,42a25.69,25.69,0,0,0,5.28,8.47,24.53,24.53,0,0,0,8,5.65A25.91,25.91,0,0,0,421.51,58.05Zm.18,4.5a30.07,30.07,0,0,1-12-2.38,29.8,29.8,0,0,1-9.58-6.62,31.92,31.92,0,0,1-6.45-10,32.59,32.59,0,0,1-2.24-12.09,32.16,32.16,0,0,1,2.24-12.1A29.64,29.64,0,0,1,400,9.51,28.78,28.78,0,0,1,409.6,3a31,31,0,0,1,23.82,0A27.62,27.62,0,0,1,443,9.51a30.84,30.84,0,0,1,6.45,9.88,31.72,31.72,0,0,1,2.33,12.18,31.5,31.5,0,0,1-2.33,12.1,29.87,29.87,0,0,1-15.94,16.5A28.79,28.79,0,0,1,421.69,62.55Z"/><path class="cls-8" d="M344.84,61.67V57.44h34.48v4.23Zm-3,0V1.48h4.75V61.67Z"/><path class="cls-8" d="M299.43,58.05a24.47,24.47,0,0,0,13-3.44,25.4,25.4,0,0,0,9-9.53,27.63,27.63,0,0,0,3.32-13.59,27.08,27.08,0,0,0-2-10.42,25,25,0,0,0-5.29-8.38,23,23,0,0,0-8.06-5.56,24.3,24.3,0,0,0-10-2,24.67,24.67,0,0,0-13,3.44,25,25,0,0,0-9,9.44,27.76,27.76,0,0,0-3.22,13.51A28.71,28.71,0,0,0,276.15,42a25.69,25.69,0,0,0,5.28,8.47,24.53,24.53,0,0,0,8,5.65A25.91,25.91,0,0,0,299.43,58.05Zm.18,4.5a29.4,29.4,0,0,1-21.58-9,31.92,31.92,0,0,1-6.45-10,32.59,32.59,0,0,1-2.24-12.09,32.16,32.16,0,0,1,2.24-12.1,29.64,29.64,0,0,1,6.36-9.88A28.88,28.88,0,0,1,287.52,3a31,31,0,0,1,23.82,0,27.66,27.66,0,0,1,9.59,6.53,31,31,0,0,1,6.44,9.88,31.53,31.53,0,0,1,2.33,12.18,31.31,31.31,0,0,1-2.33,12.1,29.78,29.78,0,0,1-15.94,16.5A28.79,28.79,0,0,1,299.61,62.55Z"/><path class="cls-8" d="M215.87,61.67V1.48h4.75V61.67Zm2.87-24.89V32.63h19.34a16.71,16.71,0,0,0,7.43-1.58,13,13,0,0,0,5.11-4.68,13.68,13.68,0,0,0,1.88-7.24A13.23,13.23,0,0,0,250.62,12a12.21,12.21,0,0,0-5.11-4.68,16,16,0,0,0-7.43-1.67H218.74V1.48h19.88a19.7,19.7,0,0,1,9.49,2.21,16,16,0,0,1,6.63,6.09,17.13,17.13,0,0,1,2.51,9.35,17.19,17.19,0,0,1-2.51,9.36,16.81,16.81,0,0,1-6.63,6.09,19.81,19.81,0,0,1-9.49,2.2Z"/><path class="cls-8" d="M81.88,5.72V1.48h49.44V5.72Zm22.39,56V3.16h4.66V61.67Z"/><path class="cls-9" d="M137.87,28.73c0,.15-.06.39-.09.68a26.33,26.33,0,0,0,.82,9.85c.12.43.35,1.25.72,2.28a29.5,29.5,0,0,0,2.41,5.16,37.72,37.72,0,0,0,2.91,4.19,28.35,28.35,0,0,0,6.15,5.83,32.63,32.63,0,0,0,4.75,2.76,34.48,34.48,0,0,0,5.4,2.05c1.2.35,2.4.65,3.62.88a31.81,31.81,0,0,0,4,.49,19.58,19.58,0,0,0,3.75-.11,7.62,7.62,0,0,0,1.94-.46,1.87,1.87,0,0,0,.35-3.37,7,7,0,0,0-2.08-.94c-1.3-.39-2.61-.74-3.9-1.19s-2.31-.87-3.44-1.37a24.15,24.15,0,0,1-4-2.25A9.39,9.39,0,0,1,158.1,50a4.69,4.69,0,0,1,.15-4.91,6.37,6.37,0,0,1,4.55-2.93,18.26,18.26,0,0,1,4-.21c1,0,2.07.16,3.09.3s2.21.33,3.31.54c1.28.25,2.58.42,3.86.65s2.36.38,3.55.52c.95.12,1.89.2,2.84.25a25.53,25.53,0,0,0,3,0,19.55,19.55,0,0,0,6.64-1.5,14.73,14.73,0,0,0,6.35-5.31,15.66,15.66,0,0,0,2-3.87,13.91,13.91,0,0,0,.68-3.68,19.55,19.55,0,0,0-.42-5.34,26.87,26.87,0,0,0-2-5.7A30.93,30.93,0,0,0,187.49,5.54a30.54,30.54,0,0,0-4.94-2.33A34.32,34.32,0,0,0,178,1.85a38.53,38.53,0,0,0-5.12-.75C171.58,1,170.26,1,169,1a33.7,33.7,0,0,0-4.25.37,35.92,35.92,0,0,0-4.81,1.07,31.7,31.7,0,0,0-6.85,3,31,31,0,0,0-5.23,3.79A30.41,30.41,0,0,0,143,14.64a30,30,0,0,0-4.12,8.53l-.06.24c-.22.86-.33,1.52-.39,1.89C138.3,26.07,138.11,27.25,137.87,28.73Z"/><path class="cls-9" d="M138.11,32.43a25.89,25.89,0,0,0,.65,5.33A37.16,37.16,0,0,0,141.37,45h0a28.19,28.19,0,0,0,10.72,11.06,20,20,0,0,0,4.71,2,5.82,5.82,0,0,0,2.49.3,1.32,1.32,0,0,0,.85-2.15,8.77,8.77,0,0,0-1.8-1.47,10.09,10.09,0,0,1-3.82-4.89,6.69,6.69,0,0,1-.08-4.24,9.59,9.59,0,0,1,5-5.91,14.82,14.82,0,0,1,4.39-1.36A30,30,0,0,1,167,38c1.54-.1,3.09-.15,4.64-.18,1.23,0,2.46-.07,3.68-.14a33.08,33.08,0,0,0,4.11-.42,19.87,19.87,0,0,0,4.08-1.11,12.22,12.22,0,0,0,4.75-3.38,13.6,13.6,0,0,0,2.58-4.68,10.62,10.62,0,0,0,.51-3.93,13.92,13.92,0,0,0-2.22-6.77A22.13,22.13,0,0,0,184.31,12a28.48,28.48,0,0,0-6-3.83,32.5,32.5,0,0,0-5.59-2,28.55,28.55,0,0,0-4-.82,23.55,23.55,0,0,0-4.28-.17,29.68,29.68,0,0,0-3,.3,26.58,26.58,0,0,0-4.29,1,30.08,30.08,0,0,0-10.64,6.15,27.42,27.42,0,0,0-4.67,5.41A23.58,23.58,0,0,0,140,21.49a11.68,11.68,0,0,0-.75,1.89c-.09.34-.14.6-.17.74A44.57,44.57,0,0,0,138.11,32.43Z"/><path class="cls-9" d="M142.49,19.16a15.86,15.86,0,0,1,5.49-5.3,17.25,17.25,0,0,1,6.68-2.13,20,20,0,0,1,3.79-.18,19.39,19.39,0,0,1,5.79,1.09,12.46,12.46,0,0,1,4.92,3,8.67,8.67,0,0,1,2.44,5.17,7.43,7.43,0,0,1-1.17,4.88A15.4,15.4,0,0,1,167,29.45a39.57,39.57,0,0,1-6.63,4.22c-1.89,1-3.82,1.93-5.73,2.89a10.43,10.43,0,0,0-4.64,4.1,10.68,10.68,0,0,0-1.16,3.41,15.26,15.26,0,0,1-.49,2.42,1.32,1.32,0,0,1-1.47,1,2.7,2.7,0,0,1-1.27-.59,12.86,12.86,0,0,1-3.05-3.48A23,23,0,0,1,140,37.92a25,25,0,0,1-1-5.51,20.14,20.14,0,0,1,.37-5.76,19.63,19.63,0,0,1,1.47-4.35l1.55-2.84Z"/><path class="cls-9" d="M141.46,19.6c-.69,1.54-1.13,2.72-1.13,2.72A27.63,27.63,0,0,0,139,26.69a27.41,27.41,0,0,0-.34,6.79c0,.8,0,1.21.1,1.81A19.8,19.8,0,0,0,140,40.35a23.68,23.68,0,0,0,2.84,5.44,29,29,0,0,0,2.83,3.51,14.81,14.81,0,0,0,3.71,3,3.29,3.29,0,0,0,1.86.51,1.38,1.38,0,0,0,1.1-1.24,5.87,5.87,0,0,0-.33-1.86,12,12,0,0,1-.6-3.41,8.78,8.78,0,0,1,1.12-4,8.54,8.54,0,0,1,4.16-3.62,35.46,35.46,0,0,1,4.6-1.76l5-1.61a36.59,36.59,0,0,0,6.11-2.53,15.17,15.17,0,0,0,4.74-3.83,11,11,0,0,0,2.26-5.34,11.85,11.85,0,0,0,.06-3.09A9.62,9.62,0,0,0,177.7,16a13.93,13.93,0,0,0-5-4.22,22.11,22.11,0,0,0-5.38-2,25.28,25.28,0,0,0-4.5-.64,18.11,18.11,0,0,0-3.68.12A39,39,0,0,0,151.88,11a19.12,19.12,0,0,0-6.18,3.38c-1.9,2-3.21,3.6-3.52,4a8.22,8.22,0,0,0-.67,1.14Z"/><path class="cls-9" d="M191.61,51c-.38,0-.64.3-.94.46a9.37,9.37,0,0,1-5,1.25,23,23,0,0,1-2.46-.32,2.06,2.06,0,0,0-1.3.12,1.15,1.15,0,0,0-.63,1.23,1.18,1.18,0,0,0,.84,1A6.87,6.87,0,0,0,185,55a12,12,0,0,0,3.06-.67,9.69,9.69,0,0,0,3.75-2.46c.41-.43.34-.67-.21-.94"/><path class="cls-9" d="M152.37,15.41a13.52,13.52,0,0,0-2.81.53,13.23,13.23,0,0,0-9.69,10.25,14.67,14.67,0,0,0,.17,7.24,20.51,20.51,0,0,0,3.52,6.88,3,3,0,0,0,1.54,1.18,1.76,1.76,0,0,0,2.35-1c.63-1.1,1.05-2.3,1.58-3.45a14.92,14.92,0,0,1,3.76-5.23A26.25,26.25,0,0,1,155.5,30a14.18,14.18,0,0,0,4.6-4.42,5.75,5.75,0,0,0,.38-5.58,7.49,7.49,0,0,0-3.08-3.59,7.91,7.91,0,0,0-3.13-1c-.62-.06-1.24,0-1.86,0"/><path class="cls-9" d="M149,20.43a10.68,10.68,0,0,0-2.31.42,9.46,9.46,0,0,0-5.19,3.7,8.2,8.2,0,0,0-1.31,4,8.21,8.21,0,0,0,.49,3.83,7.29,7.29,0,0,0,3.51,4,2.41,2.41,0,0,0,.74.21.91.91,0,0,0,1-.73,8.51,8.51,0,0,0,.1-1.33,5.72,5.72,0,0,1,.42-2,4.22,4.22,0,0,1,1.62-1.75,35.61,35.61,0,0,0,3.3-2.26A7.71,7.71,0,0,0,153.64,26a3.5,3.5,0,0,0-.18-3.51,4.09,4.09,0,0,0-3.58-2l-.81,0"/><path class="cls-9" d="M164.91,44.88c-.36,0-.73.08-1.09.14a2.55,2.55,0,0,0-2.14,2.56,2.51,2.51,0,0,0,.56,1.34,8,8,0,0,0,2.33,1.89c1.67,1,3.43,1.79,5.19,2.61a73,73,0,0,1,6.81,3.51,26.43,26.43,0,0,1,3.24,2.31,3.9,3.9,0,0,0,2.84.82A11.65,11.65,0,0,0,188,58a31.19,31.19,0,0,0,6.22-5.12,25.79,25.79,0,0,0,3.91-5,6.26,6.26,0,0,0,.56-1.37,1.28,1.28,0,0,0-1.41-1.45,5.68,5.68,0,0,0-2.1.93,17.58,17.58,0,0,1-3.45,1.5,26.08,26.08,0,0,1-3,.74,27,27,0,0,1-2.85.35,21.19,21.19,0,0,1-3.82-.11c-.59-.07-1.18-.17-1.76-.28-1.44-.28-2.87-.6-4.29-1-2.19-.59-4.37-1.21-6.57-1.74a18.38,18.38,0,0,0-4.49-.65"/><path class="cls-9" d="M193.19,49.13a25.06,25.06,0,0,0-3.79,1.24,13.71,13.71,0,0,1-5.66.9,31.2,31.2,0,0,1-4.81-.63c-1.25-.27-2.46-.67-3.69-1a4.33,4.33,0,0,0-1.79-.26,1.23,1.23,0,0,0-.91,2,8.63,8.63,0,0,0,1.82,1.8,15.93,15.93,0,0,0,5.24,2.66,15.38,15.38,0,0,0,4.32.71,10.52,10.52,0,0,0,4.14-.83A13.75,13.75,0,0,0,194,51.17a4,4,0,0,0,.39-.67,1,1,0,0,0-.85-1.37h-.31"/></svg>