<svg id="Layer_1" data-name="Layer 1" xmlns="http://www.w3.org/2000/svg" xmlns:xlink="http://www.w3.org/1999/xlink" viewBox="0 0 504.85 159.68"><defs><style>.cls-1,.cls-13,.cls-14,.cls-15,.cls-4,.cls-9{fill:none;}.cls-11,.cls-2{fill:#866678;}.cls-3{fill:#fff1ea;}.cls-15,.cls-3{stroke:#866779;}.cls-15,.cls-3,.cls-4,.cls-5,.cls-6,.cls-7,.cls-8{stroke-miterlimit:10;stroke-width:2px;}.cls-13,.cls-14,.cls-4,.cls-5,.cls-6,.cls-7,.cls-8,.cls-9{stroke:#866678;}.cls-5{fill:#bdcac0;}.cls-6{fill:#f9deeb;}.cls-7{fill:#f79e88;}.cls-8{fill:#fff;}.cls-13,.cls-14,.cls-9{stroke-linecap:round;stroke-linejoin:round;}.cls-13,.cls-9{stroke-dasharray:12 4 3 5;}.cls-10{fill:url(#_10_dpi_30_8);}.cls-11{opacity:0.4;}.cls-12{fill:url(#_10_dpi_30_8-5);}.cls-13,.cls-14{stroke-width:3px;}.cls-16{fill:url(#_10_dpi_30_8-7);}</style><pattern id="_10_dpi_30_8" data-name="10 dpi 30% 8" width="28.8" height="28.8" patternTransform="matrix(-0.32, 0, 0, 0.32, 118.07, 9.01)" patternUnits="userSpaceOnUse" viewBox="0 0 28.8 28.8"><rect class="cls-1" width="28.8" height="28.8"/><path class="cls-2" d="M28.8,31a2.16,2.16,0,1,0-2.16-2.16A2.16,2.16,0,0,0,28.8,31Z"/><path class="cls-2" d="M14.4,31a2.16,2.16,0,1,0-2.16-2.16A2.16,2.16,0,0,0,14.4,31Z"/><path class="cls-2" d="M28.8,16.56a2.16,2.16,0,1,0-2.16-2.16A2.16,2.16,0,0,0,28.8,16.56Z"/><path class="cls-2" d="M14.4,16.56a2.16,2.16,0,1,0-2.16-2.16A2.16,2.16,0,0,0,14.4,16.56Z"/><path class="cls-2" d="M7.2,23.76A2.16,2.16,0,1,0,5,21.6,2.16,2.16,0,0,0,7.2,23.76Z"/><path class="cls-2" d="M21.6,23.76a2.16,2.16,0,1,0-2.16-2.16A2.16,2.16,0,0,0,21.6,23.76Z"/><path class="cls-2" d="M7.2,9.36A2.16,2.16,0,1,0,5,7.2,2.16,2.16,0,0,0,7.2,9.36Z"/><path class="cls-2" d="M21.6,9.36A2.16,2.16,0,1,0,19.44,7.2,2.16,2.16,0,0,0,21.6,9.36Z"/><path class="cls-2" d="M0,31A2.16,2.16,0,0,0,2.16,28.8,2.16,2.16,0,0,0,0,26.64,2.16,2.16,0,0,0,0,31Z"/><path class="cls-2" d="M0,16.56A2.16,2.16,0,0,0,2.16,14.4,2.16,2.16,0,0,0,0,12.24a2.16,2.16,0,1,0,0,4.32Z"/><path class="cls-2" d="M28.8,2.16A2.16,2.16,0,0,0,31,0a2.16,2.16,0,0,0-4.32,0A2.16,2.16,0,0,0,28.8,2.16Z"/><path class="cls-2" d="M14.4,2.16A2.16,2.16,0,0,0,16.56,0a2.16,2.16,0,1,0-4.32,0A2.16,2.16,0,0,0,14.4,2.16Z"/><path class="cls-2" d="M0,2.16A2.16,2.16,0,0,0,2.16,0,2.16,2.16,0,0,0,0-2.16,2.16,2.16,0,0,0-2.16,0,2.16,2.16,0,0,0,0,2.16Z"/></pattern><pattern id="_10_dpi_30_8-5" data-name="10 dpi 30% 8" width="28.8" height="28.8" patternTransform="matrix(-0.28, 0, 0, 0.28, 93.44, 7.51)" patternUnits="userSpaceOnUse" viewBox="0 0 28.8 28.8"><rect class="cls-1" width="28.8" height="28.8"/><path class="cls-2" d="M28.8,31a2.16,2.16,0,1,0-2.16-2.16A2.16,2.16,0,0,0,28.8,31Z"/><path class="cls-2" d="M14.4,31a2.16,2.16,0,1,0-2.16-2.16A2.16,2.16,0,0,0,14.4,31Z"/><path class="cls-2" d="M28.8,16.56a2.16,2.16,0,1,0-2.16-2.16A2.16,2.16,0,0,0,28.8,16.56Z"/><path class="cls-2" d="M14.4,16.56a2.16,2.16,0,1,0-2.16-2.16A2.16,2.16,0,0,0,14.4,16.56Z"/><path class="cls-2" d="M7.2,23.76A2.16,2.16,0,1,0,5,21.6,2.16,2.16,0,0,0,7.2,23.76Z"/><path class="cls-2" d="M21.6,23.76a2.16,2.16,0,1,0-2.16-2.16A2.16,2.16,0,0,0,21.6,23.76Z"/><path class="cls-2" d="M7.2,9.36A2.16,2.16,0,1,0,5,7.2,2.16,2.16,0,0,0,7.2,9.36Z"/><path class="cls-2" d="M21.6,9.36A2.16,2.16,0,1,0,19.44,7.2,2.16,2.16,0,0,0,21.6,9.36Z"/><path class="cls-2" d="M0,31A2.16,2.16,0,0,0,2.16,28.8,2.16,2.16,0,0,0,0,26.64,2.16,2.16,0,0,0,0,31Z"/><path class="cls-2" d="M0,16.56A2.16,2.16,0,0,0,2.16,14.4,2.16,2.16,0,0,0,0,12.24a2.16,2.16,0,1,0,0,4.32Z"/><path class="cls-2" d="M28.8,2.16A2.16,2.16,0,0,0,31,0a2.16,2.16,0,0,0-4.32,0A2.16,2.16,0,0,0,28.8,2.16Z"/><path class="cls-2" d="M14.4,2.16A2.16,2.16,0,0,0,16.56,0a2.16,2.16,0,1,0-4.32,0A2.16,2.16,0,0,0,14.4,2.16Z"/><path class="cls-2" d="M0,2.16A2.16,2.16,0,0,0,2.16,0,2.16,2.16,0,0,0,0-2.16,2.16,2.16,0,0,0-2.16,0,2.16,2.16,0,0,0,0,2.16Z"/></pattern><pattern id="_10_dpi_30_8-7" data-name="10 dpi 30% 8" width="28.8" height="28.8" patternTransform="matrix(-0.44, 0, 0, 0.44, 142.38, 3.7)" patternUnits="userSpaceOnUse" viewBox="0 0 28.8 28.8"><rect class="cls-1" width="28.8" height="28.8"/><path class="cls-2" d="M28.8,31a2.16,2.16,0,1,0-2.16-2.16A2.16,2.16,0,0,0,28.8,31Z"/><path class="cls-2" d="M14.4,31a2.16,2.16,0,1,0-2.16-2.16A2.16,2.16,0,0,0,14.4,31Z"/><path class="cls-2" d="M28.8,16.56a2.16,2.16,0,1,0-2.16-2.16A2.16,2.16,0,0,0,28.8,16.56Z"/><path class="cls-2" d="M14.4,16.56a2.16,2.16,0,1,0-2.16-2.16A2.16,2.16,0,0,0,14.4,16.56Z"/><path class="cls-2" d="M7.2,23.76A2.16,2.16,0,1,0,5,21.6,2.16,2.16,0,0,0,7.2,23.76Z"/><path class="cls-2" d="M21.6,23.76a2.16,2.16,0,1,0-2.16-2.16A2.16,2.16,0,0,0,21.6,23.76Z"/><path class="cls-2" d="M7.2,9.36A2.16,2.16,0,1,0,5,7.2,2.16,2.16,0,0,0,7.2,9.36Z"/><path class="cls-2" d="M21.6,9.36A2.16,2.16,0,1,0,19.44,7.2,2.16,2.16,0,0,0,21.6,9.36Z"/><path class="cls-2" d="M0,31A2.16,2.16,0,0,0,2.16,28.8,2.16,2.16,0,0,0,0,26.64,2.16,2.16,0,0,0,0,31Z"/><path class="cls-2" d="M0,16.56A2.16,2.16,0,0,0,2.16,14.4,2.16,2.16,0,0,0,0,12.24a2.16,2.16,0,1,0,0,4.32Z"/><path class="cls-2" d="M28.8,2.16A2.16,2.16,0,0,0,31,0a2.16,2.16,0,0,0-4.32,0A2.16,2.16,0,0,0,28.8,2.16Z"/><path class="cls-2" d="M14.4,2.16A2.16,2.16,0,0,0,16.56,0a2.16,2.16,0,1,0-4.32,0A2.16,2.16,0,0,0,14.4,2.16Z"/><path class="cls-2" d="M0,2.16A2.16,2.16,0,0,0,2.16,0,2.16,2.16,0,0,0,0-2.16,2.16,2.16,0,0,0-2.16,0,2.16,2.16,0,0,0,0,2.16Z"/></pattern></defs><title>Topology Website Elements</title><path class="cls-3" d="M300.5,55.91a11.81,11.81,0,0,1-2.23,7.94,10.66,10.66,0,0,1-2.79,2.53H279.05a28.09,28.09,0,0,1-19,13.91H245.15a30.62,30.62,0,0,1-11.5-4.81,30.22,30.22,0,0,1-8.22-8.35H211.14a14.3,14.3,0,0,1-6.84-11.22,8.71,8.71,0,0,0-8.13,8.69v68a8.71,8.71,0,0,0,8.7,8.71H300a8.71,8.71,0,0,0,8.7-8.71v-68A8.71,8.71,0,0,0,300.5,55.91Zm-4.77,69.51a4.81,4.81,0,0,1-4.81,4.82H214.56a4.82,4.82,0,0,1-4.82-4.82V93.08a4.82,4.82,0,0,1,4.82-4.82h76.36a4.81,4.81,0,0,1,4.81,4.82Z"/><path class="cls-4" d="M222.47,121a4,4,0,1,1-4-4A4,4,0,0,1,222.47,121Z"/><path class="cls-4" d="M222.47,107.62a4,4,0,1,1-4-4A4,4,0,0,1,222.47,107.62Z"/><path class="cls-4" d="M228,107.62a4,4,0,1,1,4,4A4,4,0,0,1,228,107.62Z"/><path class="cls-4" d="M241.54,107.62a4,4,0,1,1,4,4A4,4,0,0,1,241.54,107.62Z"/><path class="cls-4" d="M255,107.62a4,4,0,1,1,4,4A4,4,0,0,1,255,107.62Z"/><path class="cls-4" d="M276.46,107.62a4,4,0,1,1-4-4A4,4,0,0,1,276.46,107.62Z"/><path class="cls-4" d="M282,107.62a4,4,0,1,1,4,4A4,4,0,0,1,282,107.62Z"/><path class="cls-4" d="M290.87,121a4,4,0,1,1-4-4A4,4,0,0,1,290.87,121Z"/><path class="cls-4" d="M290.92,88.26H214.56a4.82,4.82,0,0,0-4.82,4.82v32.34a4.82,4.82,0,0,0,4.82,4.82h76.36a4.81,4.81,0,0,0,4.81-4.82V93.08A4.81,4.81,0,0,0,290.92,88.26ZM259,103.66a4,4,0,1,1-4,4A4,4,0,0,1,259,103.66Zm-13.5,0a4,4,0,1,1-4,4A4,4,0,0,1,245.5,103.66Zm-27,21.31a4,4,0,1,1,4-4A4,4,0,0,1,218.51,125Zm0-13.38a4,4,0,1,1,4-4A4,4,0,0,1,218.51,111.59Zm13.5-7.93a4,4,0,1,1-4,4A4,4,0,0,1,232,103.66Zm43.41,19a2.09,2.09,0,0,1-2.1,2.09H231a2.09,2.09,0,0,1-2.1-2.09v-3.3a2.09,2.09,0,0,1,2.1-2.09h42.34a2.09,2.09,0,0,1,2.1,2.09Zm-2.92-11.06a4,4,0,1,1,4-4A4,4,0,0,1,272.5,111.59ZM286,103.66a4,4,0,1,1-4,4A4,4,0,0,1,286,103.66ZM286.9,125a4,4,0,1,1,4-4A4,4,0,0,1,286.9,125Z"/><path class="cls-4" d="M222.47,121a4,4,0,1,1-4-4A4,4,0,0,1,222.47,121Z"/><path class="cls-4" d="M222.47,107.62a4,4,0,1,1-4-4A4,4,0,0,1,222.47,107.62Z"/><path class="cls-4" d="M228,107.62a4,4,0,1,1,4,4A4,4,0,0,1,228,107.62Z"/><path class="cls-4" d="M241.54,107.62a4,4,0,1,1,4,4A4,4,0,0,1,241.54,107.62Z"/><path class="cls-4" d="M255,107.62a4,4,0,1,1,4,4A4,4,0,0,1,255,107.62Z"/><path class="cls-4" d="M276.46,107.62a4,4,0,1,1-4-4A4,4,0,0,1,276.46,107.62Z"/><path class="cls-4" d="M282,107.62a4,4,0,1,1,4,4A4,4,0,0,1,282,107.62Z"/><path class="cls-4" d="M290.87,121a4,4,0,1,1-4-4A4,4,0,0,1,290.87,121Z"/><path class="cls-5" d="M275.42,119.35v3.3a2.09,2.09,0,0,1-2.1,2.09H231a2.09,2.09,0,0,1-2.1-2.09v-3.3a2.09,2.09,0,0,1,2.1-2.09h42.34A2.09,2.09,0,0,1,275.42,119.35Z"/><path class="cls-6" d="M222.47,121a4,4,0,1,1-4-4A4,4,0,0,1,222.47,121Z"/><path class="cls-6" d="M222.47,107.62a4,4,0,1,1-4-4A4,4,0,0,1,222.47,107.62Z"/><path class="cls-6" d="M236,107.62a4,4,0,1,1-4-4A4,4,0,0,1,236,107.62Z"/><path class="cls-6" d="M249.47,107.62a4,4,0,1,1-4-4A4,4,0,0,1,249.47,107.62Z"/><path class="cls-6" d="M263,107.62a4,4,0,1,1-4-4A4,4,0,0,1,263,107.62Z"/><path class="cls-6" d="M276.46,107.62a4,4,0,1,1-4-4A4,4,0,0,1,276.46,107.62Z"/><path class="cls-6" d="M290,107.62a4,4,0,1,1-4-4A4,4,0,0,1,290,107.62Z"/><path class="cls-6" d="M290.87,121a4,4,0,1,1-4-4A4,4,0,0,1,290.87,121Z"/><rect class="cls-5" x="308.68" y="66.68" width="6.37" height="9.44"/><rect class="cls-5" x="315.05" y="63.91" width="8.45" height="14.55"/><rect class="cls-7" x="189.81" y="66.25" width="6.36" height="9.45"/><rect class="cls-5" x="181.35" y="63.91" width="8.46" height="14.55"/><path class="cls-8" d="M295.73,12.3V55.89H274A21.56,21.56,0,0,1,268.25,65a22.95,22.95,0,0,1-37.13-9.09H209.74V12.3A11.29,11.29,0,0,1,221,1h63.4A11.29,11.29,0,0,1,295.73,12.3Z"/><path class="cls-7" d="M298.27,63.85a10.66,10.66,0,0,1-2.79,2.53H279.05a28.09,28.09,0,0,1-19,13.91H245.15a30.62,30.62,0,0,1-11.5-4.81,30.22,30.22,0,0,1-8.22-8.35H211.14a14.3,14.3,0,0,1-6.84-11.22l.57,0h26.25A22.95,22.95,0,0,0,268.25,65,21.56,21.56,0,0,0,274,55.89h26l.52,0A11.81,11.81,0,0,1,298.27,63.85Z"/><path class="cls-4" d="M300.5,55.91a1.37,1.37,0,0,1,0-.19"/><path class="cls-4" d="M204.3,55.91c0-.16,0-.3,0-.44"/><path class="cls-4" d="M274.17,55.37c-.05.16-.1.34-.17.52"/><path class="cls-4" d="M231.12,55.89c-.05-.12-.09-.24-.13-.35"/><line class="cls-9" x1="229.22" y1="17.69" x2="276.65" y2="17.69"/><line class="cls-9" x1="219.1" y1="29.75" x2="272.99" y2="29.75"/><line class="cls-9" x1="238.66" y1="39.53" x2="286.29" y2="39.53"/><line class="cls-9" x1="226.52" y1="46.95" x2="274.26" y2="46.95"/><line class="cls-9" x1="243.05" y1="56.05" x2="262.68" y2="56.05"/><line class="cls-9" x1="220.11" y1="96.52" x2="289.26" y2="96.52"/><line class="cls-9" x1="304.76" y1="87.41" x2="304.76" y2="129.24"/><path class="cls-10" d="M196.17,89.94q.09,22.2.17,44.4a6.46,6.46,0,0,0,4.13,5.85,128.55,128.55,0,0,1,.08-43.5c1-5.24,2-9,4.89-12.31,9.48-11,29.26-7.08,32.69-6.35A30.45,30.45,0,0,1,230,72.59l-4.61-5.46H211.51a11.49,11.49,0,0,1-2.34-1.44c-4-3.17-4.69-8.06-4.87-9.78a8.5,8.5,0,0,0-3.92,1.23c-3.75,2.33-4.16,6.86-4.21,7.46Z"/><path class="cls-10" d="M233.94,1A147,147,0,0,1,257.8,3.53c12.77,2.41,19.15,3.62,24.53,7.84,14.28,11.19,11.11,34.41,13.4,34.23.7-.06,1-7,0-33.3A16.14,16.14,0,0,0,294.6,8a14.63,14.63,0,0,0-2.11-3.65c-2.2-2.56-5.6-3.09-7.17-3.33C280,.22,260.42.05,233.94,1Z"/><ellipse class="cls-11" cx="254.69" cy="156.66" rx="52.2" ry="3.02"/><path class="cls-7" d="M406.27,102.37c0-.47-6.9-3.21-7.54-3.57a52,52,0,0,1-12.91-10.18c-15.63-17.23-10.7-42.62,4.11-58.71C408.81,9.4,439.79,3.44,465.7,12.25c11.54,3.92,22.22,10.85,29.43,20.8a45.33,45.33,0,0,1,4.65,8,46.3,46.3,0,0,1-3,43.58c-7.23,11.63-18.56,17.92-31,22.57a78.16,78.16,0,0,1-40.22,3.61,43.41,43.41,0,0,1-6.3,7,44.46,44.46,0,0,1-19.66,10,36.41,36.41,0,0,0,6.75-25.51Z"/><path class="cls-3" d="M454.52,26.23a69.22,69.22,0,0,0-32.14,1.42,44.35,44.35,0,0,0-8,3.28c-10.83,5.81-19.79,15.58-22,28-3.55,20.07,14.16,31,30.76,36a55.58,55.58,0,0,0,39.14-2.93c9.91-4.62,19.21-13,23.32-23.26a26.73,26.73,0,0,0-4-26.72C475.21,33.85,464.58,28.18,454.52,26.23Z"/><path class="cls-12" d="M395.88,77.25a50.3,50.3,0,0,1,7.72-20c7.86-11.85,18.6-16.82,23.78-19.13,21.84-9.76,43.05-3.43,49.25-1.33A56.82,56.82,0,0,0,459,27.34a60.63,60.63,0,0,0-26.82-2,51.09,51.09,0,0,0-15.6,4.42c-4.05,1.93-16.16,7.69-21.59,20.94a31.51,31.51,0,0,0-2.12,18.38A29,29,0,0,0,395.88,77.25Z"/><path class="cls-9" d="M493.63,53.45A46.5,46.5,0,0,1,488,78.66c-10.4,18.67-30.42,22.82-33.54,23.41"/><path class="cls-9" d="M395.72,30.27A64.28,64.28,0,0,1,420,15.19a65.2,65.2,0,0,1,37.81-1.13"/><path class="cls-13" d="M436.38,52.19l11-.08"/><path class="cls-14" d="M431.58,80.83l11-.08"/><path class="cls-14" d="M436.76,80.17l4.5-28"/><circle class="cls-2" cx="444.03" cy="41.46" r="3.9"/><ellipse class="cls-11" cx="442.16" cy="151.52" rx="58.28" ry="3.37"/><path class="cls-5" d="M21.93,97.58,11.2,133.75l28.72-24.3"/><path class="cls-5" d="M78.27,108.79l27.45,25q-4.48-19.23-9-38.45"/><circle class="cls-7" cx="58.28" cy="62" r="50.87"/><circle class="cls-3" cx="58.28" cy="62" r="34.16"/><circle class="cls-6" cx="58.28" cy="62" r="18.22"/><path class="cls-5" d="M104.91,20.08l-7.67,7.38-10.68,3c.63-3.15,1.27-6.29,1.91-9.44l8.33-8.44Z"/><path class="cls-15" d="M86.56,30.5Q71.65,45.77,56.75,61.06"/><path class="cls-16" d="M8.31,71.56c1.25.23,0-19.44,12.89-34.84C35.75,19.4,60.94,16.26,81.34,16.66a49.37,49.37,0,0,0-19.77-5.77c-2.67-.19-20.66-1.17-35.4,11.59-.18.15-.69.59-1.29,1.15C7.13,40.27,6.73,71.26,8.31,71.56Z"/><path class="cls-16" d="M64.08,44.73A21.28,21.28,0,0,0,53.21,52c-5.47,7.25-5.41,18.14.17,27.52a19.18,19.18,0,0,1-11.3-9.42,18.19,18.19,0,0,1,22-25.4Z"/><path class="cls-9" d="M64.1,107.45A50.71,50.71,0,0,0,90.67,92c13.34-14.9,12.84-32.71,12.65-36.45"/><path class="cls-9" d="M34.36,44.69A30.8,30.8,0,0,0,39.8,84.93"/><ellipse class="cls-11" cx="58.28" cy="153.28" rx="58.28" ry="3.37"/></svg>