<svg id="Layer_1" data-name="Layer 1" xmlns="http://www.w3.org/2000/svg" xmlns:xlink="http://www.w3.org/1999/xlink" viewBox="0 0 129.63 147.59"><defs><style>.cls-1,.cls-6,.cls-7,.cls-8{fill:none;}.cls-2,.cls-9{fill:#866678;}.cls-3{fill:#f79e88;}.cls-3,.cls-6,.cls-7,.cls-8{stroke:#866678;}.cls-3,.cls-4{stroke-miterlimit:10;stroke-width:2px;}.cls-4{fill:#fff1ea;stroke:#866779;}.cls-5{fill:url(#_10_dpi_30_8);}.cls-6,.cls-7,.cls-8{stroke-linecap:round;stroke-linejoin:round;}.cls-6,.cls-7{stroke-dasharray:12 4 3 5;}.cls-7,.cls-8{stroke-width:3px;}.cls-9{opacity:0.4;}</style><pattern id="_10_dpi_30_8" data-name="10 dpi 30% 8" width="28.8" height="28.8" patternTransform="matrix(-0.28, 0, 0, 0.28, 100.6, 7.51)" patternUnits="userSpaceOnUse" viewBox="0 0 28.8 28.8"><rect class="cls-1" width="28.8" height="28.8"/><path class="cls-2" d="M28.8,31a2.16,2.16,0,1,0-2.16-2.16A2.16,2.16,0,0,0,28.8,31Z"/><path class="cls-2" d="M14.4,31a2.16,2.16,0,1,0-2.16-2.16A2.16,2.16,0,0,0,14.4,31Z"/><path class="cls-2" d="M28.8,16.56a2.16,2.16,0,1,0-2.16-2.16A2.16,2.16,0,0,0,28.8,16.56Z"/><path class="cls-2" d="M14.4,16.56a2.16,2.16,0,1,0-2.16-2.16A2.16,2.16,0,0,0,14.4,16.56Z"/><path class="cls-2" d="M7.2,23.76A2.16,2.16,0,1,0,5,21.6,2.16,2.16,0,0,0,7.2,23.76Z"/><path class="cls-2" d="M21.6,23.76a2.16,2.16,0,1,0-2.16-2.16A2.16,2.16,0,0,0,21.6,23.76Z"/><path class="cls-2" d="M7.2,9.36A2.16,2.16,0,1,0,5,7.2,2.16,2.16,0,0,0,7.2,9.36Z"/><path class="cls-2" d="M21.6,9.36A2.16,2.16,0,1,0,19.44,7.2,2.16,2.16,0,0,0,21.6,9.36Z"/><path class="cls-2" d="M0,31A2.16,2.16,0,0,0,2.16,28.8,2.16,2.16,0,0,0,0,26.64,2.16,2.16,0,0,0,0,31Z"/><path class="cls-2" d="M0,16.56A2.16,2.16,0,0,0,2.16,14.4,2.16,2.16,0,0,0,0,12.24a2.16,2.16,0,1,0,0,4.32Z"/><path class="cls-2" d="M28.8,2.16A2.16,2.16,0,0,0,31,0a2.16,2.16,0,0,0-4.32,0A2.16,2.16,0,0,0,28.8,2.16Z"/><path class="cls-2" d="M14.4,2.16A2.16,2.16,0,0,0,16.56,0a2.16,2.16,0,1,0-4.32,0A2.16,2.16,0,0,0,14.4,2.16Z"/><path class="cls-2" d="M0,2.16A2.16,2.16,0,0,0,2.16,0,2.16,2.16,0,0,0,0-2.16,2.16,2.16,0,0,0-2.16,0,2.16,2.16,0,0,0,0,2.16Z"/></pattern></defs><title>Topology Website Elements-B</title><path class="cls-3" d="M31.06,95.07c0-.47-6.9-3.21-7.54-3.57A52.44,52.44,0,0,1,10.61,81.32C-5,64.08-.09,38.7,14.72,22.61,33.6,2.1,64.58-3.87,90.49,5,102,8.87,112.71,15.8,119.92,25.75a45.61,45.61,0,0,1,4.65,8,46.32,46.32,0,0,1-3,43.59c-7.23,11.63-18.56,17.92-31,22.57a78.14,78.14,0,0,1-40.22,3.6,43,43,0,0,1-6.3,7.06,44.51,44.51,0,0,1-19.66,10,36.55,36.55,0,0,0,6-13.06A36.27,36.27,0,0,0,31.06,95.07Z"/><path class="cls-4" d="M79.31,18.93a69.09,69.09,0,0,0-32.14,1.42,44.05,44.05,0,0,0-8,3.28c-10.83,5.81-19.79,15.57-22,28-3.55,20.06,14.16,31,30.76,36a55.53,55.53,0,0,0,39.14-2.94C97,80,106.32,71.69,110.43,61.38a26.74,26.74,0,0,0-4-26.72C100,26.55,89.37,20.88,79.31,18.93Z"/><path class="cls-5" d="M20.67,70a50.25,50.25,0,0,1,7.72-20C36.25,38.13,47,33.16,52.17,30.84c21.84-9.75,43.05-3.43,49.25-1.32A56.4,56.4,0,0,0,83.79,20,60.4,60.4,0,0,0,57,18a51.16,51.16,0,0,0-15.6,4.43c-4,1.93-16.16,7.68-21.59,20.94a31.49,31.49,0,0,0-2.12,18.38A29,29,0,0,0,20.67,70Z"/><path class="cls-6" d="M118.42,46.15a46.51,46.51,0,0,1-5.62,25.21C102.4,90,82.38,94.18,79.26,94.77"/><path class="cls-6" d="M20.51,23A64.53,64.53,0,0,1,44.82,7.88,65.26,65.26,0,0,1,82.63,6.76"/><path class="cls-7" d="M61.17,44.88l11-.07"/><path class="cls-8" d="M56.37,73.52l10.95-.07"/><path class="cls-8" d="M61.55,72.87l4.5-28"/><circle class="cls-2" cx="68.82" cy="34.16" r="3.9"/><ellipse class="cls-9" cx="66.95" cy="144.22" rx="58.28" ry="3.37"/></svg>