<svg id="Layer_1" data-name="Layer 1" xmlns="http://www.w3.org/2000/svg" xmlns:xlink="http://www.w3.org/1999/xlink" viewBox="0 0 144.14 159.68"><defs><style>.cls-1,.cls-4,.cls-9{fill:none;}.cls-11,.cls-2{fill:#866678;}.cls-3{fill:#fff1ea;stroke:#866779;}.cls-3,.cls-4,.cls-5,.cls-6,.cls-7,.cls-8{stroke-miterlimit:10;stroke-width:2px;}.cls-4,.cls-5,.cls-6,.cls-7,.cls-8,.cls-9{stroke:#866678;}.cls-5{fill:#bdcac0;}.cls-6{fill:#f9deeb;}.cls-7{fill:#f79e88;}.cls-8{fill:#fff;}.cls-9{stroke-linecap:round;stroke-linejoin:round;stroke-dasharray:12 4 3 5;}.cls-10{fill:url(#_10_dpi_30_8);}.cls-11{opacity:0.4;}</style><pattern id="_10_dpi_30_8" data-name="10 dpi 30% 8" width="28.8" height="28.8" patternTransform="matrix(-0.32, 0, 0, 0.32, 118.07, 9.01)" patternUnits="userSpaceOnUse" viewBox="0 0 28.8 28.8"><rect class="cls-1" width="28.8" height="28.8"/><path class="cls-2" d="M28.8,31a2.16,2.16,0,1,0-2.16-2.16A2.16,2.16,0,0,0,28.8,31Z"/><path class="cls-2" d="M14.4,31a2.16,2.16,0,1,0-2.16-2.16A2.16,2.16,0,0,0,14.4,31Z"/><path class="cls-2" d="M28.8,16.56a2.16,2.16,0,1,0-2.16-2.16A2.16,2.16,0,0,0,28.8,16.56Z"/><path class="cls-2" d="M14.4,16.56a2.16,2.16,0,1,0-2.16-2.16A2.16,2.16,0,0,0,14.4,16.56Z"/><path class="cls-2" d="M7.2,23.76A2.16,2.16,0,1,0,5,21.6,2.16,2.16,0,0,0,7.2,23.76Z"/><path class="cls-2" d="M21.6,23.76a2.16,2.16,0,1,0-2.16-2.16A2.16,2.16,0,0,0,21.6,23.76Z"/><path class="cls-2" d="M7.2,9.36A2.16,2.16,0,1,0,5,7.2,2.16,2.16,0,0,0,7.2,9.36Z"/><path class="cls-2" d="M21.6,9.36A2.16,2.16,0,1,0,19.44,7.2,2.16,2.16,0,0,0,21.6,9.36Z"/><path class="cls-2" d="M0,31A2.16,2.16,0,0,0,2.16,28.8,2.16,2.16,0,0,0,0,26.64,2.16,2.16,0,0,0,0,31Z"/><path class="cls-2" d="M0,16.56A2.16,2.16,0,0,0,2.16,14.4,2.16,2.16,0,0,0,0,12.24a2.16,2.16,0,1,0,0,4.32Z"/><path class="cls-2" d="M28.8,2.16A2.16,2.16,0,0,0,31,0a2.16,2.16,0,0,0-4.32,0A2.16,2.16,0,0,0,28.8,2.16Z"/><path class="cls-2" d="M14.4,2.16A2.16,2.16,0,0,0,16.56,0a2.16,2.16,0,1,0-4.32,0A2.16,2.16,0,0,0,14.4,2.16Z"/><path class="cls-2" d="M0,2.16A2.16,2.16,0,0,0,2.16,0,2.16,2.16,0,0,0,0-2.16,2.16,2.16,0,0,0-2.16,0,2.16,2.16,0,0,0,0,2.16Z"/></pattern></defs><title>Topology Website Elements-B</title><path class="cls-3" d="M120.15,55.91a11.81,11.81,0,0,1-2.23,7.94,11,11,0,0,1-2.79,2.53H98.69a28.05,28.05,0,0,1-19,13.91H64.8A30.64,30.64,0,0,1,45.07,67.13H30.78A14.26,14.26,0,0,1,24,55.91a8.71,8.71,0,0,0-8.13,8.69v68a8.7,8.7,0,0,0,8.69,8.71h95.12a8.7,8.7,0,0,0,8.69-8.71v-68A8.7,8.7,0,0,0,120.15,55.91Zm-4.77,69.51a4.82,4.82,0,0,1-4.82,4.82H34.21a4.82,4.82,0,0,1-4.82-4.82V93.08a4.82,4.82,0,0,1,4.82-4.82h76.35a4.82,4.82,0,0,1,4.82,4.82Z"/><path class="cls-4" d="M42.12,121a4,4,0,1,1-4-4A4,4,0,0,1,42.12,121Z"/><path class="cls-4" d="M42.12,107.62a4,4,0,1,1-4-4A4,4,0,0,1,42.12,107.62Z"/><path class="cls-4" d="M47.69,107.62a4,4,0,1,1,4,4A4,4,0,0,1,47.69,107.62Z"/><path class="cls-4" d="M61.19,107.62a4,4,0,1,1,4,4A4,4,0,0,1,61.19,107.62Z"/><path class="cls-4" d="M74.69,107.62a4,4,0,1,1,4,4A4,4,0,0,1,74.69,107.62Z"/><path class="cls-4" d="M96.1,107.62a4,4,0,1,1-4-4A4,4,0,0,1,96.1,107.62Z"/><path class="cls-4" d="M101.68,107.62a4,4,0,1,1,3.95,4A4,4,0,0,1,101.68,107.62Z"/><path class="cls-4" d="M110.52,121a4,4,0,1,1-4-4A4,4,0,0,1,110.52,121Z"/><path class="cls-4" d="M110.56,88.26H34.21a4.82,4.82,0,0,0-4.82,4.82v32.34a4.82,4.82,0,0,0,4.82,4.82h76.35a4.82,4.82,0,0,0,4.82-4.82V93.08A4.82,4.82,0,0,0,110.56,88.26Zm-31.91,15.4a4,4,0,1,1-4,4A4,4,0,0,1,78.65,103.66Zm-13.5,0a4,4,0,1,1-4,4A4,4,0,0,1,65.15,103.66ZM38.16,125a4,4,0,1,1,4-4A4,4,0,0,1,38.16,125Zm0-13.38a4,4,0,1,1,4-4A4,4,0,0,1,38.16,111.59Zm13.5-7.93a4,4,0,1,1-4,4A4,4,0,0,1,51.66,103.66Zm43.4,19A2.09,2.09,0,0,1,93,124.74H50.63a2.08,2.08,0,0,1-2.1-2.09v-3.3a2.08,2.08,0,0,1,2.1-2.09H93a2.09,2.09,0,0,1,2.09,2.09Zm-2.92-11.06a4,4,0,1,1,4-4A4,4,0,0,1,92.14,111.59Zm13.49-7.93a4,4,0,1,1-3.95,4A4,4,0,0,1,105.63,103.66Zm.92,21.31a4,4,0,1,1,4-4A4,4,0,0,1,106.55,125Z"/><path class="cls-4" d="M42.12,121a4,4,0,1,1-4-4A4,4,0,0,1,42.12,121Z"/><path class="cls-4" d="M42.12,107.62a4,4,0,1,1-4-4A4,4,0,0,1,42.12,107.62Z"/><path class="cls-4" d="M47.69,107.62a4,4,0,1,1,4,4A4,4,0,0,1,47.69,107.62Z"/><path class="cls-4" d="M61.19,107.62a4,4,0,1,1,4,4A4,4,0,0,1,61.19,107.62Z"/><path class="cls-4" d="M74.69,107.62a4,4,0,1,1,4,4A4,4,0,0,1,74.69,107.62Z"/><path class="cls-4" d="M96.1,107.62a4,4,0,1,1-4-4A4,4,0,0,1,96.1,107.62Z"/><path class="cls-4" d="M101.68,107.62a4,4,0,1,1,3.95,4A4,4,0,0,1,101.68,107.62Z"/><path class="cls-4" d="M110.52,121a4,4,0,1,1-4-4A4,4,0,0,1,110.52,121Z"/><path class="cls-5" d="M95.06,119.35v3.3A2.09,2.09,0,0,1,93,124.74H50.63a2.08,2.08,0,0,1-2.1-2.09v-3.3a2.08,2.08,0,0,1,2.1-2.09H93A2.09,2.09,0,0,1,95.06,119.35Z"/><path class="cls-6" d="M42.12,121a4,4,0,1,1-4-4A4,4,0,0,1,42.12,121Z"/><path class="cls-6" d="M42.12,107.62a4,4,0,1,1-4-4A4,4,0,0,1,42.12,107.62Z"/><path class="cls-6" d="M55.61,107.62a4,4,0,1,1-4-4A4,4,0,0,1,55.61,107.62Z"/><path class="cls-6" d="M69.11,107.62a4,4,0,1,1-4-4A4,4,0,0,1,69.11,107.62Z"/><path class="cls-6" d="M82.6,107.62a4,4,0,1,1-3.95-4A4,4,0,0,1,82.6,107.62Z"/><path class="cls-6" d="M96.1,107.62a4,4,0,1,1-4-4A4,4,0,0,1,96.1,107.62Z"/><path class="cls-6" d="M109.6,107.62a4,4,0,1,1-4-4A4,4,0,0,1,109.6,107.62Z"/><path class="cls-6" d="M110.52,121a4,4,0,1,1-4-4A4,4,0,0,1,110.52,121Z"/><rect class="cls-5" x="128.32" y="66.68" width="6.37" height="9.44"/><rect class="cls-5" x="134.69" y="63.91" width="8.45" height="14.55"/><rect class="cls-7" x="9.46" y="66.25" width="6.36" height="9.45"/><rect class="cls-5" x="1" y="63.91" width="8.46" height="14.55"/><path class="cls-8" d="M115.38,12.3V55.89H93.65A21.66,21.66,0,0,1,87.9,65a22.95,22.95,0,0,1-37.13-9.09H29.39V12.3A11.29,11.29,0,0,1,40.68,1h63.4A11.29,11.29,0,0,1,115.38,12.3Z"/><path class="cls-7" d="M117.92,63.85a11,11,0,0,1-2.79,2.53H98.69a28.05,28.05,0,0,1-19,13.91H64.8A30.64,30.64,0,0,1,45.07,67.13H30.78A14.26,14.26,0,0,1,24,55.91l.56,0H50.77A22.95,22.95,0,0,0,87.9,65a21.66,21.66,0,0,0,5.75-9.09h26l.52,0A11.81,11.81,0,0,1,117.92,63.85Z"/><path class="cls-4" d="M120.15,55.91a1.37,1.37,0,0,1,0-.19"/><path class="cls-4" d="M24,55.91c0-.16,0-.3,0-.44"/><path class="cls-4" d="M93.82,55.37l-.17.52"/><path class="cls-4" d="M50.77,55.89c-.06-.12-.09-.24-.14-.35"/><line class="cls-9" x1="48.86" y1="17.69" x2="96.29" y2="17.69"/><line class="cls-9" x1="38.75" y1="29.75" x2="92.64" y2="29.75"/><line class="cls-9" x1="58.31" y1="39.53" x2="105.93" y2="39.53"/><line class="cls-9" x1="46.17" y1="46.95" x2="93.91" y2="46.95"/><line class="cls-9" x1="62.69" y1="56.05" x2="82.32" y2="56.05"/><line class="cls-9" x1="39.76" y1="96.52" x2="108.9" y2="96.52"/><line class="cls-9" x1="124.4" y1="87.41" x2="124.4" y2="129.24"/><path class="cls-10" d="M15.82,89.94q.07,22.2.17,44.4A6.56,6.56,0,0,0,17.25,138a6.45,6.45,0,0,0,2.87,2.19c-3.08-19.34-1.63-34.11.08-43.5.95-5.24,2-9,4.89-12.31,9.48-11,29.25-7.08,32.69-6.35a31.38,31.38,0,0,1-3.6-2,30.71,30.71,0,0,1-4.5-3.48l-4.61-5.46H31.16a11.49,11.49,0,0,1-2.34-1.44c-4-3.17-4.7-8.06-4.87-9.78A8.46,8.46,0,0,0,20,57.14c-3.76,2.33-4.17,6.86-4.21,7.46Z"/><path class="cls-10" d="M53.59,1A147,147,0,0,1,77.44,3.53C90.21,5.94,96.6,7.15,102,11.37c14.28,11.19,11.11,34.41,13.4,34.23.69-.06,1-7,0-33.3A16.22,16.22,0,0,0,114.24,8a14,14,0,0,0-2.11-3.65C109.94,1.81,106.53,1.28,105,1,99.66.22,80.07.05,53.59,1Z"/><ellipse class="cls-11" cx="74.33" cy="156.66" rx="52.2" ry="3.02"/></svg>