<svg id="Layer_1" data-name="Layer 1" xmlns="http://www.w3.org/2000/svg" xmlns:xlink="http://www.w3.org/1999/xlink" viewBox="0 0 116.55 146.51"><defs><style>.cls-1,.cls-7,.cls-9{fill:none;}.cls-10,.cls-2{fill:#866678;}.cls-3{fill:#bdcac0;}.cls-3,.cls-4,.cls-6,.cls-9{stroke:#866678;}.cls-3,.cls-4,.cls-5,.cls-6,.cls-7{stroke-miterlimit:10;stroke-width:2px;}.cls-4{fill:#f79e88;}.cls-5{fill:#fff1ea;}.cls-5,.cls-7{stroke:#866779;}.cls-6{fill:#f9deeb;}.cls-8{fill:url(#_10_dpi_30_8);}.cls-9{stroke-linecap:round;stroke-linejoin:round;stroke-dasharray:12 4 3 5;}.cls-10{opacity:0.4;}</style><pattern id="_10_dpi_30_8" data-name="10 dpi 30% 8" width="28.8" height="28.8" patternTransform="matrix(-0.44, 0, 0, 0.44, 133.28, 3.7)" patternUnits="userSpaceOnUse" viewBox="0 0 28.8 28.8"><rect class="cls-1" width="28.8" height="28.8"/><path class="cls-2" d="M28.8,31a2.16,2.16,0,1,0-2.16-2.16A2.16,2.16,0,0,0,28.8,31Z"/><path class="cls-2" d="M14.4,31a2.16,2.16,0,1,0-2.16-2.16A2.16,2.16,0,0,0,14.4,31Z"/><path class="cls-2" d="M28.8,16.56a2.16,2.16,0,1,0-2.16-2.16A2.16,2.16,0,0,0,28.8,16.56Z"/><path class="cls-2" d="M14.4,16.56a2.16,2.16,0,1,0-2.16-2.16A2.16,2.16,0,0,0,14.4,16.56Z"/><path class="cls-2" d="M7.2,23.76A2.16,2.16,0,1,0,5,21.6,2.16,2.16,0,0,0,7.2,23.76Z"/><path class="cls-2" d="M21.6,23.76a2.16,2.16,0,1,0-2.16-2.16A2.16,2.16,0,0,0,21.6,23.76Z"/><path class="cls-2" d="M7.2,9.36A2.16,2.16,0,1,0,5,7.2,2.16,2.16,0,0,0,7.2,9.36Z"/><path class="cls-2" d="M21.6,9.36A2.16,2.16,0,1,0,19.44,7.2,2.16,2.16,0,0,0,21.6,9.36Z"/><path class="cls-2" d="M0,31A2.16,2.16,0,0,0,2.16,28.8,2.16,2.16,0,0,0,0,26.64,2.16,2.16,0,0,0,0,31Z"/><path class="cls-2" d="M0,16.56A2.16,2.16,0,0,0,2.16,14.4,2.16,2.16,0,0,0,0,12.24a2.16,2.16,0,1,0,0,4.32Z"/><path class="cls-2" d="M28.8,2.16A2.16,2.16,0,0,0,31,0a2.16,2.16,0,0,0-4.32,0A2.16,2.16,0,0,0,28.8,2.16Z"/><path class="cls-2" d="M14.4,2.16A2.16,2.16,0,0,0,16.56,0a2.16,2.16,0,1,0-4.32,0A2.16,2.16,0,0,0,14.4,2.16Z"/><path class="cls-2" d="M0,2.16A2.16,2.16,0,0,0,2.16,0,2.16,2.16,0,0,0,0-2.16,2.16,2.16,0,0,0-2.16,0,2.16,2.16,0,0,0,0,2.16Z"/></pattern></defs><title>Topology Website Elements-B</title><path class="cls-3" d="M21.93,87.45q-5.37,18.08-10.73,36.16L39.92,99.32"/><path class="cls-3" d="M78.27,98.65l27.45,25q-4.48-19.23-9-38.45"/><circle class="cls-4" cx="58.28" cy="51.87" r="50.87"/><circle class="cls-5" cx="58.28" cy="51.87" r="34.16"/><circle class="cls-6" cx="58.28" cy="51.87" r="18.22"/><path class="cls-3" d="M104.91,9.94l-7.67,7.38-10.68,3c.63-3.14,1.27-6.29,1.91-9.43C91.25,8.12,94,5.29,96.8,2.48Z"/><path class="cls-7" d="M86.56,20.36Q71.65,35.63,56.75,50.92"/><path class="cls-8" d="M8.31,61.42c1.25.23,0-19.44,12.89-34.84C35.75,9.27,60.94,6.12,81.34,6.52A49.37,49.37,0,0,0,61.57.75C58.9.57,40.91-.42,26.17,12.34c-.18.15-.69.59-1.29,1.15C7.13,30.14,6.73,61.12,8.31,61.42Z"/><path class="cls-8" d="M64.08,34.6a21.25,21.25,0,0,0-10.87,7.29c-5.47,7.25-5.41,18.14.17,27.53A19.25,19.25,0,0,1,42.08,60a18.18,18.18,0,0,1,22-25.39Z"/><path class="cls-9" d="M64.1,97.32A50.74,50.74,0,0,0,90.67,81.88C104,67,103.51,49.17,103.32,45.44"/><path class="cls-9" d="M34.36,34.56A30.79,30.79,0,0,0,39.8,74.79"/><ellipse class="cls-10" cx="58.28" cy="143.14" rx="58.28" ry="3.37"/></svg>