<svg id="Layer_1" data-name="Layer 1" xmlns="http://www.w3.org/2000/svg" xmlns:xlink="http://www.w3.org/1999/xlink" viewBox="0 0 1924.25 1437.44"><defs><style>.cls-1,.cls-11,.cls-21,.cls-30,.cls-31,.cls-9{fill:none;}.cls-19,.cls-2,.cls-23,.cls-25,.cls-8{fill:#866678;}.cls-3{fill:#fff1ea;stroke:#866779;}.cls-12,.cls-27,.cls-3,.cls-31,.cls-9{stroke-miterlimit:10;}.cls-12,.cls-19,.cls-21,.cls-27,.cls-28,.cls-3,.cls-30{stroke-width:2px;}.cls-4{clip-path:url(#clip-path);}.cls-5{fill:#fdd4ba;}.cls-27,.cls-6{fill:#f9deeb;}.cls-7{fill:#deb69d;}.cls-11,.cls-12,.cls-19,.cls-21,.cls-25,.cls-28,.cls-30,.cls-8,.cls-9{stroke:#866678;}.cls-11,.cls-19,.cls-21,.cls-25,.cls-28,.cls-30,.cls-8{stroke-linecap:round;stroke-linejoin:round;}.cls-8{stroke-width:0.75px;}.cls-10{fill:url(#_10_dpi_30_8);}.cls-11,.cls-30{stroke-dasharray:12 4 3 5;}.cls-12{fill:#efe7d3;}.cls-13{fill:url(#_10_dpi_30_8-25);}.cls-14{clip-path:url(#clip-path-2);}.cls-15{fill:#9da59e;}.cls-16{fill:#fbedf5;}.cls-17{fill:#d4c0de;}.cls-18{fill:#f79e88;}.cls-20{fill:#bdcac0;}.cls-22{fill:url(#_10_dpi_30_8-27);}.cls-23{opacity:0.45;}.cls-24{opacity:0.08;}.cls-25{stroke-width:0.5px;}.cls-26{clip-path:url(#clip-path-3);}.cls-27{stroke:#856779;}.cls-28{fill:#fbeef5;}.cls-29{fill:url(#_10_dpi_30_8-29);}.cls-31{stroke:#866778;stroke-width:6px;}</style><clipPath id="clip-path"><rect class="cls-1" x="1.06" y="30.9" width="1917.74" height="922.75" transform="translate(1919.85 984.55) rotate(180)"/></clipPath><pattern id="_10_dpi_30_8" data-name="10 dpi 30% 8" width="28.8" height="28.8" patternTransform="matrix(-0.54, 0, 0, 0.54, 166.33, -295.66)" patternUnits="userSpaceOnUse" viewBox="0 0 28.8 28.8"><rect class="cls-1" width="28.8" height="28.8"/><path class="cls-2" d="M28.8,31a2.16,2.16,0,1,0-2.16-2.16A2.16,2.16,0,0,0,28.8,31Z"/><path class="cls-2" d="M14.4,31a2.16,2.16,0,1,0-2.16-2.16A2.16,2.16,0,0,0,14.4,31Z"/><path class="cls-2" d="M28.8,16.56a2.16,2.16,0,1,0-2.16-2.16A2.16,2.16,0,0,0,28.8,16.56Z"/><path class="cls-2" d="M14.4,16.56a2.16,2.16,0,1,0-2.16-2.16A2.16,2.16,0,0,0,14.4,16.56Z"/><path class="cls-2" d="M7.2,23.76A2.16,2.16,0,1,0,5,21.6,2.16,2.16,0,0,0,7.2,23.76Z"/><path class="cls-2" d="M21.6,23.76a2.16,2.16,0,1,0-2.16-2.16A2.16,2.16,0,0,0,21.6,23.76Z"/><path class="cls-2" d="M7.2,9.36A2.16,2.16,0,1,0,5,7.2,2.16,2.16,0,0,0,7.2,9.36Z"/><path class="cls-2" d="M21.6,9.36A2.16,2.16,0,1,0,19.44,7.2,2.16,2.16,0,0,0,21.6,9.36Z"/><path class="cls-2" d="M0,31A2.16,2.16,0,0,0,2.16,28.8,2.16,2.16,0,0,0,0,26.64,2.16,2.16,0,0,0,0,31Z"/><path class="cls-2" d="M0,16.56A2.16,2.16,0,0,0,2.16,14.4,2.16,2.16,0,0,0,0,12.24a2.16,2.16,0,1,0,0,4.32Z"/><path class="cls-2" d="M28.8,2.16A2.16,2.16,0,0,0,31,0a2.16,2.16,0,0,0-4.32,0A2.16,2.16,0,0,0,28.8,2.16Z"/><path class="cls-2" d="M14.4,2.16A2.16,2.16,0,0,0,16.56,0a2.16,2.16,0,1,0-4.32,0A2.16,2.16,0,0,0,14.4,2.16Z"/><path class="cls-2" d="M0,2.16A2.16,2.16,0,0,0,2.16,0,2.16,2.16,0,0,0,0-2.16,2.16,2.16,0,0,0-2.16,0,2.16,2.16,0,0,0,0,2.16Z"/></pattern><pattern id="_10_dpi_30_8-25" data-name="10 dpi 30% 8" width="28.8" height="28.8" patternTransform="matrix(-0.98, 0, 0, 0.98, 245.41, -31.09)" patternUnits="userSpaceOnUse" viewBox="0 0 28.8 28.8"><rect class="cls-1" width="28.8" height="28.8"/><path class="cls-2" d="M28.8,31a2.16,2.16,0,1,0-2.16-2.16A2.16,2.16,0,0,0,28.8,31Z"/><path class="cls-2" d="M14.4,31a2.16,2.16,0,1,0-2.16-2.16A2.16,2.16,0,0,0,14.4,31Z"/><path class="cls-2" d="M28.8,16.56a2.16,2.16,0,1,0-2.16-2.16A2.16,2.16,0,0,0,28.8,16.56Z"/><path class="cls-2" d="M14.4,16.56a2.16,2.16,0,1,0-2.16-2.16A2.16,2.16,0,0,0,14.4,16.56Z"/><path class="cls-2" d="M7.2,23.76A2.16,2.16,0,1,0,5,21.6,2.16,2.16,0,0,0,7.2,23.76Z"/><path class="cls-2" d="M21.6,23.76a2.16,2.16,0,1,0-2.16-2.16A2.16,2.16,0,0,0,21.6,23.76Z"/><path class="cls-2" d="M7.2,9.36A2.16,2.16,0,1,0,5,7.2,2.16,2.16,0,0,0,7.2,9.36Z"/><path class="cls-2" d="M21.6,9.36A2.16,2.16,0,1,0,19.44,7.2,2.16,2.16,0,0,0,21.6,9.36Z"/><path class="cls-2" d="M0,31A2.16,2.16,0,0,0,2.16,28.8,2.16,2.16,0,0,0,0,26.64,2.16,2.16,0,0,0,0,31Z"/><path class="cls-2" d="M0,16.56A2.16,2.16,0,0,0,2.16,14.4,2.16,2.16,0,0,0,0,12.24a2.16,2.16,0,1,0,0,4.32Z"/><path class="cls-2" d="M28.8,2.16A2.16,2.16,0,0,0,31,0a2.16,2.16,0,0,0-4.32,0A2.16,2.16,0,0,0,28.8,2.16Z"/><path class="cls-2" d="M14.4,2.16A2.16,2.16,0,0,0,16.56,0a2.16,2.16,0,1,0-4.32,0A2.16,2.16,0,0,0,14.4,2.16Z"/><path class="cls-2" d="M0,2.16A2.16,2.16,0,0,0,2.16,0,2.16,2.16,0,0,0,0-2.16,2.16,2.16,0,0,0-2.16,0,2.16,2.16,0,0,0,0,2.16Z"/></pattern><clipPath id="clip-path-2"><rect class="cls-1" x="3.88" y="245.59" width="1914.01" height="1379.52"/></clipPath><pattern id="_10_dpi_30_8-27" data-name="10 dpi 30% 8" width="28.8" height="28.8" patternTransform="translate(64.3 360.65) scale(1.03)" patternUnits="userSpaceOnUse" viewBox="0 0 28.8 28.8"><rect class="cls-1" width="28.8" height="28.8"/><path class="cls-2" d="M28.8,31a2.16,2.16,0,1,0-2.16-2.16A2.16,2.16,0,0,0,28.8,31Z"/><path class="cls-2" d="M14.4,31a2.16,2.16,0,1,0-2.16-2.16A2.16,2.16,0,0,0,14.4,31Z"/><path class="cls-2" d="M28.8,16.56a2.16,2.16,0,1,0-2.16-2.16A2.16,2.16,0,0,0,28.8,16.56Z"/><path class="cls-2" d="M14.4,16.56a2.16,2.16,0,1,0-2.16-2.16A2.16,2.16,0,0,0,14.4,16.56Z"/><path class="cls-2" d="M7.2,23.76A2.16,2.16,0,1,0,5,21.6,2.16,2.16,0,0,0,7.2,23.76Z"/><path class="cls-2" d="M21.6,23.76a2.16,2.16,0,1,0-2.16-2.16A2.16,2.16,0,0,0,21.6,23.76Z"/><path class="cls-2" d="M7.2,9.36A2.16,2.16,0,1,0,5,7.2,2.16,2.16,0,0,0,7.2,9.36Z"/><path class="cls-2" d="M21.6,9.36A2.16,2.16,0,1,0,19.44,7.2,2.16,2.16,0,0,0,21.6,9.36Z"/><path class="cls-2" d="M0,31A2.16,2.16,0,0,0,2.16,28.8,2.16,2.16,0,0,0,0,26.64,2.16,2.16,0,0,0,0,31Z"/><path class="cls-2" d="M0,16.56A2.16,2.16,0,0,0,2.16,14.4,2.16,2.16,0,0,0,0,12.24a2.16,2.16,0,1,0,0,4.32Z"/><path class="cls-2" d="M28.8,2.16A2.16,2.16,0,0,0,31,0a2.16,2.16,0,0,0-4.32,0A2.16,2.16,0,0,0,28.8,2.16Z"/><path class="cls-2" d="M14.4,2.16A2.16,2.16,0,0,0,16.56,0a2.16,2.16,0,1,0-4.32,0A2.16,2.16,0,0,0,14.4,2.16Z"/><path class="cls-2" d="M0,2.16A2.16,2.16,0,0,0,2.16,0,2.16,2.16,0,0,0,0-2.16,2.16,2.16,0,0,0-2.16,0,2.16,2.16,0,0,0,0,2.16Z"/></pattern><clipPath id="clip-path-3"><rect class="cls-1" x="286.63" y="3" width="1399.09" height="529.99"/></clipPath><pattern id="_10_dpi_30_8-29" data-name="10 dpi 30% 8" width="28.8" height="28.8" patternTransform="translate(112.51 -93.01) scale(0.62)" patternUnits="userSpaceOnUse" viewBox="0 0 28.8 28.8"><rect class="cls-1" width="28.8" height="28.8"/><path class="cls-2" d="M28.8,31a2.16,2.16,0,1,0-2.16-2.16A2.16,2.16,0,0,0,28.8,31Z"/><path class="cls-2" d="M14.4,31a2.16,2.16,0,1,0-2.16-2.16A2.16,2.16,0,0,0,14.4,31Z"/><path class="cls-2" d="M28.8,16.56a2.16,2.16,0,1,0-2.16-2.16A2.16,2.16,0,0,0,28.8,16.56Z"/><path class="cls-2" d="M14.4,16.56a2.16,2.16,0,1,0-2.16-2.16A2.16,2.16,0,0,0,14.4,16.56Z"/><path class="cls-2" d="M7.2,23.76A2.16,2.16,0,1,0,5,21.6,2.16,2.16,0,0,0,7.2,23.76Z"/><path class="cls-2" d="M21.6,23.76a2.16,2.16,0,1,0-2.16-2.16A2.16,2.16,0,0,0,21.6,23.76Z"/><path class="cls-2" d="M7.2,9.36A2.16,2.16,0,1,0,5,7.2,2.16,2.16,0,0,0,7.2,9.36Z"/><path class="cls-2" d="M21.6,9.36A2.16,2.16,0,1,0,19.44,7.2,2.16,2.16,0,0,0,21.6,9.36Z"/><path class="cls-2" d="M0,31A2.16,2.16,0,0,0,2.16,28.8,2.16,2.16,0,0,0,0,26.64,2.16,2.16,0,0,0,0,31Z"/><path class="cls-2" d="M0,16.56A2.16,2.16,0,0,0,2.16,14.4,2.16,2.16,0,0,0,0,12.24a2.16,2.16,0,1,0,0,4.32Z"/><path class="cls-2" d="M28.8,2.16A2.16,2.16,0,0,0,31,0a2.16,2.16,0,0,0-4.32,0A2.16,2.16,0,0,0,28.8,2.16Z"/><path class="cls-2" d="M14.4,2.16A2.16,2.16,0,0,0,16.56,0a2.16,2.16,0,1,0-4.32,0A2.16,2.16,0,0,0,14.4,2.16Z"/><path class="cls-2" d="M0,2.16A2.16,2.16,0,0,0,2.16,0,2.16,2.16,0,0,0,0-2.16,2.16,2.16,0,0,0-2.16,0,2.16,2.16,0,0,0,0,2.16Z"/></pattern></defs><title>Topology Website Elements</title><rect class="cls-3" x="8.03" y="3" width="1913.22" height="1135.35"/><g class="cls-4"><path class="cls-5" d="M-128.73,561.12c9-4.75,19.47-6.11,29.15-9.19,3.32-1,6.59-2.22,9.86-3.4,12.65-2,25-4.43,37.23-8.68,4.42-.43,8.86-.81,13.26-1.35,9.71-1.17,19.55-1.53,29-3.54H108.41c8.3,2.61,16.42,5.75,24.58,8.84,11.66,4.41,23.5,8.14,35.53,11.41,12.51,3.4,25.13,6.5,37.44,10.61,12,4,22.83,10.75,34.58,15.43,5.35,2.13,9.24-1.63,10-6,4,1.57,7.85,3.31,11.64,5.27a9.34,9.34,0,0,0,5.24,5.55c10.17,4.66,19.95,9.15,31.2,10.37a7.48,7.48,0,0,0,4.14-.63c4,2.22,8.69,2.83,13,4,4.66,1.3,9.66,2.07,14.1,4.27a10.65,10.65,0,0,0,5.28,1.17,113.09,113.09,0,0,0,20.62,5.49c4.54.68,8.75,2.43,13.21,2.76a6.91,6.91,0,0,0,4.92,1.08,7.48,7.48,0,0,0,2.12.27l.28.12c6.68,2.56,14.29,3.22,21.39,5.13a8.14,8.14,0,0,0,4.41,0c1.32.39,2.43,1.12,4.1,1.24.54,0,3.15.08,2.91-.08a15.06,15.06,0,0,1,2.66.78,6.71,6.71,0,0,0,3.23.46,11.51,11.51,0,0,0,2.88.9,163.37,163.37,0,0,0,18.26,2.34c6.37.4,12.95,2,19.3,1.39l.15,0a58,58,0,0,1,8.26,1.27c4.63,1.25,8.76.08,13.4.35,5.44.31,11.87,2.78,17.18.92a10.28,10.28,0,0,0,1.15.16c2.16.16,4.11.2,6.07.29a7.17,7.17,0,0,0,5.18.46l.31.05a13.9,13.9,0,0,0,6.45-.22c.85.13,1.7.29,2.57.44,3.64.65,7.16.23,10.76.64s6.88.81,9.67.06a38.21,38.21,0,0,0,7.48,1.19c3.53.15,7-.71,10.52-.38,6.62.64,14.27,1.86,20.85.66l.1,0a9.36,9.36,0,0,0,1.56.37c8.17,1.18,16.6.35,24.82.34,4.09,0,8.22.81,12.28.47a11.79,11.79,0,0,0,1.4-.2,9.12,9.12,0,0,0,2.34.64c4.58.6,9.08-.29,13.67-.22,4,0,8,.52,12,.81a100.22,100.22,0,0,0,21.56-.29,8.17,8.17,0,0,0,3,.56,8.53,8.53,0,0,0,2.86-.47c8.18.76,16.86,1.51,26.72,1.55,12.44.05,11.27-.63,21.71-.35,16.77.44,24.76,2.32,26.8.14a7.83,7.83,0,0,0,1.37.22c1.85.12,3.67.55,5.53.63a16.52,16.52,0,0,0,4.43-.4c.32,0,.65.08,1,.09,3.88.14,7.43,1.58,11.46,1.32s8.09-1.14,11.86-1c4.17.1,8.35.56,12.53.65a33.23,33.23,0,0,0,6.46-.11,7.24,7.24,0,0,0,5.44-.3c.75.14,1.5.27,2.26.35,1.31.12,2.67,0,4,0,2.81,0,5.56,0,8.36.19a50.28,50.28,0,0,0,8.29.22,8.25,8.25,0,0,0,2.79.52c2.74,0,5.46-.56,8.17-.37s5.24.73,8,.73,5.4-.27,8.06-.06c2.25.18,4.42.92,6.69,1.08,5.21.39,10.54-.71,15.76-.69,2.44,0,4.61.84,7,1.12,2.63.3,5.35.1,8,.14a8,8,0,0,0,2.58-.38c2.63.88,5.38.69,8.34.59a67.81,67.81,0,0,1,11.64.88c4.55.64,9.21,1.86,13.82,2,4.15.11,8.41-.3,12.59-.3a10,10,0,0,0,2.54-.32c.87.18,1.74.36,2.61.56a13.56,13.56,0,0,0,4.29.9,9.45,9.45,0,0,0,2.84-.28,22.39,22.39,0,0,0,7.09.76h.09c3,.32,6,.59,9.06.74,3.67.19,7.33,1.37,11,1.41.18,0,.35,0,.53,0a7.27,7.27,0,0,0,.83.43c2,.89,3.83.7,5.88,1s4.06,1.09,6.17,1.34,4.19-.06,6.3.06c2.4.14,4.59.87,7,1.18a7.69,7.69,0,0,0,1,.06c3.69,1.53,7.3,1.43,11.22,1.71a17.87,17.87,0,0,0,6.63,1.33c1.23.34,2.46.69,3.71,1,8.3,1.79,16.46,3.56,24.61,6,15.78,4.72,31.31,11.87,47.81,13.59a6.83,6.83,0,0,0,7.48-4.32,37.48,37.48,0,0,0,5.67-.41,7.08,7.08,0,0,0,5-3c7.54-.4,15-1.44,22-4.58a7,7,0,0,0,3.93-9.23,15.05,15.05,0,0,0,7-5.68,77.61,77.61,0,0,0,14.54-7.73,5.84,5.84,0,0,0,1.24-1.19,57.42,57.42,0,0,0,14.73-9.91,10.7,10.7,0,0,0,.93-1,46.65,46.65,0,0,0,8.54-4.13c.44-.28.85-.58,1.24-.88a26.38,26.38,0,0,0,11.9-4.9c2.56-1.84,5.09-3.71,7.79-5.32a40.18,40.18,0,0,0,7.71-2.79,15.28,15.28,0,0,0,1.55-.88c1.87-.25,3.73-.28,5.69-.65a16.24,16.24,0,0,0,3-.91c6,1.62,12.23,2.07,18.39,3a10.38,10.38,0,0,0,7.47-2c5.78,1,11.64,1.67,17.27,2.38a14.65,14.65,0,0,0,1.42.75c18.18,8.57,37.61,13.38,57.1,17.89,34.26,13.28,69,25.16,106.38,21.49a10,10,0,0,0,7.2-4c1.31.45,2.61.9,3.91,1.38,8.79,3.23,17.43,6.84,26.65,8.65a153.15,153.15,0,0,0,25.8,2.82c13,.33,26.52-.73,38.89-5,9.5,1.93,18.56.29,28.15-.5,9.79-.82,18.73-3.82,27.71-7.54a12,12,0,0,0,7.45-1.47c4.12-2.22,8.59-3.57,12.75-5.67,2.89-1.45,6.33-1.52,9.73-2.54,4.15-1.24,7.67-3.66,11.79-5,4.5-1.42,8.93-3.07,12.4-6.32a27.16,27.16,0,0,0,6-2c2.66-1.35,4.94-3.3,7.44-4.92a35.28,35.28,0,0,0,4.84-3.09,12.46,12.46,0,0,0,2.61-2.69,44.83,44.83,0,0,0,4.47-2.58c5.75-3.8,11.53-9.11,17.74-11.94a13.69,13.69,0,0,0,3-1.9,37,37,0,0,0,9.51-3.24c5.52-2.78,11-6,16.33-9.07,2.67-1.56,3.91-1.41,7.19-1.77,2.9-.31,5.57-1.2,8.41-1.78,6.64-1.36,13.41-1.15,20-3a13.89,13.89,0,0,0,8-5.69c.54-.13,1.08-.28,1.61-.46,7.4-2.49,13.36-8,20.7-10.4,7.11-2.31,14.8-2.14,22.17-2.4,9.36-.33,17.8-2.79,26.29-6.71.26-.13.5-.26.74-.4.72,0,1.45.08,2.17.11,1.46.25,2.94.55,4.51.92a117.08,117.08,0,0,0,28.13,3.08c8.37,0,16.16,3.81,24.11,6.18,8.19,2.45,17.62,7,26.27,6.45h.08l.83.53a11.94,11.94,0,0,0,10.21,1.48c8.58,3.61,17,7.67,25.39,11.7a10,10,0,0,0,8.47-.18c15.82,7,31.54,14.07,48,19.57,9.86,3.3,20.07,5.81,29.66,9.85,4.78,2,9.41,4,14.15,5.61V965.82H-147V568.7C-140.76,567.08-135,564.39-128.73,561.12Z"/><path class="cls-6" d="M1121.16,666.8a6.53,6.53,0,0,1,2-1.67c.4-.43.81-.85,1.25-1.24a13,13,0,0,1,3.18-2.3,9,9,0,0,1,5.07-.93c3.38-2.71,7.3-3.57,11.39-4.93,4.79-2.76,8.81-6.45,14-8.64a5,5,0,0,1,.55-.17c.18-.23.37-.46.54-.7a7,7,0,0,1,.43-.63c.28-.33.56-.67.83-1a6.08,6.08,0,0,1,6-2.2,8.08,8.08,0,0,1,3.54-2.15,5.46,5.46,0,0,1,1.19-.24c.48-.35.94-.67,1.33-.93,3.3-2.18,6.59-4.37,9.9-6.54a7.45,7.45,0,0,1,2.65-1.11c4.61-4.19,10.39-6.52,16.44-9.94,4.46-2.53,8.88-5.22,13.3-7.84a26,26,0,0,1,6.12-2.83c2.27-.65,5-.52,7.16-1.44,3.75-1.59,8-1.09,10.25,2.69,1.87,3.13,1,8.67-2.69,10.25-3.9,1.65-8.43,1.69-12.14,3.54s-7.52,4.33-11.15,6.54c-.72.44-1.46.85-2.21,1.25a7.87,7.87,0,0,1,2.08-.07c17.21,1.66,33.94,5.54,51.25,6.33a69.1,69.1,0,0,1,41.15,15.37c5.93,4.9,10.87,10.66,17.81,14.19,6.7,3.41,12.27,7.61,18.38,11.93,6.44,4.54,13.66,5.82,21.39,6.72,8.84,1,17.65,2,26.44,3.44a6,6,0,0,1,5.41,6.55c6.43-.12,12.87,0,19.29-.53,9.6-.85,9.54,14.14,0,15-8.91.79-17.84.17-26.75.87-8.23.64-16.35,2.35-24.64,1.47s-16.08-3.73-24.49-4.27l-.47,0c-4,1.85-8.51,1.6-12.9,1.84l-.28.11c-9.2,2.87-18.16,6.44-27.33,9.38-6.85,2.19-12,6-18.9,5.49a7.72,7.72,0,0,1-8.34,1.15,147.36,147.36,0,0,0-26.62-9.3c-9.66-2.3-19-3.73-28.11-7.69-4.31-1.88-8.87-2.16-13.41-3.31-5.17-1.3-10.38-3-15.43-4.66-9.31-3.16-19-5.81-28-9.68a42.54,42.54,0,0,1-6.74-2.38c-2.8-1.2-5.43-1.57-8.39-2.34-1.51-.4-3-.86-4.56-1.37a5.63,5.63,0,0,1-3.14-.28c-2-.81-4-2.17-6.1-3.18l-2.56-1a7.83,7.83,0,0,1-4.95-5.82C1118.34,674.64,1117.56,669.73,1121.16,666.8Zm174.72,1A10.36,10.36,0,0,1,1296,669l2.48,1C1297.62,669.24,1296.75,668.53,1295.88,667.83Zm-122,2.77a2.81,2.81,0,0,0,.23-.71l-.63.29a1.34,1.34,0,0,0-.52.21C1173.32,670.45,1173.62,670.53,1173.93,670.6Z"/><path class="cls-6" d="M1342.75,854c28.27-10.87,92.45-35.1,173.12-44.42,31-3.58,72.51-8.11,125.62-1.3,49.79,6.38,128.81,16.52,194.6,77.45a270,270,0,0,1,58.09,78.1H1739.6c-21.08-24-56.35-58.48-99.74-77.94-26.64-11.94-58.58-19.85-58.58-19.85a396.38,396.38,0,0,0-56.13-9.44c-28.43-3.07-48.78-2.94-77.62-2.76-51.68.32-87.48,4.29-97.19,5.42-12.81,1.49-23.51,3-31.13,4.23C1324.67,861.23,1332.81,857.86,1342.75,854Z"/><path class="cls-7" d="M2079.73,620.87c-37.52-11.51-67.5-21.86-87.65-29.07-35.95-12.86-52.22-19.86-79.84-26.9a439.4,439.4,0,0,0-72.46-12.15L1820,568.81c28.33,2.91,40.2,12.6,45.77,21,5.39,8.16,4.86,15.1,15.41,37.53,4.91,10.45,7.37,15.67,10.63,19.53,8.3,9.82,19.68,13.62,42.09,20.82,15.17,4.88,30.12,10.56,45.56,14.54,21,5.43,51.74,13.78,93.07,26.47Q2076.14,664.81,2079.73,620.87Z"/><path class="cls-7" d="M1500.69,781.63q-37.59-6.75-76.59-14.75-34.2-7-67-14.53-55.56,7.27-113.9,16.92s-31-2-75.5,13.45a21.9,21.9,0,0,0-8.62,5.26c-4.65,4.72-4.42,9.27-6.51,13.5-2.64,5.33-8.49,9.14-31.57,14.32-17.65,4-31.08,5.52-31.24,5.54-27.58,3.18-31.47,6.48-58.09,10.73a429.76,429.76,0,0,1-67.52,5.37c-48.44,0-83.45-8.71-91.94-10.9a335.48,335.48,0,0,1-35.79-11.39,683.16,683.16,0,0,1-111.3,27c-28.69,4.42-61.22,7.49-115,17.79-50,9.59-70.82,16.32-71.16,24.73-.2,4.83,6.35,8.72,14.32,13,38.68,20.86,69.47,28.88,88.51,36.45,15.45,6.14,36.79,17.42,59.45,39.92l370.55,3,43-33q58.63-20.8,119.33-44.69C1329.21,861.88,1418.1,822.15,1500.69,781.63Z"/><path class="cls-6" d="M381.44,922.87a111.27,111.27,0,0,1,2-47.51c14.12-52.78,64-75.75,72.24-79.41-21.56-10.62-53-26-91.12-44.26-82.29-39.4-123.43-59.1-166.61-76.8C119.4,642.73,80.14,626.65,26.73,617.62c-43.26-7.31-111.94-12.85-199.16,6.51q-9.76-15.95-19.52-31.89c4.78-2.92,11.3-6.74,19.2-10.91a394,394,0,0,1,48.16-21.15A430.08,430.08,0,0,1-75.94,545.7a436,436,0,0,1,53.53-9.11c49.61-13.93,89.48-13.42,114.55-11.07,39.93,3.76,69.73,14.78,126.27,36.13,39.35,14.86,70.91,29.2,92.09,39.37,36.09,13.57,57.36,20.86,70.46,25.06,9.17,2.95,18.22,6.32,27.49,8.95,8.37,2.37,16.45,5.66,24.74,8.3a41.88,41.88,0,0,1,10.57,5.2c3,2,8.84,6,8.14,9.44-.34,1.67-1.92,1.64-7.32,6-4.13,3.34-4.65,4.53-4.88,5.37a7.75,7.75,0,0,0,2.11,7.32c2.4,2.31,5.53,1.8,9.11,2.12,6.1.55,8.66,3.08,15.79,6.67,7.64,3.86,13.77,5.53,23.91,8.3,11.52,3.14,17.06,2.88,30.43,4.55,14,1.75,21.06,3.67,38.08,7.33,42.62,9.15,57.83,9.9,108,20.66,46.72,10,70.07,15,98.28,25.38,25.33,9.32,29.2,13.6,49,18a145,145,0,0,1,35.58,12.58c14.67,7.5,16.4,11.68,16.48,14.32.21,6.17-8.3,11.42-16.92,15.62-27.15,13.25-51.94,14.51-67.25,16.06-25.93,2.62-18.4,5.5-72.46,16.49-64,13-74.39,8.45-144.28,21.69-19.25,3.65-41.61,7.93-70.07,15.62A762.78,762.78,0,0,0,381.44,922.87Z"/><path class="cls-2" d="M2089.26,741.7c-10.77,5.72-21.44,3.2-32.11,3.1-10.67-.54-21.34-1.15-32-2s-21.27-1.94-31.89-3.17-21.22-2.72-31.78-4.42-21.06-3.74-31.5-5.73-20.87-3.88-31.34-5.54-21-3.12-31.54-4.59-21.07-2.75-31.63-3.85a582.17,582.17,0,0,0-63.58-3.31c-10.61,0-21.22.46-31.82,1.14s-21.16,1.7-31.69,3A532.56,532.56,0,0,0,1645.8,728c-10.31,2.55-20.55,5.39-30.77,8.34s-20.36,6.09-30.37,9.63c-20,7-39.42,15.84-58.76,24.69L1468,797.49c-38.67,17.8-77.4,35.45-116.37,52.57s-78.21,33.63-117.72,49.44-79.33,30.89-119.41,45.23l-.34-.94q120.24-42.9,237.08-94.63c38.92-17.19,77.62-34.92,116.24-52.79l57.83-27c19.3-8.93,38.68-17.85,58.79-25,10-3.61,20.21-6.79,30.43-9.8s20.47-5.9,30.8-8.51a535.31,535.31,0,0,1,62.79-12c42.31-5.59,85.22-5.61,127.71-2.08,10.63.84,21.24,1.92,31.84,3s21.18,2.18,31.79,3.49,21.17,2.83,31.7,4.46,21,3.24,31.5,4.61,21,2.53,31.56,3.52,21.11,1.91,31.68,2.64,21.14,1.42,31.72,1.91c10.59.91,21.19-.89,31.69,5.21Z"/><path class="cls-8" d="M836.93,822.6A227.31,227.31,0,0,0,868.62,833c9,2.24,16.52,3.54,21.61,4.3a241,241,0,0,0,29,2.41c31.57.92,63.18.17,94.71-1.43,41.88-2.13,84.44-12.69,124.62-23.79,0,0,28.23-7.79,27.06-17.92-.17-1.44-1.35-3.86-.19-6.21s4.15-3.08,5.19-3.33c5.82-1.43,84-15.38,190.94-34.15q-16.15-3.92-30.66-7.68c-42.76,7.51-73.16,11.67-95.14,14.19-22.63,2.59-44.06,13.31-66.81,14.33-3.08.12-15.31.53-18.66,7.37-2,4.07.42,7.82-2.17,12.58-3.84,7-14.57,8.5-21.5,10.64-66.38,20.4-104,34.15-205.45,22.93A552.31,552.31,0,0,1,855.94,816C849.73,818.49,843.37,820.66,836.93,822.6Z"/><path class="cls-9" d="M-193.91,592.81a430.8,430.8,0,0,1,38.83-20.06l.33-.15.09,0A429.37,429.37,0,0,1-27,537.24c7.48-.87,14.73-1.52,21.71-2h0c36.43-2.48,65.61,0,83.42,1.58,39.83,3.62,70.15,11,93.72,16.93,50,12.47,65.18,21.91,113.51,37.3l.05,0c4.38,1.39,9,2.83,14,4.33,11.49,3.46,30.27,9.07,54,14.86,19.78,4.84,43,9.81,68.33,13.77,7.3,1.15,19.49,3,53,5,21.32,1.31,51.28,2.72,94.07,4.12,25.61.84,51.77,1.54,120.29,2.83,17,.32,36.54.67,59.35,1.08l7.44.12c80.33,1.41,88.6,1.43,113.61,2.48C971.76,643.94,1010,651,1034.9,656.59c17.53,4,23.8,6.2,59.32,17.58h0c7.45,2.38,16.18,5.17,26.58,8.46,27.32,8.64,90.29,28.54,144.84,44.51h0c10.73,3.14,21.14,6.13,30.88,8.85q15.8,4.41,34.39,9.24"/><path class="cls-9" d="M1361.59,752.91c39.47,9.52,86.22,19.49,139.55,28.45h0l1.06.19"/><path class="cls-2" d="M1264.07,726.39c.18.47.45.33.69.4l.74.1,1.49.19c1,.11,2,.2,3,.25a51.7,51.7,0,0,0,6,0,47.14,47.14,0,0,0,11.68-2c3.77-1.2,7.37-3,11.09-4.47s7.47-2.94,11.27-4.23,7.55-2.66,11.51-3.62a61.13,61.13,0,0,1,12-1.59,69.34,69.34,0,0,1,12.14.72c2,.28,4,.64,6,1s3.88.64,5.84.82c7.81.75,15.77.15,23.72-.44l11.93-1c4-.36,7.94-.66,11.88-1.15,7.89-.93,15.73-2.26,23.49-3.93,3.88-.83,7.74-1.78,11.58-2.78l2.88-.77c1-.26,1.9-.56,2.87-.77a17,17,0,0,1,6.12-.35l.3.95c-3.3,2.93-7.34,3.58-11.22,4.63s-7.82,1.9-11.77,2.7c-7.89,1.62-15.85,2.9-23.86,3.76-4,.44-8,.77-12,1l-12,.76c-4,.23-8,.43-12.05.47a93.37,93.37,0,0,1-12.15-.54c-2-.23-4-.58-6-1s-3.91-.8-5.85-1.13a67.32,67.32,0,0,0-11.76-1,59.37,59.37,0,0,0-11.73,1.24c-3.84.84-7.63,2.11-11.45,3.3s-7.56,2.53-11.27,4-7.36,3.12-11.25,4.28A48.22,48.22,0,0,1,1276,728a57.55,57.55,0,0,1-6-.15c-1-.08-2-.19-3-.32l-1.49-.21-.74-.13c-.25,0-.47-.21-.79.18Z"/><path class="cls-2" d="M1591.87,650.05l14.22-5.62c4.76-1.84,9.57-3.51,14.38-5.19,9.61-3.37,19.4-6.26,28.55-10.66a145.05,145.05,0,0,0,13.36-7.28c4.33-2.64,8.34-5.73,12.42-8.8s8.3-6,12.62-8.66l3.26-2,3.32-1.91,3.32-1.91,1.66-1,.83-.48.41-.24.21-.12.1-.06.06,0a.66.66,0,0,1,.26-.07h0l-.36.15a.68.68,0,0,1,.4-.17l-.24.06c8.1-4.27,16.44-8.05,24.85-11.61s16.78-7.23,25.19-10.8,16.81-7.15,25.35-10.42a158.7,158.7,0,0,1,26.25-8l-.09,0a6.91,6.91,0,0,1,.68-.14l.59-.11,1.17-.21,2.36-.4c1.58-.26,3.16-.47,4.73-.71,3.17-.42,6.34-.77,9.52-1a182.51,182.51,0,0,1,19.14-.51c12.79.31,25.46,2,38.08,3.71,6.32.93,12.61,2.08,18.84,3.5s12.41,3,18.56,4.73,12.25,3.49,18.36,5.29,12.22,3.64,18.29,5.61c12.15,3.89,24.17,8.22,36.09,12.7s23.79,8.94,35.83,12.9a671.06,671.06,0,0,0,73.4,19.59l-1.56,7a714.08,714.08,0,0,1-73.48-21.84c-12-4.27-23.9-9-35.72-13.73s-23.64-9.28-35.64-13.41-24.14-7.9-36.32-11.53c-6.09-1.79-12.19-3.52-18.35-5s-12.37-2.73-18.62-3.76c-12.55-2-25.14-3.78-37.81-4.28a179.76,179.76,0,0,0-19,.21c-3.17.21-6.32.5-9.47.87-1.57.22-3.15.4-4.72.63l-2.35.37-1.17.19-1.09.19-.08,0a157.08,157.08,0,0,0-26.17,7.74c-8.54,3.21-17,6.7-25.38,10.29s-16.79,7.19-25.15,10.86-16.67,7.46-24.63,11.91l-.24.06a.38.38,0,0,0,.31-.12l-.35.14h0a.38.38,0,0,0,.16,0l0,0-.11.06-.2.12-.42.24-.82.47-1.65.95-3.3,1.9-3.3,1.89-3.25,2q-6.45,4.05-12.56,8.62a151.13,151.13,0,0,1-12.49,8.85,141.11,141.11,0,0,1-13.45,7.33c-9.24,4.45-19.07,7.34-28.65,10.71-4.8,1.67-9.62,3.34-14.36,5.18L1592.26,651Z"/><path class="cls-8" d="M1201.84,631.53c.34,4.06,7.45,6.6,12.7,8.46,7.26,2.6,12.29,2.76,21.15,3.91,0,0,3.12.4,19.2,3.25,28.42,5,32,14.8,59.23,21.81,6,1.53,15.81,3.64,19.52,10.4a23.77,23.77,0,0,0,4.88,6.84,22.94,22.94,0,0,0,7.15,4.56,99.66,99.66,0,0,0,22.47,5.86c13,1.6,17.77,4.85,28,7.48,11.19,2.88,28.51,4.93,55.11.78h0c10.36-2.71,19.42-5.57,26.85-7.94,6.7-2.13,31.8-12.48,82-33.19,16.42-6.77,25.81-10.7,31.93-13.23a467.1,467.1,0,0,1-70.76,4.77c-7.09-.06-40.28-.52-86.35-8.68-20.42-3.62-63.53-11.26-111.07-26.9a218.16,218.16,0,0,0-48.17-10.85c-10.59-1.11-21.28-2.23-33.72-.9a170.74,170.74,0,0,0-30.06,13.81C1205.29,625.64,1201.58,628.46,1201.84,631.53Z"/><path class="cls-2" d="M1093.33,673.89a265.32,265.32,0,0,0,38-14.65c6.15-2.88,12.2-6,18.09-9.35s11.55-7.14,17.41-10.68,11.84-6.89,17.8-10.18,12-6.58,18-9.71a151.64,151.64,0,0,1,18.87-8.35,86.33,86.33,0,0,1,10-2.8,29.67,29.67,0,0,1,10.34-.7l.1,1a69.33,69.33,0,0,1-9.85,2.49,83.68,83.68,0,0,0-9.69,2.66,149.89,149.89,0,0,0-18.55,8.13c-6,3.07-12,6.32-18,9.59s-11.93,6.55-17.79,10-11.58,7.16-17.59,10.48-12.13,6.37-18.37,9.19a264.6,264.6,0,0,1-38.57,13.85Z"/><path class="cls-9" d="M1592.06,650.52c1-.14,2-.29,3-.44"/><path class="cls-10" d="M-177.64,629.33c4.67-2.28,9.88-4.7,15.6-7.16a339.66,339.66,0,0,1,99.6-26C6.93,589,60.84,605.53,99,617.62c19.91,6.31,63.39,27.86,150.35,70.94,107.26,53.15,110.29,58.52,132.45,62.8,11.29,2.19,28.14,9.82,61.83,25.07,8.62,3.9,19.88,9.19,21.48,18.55,1.33,7.78-4.61,14.93-10.42,21.15-31.69,34-56.4,37.13-64.43,57.92-2.47,6.4-4,16,.65,30.12l.05.15c.68,2.08,1.51,4.26,2.47,6.56a1.54,1.54,0,0,1,.08.19l0-.23c-.89-6.45-1.52-18.23,4.26-30.36,2.61-5.46,6.9-11.8,19.21-21.48,13.41-10.55,20.59-12.67,48.48-27.34,19.64-10.32,29.07-16.1,37.43-27,8.76-11.44,8.13-17.76,7.49-20.51-1.51-6.38-7.17-10.4-15.63-15-23.86-12.84-41-15.61-41-15.61-14.17-2.3-37.43-10.64-84-27.34A567.75,567.75,0,0,1,299.44,695c-35.28-18.69-35.66-24.22-99.91-66.06-24.67-16.07-42.48-26.66-78.1-47.84C90.28,562.58,79,556.55,64.16,550.82A246.07,246.07,0,0,0-5.27,535.25l-.55,0c-2.4.15-5.83.38-9.92.74-2.87.24-6.53.59-10.88,1.08a431.75,431.75,0,0,0-56.15,10.31A416.29,416.29,0,0,0-141,566.53c-5,2.1-9.6,4.15-13.73,6.07l-.33.15c-4.2,2-7.9,3.8-11.06,5.39Q-171.88,603.75-177.64,629.33Z"/><path class="cls-8" d="M1806.8,554.62a297.79,297.79,0,0,1,42.63,11.83,74.42,74.42,0,0,1,17.69,8.57c2.14,1.44,14.23,9.76,16.27,19.82a14.32,14.32,0,0,1-.11,7.08c-1,3.4-2.78,3.74-3.58,6.18-1.46,4.43,2.55,6.77,5.21,15.3,2.31,7.42.33,9,2.92,14,1.29,2.44,3.46,5.27,9.44,9.11,9.65,6.2,17.21,7.35,30.27,11.39,6.48,2,12.78,4.6,19.2,6.83,27.77,9.7,55.09,19.78,65.41,23.44,19.76,7,49.36,16,91.44,24.08a369.73,369.73,0,0,1-75.93-7.62c-58.63-12.19-67.52-29.32-107.17-36.89-5.17-1-19.56-3.47-32.11-14.31a62,62,0,0,1-12.59-15.19c-7.12-12.2-5.1-18.69-9.11-26.9-5.82-12-18.9-16.3-38.62-22.57a168.58,168.58,0,0,0-60.74-8.67,173.85,173.85,0,0,0-66.5,16.49c13.91-7,25.76-12.43,34.61-16.38,15.59-7,26.42-11.78,41.22-16.82C1789.07,559.15,1799.57,556.37,1806.8,554.62Z"/><path class="cls-9" d="M1451.27,704.88c1.54-.24,3.12-.49,4.72-.78"/><path class="cls-9" d="M1242,608l1.5-.51"/><path class="cls-8" d="M1406.86,824.59c86.85-17.67,206.79-33.38,345.27-24.73A1334.35,1334.35,0,0,1,2002.06,840c28.22,7.34,51.78,14.47,69,20l27.77-6.07a1512.23,1512.23,0,0,0-658-44.42Z"/><path class="cls-9" d="M1826.65,828.74A461.88,461.88,0,0,1,2080.49,940"/><path class="cls-9" d="M655.32,967.41c2.26,1.57,4.4,3.05,6.42,4.48"/><path class="cls-9" d="M385.55,916.49c2.57-2,5.16-3.79,7.74-5.54"/><path class="cls-9" d="M393.4,910.88l.05,0"/><path class="cls-2" d="M518.52,698.79c-6-.92-12-1.74-18-2.34a84.6,84.6,0,0,1-17.9-4.2C471,688.4,460,683,448.29,680.45c-3-.61-6.45-1.85-8.55-4.81a8.89,8.89,0,0,1-1.72-5,5.3,5.3,0,0,1,.83-2.85,5.56,5.56,0,0,1,2.2-1.9c1.57-.78,3-1.13,4.18-1.78a7.22,7.22,0,0,0,1.58-1.11,8.57,8.57,0,0,0,.66-.69,6.94,6.94,0,0,0,.49-.77,10.32,10.32,0,0,0,1.16-3.84c0-.34,0-.68,0-1s-.05-.57-.09-.87a6,6,0,0,0-.72-1.69c-1.41-2.23-3.91-4-6.39-5.5a66.15,66.15,0,0,0-8-4,136.64,136.64,0,0,0-17.07-5.8c-11.8-3.09-23.4-6.78-34.92-10.69S359,620.12,347.63,615.9s-22.74-8.58-34-13-22.59-9-33.86-13.49l.37-.93q34,13.15,68.21,25.61c11.41,4.13,22.87,8.16,34.38,12s23.09,7.48,34.8,10.5a138.84,138.84,0,0,1,17.43,5.86,69.73,69.73,0,0,1,8.32,4.1c2.64,1.64,5.35,3.41,7.25,6.33a8.1,8.1,0,0,1,1.05,2.48,11.17,11.17,0,0,1,.16,1.39c0,.42,0,.84-.06,1.26a12.65,12.65,0,0,1-1.45,4.82,7.25,7.25,0,0,1-.73,1.15,10.44,10.44,0,0,1-.91,1,9.61,9.61,0,0,1-2.12,1.5c-1.5.8-3.05,1.21-4.19,1.8a3,3,0,0,0-1.22,1,2.66,2.66,0,0,0-.41,1.47,6.53,6.53,0,0,0,1.24,3.49,8,8,0,0,0,3,2.49,15.76,15.76,0,0,0,4,1.34c12.06,2.79,23.11,8.18,34.44,12.26a87.1,87.1,0,0,0,17.41,4.52c6,.82,12,1.8,18,3Z"/><path class="cls-9" d="M474.19,628.6A264.94,264.94,0,0,1,498,646.83c2.7,2.33,5.7,5,5.53,8.46-.2,4.07-4.78,7.06-9.44,10.09-7,4.54-10.26,4.16-14.32,8.78-1.61,1.84-3.53,4-3.58,6.84-.07,4.82,5.47,9.77,14,12.25"/><path class="cls-8" d="M340.11,968.1l55,3.25a90.32,90.32,0,0,1,5.77-20.79c3.81-9.21,7.31-17.35,18.32-27.12A98.62,98.62,0,0,1,442.81,908a113.45,113.45,0,0,1,16.74-6.22,108,108,0,0,1,18.89-3.8c1.35-.13,4.29-.42,8-.54a129,129,0,0,1,23,1.74c31.28,5.44,61.62,19.53,61.62,19.53,34.25,15.89,64,34.77,84.26,48.74l88.44,1.45c-100.13-47.76-136-63.43-147.1-67.12-6.34-2.11-12.31-5.28-18.66-7.38-4.2-1.38-15.24-4.84-20.83-11.49-3.23-3.86.32-6.35,4.09-7.35,21.93-5.82,44.24-9.8,66.66-13.19q26-3.95,52-8.26,51.39-8.57,102.45-18.8c17.95-3.61,36.61-7.26,54.59-12.67,6.44-1.94,12.8-4.11,19-6.59a168.84,168.84,0,0,0,17.27-8c3.21-1.72,6.5-3.67,8.39-6.79,3.4-5.61-.86-11.3-5.31-14.71-23.25-17.83-55.21-24.48-82.76-32.81q-44.5-13.49-89.85-24.08A1518.71,1518.71,0,0,0,518.6,698.3c30.65,5.46,60.61,15.06,91.08,21.63C644.57,727.47,679.22,736,713.77,745c33.34,8.66,66.51,17.08,98.35,30.43q6.64,2.77,13.19,5.78c5.58,2.56,31.21,10.18,28.08,19.6-.81,2.41-3.74,3.92-5.64,4.69-34.35,14-82.63,23.24-82.63,23.24-11,2.11-7.6,1.71-20.5,4.23-20.93,4.11-35.53,6.3-97.63,15.68-6.81,1-10.21,1.54-10.27,1.55-33.76,5.27-66.71,14-100.38,19.87-55.52,9.69-65.37,7.22-96.75,18.23-15.23,5.34-30.73,12.19-46.14,22.55l0,.23a1.54,1.54,0,0,0-.08-.19.41.41,0,0,0-.11.07l.09.2-7.83,5.34c-1.65,1.24-3.31,2.56-5,3.91-3.06,2.49-5.34,4.51-6.61,5.66A169.91,169.91,0,0,0,340.11,968.1Z"/><path class="cls-9" d="M637.44,967.12l17.88.29"/><path class="cls-9" d="M518.12,698.24l.48.06"/><path class="cls-9" d="M835.42,822c.5.21,1,.43,1.51.62"/><path class="cls-9" d="M854.61,815.7l1.33.31"/><path class="cls-9" d="M1330.93,745.23l.75-.12"/><path class="cls-9" d="M1745,821.25a1140,1140,0,0,0-356,12.37"/><path class="cls-9" d="M1419.22,867.22q-22.82.79-46.53,2.28c-29.4,1.84-57.73,4.39-84.94,7.48"/><path class="cls-9" d="M1377.24,892.2c-20.77-.26-42.49-1.08-65.08-2.61q-23.16-1.56-44.91-3.9"/><path class="cls-9" d="M1334.29,904.56c-15.42-.34-31.72-1.15-48.82-2.6-16-1.36-31.19-3.14-45.56-5.21"/><path class="cls-8" d="M-170.48,622.17H-162A1041,1041,0,0,1-30.22,631C15,636.89,202.31,664.52,316.36,772.52c23.47,22.23,41.53,45.68,39.06,71.27C353,868.39,333.19,879.1,310.5,916a257.85,257.85,0,0,0-30.26,72.25l105.31-71.79,7.83-5.34-.09-.2a56.37,56.37,0,0,1-2.36-6.63l-.05-.15a41.78,41.78,0,0,1-.32-23c1.55-5.41,4.66-11.55,16.7-22.77,24.32-22.69,37.17-21.44,51-40.15,5.34-7.22,12-16.29,9.76-25.81-2.57-10.75-15.05-15.6-35.58-24.3-18.57-7.87-36.33-17.73-55.32-24.51-9.47-3.38-8.34-3.35-92.43-44.26C227.29,671.48,198,657.24,167.53,643c-44-20.56-66-30.84-73.33-33.41-26.2-9.18-91-31-171.82-17.78A321.6,321.6,0,0,0-170.48,622.17Z"/><path class="cls-10" d="M2072.35,711v13a303.62,303.62,0,0,1-37.1-4.55c-18.83-3.51-40.61-7.56-64.76-19.85-12.49-6.36-15.28-9.67-28.31-14.65-14.9-5.7-18.4-4.11-33.84-8.78-12.52-3.79-24-9.72-46.21-24.41-19.06-12.59-17.12-13.68-29.29-20.5a156.32,156.32,0,0,0-39.92-15.62c-6.19-1.47-28-6.2-58.58-2.17-31.94,4.2-39.8,13.52-76.8,24.3a340.9,340.9,0,0,1-65.08,12.14c6.12-2.28,16-5.94,28.31-10.41,21.87-7.94,24.6-8.7,31-12,4.12-2.12,4.2-2.43,27.71-17.51,11.2-7.18,16.85-10.79,19.31-12.15,13.55-7.49,25.43-10.73,34.06-13a173.52,173.52,0,0,1,59.66-6.07s30.86,2.34,61.4,17.13a34.66,34.66,0,0,1,6.13,3.64c13.55,10.24,16.9,29.82,17.3,32.38.81,5.09.66,8.53,3.47,12.58a21.55,21.55,0,0,0,9.66,7.27c16.19,7,24.29,10.55,29,12,0,0,12.33,3.93,32.54,11.71,18,6.93,17.4,8.09,30.81,13.24s26.07,8.17,50.55,13.88C2042.86,704.9,2056.2,707.87,2072.35,711Z"/><path class="cls-10" d="M1443.47,706.62c-8.55,2.13-17.9,4-28,5.54a292.62,292.62,0,0,1-45.88,3.09c-13-.4-21.21-4.19-26.36-7.65-4.66-3.13-6-5.42-14.81-13-8.26-7.1-15.1-12-16.6-13-15-10.48-32.47-11.91-48-13.18a234.63,234.63,0,0,0-46,.81c-10.33,1.43-23.41,4.12-36.13-1.79a23.61,23.61,0,0,1-9.6-7.49c-5.62-7.68-4.37-16.83-3.9-19.52,1.81-1.18,4.5-2.89,7.81-4.88,5.58-3.36,9.64-5.54,22.94-12.53,8.42-4.43,12.65-6.65,13.83-7.16a85.56,85.56,0,0,1,20-6.18,87.72,87.72,0,0,1,18.07-.82C1265.48,609.79,1342.22,647.53,1443.47,706.62Z"/><path class="cls-10" d="M554.24,705.16c7.83,1.78,107.92,24.59,194,45.88,26.71,6.62,51.64,21.52,79.08,23.76,7.78.64,24.14,1.4,29.93,11.71,3.25,5.78,3,14.29-1,19.86-4.64,6.44-13.27,7.46-16,7.81-29.77,3.85-57.38,19.07-87.21,22.45-37.87,4.29-95.44,14.08-173.13,28.31,40.18-17,73.23-23.22,96.65-25.71,29-3.08,56.83-13.55,85.59-18.55,3.91-.67,15.35-2.61,23.11-11.71,3.24-3.81,6.84-10.05,6.83-14.65-.06-19.5-65.34-32.66-135.38-53.69C630.49,732.74,595.34,721.29,554.24,705.16Z"/><path class="cls-10" d="M1357.72,752.35l30.15,6.72c-35.7,4.64-73.33,10.67-112.59,18.44-29,5.75-56.8,12-83.31,18.66a133.92,133.92,0,0,1-10.2,10,154.56,154.56,0,0,1-18.22,13.45c-22.71,14-57.93,21-57.93,21a634.17,634.17,0,0,1-82.44,10.63c-35.21,2.38-59.44,1.89-88.51,1.31-42.88-.87-57.71-3.26-73.22-8.47a167.79,167.79,0,0,1-39.38-19.3l21.26-6.08a243.24,243.24,0,0,0,40.14,12.8c12.67,2.86,33.64,6.51,101.31,3.26,39.39-1.9,59.09-2.85,83.74-7.16a464.31,464.31,0,0,0,71.38-18.44,59.65,59.65,0,0,0,16.27-17.79c1.76-3,3.39-6.58,7.38-9.33,5.1-3.52,10.74-3.46,12.8-3.47,13.55-.09,26.64-5.28,40.13-6.51,44.43-4.06,66.86-21.56,118.89-21.05C1345.36,751.14,1353.35,751.88,1357.72,752.35Z"/><path class="cls-10" d="M617.05,972.33c-20.12-16.82-51.67-37.4-93.72-45.12-19.79-3.64-41.92-7.71-66.82,2.17-35.74,14.16-51.6,46.89-56,56.84L382.75,945a132.69,132.69,0,0,1,33.84-35.15c34.5-24.48,71-24.8,85.48-24.73,42.51.21,72.95,17.33,108.47,37.31A387,387,0,0,1,680,972.33Z"/><path class="cls-8" d="M1875.79,985.35c-17.13-40.8-39.18-69.47-59.87-89.82-107.7-105.88-306-111.38-505.71-27.66l107.71-47.51a1060,1060,0,0,1,137-22.46c145.78-14.18,262,5.11,356.66,21.48a1829.09,1829.09,0,0,1,179,40.36q-3.57,58.25-7.16,116.5Z"/><path class="cls-11" d="M806.67,838.69c-34.5,8.64-72,16.55-112.17,23-28.06,4.5-55,7.9-80.7,10.41"/><path class="cls-11" d="M1170.27,710a693.58,693.58,0,0,0-142.53-44.91c-44.77-8.9-80.88-11.37-106.09-13a955.54,955.54,0,0,0-113.25-.65"/><path class="cls-11" d="M1446.23,791.4c-62.35,31.08-129.4,61.78-201.11,91.11q-56.79,23.25-111.29,43"/><path class="cls-11" d="M1875.14,731.52a551.2,551.2,0,0,0-285.07,22.13"/><path class="cls-11" d="M1991.21,669.47a527.14,527.14,0,0,1-58.58-18.66c-8.76-3.36-17.15-6.85-25.16-10.41"/><path class="cls-11" d="M1569.46,666.87a645.13,645.13,0,0,1-75.06,33c-15.81,5.78-31.05,10.64-45.56,14.76"/><path class="cls-11" d="M1849.11,957a264.72,264.72,0,0,0-43-51.75c-31-28.88-61-42.82-81.35-52.06a354.52,354.52,0,0,0-95.68-28"/><path class="cls-11" d="M820.12,753c-27.2-9-56.53-17.56-87.87-25.39-26-6.49-51-11.85-74.85-16.27"/><path class="cls-11" d="M276,754.3a263.15,263.15,0,0,1,39.05,35.14c11,12.12,14.94,18.88,17.57,26a57.37,57.37,0,0,1,3.25,29.94,56.4,56.4,0,0,1-11.71,26"/><path class="cls-11" d="M225.24,721.1a638.9,638.9,0,0,0-98.93-44.9c-47.95-17-84.85-23.52-143.19-33.85-42.43-7.51-66.44-9.66-87.86-10.41a532.51,532.51,0,0,0-60.53,1.3"/><path class="cls-11" d="M367.78,633.89c-45.27-18.71-83.65-33.15-112.6-43.61-47.1-17-68.73-23.27-84-27.33-29.22-7.81-54-12.63-71.59-15.62"/><path class="cls-11" d="M307.57,894.56a283.91,283.91,0,0,0-39.05,87.86"/><path class="cls-11" d="M675.63,911.8l85.91,49.47"/><path class="cls-11" d="M1118.86,794.65a354.23,354.23,0,0,1-137.33,28"/><path class="cls-11" d="M62.53,764.06A419.83,419.83,0,0,0-7.76,732.82a425.19,425.19,0,0,0-144.49-22.13"/><path class="cls-2" d="M1299.9,721.21a10.65,10.65,0,0,0-2.71,7.16,10.83,10.83,0,0,0,6.07,9.22c-28.56-6.76-34.85-9-34.71-9.71.1-.49,3.32-.09,7.22-.16A53,53,0,0,0,1299.9,721.21Z"/><path class="cls-2" d="M1531.71,799.42c-7.5,1-14.68-2.63-17.79-8.89-3.73-7.52.28-15,.65-15.62q-17.19,8.25-34.71,16.49-19.74,9.27-39.27,18.22Z"/><path class="cls-2" d="M1846.72,553.19a15.24,15.24,0,0,0-8.51,4.06,15.42,15.42,0,0,0-4.56,9.28l-28.31-11.23c2.94-.56,6-1.06,9.19-1.46A151.41,151.41,0,0,1,1846.72,553.19Z"/><path class="cls-2" d="M1123.17,663.75a14.78,14.78,0,0,0-2.52,8.87c.43,8.22,8.11,12.5,8.62,12.77l-34.66-11.15Z"/><path class="cls-2" d="M1333.47,904.81c0,.33-26.78-1.53-64.27-1.47-14.58,0-25.08.33-38.24,2.28a214.4,214.4,0,0,0-34.16,8l43.6-17.08C1315.66,902.79,1333.49,904.54,1333.47,904.81Z"/><path class="cls-2" d="M368,982.31l29.51-56L368,906.81,298.14,971Z"/><path class="cls-8" d="M1330.6,745.19a859,859,0,0,1-196.77-5.86,858.41,858.41,0,0,1-170.2-43,1216.67,1216.67,0,0,0,142.43,32.54A1222.51,1222.51,0,0,0,1330.6,745.19Z"/><path class="cls-8" d="M865,722.73c-43.61-16.24-91.17-31.88-142.54-45.88A1656.68,1656.68,0,0,0,481.35,630"/><path class="cls-8" d="M205.71,808.75A551.58,551.58,0,0,0,37.15,708.09a551.63,551.63,0,0,0-189.4-35.15,743.22,743.22,0,0,1,175.08,39.7A743.57,743.57,0,0,1,205.71,808.75Z"/><path class="cls-8" d="M1763.85,978.84a288.83,288.83,0,0,0-56.3-57.92c-67.21-51.92-140-59.43-196.88-65.31,0,0-70.52-7.28-181.59,6.95-3.62.46-5.86.85-5.86.86a731.27,731.27,0,0,1,117.59-11.49c10.93-.18,19,0,21.26,0,32,.58,82.44,1.86,137.55,20.61,16.06,5.46,33.79,11.49,54.89,24.29,42.41,25.75,67.1,59.85,80,81.36"/><path class="cls-10" d="M204.85,807.88a585.2,585.2,0,0,0-147.2-89,588.67,588.67,0,0,0-230.08-45.24q5.87,49.14,11.72,98.28A586.5,586.5,0,0,1-51.37,758.2C58.93,754.9,148.23,783.62,204.85,807.88Z"/><path class="cls-10" d="M1332.33,745.84c-22.62.95-54.54,1.6-92.74,0a1061.39,1061.39,0,0,1-178.33-22.46c-58-12.44-98.31-26.27-98-27.66.42-1.67,58.88,18.55,135.81,18.88a451.41,451.41,0,0,0,92-9.12Z"/><path class="cls-10" d="M863.4,722.41c-88.35-25.63-181.65-49.52-279.76-70.73Q529.31,639.94,476.47,630c6,4.93,10.81,8.44,14.32,10.84,0,0,4.06,2.79,10.41,9.66a6.68,6.68,0,0,1,2.12,3.74c.42,3.48-3.09,6.52-5.37,8.46-4.49,3.8-6.41,3.4-11.56,6.67-4.72,3-9.95,6.33-10.36,11.17-.43,5.22,5,9.49,6.51,10.64a537.37,537.37,0,0,1,84.72-10.42c20-.86,57.55-1.33,150.89,13.45C755.44,700.11,805,709,863.4,722.41Z"/><path class="cls-10" d="M713.38,844.33c-7,4.42-23,15.91-29.29,36.23-9,28.91,5.27,63.87,36.45,85.26l-202.42-82c6.91-2.8,17-6.64,29.51-10.42,28.79-8.71,51-11.3,64.65-13C635.4,857.47,668.4,852.68,713.38,844.33Z"/><path class="cls-10" d="M1640.84,728.91c-4.48,3.28-10.37,8.87-13,17.25-5.06,16,3.69,36,22.45,48.82l-151,9.43q1-11.38,2.11-22.78c5.76-2.9,13.91-6.93,23.76-11.55,5.35-2.51,22.43-10.47,49.79-21.64,30.69-12.53,43.86-16.67,60.36-18.87C1637.64,729.25,1639.57,729,1640.84,728.91Z"/><path class="cls-10" d="M1739.12,970.38A224.72,224.72,0,0,0,1707,931.11c-45.89-44.63-100-58.36-133.7-66.49a370.83,370.83,0,0,0-75-10.09c2.92,0,59.74,1.64,86.78,48.81,18,31.4,11.45,63.17,9.55,71.16Z"/></g><path class="cls-12" d="M1921.25,823.71A5682.43,5682.43,0,0,0,3,823.71v612.05H1921.25Z"/><path class="cls-13" d="M3.88,1354.63a999.9,999.9,0,0,1,180.34-275c32.2-34.82,155.54-163.18,362-249.15,153-63.72,290.72-76.07,365.76-82.56,47.39-4.11,91.11-4.07,91.09-4.85,0-1.71-207-4.13-441.22,11.67A5093.83,5093.83,0,0,0,3,823.71Q3.44,1089.17,3.88,1354.63Z"/><path class="cls-3" d="M1.25,1434.44C156.89,1386.58,469.09,1305.7,889,1297.35c500.38-9.94,872.34,88.73,1030,137.09Z"/><g class="cls-14"><path class="cls-15" d="M936.87,586.75l6.61-5.89,30.79,27.28-8.78,8.48-22-9.51Z"/><path class="cls-16" d="M942.76,581.17l31.62,26.77c6.9-7,12.84-12.34,17-16,10.32-9,15.41-12.34,20.14-20.56,4.59-8,4.61-13.23,4.55-15-.08-2.32-.33-9.45-5.89-14.26-6-5.15-13.71-3.91-16.22-3.51a24.56,24.56,0,0,0-13.33,6.92Z"/><path class="cls-17" d="M932.58,581.9,945.24,591a14.54,14.54,0,0,0-.52,7.75,16.89,16.89,0,0,0,2.58,5.58c5.1,7.17,18.57,10.73,19.84,11.06a33.65,33.65,0,0,1-1.34,19.32l-44.43-14.26-13.85-18"/><path class="cls-7" d="M921.11,620.41,914,610.57a10.65,10.65,0,0,0-5.43,3.49,11,11,0,0,0-2.32,6.82c-.07,2.7.78,3.91,1.86,7.28,2,6.15.82,7.48,2.17,11.16,1,2.68,3.17,6.31,8.68,9.77l8.52-4.88Q924.28,632.31,921.11,620.41Z"/><path class="cls-18" d="M926.69,643.51a27.32,27.32,0,0,1-7.83-14.11c-.5-2.67-1-5.69.62-8.6,2.1-3.71,6.3-4.71,7.67-5,6.61-1.57,12.15,2.2,13.49,3.18,6.4,4.69,7.3,12,7.44,13.33"/><path class="cls-19" d="M957.92,904q-2.28-7.49-4.52-15.08-6.17-20.91-11.68-41.34c7.26-7,15.24-14.17,24-21.39a425.54,425.54,0,0,1,36.89-27.28c-1.45,2.51-3.46,6.05-5.79,10.34a451,451,0,0,0-20.36,42.57c-3,7.35-6.65,16.64-10.33,27.59-.25-25.91.12-39.07.88-43.68.09-.59.47-2.69-.24-3-1-.49-3.76,3-6.12,6.36-.18,1.43-.47,3.9-.77,7-1.38,14-1.12,22.58-1.55,43.17C958.24,892.42,958.12,897.57,957.92,904Z"/><path class="cls-20" d="M906.38,708c.11,3-.12,2.27-.2,8-.09,6.55-.14,9.83.31,12.91.72,5,1.84,5.61,4.34,13.75,1.72,5.63,2.47,9.53,3,11.88,1.68,7.48,8.66,32.85,26.25,93.62l64.06-50-11.41,18.65a90.39,90.39,0,0,1,25.57-16.43c14.49-6.08,20.2-3.74,39.06-10.7,7.59-2.79,16-5.89,25.58-12.55,6.33-4.4,12.33-10.17,24.33-21.7,11.28-10.84,12-12.27,16.12-14.73,10.19-6.1,21.14-6.59,28.83-6a28.58,28.58,0,0,0-5,27.12c4.65,13.4,19,17.75,20.56,18.19a63.26,63.26,0,0,1-2.48-7.54,65.4,65.4,0,0,1,.42-33.9A63.63,63.63,0,0,1,1179,714.37c.92-1.53,1.62-2.86,2.15-3.9a5.56,5.56,0,0,0,.85-2.79c0-.27-.06-1.63-.78-2.17-1.44-1.08-5.11,1.52-5.81,2-7.45,5.23-16.58,7.6-24.41,12.25-13.24,7.85-12.36,5.89-26.2,13.87a312.83,312.83,0,0,0-30.12,19.79,89.37,89.37,0,0,1-18.7-3.21c-2.72-.77-12-3.53-26-12.09a181,181,0,0,1-30.22-23.4,245.88,245.88,0,0,1-25.89-27.9c-.57.78-1.14,1.55-1.7,2.33a62.41,62.41,0,0,1-12.45-13.95A64.15,64.15,0,0,1,969.52,644a124.74,124.74,0,0,0-60.76,14L905.69,660l-3.26,7.44a8.92,8.92,0,0,1,3.22,1.31,9.21,9.21,0,0,1,3.21,3.76,10.43,10.43,0,0,1,.66,7,13.61,13.61,0,0,0-2.08,1.47,10.68,10.68,0,0,0-3.92,6.33,11.51,11.51,0,0,0,.15,3.51,18.76,18.76,0,0,0,.85,3.41C906.05,698.69,906.29,705.46,906.38,708Z"/><path class="cls-16" d="M904.06,690.09q21.33,9.63,43.09,20,11.51,5.49,22.78,11L992.56,689l-9.14-8.83Q974,692.1,964.51,704a64.74,64.74,0,0,0-9.46-7.91c-4.66-3.2-6-3.26-12.24-7-9.08-5.44-8.47-6.73-13.8-8.84-7.76-3.07-13.43-2.06-14.8-1.78a14.16,14.16,0,0,0-7.9,3.87c-2.09,2.2-4,6-2.95,7.29A1.42,1.42,0,0,0,904.06,690.09Z"/><path class="cls-21" d="M872.62,528.92a5.16,5.16,0,0,1,0,.68"/><path class="cls-21" d="M920.5,618.83q-6.39-8.13-12.77-16.27l25-21,12.89,9.78c-.8,2.22-2.08,6.81,0,11,.78,1.58,2.1,3.21,9.31,7.4,2.93,1.71,7,3.91,11.94,6.21a27.28,27.28,0,0,1,.95,7.64,30.52,30.52,0,0,1-1.91,9.55"/><path class="cls-21" d="M926.56,643.7a28.39,28.39,0,0,1-5.9-9c-1.64-4-3.95-9.58-1.26-14.14s9.28-5.78,13.61-5.2c6.51.88,12,6.09,14.32,13.25"/><path class="cls-21" d="M913.31,610.76c-2.58,1.52-6.24,4.27-7,8.41-.34,1.9.17,2.81,1.26,7,2.64,10.12,1.52,11.8,3.93,15.75a19.52,19.52,0,0,0,6.63,6.45"/><path class="cls-21" d="M938.2,585.57l40.34-38.19a30.06,30.06,0,0,1,9.31-6.45c3.61-1.58,10.69-4.68,17.91-1.43a18.41,18.41,0,0,1,9.07,9.55,20,20,0,0,1,.71,12.17,28,28,0,0,1-8.35,14.81l-40.34,39.38"/><path class="cls-21" d="M904.91,661.16a37.28,37.28,0,0,0-2.75,6.78,8.4,8.4,0,0,1,7.39,11.22"/><path class="cls-21" d="M1146,750.41a25.86,25.86,0,0,0,.33,7.53,29.44,29.44,0,0,0,14.1,19.58"/><path class="cls-21" d="M1145.87,750.4a24.93,24.93,0,0,1,3.08-11.5,24.22,24.22,0,0,1,3.08-4.34,49.11,49.11,0,0,0-21.91,2.83c-11.3,4.33-15.19,11.1-29.12,23.87-10.81,9.9-18.42,16.85-29.35,22.44-15.73,8-22.66,5.17-40.59,11.22-9.84,3.32-23.43,9.48-38.3,21.91a1,1,0,0,0-.2.16,75.31,75.31,0,0,1,3.89-7.51,78.07,78.07,0,0,1,12.65-16.1A366.56,366.56,0,0,0,940,847.45c-5.67-17.15-10.29-32.44-14-45.36-8.78-30.73-5.87-25.28-14.08-54.18-4.64-16.31-6.09-19.85-6-27.22.09-5,.88-12.71-1.19-23.41-.57-2.94-1.21-5.34-1.67-6.9a12.38,12.38,0,0,1,2.62-7.64c3.08-3.8,7.7-4.29,10-4.55a25.51,25.51,0,0,1,14.8,3.34c14,7.66,27.13,17.32,34.15,22.68q9.12-12,18.72-23.89l.37-.46"/><path class="cls-21" d="M1082.14,764.38c4.27-4,8.38-7.5,12.21-10.58,5.66-4.53,10.67-8.14,14.76-10.91,0,0,3.46-2.31,7.43-4.72,13.53-8.23,37.27-19.77,40.75-21.45"/><path class="cls-21" d="M1157.34,716.69c3.91-2.14,7.24-4,10.05-5.48,9.31-5,13.14-6.82,14.54-5.32,1.68,1.78-3.66,9.44-4.51,10.67-1.53,2.21-2.08,2.49-3.54,4.55a41.22,41.22,0,0,0-5.09,10.37c-2.68,7.52-5.39,15-5.36,25.43A62.33,62.33,0,0,0,1168,780l-7.34-2.56"/><path class="cls-21" d="M904.91,661.16c-.06,0-.13.07-.2.09"/><path class="cls-21" d="M1095,753.87a106.47,106.47,0,0,1-27.22-6.45c-7.35-2.8-16.21-7.12-29.36-16.94a244,244,0,0,1-44.64-43.69q-5.27,7.77-11,15.76-6.83,9.53-13.61,18.38a118.68,118.68,0,0,1-20.29-11c-10.21-6.9-13.31-11.33-21.72-15.52a56.87,56.87,0,0,0-23.87-5.73"/><path class="cls-21" d="M969.62,720.78a153.62,153.62,0,0,0,78.87,27.12"/><path class="cls-21" d="M969.52,646.11a66.94,66.94,0,0,0,13.26,33.4,63.27,63.27,0,0,0,9.31,9.67"/><path class="cls-21" d="M941.3,846.25Q946,862.56,950.61,879q3.74,13.14,7.4,26.26c-.18-26.91.34-39.07,1-44.88.21-2,.46-3.43.72-6.69.73-9.26-.13-12,1.67-15.51a14.5,14.5,0,0,1,6.44-6.21c-.77,7.16-1.36,14.81-1.67,22.92-.33,8.71-.29,16.92,0,24.58,3.9-11.61,8.61-24,14.32-37,4.29-9.72,8.71-18.79,13.13-27.21"/><path class="cls-19" d="M980.22,645.21h-.05c-3.54-.13-7.45-.13-11.66,0a162.43,162.43,0,0,0-43,7.59,157.8,157.8,0,0,0-20.57,8.32,27.18,27.18,0,0,1,7.26-8.76c2.47-1.89,3.59-2,7.42-4,11.24-6,10.86-9.86,19.8-14.57,4-2.07,12.21-6.4,20.54-3.83,2.8.88,4.89,2.42,9.07,5.5A94.63,94.63,0,0,1,980.22,645.21Z"/><path class="cls-19" d="M1006,561.35q-8.12,7.59-16.24,15.22a32.5,32.5,0,0,1-6.79.88c-3.83.09-8,.2-10.94-2.51-.55-.5-2.72-2.46-2.44-4.77s2.71-3.59,5.61-5.13c5.35-2.86,6.71-1.62,10.38-4,1.54-1,3.13-2.71,6.34-6.1s3.94-4.68,5.37-4.66c1.93,0,3.41,2.26,5.72,5.74A38.52,38.52,0,0,1,1006,561.35Z"/><path class="cls-21" d="M943.17,581.09,974.23,608"/><path class="cls-22" d="M911.34,745.7a227.32,227.32,0,0,0,185.11,19.88,93.86,93.86,0,0,1-14.6,12,83.52,83.52,0,0,1-21,10.4c-10.67,3.47-12.54,1.48-25.32,5.28a115.78,115.78,0,0,0-41.93,23,56.13,56.13,0,0,1,15.43-22.78,325.56,325.56,0,0,0-68.85,54q-5.33-16-10.4-32.77C922.66,790.91,916.56,767.88,911.34,745.7Z"/><path class="cls-19" d="M904.68,693.19a155.74,155.74,0,0,1,18.75,7.13c10.82,4.91,14.1,7.87,26.2,13.48,11.49,5.33,20,8,20.15,7.75s-11.08-2.85-22-11.78c-3.5-2.85-5.73-5.35-11.78-9.76a72.9,72.9,0,0,0-9.46-6.2c-9.07-4.8-21.22-7.65-22.94-4.65C903.23,689.79,903.19,690.93,904.68,693.19Z"/><path class="cls-19" d="M942.5,848.49c4.18-3.86,8.57-7.75,13.17-11.62a380.32,380.32,0,0,1,43.25-31.47c7.37-7.62,8.47-9.74,8.06-10.23-1.53-1.82-26.51,15.6-47.74,34-7.8,6.74-14,12.64-18.14,16.74Z"/><ellipse class="cls-23" cx="966.99" cy="922.41" rx="72.63" ry="9.21"/></g><g class="cls-24"><path class="cls-25" d="M165.93,39.2A18.18,18.18,0,0,1,172.24,38c9.35-3,17.84-.94,26.54,1.83,2.17.7,4.36,1.44,6.58,2.18,2.93,1.09,5.95,2.77,9,2.91,23.19,1.07,46.48-.19,68.62,7a62.28,62.28,0,0,0,6.54,2.24c11,3.15,22.62,3.39,34.26,2.17,1.9-.2,3.79-.48,5.71-.85s3.86-.84,5.84-1.38c11.93-3.28,23.23-4.31,35.56-4.43,19.69-.19,29.49-1.65,39.35-1.41a297.51,297.51,0,0,1,61.37,8.05c-35.73-.93-52.23-.82-59.81-.36a41.61,41.61,0,0,1-6.43.39,124.71,124.71,0,0,0-21.24,1.31,47.65,47.65,0,0,1-8.41.83c-4.44-.14-8.7-1.77-13.11-2.4-7.71-1.09-15.39,1-22.48,3.87-1.71.7-3.45,1.68-5.2,2.59a25.48,25.48,0,0,1-5.31,2.19c-13.33,3.73-26.06,2.61-38.63,0-2.51-.51-5-1.08-7.53-1.68-6.39-.61-11.73-2.41-17.95-1.92C250,62.86,235.19,64.51,219.77,63a24.55,24.55,0,0,0-13.44,1.07c-2.39.62-4.76,1.32-7.15,1.94a73.23,73.23,0,0,1-22.5,2.68c-2.56,0-5.09,0-7.64,0-7.62-.07-15.34-.61-23.08-.58-6.19-.29-9.84-5.1-12-9.84a14.24,14.24,0,0,1,3-14.58c7.34-8.19,18.09-6.14,28.09-5.4Z"/><path class="cls-25" d="M1923.51,404.17c-4.52,0-9,0-13.55.06-12.34.12-23.64,1.15-35.57,4.43q-3,.82-5.83,1.38c-1.92.37-3.82.65-5.71.86-11.64,1.22-23.25,1-34.27-2.17a64.74,64.74,0,0,1-6.54-2.25c-22.13-7.21-45.43-6-68.61-7-3.09-.14-6.12-1.83-9-2.92-2.23-.73-4.41-1.48-6.59-2.17-8.7-2.78-17.18-4.79-26.53-1.84a18.09,18.09,0,0,0-6.31,1.16,6.75,6.75,0,0,1-.84-.85c-10-.75-20.74-2.79-28.09,5.39a14.24,14.24,0,0,0-3,14.58c2.1,4.74,5.76,9.56,11.94,9.84,7.74,0,15.47.52,23.09.59,2.54,0,5.08,0,7.63,0a73.77,73.77,0,0,0,22.5-2.68c2.39-.63,4.76-1.32,7.16-2a24.5,24.5,0,0,1,13.43-1.07c15.43,1.48,30.22-.16,45.78-1.77,6.22-.49,11.56,1.3,18,1.92,2.5.59,5,1.16,7.53,1.68,12.57,2.56,25.29,3.68,38.62-.06a25,25,0,0,0,5.31-2.19c1.76-.91,3.49-1.88,5.2-2.58,7.09-2.91,14.77-5,22.48-3.87,4.41.62,8.67,2.25,13.12,2.4a47.64,47.64,0,0,0,8.4-.83l.32-.05Z"/><path class="cls-25" d="M250.75,524.54a18.09,18.09,0,0,1-6.31,1.16c-9.35,3-17.83.94-26.53-1.84-2.18-.69-4.36-1.43-6.59-2.17-2.92-1.09-5.95-2.78-9-2.92-23.18-1.06-46.48.19-68.61-7a64.74,64.74,0,0,0-6.54-2.25c-11-3.14-22.62-3.38-34.27-2.16q-2.83.3-5.71.85t-5.83,1.38c-11.93,3.28-23.23,4.31-35.57,4.43-13.12.12-26.3-.23-39.35,1.41-3.42.43-7.28.89-10-1.24,2.15-2.9,5-5.54,8.45-6.45a23.36,23.36,0,0,1,6.42-.39A124.83,124.83,0,0,0,32.52,506a46.72,46.72,0,0,1,8.4-.84c4.45.15,8.71,1.78,13.12,2.41,7.71,1.09,15.39-1,22.48-3.88,1.71-.7,3.45-1.67,5.2-2.58A25,25,0,0,1,87,498.94c13.33-3.73,26.05-2.61,38.62-.05,2.52.51,5,1.08,7.53,1.68,6.4.61,11.74,2.4,18,1.91,15.56-1.61,30.35-3.25,45.78-1.77a24.5,24.5,0,0,0,13.43-1.07c2.4-.63,4.77-1.32,7.16-1.94A73.47,73.47,0,0,1,240,495c2.55,0,5.09,0,7.63,0,7.63.07,15.35.62,23.09.59,6.19.28,9.84,5.1,11.94,9.84a14.24,14.24,0,0,1-3,14.58c-7.35,8.18-18.1,6.14-28.09,5.39A7.5,7.5,0,0,0,250.75,524.54Z"/><path class="cls-25" d="M948.73,389a18.18,18.18,0,0,1-6.31,1.16c-9.35,3-17.84.94-26.54-1.84-2.17-.69-4.36-1.43-6.58-2.17-2.93-1.09-5.95-2.77-9-2.92-23.19-1.06-46.48.19-68.61-7a66.49,66.49,0,0,0-6.54-2.25c-11-3.14-22.63-3.38-34.27-2.16q-2.83.3-5.71.85c-1.92.37-3.86.83-5.84,1.38-11.93,3.28-23.23,4.31-35.56,4.43-13.12.13-26.3-.23-39.35,1.41-3.43.43-7.28.89-10-1.24,2.15-2.9,5-5.54,8.44-6.45a23.45,23.45,0,0,1,6.43-.39,124.89,124.89,0,0,0,21.25-1.31,45.65,45.65,0,0,1,8.4-.83c4.45.14,8.71,1.77,13.11,2.4,7.71,1.09,15.39-1,22.48-3.88,1.71-.7,3.45-1.67,5.21-2.58a24.74,24.74,0,0,1,5.31-2.19c13.33-3.73,26-2.61,38.62-.05,2.51.51,5,1.08,7.53,1.68,6.39.61,11.73,2.4,18,1.91,15.57-1.6,30.36-3.25,45.78-1.77a24.54,24.54,0,0,0,13.44-1.07c2.39-.63,4.76-1.32,7.16-1.94A73.44,73.44,0,0,1,938,359.48c2.56,0,5.1,0,7.64,0,7.62.06,15.34.61,23.09.58,6.18.28,9.83,5.1,11.94,9.84a14.26,14.26,0,0,1-3,14.58c-7.35,8.18-18.1,6.14-28.1,5.39A7.41,7.41,0,0,0,948.73,389Z"/><path class="cls-25" d="M1140.53,95.32c-.87.27-1.07.81-1.5,1.57a15.55,15.55,0,0,1-1.74,2.06c-.74.89-.3,1.72-.26,2.75s.41,2.16.39,3.25c0,.39-.1.82-.08,1.22.06,1.1,1.28,1.92,2.21,2.4a4.18,4.18,0,0,0,2.88.46c.9-.22,1.82-.29,2.69-.49a48.44,48.44,0,0,1,5.73-1.07c1-.12,1.89-.33,2.85-.53a3.64,3.64,0,0,0,1.39-.38,4.66,4.66,0,0,1,1.88-.6c1-.15,1.9-.33,2.87-.41s1.93-.1,2.94-.25a11.71,11.71,0,0,1,3.63-.4c1.37.23,2.74.91,4.12,1a3.58,3.58,0,0,0,1.74-.39c.52-.22,1-.21,1.51-.38a8.67,8.67,0,0,0,1.54-.8,5.68,5.68,0,0,1,1.57-.48,6.87,6.87,0,0,0,1.29-.6,7,7,0,0,1,1.7-.48,8.48,8.48,0,0,0,2.95-1.83c1.52-1.39,3.18-2.75,4.56-4.23a13.79,13.79,0,0,1,2.44-2.33c.49-.31,1-.52,1.52-.82s.91-1,1.49-1.34c.89-.61,2.07-.61,3.06-1.17s2.24-1.33,3.4-1.88c.54-.25,1.31-.13,1.77-.41a8.84,8.84,0,0,0,.84-1.12,4,4,0,0,0,.66-2.6c.07-1.46,0-1.78-1.3-2.62a10,10,0,0,0-1.6-.63,6.69,6.69,0,0,0-1.8-.83,5.78,5.78,0,0,0-3.13.35c-1.89.8-2.78,2.88-4.17,4.22a9.25,9.25,0,0,1-4.46,2.66,40.67,40.67,0,0,1-5,.63,5.89,5.89,0,0,1-2.5-.51,16.79,16.79,0,0,0-2.68-.36,24,24,0,0,1-3.15-.6c-2.88-.68-6.16-1.39-9.06-.95a13.19,13.19,0,0,0-4.2,1c-1.89,1-3.91,2-5.71,3.1-1.34.84-2.24,2.22-3.62,3C1147.54,95,1144.46,93.64,1140.53,95.32Z"/><path class="cls-25" d="M1875.62,63.63c.54-.09.69-.4,1-.81a8.64,8.64,0,0,1,1.18-1.08c.5-.47.31-1,.36-1.6s-.08-1.31,0-1.94c0-.24.12-.48.14-.72.05-.65-.61-1.23-1.11-1.58a2.49,2.49,0,0,0-1.67-.49c-.55.06-1.09,0-1.62.08a27.78,27.78,0,0,1-3.46.19c-.58,0-1.13,0-1.72.1a2,2,0,0,0-.84.11,2.72,2.72,0,0,1-1.16.21c-.59,0-1.14,0-1.72,0s-1.14-.08-1.75-.07a6.87,6.87,0,0,1-2.17,0c-.79-.23-1.54-.74-2.35-.9a2,2,0,0,0-1,.1c-.32.08-.6,0-.92.1a4.93,4.93,0,0,0-1,.36,3.56,3.56,0,0,1-1,.16,3.26,3.26,0,0,0-.8.26,4.67,4.67,0,0,1-1,.15,4.9,4.9,0,0,0-1.87.85c-1,.7-2.09,1.37-3,2.14a8.55,8.55,0,0,1-1.62,1.19c-.31.14-.65.22-1,.36s-.6.49-1,.68c-.57.29-1.27.2-1.9.45s-1.42.61-2.14.85c-.34.11-.79,0-1.08.11a5.41,5.41,0,0,0-.58.59,2.4,2.4,0,0,0-.59,1.48c-.15.85-.15,1,.57,1.64a5.28,5.28,0,0,0,.89.5,4,4,0,0,0,1,.62,3.4,3.4,0,0,0,1.87,0c1.17-.33,1.86-1.48,2.78-2.17a5.59,5.59,0,0,1,2.83-1.23,27.28,27.28,0,0,1,3,0,3.48,3.48,0,0,1,1.43.49,11.27,11.27,0,0,0,1.54.42,13.21,13.21,0,0,1,1.81.59,15.11,15.11,0,0,0,5.27,1.26,8,8,0,0,0,2.55-.25c1.19-.43,2.45-.85,3.6-1.38.85-.4,1.49-1.14,2.36-1.51C1871.47,63.26,1873.18,64.32,1875.62,63.63Z"/><path class="cls-25" d="M1298.77,335.06c.53-.09.69-.4,1-.81a9.34,9.34,0,0,1,1.18-1.08c.5-.47.31-1,.36-1.6s-.08-1.3,0-1.94c0-.23.12-.48.14-.72,0-.65-.61-1.22-1.11-1.58a2.49,2.49,0,0,0-1.67-.49c-.55.06-1.09,0-1.62.09a32.24,32.24,0,0,1-3.46.19,16.66,16.66,0,0,0-1.72.09,2,2,0,0,0-.84.12,2.88,2.88,0,0,1-1.16.21c-.59,0-1.14,0-1.72,0s-1.14-.08-1.75-.07a6.87,6.87,0,0,1-2.17-.05c-.79-.23-1.54-.74-2.35-.9a2.07,2.07,0,0,0-1.05.1c-.32.09-.6.05-.92.11a4.34,4.34,0,0,0-1,.35,3.21,3.21,0,0,1-1,.16,3.74,3.74,0,0,0-.8.26,4.67,4.67,0,0,1-1,.15,4.9,4.9,0,0,0-1.87.85c-1,.7-2.09,1.37-3,2.14a8.14,8.14,0,0,1-1.62,1.19c-.31.14-.65.22-1,.36s-.6.49-1,.68c-.58.29-1.27.2-1.9.45s-1.42.61-2.15.85c-.33.11-.78,0-1.07.11a4.63,4.63,0,0,0-.58.59,2.4,2.4,0,0,0-.59,1.48c-.15.85-.15,1.05.57,1.64a5.28,5.28,0,0,0,.89.5,4.33,4.33,0,0,0,1,.63,3.49,3.49,0,0,0,1.87,0c1.17-.33,1.86-1.48,2.78-2.16a5.43,5.43,0,0,1,2.83-1.23,24.85,24.85,0,0,1,3,0,3.63,3.63,0,0,1,1.44.49,10,10,0,0,0,1.54.42,12.79,12.79,0,0,1,1.81.6,15.32,15.32,0,0,0,5.27,1.25,8.35,8.35,0,0,0,2.55-.24c1.18-.44,2.45-.86,3.6-1.39.85-.4,1.49-1.14,2.36-1.51C1294.62,334.69,1296.33,335.75,1298.77,335.06Z"/><path class="cls-25" d="M1176.5,221.23c.54-.09.69-.4,1-.81a8.64,8.64,0,0,1,1.18-1.08c.5-.47.31-1,.37-1.6s-.09-1.31,0-1.94c0-.24.12-.48.14-.72,0-.65-.6-1.23-1.11-1.58a2.48,2.48,0,0,0-1.66-.49c-.55.06-1.1,0-1.63.08a27.78,27.78,0,0,1-3.46.19c-.57,0-1.13.05-1.71.1a2.21,2.21,0,0,0-.85.11,2.72,2.72,0,0,1-1.16.21c-.59,0-1.14.05-1.71,0s-1.15-.08-1.76-.07a6.8,6.8,0,0,1-2.16-.05c-.79-.23-1.55-.74-2.36-.9a2.08,2.08,0,0,0-1.05.1c-.32.08-.6,0-.92.1a4.84,4.84,0,0,0-1,.36,3.69,3.69,0,0,1-1,.16,3.4,3.4,0,0,0-.8.26,4.66,4.66,0,0,1-1,.15,4.87,4.87,0,0,0-1.88.85c-1,.7-2.09,1.37-3,2.14a8.81,8.81,0,0,1-1.61,1.19c-.31.14-.65.22-1,.36s-.6.49-1,.68c-.57.29-1.27.2-1.89.45s-1.43.61-2.15.85c-.34.11-.78,0-1.08.11a5.41,5.41,0,0,0-.58.59,2.34,2.34,0,0,0-.58,1.48c-.16.85-.16,1.05.56,1.64a5.7,5.7,0,0,0,.89.5,4,4,0,0,0,1,.62,3.4,3.4,0,0,0,1.87,0c1.18-.33,1.86-1.48,2.78-2.17a5.53,5.53,0,0,1,2.83-1.22,25,25,0,0,1,3,0,3.48,3.48,0,0,1,1.43.49,11,11,0,0,0,1.55.42,14.17,14.17,0,0,1,1.81.59,15,15,0,0,0,5.26,1.26,8.35,8.35,0,0,0,2.55-.24c1.19-.44,2.45-.86,3.6-1.39.85-.4,1.49-1.14,2.36-1.51C1172.36,220.86,1174.06,221.92,1176.5,221.23Z"/><path class="cls-25" d="M416.3,469.66c.53-.09.69-.4,1-.81a10.08,10.08,0,0,1,1.18-1.08c.51-.47.31-1,.37-1.6s-.08-1.3,0-1.94c0-.23.12-.47.14-.72.05-.65-.61-1.22-1.12-1.58a2.48,2.48,0,0,0-1.66-.49c-.55.06-1.1,0-1.62.09a32.24,32.24,0,0,1-3.46.19,16.51,16.51,0,0,0-1.72.09,2.05,2.05,0,0,0-.85.12,2.83,2.83,0,0,1-1.15.21c-.59,0-1.14.05-1.72,0s-1.15-.09-1.75-.08a6.87,6.87,0,0,1-2.17-.05c-.79-.23-1.54-.74-2.35-.9a2.07,2.07,0,0,0-1.05.1c-.33.09-.61,0-.93.11a4.44,4.44,0,0,0-1,.35,3.26,3.26,0,0,1-1,.16,4,4,0,0,0-.81.26,4.66,4.66,0,0,1-1,.15,4.9,4.9,0,0,0-1.87.85c-1,.7-2.09,1.37-3,2.14a8.08,8.08,0,0,1-1.61,1.19c-.31.14-.65.22-1,.36s-.61.49-1,.68c-.57.29-1.26.2-1.89.45s-1.42.62-2.15.85c-.34.11-.78,0-1.07.11a4.63,4.63,0,0,0-.58.59A2.4,2.4,0,0,0,379,471c-.15.86-.16,1.05.56,1.64a5.78,5.78,0,0,0,.9.5,4.49,4.49,0,0,0,1,.63,3.53,3.53,0,0,0,1.88,0c1.17-.33,1.86-1.48,2.78-2.16a5.43,5.43,0,0,1,2.83-1.23,24.86,24.86,0,0,1,3,0,3.53,3.53,0,0,1,1.43.49,10.12,10.12,0,0,0,1.55.42,12.79,12.79,0,0,1,1.81.6,15.26,15.26,0,0,0,5.27,1.25,8,8,0,0,0,2.54-.24c1.19-.44,2.45-.86,3.61-1.39.85-.4,1.48-1.14,2.36-1.51C412.15,469.29,413.85,470.35,416.3,469.66Z"/><path class="cls-25" d="M640.57,535.16c.54-.09.69-.4,1-.81a8.64,8.64,0,0,1,1.18-1.08c.5-.47.31-1,.36-1.6s-.08-1.3,0-1.94c0-.23.12-.48.14-.72.05-.65-.61-1.22-1.11-1.58a2.49,2.49,0,0,0-1.67-.49c-.55.06-1.09,0-1.62.09a32.24,32.24,0,0,1-3.46.19,16.66,16.66,0,0,0-1.72.09,2,2,0,0,0-.84.12,2.88,2.88,0,0,1-1.16.21c-.59,0-1.14.05-1.72,0s-1.14-.08-1.75-.07a6.87,6.87,0,0,1-2.17-.05c-.78-.23-1.54-.74-2.35-.9a2.07,2.07,0,0,0-1.05.1c-.32.08-.6,0-.92.11a4.34,4.34,0,0,0-1,.35,3.56,3.56,0,0,1-1,.16,3.26,3.26,0,0,0-.8.26,4.67,4.67,0,0,1-1,.15,4.9,4.9,0,0,0-1.87.85c-1,.7-2.09,1.37-3,2.14a8.55,8.55,0,0,1-1.62,1.19c-.31.14-.65.22-1,.36s-.6.49-1,.68c-.57.29-1.27.2-1.89.45s-1.43.61-2.15.85c-.34.11-.79,0-1.08.11a5.41,5.41,0,0,0-.58.59,2.4,2.4,0,0,0-.59,1.48c-.15.85-.15,1,.57,1.64a5.28,5.28,0,0,0,.89.5,4.33,4.33,0,0,0,1,.63,3.49,3.49,0,0,0,1.87,0c1.17-.33,1.86-1.48,2.78-2.16a5.43,5.43,0,0,1,2.83-1.23,25,25,0,0,1,3,0,3.63,3.63,0,0,1,1.43.49,10,10,0,0,0,1.54.42,12,12,0,0,1,1.81.6,15.32,15.32,0,0,0,5.27,1.25,8.35,8.35,0,0,0,2.55-.24c1.19-.44,2.45-.86,3.6-1.39.85-.4,1.49-1.14,2.36-1.51C636.42,534.79,638.13,535.85,640.57,535.16Z"/><path class="cls-25" d="M429.61,2.16l-.14.06c-.45.2-.7.56-1.12.77-.66.34-1.45.23-2.17.52s-1.63.7-2.46,1c-.39.13-.9,0-1.23.13a5.4,5.4,0,0,0-.67.68A2.73,2.73,0,0,0,421.15,7c-.18,1-.18,1.2.64,1.88a6.61,6.61,0,0,0,1,.57,4.87,4.87,0,0,0,1.14.72,4,4,0,0,0,2.14,0c1.35-.38,2.14-1.7,3.19-2.48a6.26,6.26,0,0,1,3.25-1.41,30.19,30.19,0,0,1,3.43,0,4.17,4.17,0,0,1,1.64.57,11.54,11.54,0,0,0,1.77.48,14.74,14.74,0,0,1,2.07.68,17.16,17.16,0,0,0,6,1.44,9.18,9.18,0,0,0,2.92-.28c1.36-.5,2.81-1,4.12-1.59,1-.46,1.71-1.31,2.71-1.73,1.93-.82,3.88.4,6.68-.39.61-.11.79-.46,1.15-.92a9.4,9.4,0,0,1,1.36-1.24,1.41,1.41,0,0,0,.41-1.17Z"/><path class="cls-25" d="M766.64,2.16a3.13,3.13,0,0,0-.49,1.45c-.17,1-.18,1.2.65,1.88a7.46,7.46,0,0,0,1,.57c.47.28.61.54,1.15.72a3.89,3.89,0,0,0,2.14,0c1.34-.37,2.13-1.69,3.19-2.48a6.29,6.29,0,0,1,3.24-1.4,28,28,0,0,1,3.43,0,4.1,4.1,0,0,1,1.64.56,10.5,10.5,0,0,0,1.77.48,16.35,16.35,0,0,1,2.08.69,17.37,17.37,0,0,0,6,1.43,8.91,8.91,0,0,0,2.92-.28c1.36-.5,2.81-1,4.13-1.59,1-.45,1.7-1.3,2.7-1.72,1.88-.8,3.78.32,6.46-.35Z"/><path class="cls-25" d="M296.59,394.12c.61-.11.79-.46,1.15-.93a10.62,10.62,0,0,1,1.35-1.24c.58-.53.36-1.13.42-1.83s-.09-1.5,0-2.23c0-.26.14-.54.16-.82.06-.74-.69-1.4-1.28-1.81a2.82,2.82,0,0,0-1.9-.56c-.63.07-1.26,0-1.86.1a36.42,36.42,0,0,1-4,.22c-.66,0-1.29.05-2,.1a2.46,2.46,0,0,0-1,.13,3.21,3.21,0,0,1-1.33.25c-.67,0-1.3.05-2,0s-1.31-.1-2-.09a8,8,0,0,1-2.49-.05c-.9-.27-1.77-.85-2.69-1a2.46,2.46,0,0,0-1.21.1,9.58,9.58,0,0,1-1.06.13,6.3,6.3,0,0,0-1.1.4,3.63,3.63,0,0,1-1.1.19,5,5,0,0,0-.93.29,4.9,4.9,0,0,1-1.19.18,5.75,5.75,0,0,0-2.15,1c-1.14.81-2.39,1.58-3.45,2.46a9.79,9.79,0,0,1-1.85,1.36c-.35.16-.74.25-1.1.41s-.69.56-1.12.78c-.65.33-1.45.23-2.17.52s-1.63.7-2.46,1c-.39.12-.89,0-1.23.12a7.2,7.2,0,0,0-.67.68,2.84,2.84,0,0,0-.67,1.7c-.17,1-.18,1.2.65,1.88a6.53,6.53,0,0,0,1,.57,4.73,4.73,0,0,0,1.15.72,4,4,0,0,0,2.14,0c1.35-.38,2.13-1.7,3.19-2.48a6.22,6.22,0,0,1,3.24-1.41,28,28,0,0,1,3.43,0,4.12,4.12,0,0,1,1.64.57A12.8,12.8,0,0,0,272,396a14.87,14.87,0,0,1,2.08.68,17.16,17.16,0,0,0,6,1.44,9.15,9.15,0,0,0,2.91-.28c1.36-.51,2.81-1,4.13-1.59,1-.46,1.7-1.31,2.7-1.73C291.83,393.69,293.79,394.91,296.59,394.12Z"/><path class="cls-25" d="M153,221.55c.61-.11.79-.46,1.15-.93a10,10,0,0,1,1.36-1.24c.57-.54.35-1.13.41-1.83s-.09-1.5,0-2.23a7.43,7.43,0,0,0,.16-.82c.06-.75-.69-1.41-1.27-1.81a2.85,2.85,0,0,0-1.91-.56c-.63.07-1.25,0-1.86.09a31.85,31.85,0,0,1-4,.22c-.66,0-1.3.06-2,.11a2.31,2.31,0,0,0-1,.13,3.16,3.16,0,0,1-1.32.24c-.68,0-1.31.06-2,0s-1.32-.11-2-.09a7.93,7.93,0,0,1-2.48-.05c-.91-.27-1.77-.85-2.7-1a2.42,2.42,0,0,0-1.2.11c-.38.1-.7.06-1.06.13a5.91,5.91,0,0,0-1.11.4,3.91,3.91,0,0,1-1.1.19,4.46,4.46,0,0,0-.92.29,4.91,4.91,0,0,1-1.2.18,5.55,5.55,0,0,0-2.14,1c-1.15.8-2.39,1.58-3.46,2.45a9.47,9.47,0,0,1-1.84,1.37c-.36.16-.75.25-1.11.41s-.69.56-1.11.78c-.66.33-1.46.23-2.17.51s-1.63.71-2.47,1c-.38.12-.89,0-1.23.12a5.34,5.34,0,0,0-.66.68,2.67,2.67,0,0,0-.67,1.7c-.18,1-.18,1.2.64,1.88a7,7,0,0,0,1,.57c.47.28.6.54,1.14.72a3.89,3.89,0,0,0,2.14,0c1.35-.37,2.13-1.69,3.19-2.48a6.29,6.29,0,0,1,3.25-1.4,27.87,27.87,0,0,1,3.42,0,4.15,4.15,0,0,1,1.65.56,10.5,10.5,0,0,0,1.77.48,16.21,16.21,0,0,1,2.07.69,17.37,17.37,0,0,0,6,1.43,8.85,8.85,0,0,0,2.91-.28c1.37-.5,2.81-1,4.13-1.59,1-.45,1.71-1.3,2.71-1.72C148.26,221.12,150.21,222.34,153,221.55Z"/><path class="cls-25" d="M1464.28,132.33c.61-.11.79-.46,1.15-.93a10,10,0,0,1,1.36-1.24c.57-.54.35-1.13.41-1.83s-.09-1.5,0-2.23a7.43,7.43,0,0,0,.16-.82c.06-.75-.69-1.41-1.27-1.81a2.85,2.85,0,0,0-1.91-.56c-.63.06-1.25,0-1.86.09a32,32,0,0,1-4,.22c-.66,0-1.3.06-2,.11a2.31,2.31,0,0,0-1,.13,3.16,3.16,0,0,1-1.32.24c-.68,0-1.31.06-2,0s-1.32-.1-2-.08a7.64,7.64,0,0,1-2.48-.06c-.91-.26-1.77-.84-2.7-1a2.42,2.42,0,0,0-1.2.11c-.38.1-.7.06-1.06.13a5.91,5.91,0,0,0-1.11.4,3.91,3.91,0,0,1-1.1.19,4.46,4.46,0,0,0-.92.29,4.91,4.91,0,0,1-1.2.18,5.55,5.55,0,0,0-2.14,1c-1.15.8-2.39,1.57-3.46,2.45a9,9,0,0,1-1.84,1.36c-.36.17-.75.26-1.11.42s-.69.56-1.11.78c-.66.33-1.46.23-2.17.51s-1.63.71-2.47,1c-.38.13-.89,0-1.23.13a5.34,5.34,0,0,0-.66.68,2.67,2.67,0,0,0-.67,1.69c-.18,1-.18,1.21.64,1.89a7,7,0,0,0,1,.57c.47.28.6.54,1.14.71a3.8,3.8,0,0,0,2.14,0c1.35-.37,2.13-1.69,3.19-2.48a6.39,6.39,0,0,1,3.25-1.41,30,30,0,0,1,3.42,0,4.15,4.15,0,0,1,1.65.56,11.54,11.54,0,0,0,1.77.48,17.9,17.9,0,0,1,2.07.68,17.16,17.16,0,0,0,6,1.44,9.12,9.12,0,0,0,2.91-.28c1.37-.5,2.81-1,4.13-1.59,1-.45,1.71-1.3,2.71-1.73C1459.53,131.9,1461.48,133.12,1464.28,132.33Z"/><path class="cls-25" d="M1487.27,298.14c.61-.11.79-.46,1.15-.93a9.93,9.93,0,0,1,1.35-1.24c.58-.53.36-1.13.42-1.83s-.09-1.5,0-2.23c0-.26.14-.54.16-.82.06-.75-.69-1.4-1.28-1.81a2.82,2.82,0,0,0-1.9-.56c-.63.07-1.26,0-1.86.1a34.11,34.11,0,0,1-4,.21c-.66,0-1.29.06-2,.11a2.29,2.29,0,0,0-1,.13,3.38,3.38,0,0,1-1.33.25c-.67,0-1.3.05-2,0s-1.31-.1-2-.09a8,8,0,0,1-2.49-.05c-.9-.27-1.77-.85-2.69-1a2.46,2.46,0,0,0-1.21.1c-.37.1-.69.06-1.06.13a6.3,6.3,0,0,0-1.1.4,3.63,3.63,0,0,1-1.1.19,4.36,4.36,0,0,0-.93.29,4.9,4.9,0,0,1-1.19.18,5.75,5.75,0,0,0-2.15,1c-1.14.8-2.39,1.58-3.45,2.45a9.43,9.43,0,0,1-1.85,1.37c-.35.16-.74.25-1.1.41s-.69.56-1.12.78c-.65.33-1.45.23-2.17.52s-1.63.7-2.46,1c-.39.12-.89,0-1.23.12a7.2,7.2,0,0,0-.67.68,2.81,2.81,0,0,0-.67,1.7c-.17,1-.18,1.2.65,1.88a7.46,7.46,0,0,0,1,.57,4.73,4.73,0,0,0,1.15.72,4,4,0,0,0,2.14,0c1.35-.38,2.13-1.7,3.19-2.48a6.22,6.22,0,0,1,3.24-1.41,28,28,0,0,1,3.43,0,4.26,4.26,0,0,1,1.64.56,11.56,11.56,0,0,0,1.77.49,14.87,14.87,0,0,1,2.08.68,17.61,17.61,0,0,0,6,1.44,9.45,9.45,0,0,0,2.91-.28c1.36-.51,2.81-1,4.13-1.6,1-.45,1.7-1.3,2.7-1.72C1482.51,297.71,1484.47,298.93,1487.27,298.14Z"/><path class="cls-25" d="M968.76,96.69c-9.22.55-20.29-1.87-29.66-2.62-17.05-1.37-31.49-.32-48.14,2.51a219.76,219.76,0,0,0-34.51,9.23c-16.92,5.81-36.87,3.45-54.18,0-9.67-1.9-19.24-4.11-29.49-3.93-11.78.22-22.78,4.79-34.68,6.77-28.22,4.68-57.62-.09-86.49.2-28.71.29-59.75-1-88.19,3.15-5.39.78-14.14,2-10.1,9.11,3.88,6.82,23.28,3.26,30.44,2.29,31.5-4.27,61.42,7.5,93,9.32,17.37,1,31.5-5.64,48.05-10.93,21.72-6.94,42.06-2.91,63.45,1.83,16.19,3.59,33,3.42,49.47,7,18.24,4,35.36,3.68,54,5.44,13,1.23,27,3.81,39.15.79,7.18-1.79,13.52-4.75,21.13-5.34,25.47-2,51.12,4.63,76.86,2.52,1.23-8.92-.67-13.71-7-19.89-7.69-7.52-14.18-4.55-24.47-4.64C986.18,109.51,975.29,102.9,968.76,96.69Z"/><path class="cls-25" d="M1603.8,201.72c5-.3,11,1,16.16,1.43a100.84,100.84,0,0,0,26.22-1.37,120.22,120.22,0,0,0,18.8-5c9.21-3.16,20.08-1.88,29.51,0,5.27,1,10.48,2.24,16.06,2.14,6.42-.11,12.41-2.61,18.89-3.68,15.37-2.55,31.38,0,47.11-.11s32.55.52,48-1.72c2.93-.42,7.7-1.1,5.5-5s-12.68-1.77-16.58-1.25c-17.16,2.33-33.46-4.08-50.69-5.08-9.46-.54-17.16,3.08-26.17,6-11.83,3.78-22.9,1.58-34.56-1-8.82-2-18-1.86-26.95-3.84-9.93-2.18-19.25-2-29.42-3-7.07-.67-14.7-2.08-21.32-.43-3.91,1-7.36,2.58-11.51,2.91-13.87,1.07-27.84-2.53-41.86-1.38-.68,4.87.36,7.47,3.8,10.84,4.19,4.1,7.72,2.48,13.32,2.53C1594.32,194.74,1600.25,198.34,1603.8,201.72Z"/><path class="cls-25" d="M1149.62,433.77c5-.3,11.06,1,16.16,1.43a100.84,100.84,0,0,0,26.22-1.37,120.22,120.22,0,0,0,18.8-5c9.21-3.17,20.08-1.88,29.51,0,5.27,1,10.48,2.24,16.06,2.14,6.42-.12,12.41-2.61,18.89-3.68,15.38-2.55,31.39,0,47.11-.12s32.55.53,48-1.71c2.93-.42,7.7-1.1,5.5-5s-12.68-1.78-16.58-1.25c-17.16,2.33-33.45-4.08-50.68-5.08-9.46-.54-17.16,3.08-26.17,6-11.84,3.78-22.91,1.58-34.57-1-8.82-1.95-18-1.86-26.94-3.84-9.94-2.19-19.26-2-29.43-3-7.07-.67-14.7-2.08-21.32-.43-3.91,1-7.36,2.58-11.51,2.9-13.87,1.08-27.84-2.52-41.86-1.37-.68,4.86.36,7.47,3.8,10.84,4.19,4.09,7.72,2.48,13.33,2.52C1140.14,426.79,1146.07,430.38,1149.62,433.77Z"/><path class="cls-25" d="M1491.55,2.16c-14.11,4.49-28.42,8.52-42.68,8.82-13.89.3-26.67-5.82-40.16-8.82h-30.35c-25.95,4.48-50.74,16.67-77.74,14.07C1266.73,13,1232.84,3.59,1198.06,5.81c-5.72.37-24.37.83-22.21,10.55,1.35,6.06,11,4.15,15.38,3.51,11.73-1.71,19.15,0,31.51,4.22,12.87,4.39,18.58,4.95,32.91,3.74,24.57-2.08,47,3.36,71.77,2.41,10.08-.38,18.37-3.48,28.35-4.78,24-3.12,42.18,4.47,65,10.74,15.8,4.33,31.3,6.47,45.34-3,17.66-11.9,37.67-17.26,58.69-21.11,8.46-1.55,17.65-2.06,15.42-9.94Z"/><path class="cls-25" d="M1283.66,537.11c-23.9,5.84-49,17.75-73.92,18.29-18.43.39-34.9-10.52-53.67-10.42-32.28.17-61.8,18.82-94.58,15.66-33.89-3.26-67.77-12.63-102.55-10.41-5.73.36-24.38.82-22.22,10.54,1.35,6.06,11,4.15,15.39,3.51,11.72-1.71,19.14,0,31.51,4.22,12.86,4.4,18.57,5,32.9,3.74,24.58-2.07,47,3.36,71.77,2.41,10.09-.38,18.37-3.48,28.35-4.78,24-3.12,42.19,4.47,65,10.74,15.8,4.33,31.31,6.47,45.34-3,17.67-11.9,37.67-17.25,58.69-21.11,9.89-1.81,20.8-2.19,13.26-14.6C1295.15,535.62,1289.81,531.64,1283.66,537.11Z"/><path class="cls-25" d="M763.09,281.86C726,290.93,687,309.44,648.22,310.27c-28.64.62-54.24-16.35-83.4-16.19-50.18.27-96.05,29.25-147,24.35-52.67-5.07-105.33-19.64-159.37-16.19-8.9.57-37.89,1.28-34.53,16.39,2.1,9.42,17.16,6.44,23.91,5.45,18.22-2.66,29.75,0,49,6.57,20,6.82,28.86,7.68,51.14,5.8,38.19-3.22,73.07,5.22,111.53,3.75,15.68-.6,28.55-5.41,44.06-7.43,37.27-4.84,65.55,7,101.08,16.69,24.55,6.73,48.65,10.05,70.46-4.64,29.27-19.73,52.48-25.27,91.21-32.81,19.28-3.75,30.63-4.91,30.63-4.91,24.44-2.48,33.88-.05,34.85-3.27,1.63-5.39-22.07-21.52-49-23.27A76.44,76.44,0,0,0,763.09,281.86Z"/><path class="cls-25" d="M1923.51,476.82a142.49,142.49,0,0,1-15.12,1.17c-28.64.62-54.25-16.35-83.41-16.19-50.18.27-96,29.25-147,24.35-52.66-5.07-105.32-19.64-159.37-16.19-8.9.56-37.89,1.27-34.52,16.38,2.09,9.43,17.15,6.45,23.9,5.46,18.22-2.66,29.75,0,49,6.56,20,6.83,28.87,7.69,51.14,5.81,38.19-3.23,73.07,5.22,111.54,3.75,15.67-.6,28.54-5.42,44-7.43,37.27-4.85,65.56,6.94,101.08,16.68,20.22,5.55,40.14,8.77,58.73,1.52Z"/></g><g class="cls-26"><path class="cls-16" d="M869.07,243.41c26-29.64,54.2-59.53,84.89-89.26,145.9-141.33,300.52-233.75,433.83-295l350.4,5.83q-9.17,29.13-18.31,58.26c-44,7.5-97.63,18.09-158.14,33.29-99,24.89-172,51-191,57.85-98,35.49-166.32,70.14-294.77,135.8-66.87,34.18-121.76,64-160.08,85.17"/><path class="cls-16" d="M935.64,355.91c-10.85,4.69-22.23,7.66-33.75,10.14-9.37,2-18.8,3.7-28.21,5.5s-18,5.2-25,12.07a48.16,48.16,0,0,0-9.13,13.3c-1.64,3.32-2.92,6.82-5.07,9.86s-4.67,4-7.62,2.73a12.36,12.36,0,0,1-4.75-4.08c-4.3-5.61-6.93-12.05-8.93-18.73a103.3,103.3,0,0,1-4.36-27.05,110.34,110.34,0,0,1,2.26-25,89.27,89.27,0,0,1,20.19-41.38c2.43-2.46,5.89-6,10.14-10.39l1-1.08c3.76-3.9,15.19-12.32,30.15-16.22,13.5-3.52,24.7-2,31.39-1.09a89,89,0,0,1,16.58,3.83A87.89,87.89,0,0,1,944.25,280c7.15,5.11,13.35,11.14,17.56,19a39.12,39.12,0,0,1,4.26,25.25,33.29,33.29,0,0,1-11,19.65A69,69,0,0,1,935.64,355.91Z"/><path class="cls-16" d="M1089.34,392a2.4,2.4,0,0,0,.73-1.59q.4-2.82.7-5.79Q1090.22,388.36,1089.34,392Zm-4.21,12.88c-.35.84-.72,1.66-1.12,2.48a7,7,0,0,1,1.18-1.7A1.83,1.83,0,0,1,1085.13,404.9Zm-2.77,6.26c.43-1,.79-2,1.22-2.9-.49,1-1,2-1.58,3Zm-2.81,4c-.36.53-.73,1.05-1.11,1.55q-1.74,2.42-3.71,4.65c.75-.83,1.49-1.66,2.19-2.52a.86.86,0,0,1,.14-.13,1.92,1.92,0,0,1,.22-.39c1.19-1.56,2.71-2.85,3.39-4.75a1.41,1.41,0,0,1,.31-.52s0-.07,0-.11C1080.52,413.74,1080.05,414.48,1079.55,415.21Zm-23,21.27c.33-.16.65-.34,1-.51a63.56,63.56,0,0,0,9.76-7,1.64,1.64,0,0,1,.35-.47l.36-.35q-.77.69-1.56,1.35A70.66,70.66,0,0,1,1056.53,436.48Zm7.69-146.66A149.3,149.3,0,0,0,1026.44,255c-2.3-1.5-17.73-11.27-41.11-17.85-3.57-1-7.33-1.94-11.25-2.75,1.54.35,3.07.72,4.6,1.12,2.3.6,4.62,1.24,6.9,1.92h0l2.35.71,2.33.73c.77.25,1.55.5,2.32.77l2,.71.92.33a166.43,166.43,0,0,1,21.22,9.46,156,156,0,0,1,17.92,11.36,141.15,141.15,0,0,1,18.5,16.09,138.66,138.66,0,0,1,13.75,16.59h0c2.23,3.16,4.34,6.42,6.3,9.79a141.49,141.49,0,0,1,12.1,26.65,133.38,133.38,0,0,0-21.12-40.85Zm-11.28,172.81a32.24,32.24,0,0,0-2.17-7.38,1.65,1.65,0,0,1,1.17-2.27h0l0-.06c-2.64-3.17-5.76-6.07-7.86-8.59a1.53,1.53,0,0,1,.23-2.29l.06,0-.07,0h0a64.85,64.85,0,0,1-11.73,2.71l-1.29.16c-.86.11-1.72.19-2.58.26-2.25.19-4.49.27-6.72.26-.75,0-1.5,0-2.26,0h-.07l-2.32-.1q-3.49-.21-7-.69l-1.75-.25c-1.76-.27-3.51-.59-5.26-.94l-1.26-.26c-.87-.19-1.72-.38-2.58-.59s-1.57-.38-2.35-.59c-1.09-.29-2.17-.59-3.25-.91q-2.45-.72-4.86-1.53c-4-1.36-8-2.9-12-4.52-5-2.05-9.83-4.26-14.67-6.59-5.27-2.52-10.65-4.84-15.88-7.47-4.47-2.24-9-4.33-13.6-6.35q-2.45-1.08-4.92-2.09l-1.44-.57c-1.12-.44-2.24-.86-3.37-1.27l-1.58-.55c-.55-.2-1.1-.38-1.65-.56-.75-.24-1.51-.48-2.26-.7s-1.5-.46-2.26-.67-1.5-.43-2.26-.63l-2.28-.57h-.1c-1.24-.3-2.5-.56-3.76-.79a1.66,1.66,0,0,1,.88.63c.81,1.14.11,3.12-1.52,3a1.41,1.41,0,0,1-.4.37l-1,.6a2.13,2.13,0,0,1-1.31.69c.59-.08.27,0,.1,0a4.67,4.67,0,0,1-.65.13,1.87,1.87,0,0,1-1.86-1.24,1.8,1.8,0,0,1,0-1.19,10.72,10.72,0,0,0-2,.24h-.08a2,2,0,0,1-1.13,2.19c-2.29.91-3.27,2.18-4.77,4a3.21,3.21,0,0,1-1.78,1.19,13.86,13.86,0,0,1,.49,2.85c.16,2.31-.63,3.56-1.91,4.13a2,2,0,0,1-.09.51c-.15.52-.29,1-.41,1.57a1.58,1.58,0,0,1,.66.88,18.77,18.77,0,0,1,.33,2.58,1.85,1.85,0,0,0,0,.23c.12.76.35,1.5.46,2.26a1.19,1.19,0,0,1-.06.59v0a1.21,1.21,0,0,1-.11.3,18,18,0,0,1,1,2.52,22.63,22.63,0,0,0,1.72,3.08c.62.93,1.26,1.74,1.76,2.62a1.85,1.85,0,0,1,.77.91,5.93,5.93,0,0,0,1.17,1.34c.43.46.87.9,1.29,1.37a14.82,14.82,0,0,1,1.13,1.25l.12.19a2.25,2.25,0,0,1,1.07,1.08c.22.43.83.76,1.19,1.06a18.89,18.89,0,0,1,1.42,1.41c.31.33.65.65,1,1a1.48,1.48,0,0,1,.41.12,1.64,1.64,0,0,1,.69.65h0l0,0a9.94,9.94,0,0,0,2.2,2.24,12.47,12.47,0,0,0,2.25,1.79h0a2.63,2.63,0,0,0,.41.21,1.62,1.62,0,0,1,.94,1l0,.05.09.05h0a1.56,1.56,0,0,1,.46.34l.49.49c.86.84,1.73,1.67,2.54,2.55a1.71,1.71,0,0,1,.79.46c.7.69,1.4,1.41,2.11,2.12a1.87,1.87,0,0,1,.61.11,2,2,0,0,1,1,.69,3.64,3.64,0,0,1,.24.35h0c.16.22.3.44.44.67a1.9,1.9,0,0,1,1,.64l.72.81c.3.31.61.6.93.9a2.16,2.16,0,0,1,.43.25,55.45,55.45,0,0,1,4.52,4.05l.48.41c.24.2.46.4.67.6a1.52,1.52,0,0,1,.58.27l0,0a1.06,1.06,0,0,1,.2.17l.27.26,0,0c1.55,1.5,3.4,3.07,4.89,4.83a2.21,2.21,0,0,1,.44.26l1,.8.07.06a30.44,30.44,0,0,1,6.43,6.49s0,0,0,0c.19.28.36.58.52.87l.2.12a11.9,11.9,0,0,1,.94.79l0,0c1.16,1.05,2.18,2.24,3.24,3.4a16.6,16.6,0,0,1,2.2,3h0c.13.26.27.51.39.77a2.7,2.7,0,0,1,.36.26l.25.25a13.48,13.48,0,0,1,1.46,1.94l.5.69a7,7,0,0,0,.61.72,7.39,7.39,0,0,1,2.12,3h0c0,.1,0,.19,0,.28a9.27,9.27,0,0,1,1.81,1.89,2.44,2.44,0,0,1,1.31.87c.07.09.16.19.22.28a.5.5,0,0,1,.12.08,6.28,6.28,0,0,1,1.1.47l.35.18a2.2,2.2,0,0,1,.41.31c.82.35,1.65.67,2.47,1a1.81,1.81,0,0,1,1.11.1c.43.17.92.38,1.42.55a6.26,6.26,0,0,1,1.68.3l.19.09a3.19,3.19,0,0,1,1.1.16,2,2,0,0,1,.89-.08l.16,0a1.3,1.3,0,0,1,.41-.07h0a1.5,1.5,0,0,1,.41,0h0l.14,0a15.48,15.48,0,0,0,6.21,0h.09l.75-.1c.65-.09,1.28-.14,1.93-.19a.41.41,0,0,0,.16,0q.62-.06,1.23-.18h0a5.72,5.72,0,0,0,.79-.2,14,14,0,0,1,2.65-.73,1.59,1.59,0,0,1,.86.11h0l.12.05.09,0a35.46,35.46,0,0,0,3.67-1h0c1.8-.57,3.57-1.25,5.34-1.91a1.64,1.64,0,0,1,1.19,0l.14,0a1.82,1.82,0,0,1,1.31-.13l0,0c-.56-.25.19-.26.72-.52s.82-.4,1.26-.56a23,23,0,0,0,3.81-1.47h0a5.36,5.36,0,0,0,.59-.38,1.59,1.59,0,0,1,1.22-.35,1.24,1.24,0,0,1,.39.1c2.74-1.21,6.11-2.82,9.93-4.89l.3-.15.21-.11.06,0a152.64,152.64,0,0,0,35.56-26.76h0c.3-.3.6-.6.89-.91-.11-.55-.21-1.09-.32-1.64h0c0-.22-.08-.43-.12-.64a1.93,1.93,0,0,1,.58-1.84l.1-.09,0-.35A.09.09,0,0,0,1052.94,462.63Zm-6.79-21,1.92-1c-.79.32-1.6.62-2.41.91A1.66,1.66,0,0,1,1046.15,441.61Zm-178.8,29.72a5.63,5.63,0,0,0,5.52-2.21,5.7,5.7,0,0,0,.74-6c-1.39-3.28-3.82-5.8-6-8.53-5.94-7.59-10-16-10.55-25.73a30.09,30.09,0,0,1,4.81-18.43A43,43,0,0,1,890.61,391a67.21,67.21,0,0,1,20.61-.55,138.51,138.51,0,0,1,13.91,2.27c6.79,1.43,13.52,3.09,20.22,4.86,5.34,1.39,10.72,2.65,16.1,3.87a158.63,158.63,0,0,0,18.23,3.17,87.64,87.64,0,0,0,19,.15,54.91,54.91,0,0,0,24.58-8.82,61,61,0,0,0,16.82-17,47.89,47.89,0,0,0,7-16.34c2.5-10.8,1.62-21.44-1.38-31.94a98.45,98.45,0,0,0-14.07-28.87,128.62,128.62,0,0,0-21.29-23.81,147.9,147.9,0,0,0-21.61-15.6A138.82,138.82,0,0,0,972.51,254a107.53,107.53,0,0,0-18.29-5.91A128.08,128.08,0,0,0,941,245.75a116.64,116.64,0,0,0-19.77-.69,134.27,134.27,0,0,0-53.39,13.59,123.59,123.59,0,0,0-26.75,17.65,109.46,109.46,0,0,0-12.2,12.45,49.61,49.61,0,0,0-5.57,7.27c-.8,1.34-1.34,2.41-1.63,3-11.08,22.43-14.23,34.67-14.23,34.67a118.59,118.59,0,0,0-3.67,23.81c-.69,14.26,1.37,27.22,2.5,34.35A123.07,123.07,0,0,0,811,408.1a125.49,125.49,0,0,0,6.81,15.23l.13.25a125.68,125.68,0,0,0,21.1,29A89.57,89.57,0,0,0,857,467C860.16,468.93,863.48,470.89,867.35,471.33Zm-21-46.17a26.77,26.77,0,0,1-.88,8.44c-.8,2.5-3.88,4.42-6.22,4-3.07-.56-5.28-2.39-7.42-4.43-5.3-5-9-11.24-12.35-17.57a128.11,128.11,0,0,1-7.93-18.54,105.68,105.68,0,0,1-5.66-26.94,89.68,89.68,0,0,1,.71-23.37c.46-2.67.9-4.44,1.76-7.91,2.67-10.84,4.75-19.17,9.72-28.9,3.17-6.22,6.53-10.73,11.26-17.16,0,0,3.35-4.56,8.16-10.38.07-.07.2-.23.37-.44a36.41,36.41,0,0,1,4.27-4.06c1.83-1.48,9.42-6.65,20.09-13.12A86.41,86.41,0,0,1,893,257.7c11.12-.6,22.18.41,33.18,1.86a84.32,84.32,0,0,1,16.06,4,114.47,114.47,0,0,1,18.62,8.21,99.19,99.19,0,0,1,20.8,15c7.26,6.91,13.2,14.73,16.56,24.29a43.26,43.26,0,0,1,2,21.34,52.27,52.27,0,0,1-4,13.26,49.36,49.36,0,0,1-16.2,20.3c-7.57,5.49-16.1,8.72-25.12,10.75a162.81,162.81,0,0,1-29.44,3.51c-7.83.3-15.66.62-23.49.91a157,157,0,0,0-22,2c-8.37,1.5-16.22,4.07-22.31,10.54-4.42,4.7-7.94,9.8-9.76,16.09C846.37,414.81,846.28,420,846.32,425.16Zm86.18,67,.24.28a9.44,9.44,0,0,1,2.16,5.94c0-.37.05-.67.05-.9a9.83,9.83,0,0,0-1.24-3.79A9,9,0,0,0,932.5,492.2Zm-.6,12.6a1,1,0,0,0,.15-.14,8.62,8.62,0,0,1-3,1.57A7.27,7.27,0,0,0,931.9,504.8Zm-9.6-20.53,2.62,1.63c1.14.72,2.25,1.47,3.31,2.28l-1.13-.88A36.66,36.66,0,0,0,922.3,484.27ZM907.92,504l2.27.77A44.36,44.36,0,0,0,921,506.58c-.94-.09-1.87-.21-2.81-.35A90.56,90.56,0,0,1,907.92,504ZM910,476.34c-5.85-4.21-12-9.2-12.19-9.33l-.12-.08-.18-.17a1.89,1.89,0,0,1-.38-.27c-2.2-2-4.65-3.72-6.66-5.93a3.91,3.91,0,0,1-.3-.41,38,38,0,0,1-4.06-4c-1.23-1.28-2.41-2.58-3.51-4l-.66-.85a1.68,1.68,0,0,1-.33-.69c-.24-.27-.48-.52-.76-.78a1.88,1.88,0,0,1-.3-.34,4,4,0,0,1-1.16-1.65,1.83,1.83,0,0,1-.15-.47,27.23,27.23,0,0,1-2.56-3.47,29.45,29.45,0,0,1-1.47-3.17,9,9,0,0,1-1.2-1.94,49.44,49.44,0,0,0,7.78,12.51,107.06,107.06,0,0,0,14.55,14.56c4.25,3.57,8.68,6.88,13.19,10.1Zm-9.8-70.94-.48,0,.12.08Zm-2.54,0h-.18l.12,0Zm-2.3.34a8.36,8.36,0,0,1,.8-.27c-.78.05-1.55.12-2.31.24A7.56,7.56,0,0,1,895.36,405.71Zm-6,1.08a20.75,20.75,0,0,1,3-.89,26.35,26.35,0,0,0-7,2.31C886.76,407.63,888.22,407.22,889.38,406.79ZM870.64,487c-2.52-1.55-5-3.17-7.36-4.87-2.16-1.51-4.26-3.07-6.33-4.69l-.12-.09,0,0-.17-.13c-.07-.05-.13-.11-.2-.15h0l-.13-.12h0c-1.11-.86-2.2-1.74-3.27-2.62,1.09.93,2.21,1.86,3.35,2.77a166.78,166.78,0,0,0,29.81,18.62c2.14,1.08,4.26,2,6.62,3q-3.84-1.63-7.59-3.49C880.19,492.69,875.36,489.94,870.64,487Zm11.5-76.66a4.72,4.72,0,0,1,.68-.66,21.37,21.37,0,0,0-2.32,1.69,14.47,14.47,0,0,1,1.39-.92Zm-6.81,6.8a12.27,12.27,0,0,1,.87-1.41,17.44,17.44,0,0,0-1.34,1.92,2.37,2.37,0,0,1,.39-.32A1,1,0,0,1,875.33,417.13Zm-2.39,18.62c.23.82.5,1.62.8,2.4-.09-.31-.14-.62-.21-.93a2.09,2.09,0,0,1-.23-.86A2.23,2.23,0,0,0,872.94,435.75Zm-.28-1.4c-.06-.12-.13-.23-.18-.35,0,.2.09.39.14.58A.93.93,0,0,1,872.66,434.35Zm-.82-7c.19-1.21.46-2.38.63-3.34.12-.67.24-1.42.4-2.19A20,20,0,0,0,871.84,427.35Zm.48,5.89a1.26,1.26,0,0,1,.13-.54l0,0a3.6,3.6,0,0,1-.31-.54C872.17,432.49,872.24,432.86,872.32,433.24Zm-70.72-58.8c-.34-4.86-.34-8.71-.32-10.68.28-22.93,6.46-38.85,8.4-43.53.5-1.22.94-2.2,1.2-2.81,2.84-6.11,5.12-10.94,6.61-14.11.21-.47.48-1.05.81-1.72a129.49,129.49,0,0,0-16.88,54,132.26,132.26,0,0,0,8,56.32c.33.93,1.2,3.32,2.7,6.75a162.57,162.57,0,0,1-6.38-18.93A135.37,135.37,0,0,1,801.6,374.44Z"/><path class="cls-25" d="M821,114.21C779.54,78.06,758.8,60,742.5,31.17c-7.58-13.38-41.06-72.53-20.77-141a156.32,156.32,0,0,1,6.53-17.93H675A176.51,176.51,0,0,0,650-70.87c-3.77,15.67-16.89,70,14.51,122.05,18,29.95,42.91,46.08,56.52,53.52-20.68-5.63-38.68-11.16-53.52-16-41.15-13.4-70.72-25.63-99.54-41.52-21.46-11.82-32.33-20.07-41-33-2.56-3.8-12.09-18.31-13.75-37-3.11-34.68,22.79-61.78,39.26-79A194,194,0,0,1,583-127.81H484.2C474-104.38,466-72.22,474.9-37.11c12.25,48.33,50.34,78,60,85.54,9.22,7.19,17.26,11.93,27,17.26C619.92,97.36,674.79,114.84,688,119c84.44,26.43,126.65,39.67,165.07,48,18.93,4.12,41.75,8.58,66.55,20.34q1.71-1.76,3.5-3.5A331.57,331.57,0,0,1,882,161.22C855.47,144.23,837.26,128.35,821,114.21Z"/><path class="cls-21" d="M856.42,476.85a.59.59,0,0,0-.14.06"/><path class="cls-27" d="M1052.35,465.91v0a4.09,4.09,0,0,1-.57,2.35,25.63,25.63,0,0,1-2.08,3,25.25,25.25,0,0,1-2,2.26c-6.8,6.73-14.69,12-22.89,16.78a143,143,0,0,1-33.07,14.55c-8.36,2.37-16.85,4.05-25.62,2.16-4.61-1-8.55-3-11.26-7a120.69,120.69,0,0,0-11.18-13.91c-7.81-8.4-16.47-15.92-25.14-23.41-6.57-5.69-13.22-11.31-19.22-17.59-3.1-3.24-6-6.71-7.73-11a13.45,13.45,0,0,1-.95-3.62,10,10,0,0,1,.12-2.82c1-5.16,6.51-9,12.39-8.44l1.22.14A20.06,20.06,0,0,1,908,420l.16,0a171.09,171.09,0,0,1,18.6,8.23c5.15,2.67,5.17,3,26.24,15.51,5.65,3.36,11.44,6.47,17.3,9.43q3.57,1.8,7.24,3.34a92.07,92.07,0,0,0,16.38,5.13,118.34,118.34,0,0,0,12.72,1.95,113.49,113.49,0,0,0,13.92.48,77.85,77.85,0,0,0,16.7-2.31c3.32-.85,6.62-1.94,10.21-1.47A6.07,6.07,0,0,1,1052.35,465.91Z"/><path class="cls-21" d="M966.07,324.25a33.29,33.29,0,0,1-11,19.65,69,69,0,0,1-19.45,12c-10.85,4.69-22.23,7.66-33.75,10.14-9.37,2-18.8,3.7-28.21,5.5s-18,5.2-25,12.07a48.16,48.16,0,0,0-9.13,13.3c-1.64,3.32-2.92,6.82-5.07,9.86s-4.67,4-7.62,2.73a12.36,12.36,0,0,1-4.75-4.08c-4.3-5.61-6.93-12.05-8.93-18.73a103.3,103.3,0,0,1-4.36-27.05,110.34,110.34,0,0,1,2.26-25,89.27,89.27,0,0,1,20.19-41.38c2.43-2.46,5.89-6,10.14-10.39l1-1.08c3.76-3.9,15.19-12.32,30.15-16.22,13.5-3.52,24.7-2,31.39-1.09a89,89,0,0,1,16.58,3.83A87.89,87.89,0,0,1,944.25,280c7.15,5.11,13.35,11.14,17.56,19A39.12,39.12,0,0,1,966.07,324.25Z"/><path class="cls-21" d="M1090.08,349.63a125,125,0,0,0-4.73-18.95c.16.49.31,1,.46,1.49a134.73,134.73,0,0,1,5,52.47c.4-2.66.69-5.34.85-8.05A117.68,117.68,0,0,0,1090.08,349.63Zm-2.23,47.79c.56-1.79,1.06-3.58,1.49-5.4a1.71,1.71,0,0,0-.24.51C1088.62,394.16,1088.32,395.79,1087.85,397.42Zm-2.61,7a1.89,1.89,0,0,0-.11.44c.68-1.56,1.29-3.15,1.85-4.76,0-.13.09-.25.12-.38q.29-.83.54-1.65c-.09.27-.18.54-.28.8C1086.66,400.76,1086,402.62,1085.24,404.46ZM1081,413c.37-.58.71-1.16,1-1.75A1.64,1.64,0,0,0,1081,413Zm-13,15.18a70.71,70.71,0,0,0,6.76-6.76C1072.57,423.75,1070.24,426,1068,428.17Zm-11.44,8.31c-2.78,1.47-5.65,2.75-8.46,4.15A63.72,63.72,0,0,0,1056.53,436.48Zm-10.87,5.06a2.16,2.16,0,0,0-1.31.45ZM937.83,230.76a144.83,144.83,0,0,0-33.12,4.42,140.15,140.15,0,0,0-54.56,27.66A133.83,133.83,0,0,0,822,294.67c-.31.49-.59,1-.59,1-1.37,2.35-2.4,4.36-3.13,5.89a139.77,139.77,0,0,1,24-31.1c4.42-4.27,25.89-24.41,61.18-34.12A149.41,149.41,0,0,1,974,234.43c-4.67-1-9.4-1.83-14.16-2.42A156.21,156.21,0,0,0,937.83,230.76ZM934.9,498.48a10,10,0,0,1-2.17,5.52A8,8,0,0,0,934.9,498.48Zm-6.5-10.16c1,.8,1.71,1.52,2.44,2.21s1.2,1.17,1.59,1.6A25.9,25.9,0,0,0,928.4,488.32ZM921,506.58a30.88,30.88,0,0,0,6.08,0,10.92,10.92,0,0,0,1.89-.36,14.66,14.66,0,0,1-3,.36C924.26,506.68,922.57,506.66,921,506.58Zm1.28-22.31c-4.13-2.57-8.3-5.12-12.3-7.93,1,.76,2.09,1.5,3.08,2.17a99,99,0,0,0,8.45,5.33ZM906.81,406.1a23.06,23.06,0,0,0-6.24-.73l-.33,0c.65,0,1.31.07,2,.13,1.62.14,3.22.35,4.79.63A1.06,1.06,0,0,0,906.81,406.1Zm-5,96.06q3,1,6.06,1.87c-6.54-2.2-11.17-3.79-15.13-5.38Q897.25,500.56,901.85,502.16Zm-4.19-96.79c.68,0,1.37,0,2.06,0a1.77,1.77,0,0,0-1.05-.32A1.6,1.6,0,0,0,897.66,405.37Zm-1.11,0a2.85,2.85,0,0,0-.39.11l1.32-.06A1.7,1.7,0,0,0,896.55,405.33Zm-11.16,2.88a9.59,9.59,0,0,0-2.55,1.44A23,23,0,0,1,885.39,408.21Zm-9.16,7.48a23.82,23.82,0,0,1,2.78-3.05c.44-.41.88-.8,1.33-1.16A20.23,20.23,0,0,0,876.23,415.69Zm-2.38,22.8c0,.12.1.24.16.36-.09-.22-.17-.44-.26-.67C873.78,438.28,873.81,438.39,873.85,438.49Zm1-20.85a7.77,7.77,0,0,0-2,4.18A19.5,19.5,0,0,1,874.86,417.64Zm-1.92,18.11c-.12-.39-.23-.78-.32-1.17A1.45,1.45,0,0,0,872.94,435.75Zm-.62-2.51a1.36,1.36,0,0,0,.14.72l0,0c0-.11-.05-.23-.08-.34S872.34,433.38,872.32,433.24Zm-.48-5.89a8.63,8.63,0,0,0,.27,4.77A23.55,23.55,0,0,1,871.84,427.35Zm-59.66-8.58c.33.84.67,1.67,1,2.5.41,1,.84,2,1.27,3a3.31,3.31,0,0,1,.15.33,127.17,127.17,0,0,0,18.06,29.33,151.06,151.06,0,0,0,15.09,15.88c.67.61,1.35,1.2,2,1.8,1,.89,2.05,1.77,3.1,2.64C829.79,454.46,817.35,430.58,812.18,418.77Z"/><path class="cls-12" d="M1085.81,332.17c-.15-.5-.3-1-.46-1.49a141.49,141.49,0,0,0-12.1-26.65c-2-3.37-4.07-6.63-6.3-9.79h0a138.66,138.66,0,0,0-13.75-16.59,141.15,141.15,0,0,0-18.5-16.09,156,156,0,0,0-17.92-11.36,166.43,166.43,0,0,0-21.22-9.46l-.92-.33-2-.71c-.77-.27-1.55-.52-2.32-.77l-2.33-.73-2.35-.71h0c-2.28-.68-4.6-1.32-6.9-1.92-1.53-.4-3.06-.77-4.6-1.12H974a149.41,149.41,0,0,0-70.49,1.89c-35.29,9.71-56.76,29.85-61.18,34.12a139.77,139.77,0,0,0-24,31.1l0,0c-.33.67-.6,1.25-.81,1.72-1.49,3.17-3.77,8-6.61,14.11-.26.61-.7,1.59-1.2,2.81-1.94,4.68-8.12,20.6-8.4,43.53,0,2,0,5.82.32,10.68a135.37,135.37,0,0,0,4.14,25.24,162.57,162.57,0,0,0,6.38,18.93l.06.16c5.17,11.81,17.61,35.69,40.72,55.44l.1.08c1.07.88,2.16,1.76,3.27,2.62h0l.13.12h0c.07,0,.13.1.2.15l.17.13,0,0,.12.09c2.07,1.62,4.17,3.18,6.33,4.69,2.4,1.7,4.84,3.32,7.36,4.87,4.72,2.95,9.55,5.7,14.55,8.17q3.75,1.86,7.59,3.49c4,1.59,8.59,3.18,15.13,5.38h0a90.56,90.56,0,0,0,10.29,2.2c.94.14,1.87.26,2.81.35,1.55.08,3.24.1,5,0a14.66,14.66,0,0,0,3-.36h0a8.62,8.62,0,0,0,3-1.57l.34-.3h0a2.69,2.69,0,0,0,.33-.35,10,10,0,0,0,2.17-5.52v-.06a9.44,9.44,0,0,0-2.16-5.94l-.24-.28a.15.15,0,0,0-.07-.07c-.39-.43-.91-1-1.59-1.6s-1.48-1.41-2.44-2.21l-.17-.14c-1.06-.81-2.17-1.56-3.31-2.28l-2.62-1.63-.77-.43a99,99,0,0,1-8.45-5.33c-1-.67-2-1.41-3.08-2.17l-.47-.32c-4.51-3.22-8.94-6.53-13.19-10.1a107.06,107.06,0,0,1-14.55-14.56A49.44,49.44,0,0,1,874,438.85c-.06-.12-.11-.24-.16-.36s-.07-.21-.1-.31,0,0,0,0c-.3-.78-.57-1.58-.8-2.4a1.45,1.45,0,0,1-.32-1.17c0-.19-.1-.38-.14-.58l0,0a1.36,1.36,0,0,1-.14-.72c-.08-.38-.15-.75-.21-1.12a8.63,8.63,0,0,1-.27-4.77,20,20,0,0,1,1-5.53,7.77,7.77,0,0,1,2-4.18,17.44,17.44,0,0,1,1.34-1.92s0,0,0,0a20.23,20.23,0,0,1,4.11-4.21.83.83,0,0,1,.16-.12,21.37,21.37,0,0,1,2.32-1.69l0,0a9.59,9.59,0,0,1,2.55-1.44,26.35,26.35,0,0,1,7-2.31l.79-.14.66-.08c.76-.12,1.53-.19,2.31-.24a2.85,2.85,0,0,1,.39-.11,1.7,1.7,0,0,1,.93.05h.18a1.6,1.6,0,0,1,1-.31,1.77,1.77,0,0,1,1.05.32l.48,0h0l.33,0a23.06,23.06,0,0,1,6.24.73,1.06,1.06,0,0,1,.19.06c1.26.23,2.52.49,3.76.79h.1l2.28.57c.76.2,1.51.41,2.26.63s1.51.44,2.26.67,1.51.46,2.26.7c.55.18,1.1.36,1.65.56s1,.35,1.58.55c1.13.41,2.25.83,3.37,1.27.48.18,1,.38,1.44.57q2.47,1,4.92,2.09c4.57,2,9.13,4.11,13.6,6.35,5.23,2.63,10.61,4.95,15.88,7.47,4.84,2.33,9.71,4.54,14.67,6.59,4,1.62,7.93,3.16,12,4.52q2.41.81,4.86,1.53c1.08.32,2.16.62,3.25.91.78.21,1.56.41,2.35.59s1.71.4,2.58.59l1.26.26c1.75.35,3.5.67,5.26.94l1.75.25q3.48.48,7,.69l2.32.1h.07c.76,0,1.51,0,2.26,0,2.23,0,4.47-.07,6.72-.26.86-.07,1.72-.15,2.58-.26l1.29-.16a64.85,64.85,0,0,0,11.73-2.71h0l.07,0a2.16,2.16,0,0,1,1.31-.45c.81-.29,1.62-.59,2.41-.91,2.81-1.4,5.68-2.68,8.46-4.15a70.66,70.66,0,0,0,9.88-7q.79-.66,1.56-1.35c2.27-2.19,4.6-4.42,6.76-6.76q2-2.24,3.71-4.65c.38-.5.75-1,1.11-1.55.5-.73,1-1.47,1.42-2.22a1.64,1.64,0,0,1,1-1.75c.57-1,1.09-2,1.58-3,0,0,0,0,0,0a8.16,8.16,0,0,1,.41-.84c.4-.82.77-1.64,1.12-2.48a1.89,1.89,0,0,1,.11-.44c.72-1.84,1.42-3.7,2.12-5.55.1-.26.19-.53.28-.8l.21-.69c.47-1.63.77-3.26,1.25-4.89a1.71,1.71,0,0,1,.24-.51q.87-3.66,1.43-7.38A134.73,134.73,0,0,0,1085.81,332.17ZM1047,362.56a47.89,47.89,0,0,1-7,16.34,61,61,0,0,1-16.82,17,54.91,54.91,0,0,1-24.58,8.82,87.64,87.64,0,0,1-19-.15,158.63,158.63,0,0,1-18.23-3.17c-5.38-1.22-10.76-2.48-16.1-3.87-6.7-1.77-13.43-3.43-20.22-4.86a138.51,138.51,0,0,0-13.91-2.27,67.21,67.21,0,0,0-20.61.55,43,43,0,0,0-28.7,19.42,30.09,30.09,0,0,0-4.81,18.43c.53,9.76,4.61,18.14,10.55,25.73,2.14,2.73,4.57,5.25,6,8.53a5.7,5.7,0,0,1-.74,6,5.63,5.63,0,0,1-5.52,2.21c-3.87-.44-7.19-2.4-10.37-4.31a89.57,89.57,0,0,1-17.9-14.43,125.68,125.68,0,0,1-21.1-29l-.13-.25A125.49,125.49,0,0,1,811,408.1a123.07,123.07,0,0,1-4.76-16.27c-1.13-7.13-3.19-20.09-2.5-34.35a118.59,118.59,0,0,1,3.67-23.81s3.15-12.24,14.23-34.67c.29-.57.83-1.64,1.63-3a49.61,49.61,0,0,1,5.57-7.27,109.46,109.46,0,0,1,12.2-12.45,123.59,123.59,0,0,1,26.75-17.65,134.27,134.27,0,0,1,53.39-13.59,116.64,116.64,0,0,1,19.77.69,128.08,128.08,0,0,1,13.23,2.32A107.53,107.53,0,0,1,972.51,254a138.82,138.82,0,0,1,16.16,8.36,147.9,147.9,0,0,1,21.61,15.6,128.62,128.62,0,0,1,21.29,23.81,98.45,98.45,0,0,1,14.07,28.87C1048.64,341.12,1049.52,351.76,1047,362.56Z"/><path class="cls-21" d="M966.07,324.25a33.29,33.29,0,0,1-11,19.65,69,69,0,0,1-19.45,12c-10.85,4.69-22.23,7.66-33.75,10.14-9.37,2-18.8,3.7-28.21,5.5s-18,5.2-25,12.07a48.16,48.16,0,0,0-9.13,13.3c-1.64,3.32-2.92,6.82-5.07,9.86s-4.67,4-7.62,2.73a12.36,12.36,0,0,1-4.75-4.08c-4.3-5.61-6.93-12.05-8.93-18.73a103.3,103.3,0,0,1-4.36-27.05,110.34,110.34,0,0,1,2.26-25,89.27,89.27,0,0,1,20.19-41.38c2.43-2.46,5.89-6,10.14-10.39l1-1.08c3.76-3.9,15.19-12.32,30.15-16.22,13.5-3.52,24.7-2,31.39-1.09a89,89,0,0,1,16.58,3.83A87.89,87.89,0,0,1,944.25,280c7.15,5.11,13.35,11.14,17.56,19A39.12,39.12,0,0,1,966.07,324.25Z"/><path class="cls-21" d="M966.07,324.25a33.29,33.29,0,0,1-11,19.65,69,69,0,0,1-19.45,12c-10.85,4.69-22.23,7.66-33.75,10.14-9.37,2-18.8,3.7-28.21,5.5s-18,5.2-25,12.07a48.16,48.16,0,0,0-9.13,13.3c-1.64,3.32-2.92,6.82-5.07,9.86s-4.67,4-7.62,2.73a12.36,12.36,0,0,1-4.75-4.08c-4.3-5.61-6.93-12.05-8.93-18.73a103.3,103.3,0,0,1-4.36-27.05,110.34,110.34,0,0,1,2.26-25,89.27,89.27,0,0,1,20.19-41.38c2.43-2.46,5.89-6,10.14-10.39l1-1.08c3.76-3.9,15.19-12.32,30.15-16.22,13.5-3.52,24.7-2,31.39-1.09a89,89,0,0,1,16.58,3.83A87.89,87.89,0,0,1,944.25,280c7.15,5.11,13.35,11.14,17.56,19A39.12,39.12,0,0,1,966.07,324.25Z"/><path class="cls-27" d="M998.17,311c-3.36-9.56-9.3-17.38-16.56-24.29a99.19,99.19,0,0,0-20.8-15,114.47,114.47,0,0,0-18.62-8.21,84.32,84.32,0,0,0-16.06-4c-11-1.45-22.06-2.46-33.18-1.86a86.41,86.41,0,0,0-30.75,7.08c-10.67,6.47-18.26,11.64-20.09,13.12a36.41,36.41,0,0,0-4.27,4.06c-.17.21-.3.37-.37.44-4.81,5.82-8.16,10.38-8.16,10.38-4.73,6.43-8.09,10.94-11.26,17.16-5,9.73-7,18.06-9.72,28.9-.86,3.47-1.3,5.24-1.76,7.91a89.68,89.68,0,0,0-.71,23.37,105.68,105.68,0,0,0,5.66,26.94,128.11,128.11,0,0,0,7.93,18.54c3.39,6.33,7,12.56,12.35,17.57,2.14,2,4.35,3.87,7.42,4.43,2.34.42,5.42-1.5,6.22-4a26.77,26.77,0,0,0,.88-8.44c0-5.19,0-10.35,1.53-15.42,1.82-6.29,5.34-11.39,9.76-16.09,6.09-6.47,13.94-9,22.31-10.54a157,157,0,0,1,22-2c7.83-.29,15.66-.61,23.49-.91a162.81,162.81,0,0,0,29.44-3.51c9-2,17.55-5.26,25.12-10.75a49.36,49.36,0,0,0,16.2-20.3,52.27,52.27,0,0,0,4-13.26A43.26,43.26,0,0,0,998.17,311Zm-32.1,13.22a33.29,33.29,0,0,1-11,19.65,69,69,0,0,1-19.45,12c-10.85,4.69-22.23,7.66-33.75,10.14-9.37,2-18.8,3.7-28.21,5.5s-18,5.2-25,12.07a48.16,48.16,0,0,0-9.13,13.3c-1.64,3.32-2.92,6.82-5.07,9.86s-4.67,4-7.62,2.73a12.36,12.36,0,0,1-4.75-4.08c-4.3-5.61-6.93-12.05-8.93-18.73a103.3,103.3,0,0,1-4.36-27.05,110.34,110.34,0,0,1,2.26-25,89.27,89.27,0,0,1,20.19-41.38c2.43-2.46,5.89-6,10.14-10.39l1-1.08c3.76-3.9,15.19-12.32,30.15-16.22,13.5-3.52,24.7-2,31.39-1.09a89,89,0,0,1,16.58,3.83A87.89,87.89,0,0,1,944.25,280c7.15,5.11,13.35,11.14,17.56,19A39.12,39.12,0,0,1,966.07,324.25Z"/><path class="cls-28" d="M1024.84,472.63a108.69,108.69,0,0,0-17.86.76,60.75,60.75,0,0,1-25.51-3,133.57,133.57,0,0,1-20-8.56c-5.07-2.65-9.82-5.86-14.71-8.82-2.3-1.39-4.58-2.93-7.4-3.29-4.59-.58-7.81,3-6.3,7.38a38.38,38.38,0,0,0,5.65,10,71.64,71.64,0,0,0,19.38,17.84,68.32,68.32,0,0,0,17.77,8.31,47.79,47.79,0,0,0,18.86,1.47,61.72,61.72,0,0,0,31.13-12.28,16.63,16.63,0,0,0,2.48-2.41c2.42-2.79.38-6.17-2-6.93-.45-.15-.91-.26-1.36-.39"/><path class="cls-21" d="M966.07,324.25a33.29,33.29,0,0,1-11,19.65,69,69,0,0,1-19.45,12c-10.85,4.69-22.23,7.66-33.75,10.14-9.37,2-18.8,3.7-28.21,5.5s-18,5.2-25,12.07a48.16,48.16,0,0,0-9.13,13.3c-1.64,3.32-2.92,6.82-5.07,9.86s-4.67,4-7.62,2.73a12.36,12.36,0,0,1-4.75-4.08c-4.3-5.61-6.93-12.05-8.93-18.73a103.3,103.3,0,0,1-4.36-27.05,110.34,110.34,0,0,1,2.26-25,89.27,89.27,0,0,1,20.19-41.38c2.43-2.46,5.89-6,10.14-10.39l1-1.08c3.76-3.9,15.19-12.32,30.15-16.22,13.5-3.52,24.7-2,31.39-1.09a89,89,0,0,1,16.58,3.83A87.89,87.89,0,0,1,944.25,280c7.15,5.11,13.35,11.14,17.56,19A39.12,39.12,0,0,1,966.07,324.25Z"/><path class="cls-27" d="M1015.8,478.59c-1.67-.39-3.12.52-4.64.87-7.82,1.81-15.58,1.86-23.2-.74a100.87,100.87,0,0,1-10.23-4.34,9,9,0,0,0-5.75-1.07,5.14,5.14,0,0,0-4.2,4.52,5.21,5.21,0,0,0,2.37,5.43,30.87,30.87,0,0,0,12.36,4.93,53.39,53.39,0,0,0,14,.82,43.5,43.5,0,0,0,19.2-6c2.26-1.39,2.28-2.51.25-4.34"/><path class="cls-21" d="M889.66,277.55a64.46,64.46,0,0,0-12.77-1.13c-15.74.36-29.93,5.06-41.68,15.79A62.45,62.45,0,0,0,822.6,308.9a66.38,66.38,0,0,0-8,31.44c-.09,11.8,2.63,23,6.83,34,1.07,2.79,2.59,5.46,5.23,7,4.57,2.66,7.41,2.36,11.35-1.51s7.33-8.62,11-12.94c6.35-7.5,13.62-13.81,22.6-18,4.44-2.08,9.23-3.13,13.88-4.61,9.24-2.95,18.06-6.72,25.23-13.51,6.78-6.43,9.83-14.3,8.42-23.62-1.09-7.24-3.66-13.88-9-19.22A35.27,35.27,0,0,0,897.8,280c-2.6-1-5.33-1.58-8-2.41"/><path class="cls-21" d="M869.16,295.17a50.9,50.9,0,0,0-10.52-1c-10,.26-19.14,3.22-26.87,9.66-5,4.17-8.28,9.7-10.56,15.8a37.38,37.38,0,0,0-2.51,17.12c.85,8.44,3.94,15.84,10.26,21.68a11.49,11.49,0,0,0,2.92,1.8,4.1,4.1,0,0,0,5.29-1.92c1-1.76,1.31-3.78,2-5.65,1.13-2.93,2.18-5.86,4.31-8.28a19.1,19.1,0,0,1,9.13-5.57,162.58,162.58,0,0,0,17-5.74c4.68-2,9.14-4.38,12.63-8.21,4.06-4.46,5-9.66,3.5-15.37-1.77-6.88-6.47-10.91-13-13.14-1.14-.39-2.29-.75-3.44-1.13"/><path class="cls-19" d="M1052.94,462.63l-.06.49a21.14,21.14,0,0,1-.46,2.48h0c0,.1-.05.2-.07.3a6.06,6.06,0,0,0-4.9-5.62c-3.59-.48-6.88.61-10.21,1.46a76.53,76.53,0,0,1-16.7,2.31,113.55,113.55,0,0,1-13.92-.47,118.36,118.36,0,0,1-12.72-2,91.26,91.26,0,0,1-16.38-5.13c-2.44-1-4.86-2.13-7.24-3.33-5.86-3-11.65-6.07-17.3-9.43-21.07-12.53-21.08-12.84-26.24-15.51a172.8,172.8,0,0,0-18.6-8.24l-.16,0a22,22,0,0,0-3.64-.57l-1.22-.13c-5.87-.57-11.39,3.28-12.38,8.44a9.29,9.29,0,0,0-.18,1.79,8.6,8.6,0,0,0,.06,1c-.89-1.91-3-7.12-1.07-12.55,2.31-6.51,9.6-11.13,18.33-11.16a25.66,25.66,0,0,1,2.88.16h.1l2.28.57c.76.2,1.51.41,2.26.63s1.51.44,2.26.67l2.25.71,1.66.55,1.58.55c1.13.41,2.25.83,3.37,1.27l1.44.57q2.47,1,4.92,2.09c4.57,2,9.13,4.11,13.6,6.35,5.23,2.63,10.61,4.95,15.88,7.47,4.84,2.33,9.71,4.54,14.67,6.59,4,1.62,7.93,3.16,12,4.52q2.41.81,4.86,1.53c1.08.32,2.16.62,3.25.91.78.21,1.56.41,2.35.59s1.72.41,2.59.6c.42.09.83.18,1.25.25,1.75.36,3.5.68,5.26.94.58.09,1.16.18,1.75.25q3.48.48,7,.69l2.32.1h.07c.76,0,1.51,0,2.26,0,2.23,0,4.47-.07,6.72-.26.86-.07,1.72-.15,2.58-.26l1.29-.16a64.85,64.85,0,0,0,11.73-2.71h0v0a23.48,23.48,0,0,1,7.63,10.88.14.14,0,0,1,0,.07c.11.31.21.64.3,1A23.12,23.12,0,0,1,1052.94,462.63Z"/><path class="cls-21" d="M911.75,407.07l-.89-.11"/><path class="cls-21" d="M890.73,430.76l-.12-.25"/><path class="cls-21" d="M1044.27,442a3,3,0,0,1-.32-.24"/><path class="cls-21" d="M1052.35,465.93c-.11.41-.2.77-.29,1.06"/><path class="cls-21" d="M923.1,183.81s0,0,0,0"/><path class="cls-21" d="M1069.12,297.89c-.72-1.23-1.45-2.44-2.17-3.65"/><path class="cls-21" d="M986.58,238.63c-.32-.38-.65-.76-1-1.15"/><path class="cls-2" d="M1328.08-112.27q-40.86,22.08-80.67,46.05t-78.05,50.35l-.08,0q-4.41,2.22-8.59,4.84c-1.38.88-2.81,1.78-4.11,2.7s-2.54,2-3.79,3.12S1150.27-3,1148.91-2l-4.1,2.81-8.2,5.61q-16.38,11.25-32.4,22.94-32.1,23.37-62.82,48.54c-41,33.51-80.06,69.28-117.66,106.53a.91.91,0,1,1-1.29-1.29h0c37.7-37.23,76.89-73,118-106.46q30.8-25.12,63-48.48,16.1-11.65,32.46-22.91L1144-.27l4.09-2.8c1.28-1,2.55-2,3.8-3.11s2.52-2.16,3.87-3.18,2.78-1.85,4.2-2.75c2.82-1.76,5.73-3.4,8.71-4.88l-.08,0Q1207-43.18,1246.81-67.2t80.8-45.95a.51.51,0,0,1,.68.2A.5.5,0,0,1,1328.08-112.27Z"/><path class="cls-2" d="M846.25,265.52q35-40.6,72.74-78.8a.85.85,0,0,1,1.21,1.18h0q-38,37.83-73.38,78.11a.38.38,0,0,1-.56-.5Z"/><path class="cls-19" d="M1066.94,294.23a138.66,138.66,0,0,0-13.75-16.59,141.15,141.15,0,0,0-18.5-16.09,156,156,0,0,0-17.92-11.36,166.43,166.43,0,0,0-21.22-9.46l-.92-.33-2-.71c-.77-.27-1.55-.52-2.32-.77l-2.33-.73-2.35-.71c-.08-.1-.17-.19-.26-.29a210.84,210.84,0,0,0-27.42-26l-.16-.13q6.91-3.67,13.47-7.05l.19.09a190.11,190.11,0,0,1,25.68,14.68c18.78,12.69,43.83,34,67.13,71.07h0C1065.13,291.27,1066,292.74,1066.94,294.23Z"/><path class="cls-21" d="M1714.44-77.25C1522.2-42.58,1383.62,7,1296.22,43.85c0,0-93.7,39.54-329.59,162.71-23.93,12.5-46.79,25.63-46.79,25.63l-.53.31"/><path class="cls-21" d="M800.35,74.25l-.46-.19"/><path class="cls-21" d="M815.75,29.58c0-.16,0-.31,0-.47"/><path class="cls-2" d="M965.5,171.75c28.08-24.42,59-49.11,92.86-73.38A1270.13,1270.13,0,0,1,1350.42-57.4,2021.65,2021.65,0,0,0,1125.26,62.42C1066.16,98.83,1013,135.82,965.5,171.75Z"/><path class="cls-29" d="M776.6,74.23h0s0,0,0,0,0,0,0,0,0,0,0,0c-4.16-6-9-11.48-13.18-17.57-1-3.44-1.67-7.09-2.93-10.21-1.91-4.69-5-8.74-8.17-12.71q-1.41-3.53-2.93-7c-9.47-21.09-18.5-41.92-18.45-65.46a114.52,114.52,0,0,1,5-32.56c3.13-10.45,8.08-20.17,11.42-30.52a144.78,144.78,0,0,1,11-26h-30c-2.75,8.4-4.24,17.1-6.27,25.68-1.31,4-2.49,8.12-3.45,12.27a95.4,95.4,0,0,0-1.88,32.61,96.87,96.87,0,0,1,.14,14.65v.13a131.76,131.76,0,0,0-.16,17.55A120.33,120.33,0,0,0,735.74,29.3c2.06,3.13,4.53,6.1,6.91,9.1,2.85,7,5.71,14.1,9.55,20.46.62,1,1.29,2.06,2,3.06,1.42,4.38,3.3,8.5,7.07,11.53a5.39,5.39,0,0,0,2.5,1.17,81.33,81.33,0,0,1,7.41,11c3.28,6,12.46.65,9.19-5.38C779.2,78.16,777.93,76.18,776.6,74.23Zm-49.09-154c.37-2.54.85-5.12,1.44-7.67a6,6,0,0,0,1.32.51C729.31-84.54,728.38-82.16,727.51-79.76Z"/><path class="cls-29" d="M580.71-127.81q-3.54,2.4-7.06,4.84a4.46,4.46,0,0,0-5.41,0,189.8,189.8,0,0,0-19,15c-5.73,5-12.81,9.76-17.64,15.65s-7.65,13.81-10.8,20.64c-2.54,5.47-5,11-7.64,16.4-2.81-2.17-7.39-1.87-8.09,2.52A101.16,101.16,0,0,0,506.71-14c0,.42,0,.84,0,1.28a5.12,5.12,0,0,0,1.08,3.05,150,150,0,0,0,4.92,15.23,35.13,35.13,0,0,1-.26,6.39,5.87,5.87,0,0,0,5.8,6.67c.2.41.37.82.57,1.23,2.51,5.29,9.41,2,9.91-2.68,0-.13,0-.24,0-.37h0a182.43,182.43,0,0,0,.5-21.63c0-.12.07-.23.09-.35C531-12,531.8-19,534.67-25.45c6-13.45,14.81-26.33,24.07-37.7,17.86-22,39.19-43.08,64.39-56.4a5.54,5.54,0,0,0,1.54-1.22c6-2.35,12-4.54,18-6.5l1.71-.54ZM549.78-68.87a227.91,227.91,0,0,0-13.42,18.58,5,5,0,0,0-.47-1.61,35.65,35.65,0,0,0,4.74-11.55c1-1.31,2-2.61,3-3.88a133.71,133.71,0,0,1,29.7-27.93A296.12,296.12,0,0,0,549.78-68.87Z"/><path class="cls-25" d="M462.85-74.3c-.59,20.76,2.21,49.4,17.22,78.41,24.56,47.46,67.36,68.09,88,78A225.73,225.73,0,0,0,626.27,101C593.42,91.68,513.9,64.09,480.17-8.25a159.87,159.87,0,0,1-9-24.15A216.41,216.41,0,0,1,462.85-74.3Z"/><path class="cls-25" d="M749.53,143.56c25.32,8.15,46.1,13.33,60.08,16.51,30.37,6.9,51.53,9.55,83.48,21.1,10,3.61,18,7,22.93,9.17"/><path class="cls-30" d="M661-122.63c-8.33,13-29.4,49.51-27,99.78a169.86,169.86,0,0,0,26.26,82.54"/><path class="cls-30" d="M1039.86,90.82a1375.79,1375.79,0,0,1,330.87-209.33"/><path class="cls-30" d="M1081.62,332.29c2.28,5.21,12.23,29.53,2,58-9.76,27.21-31.24,39.65-36.51,42.52"/><path class="cls-30" d="M938.32,283.27c3.22,1.83,15.07,9.07,19.51,23.76,1.28,4.24,4.72,15.65-1.75,26.51-5.37,9-14.27,12.15-17,13"/><path class="cls-30" d="M869,478.34a113.34,113.34,0,0,0,50.27,22.51"/><path class="cls-30" d="M918.31,403.32c15.23,7,27.4,12.83,35.51,16.75,16.3,7.88,23.42,11.59,35,15.26a160.28,160.28,0,0,0,25,5.75"/><path class="cls-30" d="M821.77,330a34.91,34.91,0,0,1,11-20.76c7.2-6.38,15-7.54,21.51-8.5,7-1,14-2.07,19.75,2.25a18.77,18.77,0,0,1,6.51,10"/><path class="cls-30" d="M887.92,227a478.56,478.56,0,0,1,56.65-57.77q11-9.47,21.76-17.63"/><path class="cls-30" d="M1009.08,171.82c20.74-12.52,43.21-25.12,67.41-37.46q27-13.74,52.44-25"/><path class="cls-25" d="M848.49,263.18a143.65,143.65,0,0,1,72.64-31.27l14.61-8.8a101.62,101.62,0,0,0-26,.38,102.7,102.7,0,0,0-38.75,14Z"/><path class="cls-25" d="M1623.08-127.81c-48.21,14.35-98.27,30.79-149.85,49.7-67.91,24.88-130.85,51.23-188.71,77.88l364.76-127.58Z"/><path class="cls-25" d="M1296.5-127.81a746.15,746.15,0,0,0-85,47.45C1132.33-29.09,1076,28.86,1076.09,29a894.45,894.45,0,0,1,98.35-82.12,835.55,835.55,0,0,1,125.62-74.66Z"/></g><rect class="cls-31" x="3" y="3" width="1918.25" height="1431.44"/></svg>