<svg id="Layer_1" data-name="Layer 1" xmlns="http://www.w3.org/2000/svg" xmlns:xlink="http://www.w3.org/1999/xlink" viewBox="0 0 1906.16 1423.24"><defs><style>.cls-1,.cls-11,.cls-18,.cls-23,.cls-24,.cls-9{fill:none;}.cls-15,.cls-2,.cls-21,.cls-8{fill:#866678;}.cls-3{fill:#fff1ea;stroke:#866779;}.cls-12,.cls-19,.cls-24,.cls-3,.cls-9{stroke-miterlimit:10;}.cls-12,.cls-18,.cls-19,.cls-20,.cls-21,.cls-23,.cls-3{stroke-width:2px;}.cls-4{clip-path:url(#clip-path);}.cls-5{fill:#fdd4ba;}.cls-19,.cls-6{fill:#f9deeb;}.cls-7{fill:#deb69d;}.cls-11,.cls-12,.cls-15,.cls-18,.cls-20,.cls-21,.cls-23,.cls-8,.cls-9{stroke:#866678;}.cls-11,.cls-15,.cls-18,.cls-20,.cls-21,.cls-23,.cls-8{stroke-linecap:round;stroke-linejoin:round;}.cls-8{stroke-width:0.75px;}.cls-10{fill:url(#_10_dpi_30_8);}.cls-11,.cls-23{stroke-dasharray:12 4 3 5;}.cls-12{fill:#efe7d3;}.cls-13{fill:url(#_10_dpi_30_8-25);}.cls-14{opacity:0.08;}.cls-15{stroke-width:0.5px;}.cls-16{clip-path:url(#clip-path-2);}.cls-17{fill:#fbedf5;}.cls-19{stroke:#856779;}.cls-20{fill:#fbeef5;}.cls-22{fill:url(#_10_dpi_30_8-27);}.cls-24{stroke:#866778;stroke-width:6px;}</style><clipPath id="clip-path"><rect class="cls-1" x="-9.23" y="23.84" width="1917.74" height="922.75" transform="translate(1899.27 970.43) rotate(180)"/></clipPath><pattern id="_10_dpi_30_8" data-name="10 dpi 30% 8" width="28.8" height="28.8" patternTransform="matrix(-0.54, 0, 0, 0.54, 166.33, -295.66)" patternUnits="userSpaceOnUse" viewBox="0 0 28.8 28.8"><rect class="cls-1" width="28.8" height="28.8"/><path class="cls-2" d="M28.8,31a2.16,2.16,0,1,0-2.16-2.16A2.16,2.16,0,0,0,28.8,31Z"/><path class="cls-2" d="M14.4,31a2.16,2.16,0,1,0-2.16-2.16A2.16,2.16,0,0,0,14.4,31Z"/><path class="cls-2" d="M28.8,16.56a2.16,2.16,0,1,0-2.16-2.16A2.16,2.16,0,0,0,28.8,16.56Z"/><path class="cls-2" d="M14.4,16.56a2.16,2.16,0,1,0-2.16-2.16A2.16,2.16,0,0,0,14.4,16.56Z"/><path class="cls-2" d="M7.2,23.76A2.16,2.16,0,1,0,5,21.6,2.16,2.16,0,0,0,7.2,23.76Z"/><path class="cls-2" d="M21.6,23.76a2.16,2.16,0,1,0-2.16-2.16A2.16,2.16,0,0,0,21.6,23.76Z"/><path class="cls-2" d="M7.2,9.36A2.16,2.16,0,1,0,5,7.2,2.16,2.16,0,0,0,7.2,9.36Z"/><path class="cls-2" d="M21.6,9.36A2.16,2.16,0,1,0,19.44,7.2,2.16,2.16,0,0,0,21.6,9.36Z"/><path class="cls-2" d="M0,31A2.16,2.16,0,0,0,2.16,28.8,2.16,2.16,0,0,0,0,26.64,2.16,2.16,0,0,0,0,31Z"/><path class="cls-2" d="M0,16.56A2.16,2.16,0,0,0,2.16,14.4,2.16,2.16,0,0,0,0,12.24a2.16,2.16,0,1,0,0,4.32Z"/><path class="cls-2" d="M28.8,2.16A2.16,2.16,0,0,0,31,0a2.16,2.16,0,0,0-4.32,0A2.16,2.16,0,0,0,28.8,2.16Z"/><path class="cls-2" d="M14.4,2.16A2.16,2.16,0,0,0,16.56,0a2.16,2.16,0,1,0-4.32,0A2.16,2.16,0,0,0,14.4,2.16Z"/><path class="cls-2" d="M0,2.16A2.16,2.16,0,0,0,2.16,0,2.16,2.16,0,0,0,0-2.16,2.16,2.16,0,0,0-2.16,0,2.16,2.16,0,0,0,0,2.16Z"/></pattern><pattern id="_10_dpi_30_8-25" data-name="10 dpi 30% 8" width="28.8" height="28.8" patternTransform="matrix(-0.98, 0, 0, 0.98, 245.41, -31.09)" patternUnits="userSpaceOnUse" viewBox="0 0 28.8 28.8"><rect class="cls-1" width="28.8" height="28.8"/><path class="cls-2" d="M28.8,31a2.16,2.16,0,1,0-2.16-2.16A2.16,2.16,0,0,0,28.8,31Z"/><path class="cls-2" d="M14.4,31a2.16,2.16,0,1,0-2.16-2.16A2.16,2.16,0,0,0,14.4,31Z"/><path class="cls-2" d="M28.8,16.56a2.16,2.16,0,1,0-2.16-2.16A2.16,2.16,0,0,0,28.8,16.56Z"/><path class="cls-2" d="M14.4,16.56a2.16,2.16,0,1,0-2.16-2.16A2.16,2.16,0,0,0,14.4,16.56Z"/><path class="cls-2" d="M7.2,23.76A2.16,2.16,0,1,0,5,21.6,2.16,2.16,0,0,0,7.2,23.76Z"/><path class="cls-2" d="M21.6,23.76a2.16,2.16,0,1,0-2.16-2.16A2.16,2.16,0,0,0,21.6,23.76Z"/><path class="cls-2" d="M7.2,9.36A2.16,2.16,0,1,0,5,7.2,2.16,2.16,0,0,0,7.2,9.36Z"/><path class="cls-2" d="M21.6,9.36A2.16,2.16,0,1,0,19.44,7.2,2.16,2.16,0,0,0,21.6,9.36Z"/><path class="cls-2" d="M0,31A2.16,2.16,0,0,0,2.16,28.8,2.16,2.16,0,0,0,0,26.64,2.16,2.16,0,0,0,0,31Z"/><path class="cls-2" d="M0,16.56A2.16,2.16,0,0,0,2.16,14.4,2.16,2.16,0,0,0,0,12.24a2.16,2.16,0,1,0,0,4.32Z"/><path class="cls-2" d="M28.8,2.16A2.16,2.16,0,0,0,31,0a2.16,2.16,0,0,0-4.32,0A2.16,2.16,0,0,0,28.8,2.16Z"/><path class="cls-2" d="M14.4,2.16A2.16,2.16,0,0,0,16.56,0a2.16,2.16,0,1,0-4.32,0A2.16,2.16,0,0,0,14.4,2.16Z"/><path class="cls-2" d="M0,2.16A2.16,2.16,0,0,0,2.16,0,2.16,2.16,0,0,0,0-2.16,2.16,2.16,0,0,0-2.16,0,2.16,2.16,0,0,0,0,2.16Z"/></pattern><clipPath id="clip-path-2"><rect class="cls-1" x="276.34" y="-4.06" width="1399.09" height="529.99"/></clipPath><pattern id="_10_dpi_30_8-27" data-name="10 dpi 30% 8" width="28.8" height="28.8" patternTransform="translate(112.51 -93.01) scale(0.62)" patternUnits="userSpaceOnUse" viewBox="0 0 28.8 28.8"><rect class="cls-1" width="28.8" height="28.8"/><path class="cls-2" d="M28.8,31a2.16,2.16,0,1,0-2.16-2.16A2.16,2.16,0,0,0,28.8,31Z"/><path class="cls-2" d="M14.4,31a2.16,2.16,0,1,0-2.16-2.16A2.16,2.16,0,0,0,14.4,31Z"/><path class="cls-2" d="M28.8,16.56a2.16,2.16,0,1,0-2.16-2.16A2.16,2.16,0,0,0,28.8,16.56Z"/><path class="cls-2" d="M14.4,16.56a2.16,2.16,0,1,0-2.16-2.16A2.16,2.16,0,0,0,14.4,16.56Z"/><path class="cls-2" d="M7.2,23.76A2.16,2.16,0,1,0,5,21.6,2.16,2.16,0,0,0,7.2,23.76Z"/><path class="cls-2" d="M21.6,23.76a2.16,2.16,0,1,0-2.16-2.16A2.16,2.16,0,0,0,21.6,23.76Z"/><path class="cls-2" d="M7.2,9.36A2.16,2.16,0,1,0,5,7.2,2.16,2.16,0,0,0,7.2,9.36Z"/><path class="cls-2" d="M21.6,9.36A2.16,2.16,0,1,0,19.44,7.2,2.16,2.16,0,0,0,21.6,9.36Z"/><path class="cls-2" d="M0,31A2.16,2.16,0,0,0,2.16,28.8,2.16,2.16,0,0,0,0,26.64,2.16,2.16,0,0,0,0,31Z"/><path class="cls-2" d="M0,16.56A2.16,2.16,0,0,0,2.16,14.4,2.16,2.16,0,0,0,0,12.24a2.16,2.16,0,1,0,0,4.32Z"/><path class="cls-2" d="M28.8,2.16A2.16,2.16,0,0,0,31,0a2.16,2.16,0,0,0-4.32,0A2.16,2.16,0,0,0,28.8,2.16Z"/><path class="cls-2" d="M14.4,2.16A2.16,2.16,0,0,0,16.56,0a2.16,2.16,0,1,0-4.32,0A2.16,2.16,0,0,0,14.4,2.16Z"/><path class="cls-2" d="M0,2.16A2.16,2.16,0,0,0,2.16,0,2.16,2.16,0,0,0,0-2.16,2.16,2.16,0,0,0-2.16,0,2.16,2.16,0,0,0,0,2.16Z"/></pattern></defs><title>Topology Website Elements-B</title><rect class="cls-3" x="-2.26" y="-4.06" width="1913.22" height="1135.35"/><g class="cls-4"><path class="cls-5" d="M-139,554.06c9.05-4.74,19.47-6.11,29.15-9.18,3.32-1.06,6.59-2.23,9.86-3.41,12.65-2,25.06-4.43,37.23-8.67,4.43-.44,8.86-.82,13.26-1.35,9.72-1.18,19.55-1.54,29-3.55H98.12c8.3,2.61,16.42,5.76,24.58,8.84,11.66,4.42,23.5,8.14,35.53,11.41,12.51,3.4,25.13,6.5,37.44,10.61,12,4,22.83,10.76,34.58,15.43,5.35,2.13,9.24-1.62,10-6.05,4,1.57,7.85,3.31,11.64,5.27a9.35,9.35,0,0,0,5.24,5.56c10.17,4.65,20,9.14,31.2,10.36a7.48,7.48,0,0,0,4.14-.63c4,2.23,8.69,2.83,13,4,4.67,1.31,9.66,2.07,14.1,4.27a10.54,10.54,0,0,0,5.28,1.17,113.09,113.09,0,0,0,20.62,5.49c4.54.68,8.75,2.43,13.21,2.76a7,7,0,0,0,4.92,1.09,7.84,7.84,0,0,0,2.12.26,2.36,2.36,0,0,0,.28.12c6.68,2.56,14.29,3.22,21.4,5.13a8.11,8.11,0,0,0,4.4,0c1.33.39,2.43,1.12,4.1,1.24a12.56,12.56,0,0,0,2.92-.07,14.36,14.36,0,0,1,2.65.77,6.85,6.85,0,0,0,3.23.47,12.32,12.32,0,0,0,2.89.9,165.23,165.23,0,0,0,18.25,2.33c6.38.4,13,2,19.3,1.39l.15,0a56.53,56.53,0,0,1,8.26,1.26c4.63,1.25,8.76.08,13.4.35,5.44.31,11.87,2.79,17.18.92a8.37,8.37,0,0,0,1.15.17c2.16.15,4.11.19,6.07.28a7.23,7.23,0,0,0,5.18.47l.31,0a13.9,13.9,0,0,0,6.45-.22c.85.13,1.7.29,2.58.44,3.63.65,7.15.24,10.75.64s6.88.81,9.67.06a38.21,38.21,0,0,0,7.48,1.19c3.53.16,7-.71,10.52-.37,6.62.63,14.27,1.85,20.85.65l.1,0a9.36,9.36,0,0,0,1.56.36c8.17,1.18,16.6.35,24.82.34,4.09,0,8.22.81,12.28.47.49,0,1-.11,1.4-.19a9.23,9.23,0,0,0,2.34.63c4.58.61,9.08-.28,13.67-.22,4,.06,8,.52,12,.81a100.22,100.22,0,0,0,21.56-.29,8,8,0,0,0,3.05.57,8.63,8.63,0,0,0,2.87-.48c8.17.76,16.85,1.51,26.71,1.55,12.44,0,11.27-.62,21.71-.35,16.77.44,24.77,2.32,26.8.14a7.83,7.83,0,0,0,1.37.22c1.85.13,3.67.55,5.53.63a16.08,16.08,0,0,0,4.43-.4c.32,0,.65.08,1,.1,3.88.13,7.43,1.57,11.46,1.32s8.1-1.14,11.86-1c4.17.1,8.35.56,12.53.65a33.23,33.23,0,0,0,6.46-.11,7.24,7.24,0,0,0,5.44-.3c.75.14,1.5.27,2.26.35,1.32.12,2.68.05,4,.05,2.8,0,5.55,0,8.35.19a50.3,50.3,0,0,0,8.29.23,8.56,8.56,0,0,0,2.79.51c2.74.05,5.47-.56,8.17-.36s5.24.73,8,.73,5.4-.28,8.06-.07c2.25.18,4.43.92,6.69,1.09,5.21.38,10.54-.72,15.76-.7,2.44,0,4.61.84,7,1.12,2.63.3,5.35.1,8,.14a7.75,7.75,0,0,0,2.58-.38c2.63.88,5.39.69,8.35.59a67.69,67.69,0,0,1,11.63.88c4.55.64,9.21,1.86,13.82,2,4.15.11,8.42-.31,12.59-.31A9.6,9.6,0,0,0,935,636l2.61.56a13.29,13.29,0,0,0,4.29.9,9.8,9.8,0,0,0,2.84-.27,23,23,0,0,0,7.09.76h.09c3,.31,6.05.58,9.06.74,3.67.18,7.33,1.36,11,1.4.18,0,.35,0,.53,0,.27.16.55.31.83.44,2,.88,3.83.69,5.88,1s4.06,1.09,6.18,1.34,4.18,0,6.29.07c2.4.13,4.59.86,7,1.17a7.69,7.69,0,0,0,1,.06c3.69,1.54,7.3,1.43,11.22,1.71a17.91,17.91,0,0,0,6.63,1.33c1.23.34,2.46.69,3.71,1,8.3,1.79,16.46,3.56,24.61,6,15.78,4.72,31.31,11.88,47.81,13.59a6.83,6.83,0,0,0,7.48-4.32,36.23,36.23,0,0,0,5.67-.41,7,7,0,0,0,5-2.94c7.54-.41,15-1.45,22-4.59a7,7,0,0,0,3.93-9.22,15,15,0,0,0,7-5.69,76.73,76.73,0,0,0,14.54-7.73,5.84,5.84,0,0,0,1.24-1.19,57.38,57.38,0,0,0,14.73-9.9,12.27,12.27,0,0,0,.93-1,46.34,46.34,0,0,0,8.54-4.13,14.44,14.44,0,0,0,1.24-.88,26.38,26.38,0,0,0,11.9-4.9c2.56-1.84,5.09-3.71,7.79-5.32a40.82,40.82,0,0,0,7.71-2.78,16.17,16.17,0,0,0,1.55-.89c1.87-.25,3.73-.27,5.69-.65a16.24,16.24,0,0,0,3-.91c6,1.63,12.23,2.07,18.39,2.95a10.32,10.32,0,0,0,7.47-2c5.78,1,11.64,1.66,17.28,2.38.45.26.91.51,1.41.75,18.18,8.56,37.61,13.38,57.11,17.88,34.25,13.29,69,25.16,106.37,21.5a10,10,0,0,0,7.2-4c1.31.45,2.61.91,3.91,1.38,8.79,3.23,17.43,6.84,26.65,8.65a154.2,154.2,0,0,0,25.8,2.83c13,.32,26.52-.74,38.9-5,9.49,1.93,18.55.29,28.14-.5,9.8-.82,18.73-3.82,27.71-7.54a12,12,0,0,0,7.45-1.47c4.12-2.21,8.59-3.57,12.75-5.67,2.89-1.45,6.33-1.52,9.73-2.54,4.15-1.24,7.67-3.65,11.79-4.95,4.5-1.42,8.93-3.07,12.4-6.33a26.65,26.65,0,0,0,6-2c2.67-1.34,5-3.3,7.44-4.91a35.38,35.38,0,0,0,4.84-3.1,12,12,0,0,0,2.61-2.69,44.83,44.83,0,0,0,4.47-2.58c5.75-3.8,11.53-9.11,17.74-11.94a13.69,13.69,0,0,0,3-1.9,36.86,36.86,0,0,0,9.51-3.24c5.52-2.77,11-5.95,16.33-9.06,2.67-1.56,3.92-1.42,7.19-1.78,2.9-.31,5.57-1.2,8.41-1.78,6.64-1.36,13.41-1.15,20-2.95a13.89,13.89,0,0,0,8-5.69c.54-.13,1.08-.28,1.61-.45,7.4-2.5,13.36-8,20.7-10.41,7.11-2.31,14.8-2.14,22.17-2.4,9.37-.33,17.8-2.79,26.29-6.71.26-.12.5-.26.75-.39l2.16.1c1.46.25,2.94.55,4.52.93a117.44,117.44,0,0,0,28.12,3.07c8.37,0,16.16,3.81,24.11,6.18,8.19,2.45,17.62,7,26.27,6.45h.09c.27.18.54.36.82.53a11.94,11.94,0,0,0,10.21,1.48c8.58,3.62,17,7.68,25.4,11.71a10,10,0,0,0,8.46-.19c15.82,7,31.54,14.07,48,19.57,9.87,3.3,20.07,5.81,29.66,9.85,4.78,2,9.41,4,14.15,5.61V958.77H-157.33V561.64C-151,560-145.25,557.33-139,554.06Z"/><path class="cls-6" d="M1110.87,659.74a6.68,6.68,0,0,1,2-1.67c.4-.43.81-.85,1.25-1.24a13.3,13.3,0,0,1,3.18-2.3,5.59,5.59,0,0,1,2.79-.88,5.32,5.32,0,0,1,2.28,0c3.38-2.72,7.3-3.58,11.39-4.94,4.79-2.76,8.81-6.44,14-8.64.18-.07.36-.11.55-.17.18-.23.37-.46.54-.7a6.82,6.82,0,0,1,.43-.62l.83-1a6.09,6.09,0,0,1,6-2.2,8.08,8.08,0,0,1,3.54-2.15,5.56,5.56,0,0,1,1.19-.23c.48-.35.94-.68,1.33-.94,3.3-2.18,6.59-4.37,9.9-6.54a7.45,7.45,0,0,1,2.65-1.11c4.61-4.19,10.4-6.52,16.44-9.94,4.47-2.53,8.88-5.21,13.3-7.84a26.16,26.16,0,0,1,6.12-2.83c2.27-.65,5-.52,7.16-1.44,3.75-1.59,8-1.09,10.25,2.69,1.87,3.13,1,8.67-2.69,10.25-3.9,1.66-8.43,1.7-12.14,3.54s-7.52,4.34-11.15,6.55c-.72.43-1.46.84-2.21,1.24a8,8,0,0,1,2.09-.07c17.2,1.66,33.93,5.54,51.24,6.33a69.23,69.23,0,0,1,41.15,15.37c5.93,4.9,10.87,10.66,17.81,14.19,6.7,3.41,12.27,7.62,18.38,11.93,6.44,4.54,13.66,5.82,21.39,6.72,8.84,1,17.65,2,26.44,3.44a6,6,0,0,1,5.41,6.56c6.43-.13,12.87,0,19.29-.54,9.6-.85,9.54,14.14,0,15-8.9.79-17.84.17-26.75.87-8.23.65-16.35,2.35-24.64,1.47s-16.08-3.73-24.49-4.27l-.47,0c-4,1.85-8.51,1.61-12.89,1.84l-.29.11c-9.2,2.87-18.16,6.44-27.33,9.38-6.84,2.19-12,5.95-18.9,5.49a7.72,7.72,0,0,1-8.34,1.15,147.09,147.09,0,0,0-26.62-9.3c-9.66-2.29-19-3.73-28.11-7.69-4.31-1.87-8.87-2.16-13.41-3.3-5.17-1.3-10.38-3-15.43-4.67-9.3-3.16-19-5.81-28-9.68a41.52,41.52,0,0,1-6.74-2.37c-2.8-1.21-5.43-1.58-8.39-2.35-1.51-.39-3-.86-4.56-1.37a5.54,5.54,0,0,1-3.14-.28c-2-.8-4-2.17-6.1-3.18l-2.56-1a7.81,7.81,0,0,1-5-5.82C1108.05,667.58,1107.27,662.68,1110.87,659.74Zm174.72,1a10.46,10.46,0,0,1,.12,1.11l2.48,1C1287.33,662.19,1286.46,661.47,1285.59,660.78Zm-121.95,2.77a3.12,3.12,0,0,0,.23-.71l-.62.28a1.33,1.33,0,0,0-.53.21Z"/><path class="cls-6" d="M1332.46,847c28.27-10.87,92.45-35.1,173.13-44.42,31-3.58,72.5-8.11,125.61-1.3,49.79,6.39,128.81,16.52,194.6,77.45a270,270,0,0,1,58.09,78.1H1729.31c-21.08-24-56.35-58.48-99.74-77.94C1602.94,866.93,1571,859,1571,859a395,395,0,0,0-56.14-9.43c-28.43-3.08-48.78-3-77.61-2.77-51.69.32-87.49,4.3-97.2,5.42-12.81,1.49-23.5,3-31.13,4.23C1314.38,854.17,1322.52,850.81,1332.46,847Z"/><path class="cls-7" d="M2069.44,613.82c-37.52-11.52-67.5-21.87-87.65-29.08-36-12.86-52.22-19.86-79.84-26.9a441.4,441.4,0,0,0-72.46-12.15l-19.74,16.06c28.33,2.92,40.2,12.6,45.77,21,5.4,8.17,4.86,15.1,15.41,37.53,4.91,10.45,7.37,15.68,10.63,19.53,8.3,9.82,19.68,13.62,42.09,20.83,15.17,4.87,30.12,10.55,45.56,14.53,21,5.43,51.74,13.79,93.07,26.47Q2065.85,657.75,2069.44,613.82Z"/><path class="cls-7" d="M1490.4,774.58q-37.59-6.76-76.58-14.76-34.21-7-67-14.53-55.56,7.28-113.9,16.92s-31-2-75.5,13.45a22.09,22.09,0,0,0-8.62,5.26c-4.65,4.72-4.42,9.28-6.51,13.51-2.64,5.33-8.49,9.14-31.57,14.32-17.65,4-31.08,5.51-31.24,5.53-27.58,3.19-31.47,6.48-58.09,10.74a432.22,432.22,0,0,1-67.52,5.37c-48.44,0-83.45-8.72-91.93-10.91a335,335,0,0,1-35.8-11.39,681.05,681.05,0,0,1-111.3,27c-28.69,4.42-61.22,7.49-115,17.79-50,9.6-70.82,16.32-71.16,24.74-.2,4.83,6.35,8.72,14.32,13,38.68,20.87,69.47,28.88,88.51,36.45,15.46,6.15,36.79,17.42,59.45,39.92l370.55,3,43-33q58.62-20.79,119.32-44.69C1318.93,854.82,1407.81,815.09,1490.4,774.58Z"/><path class="cls-6" d="M371.16,915.81a111.09,111.09,0,0,1,1.95-47.51c14.12-52.78,64-75.75,72.24-79.41-21.56-10.62-53-26-91.12-44.25-82.29-39.41-123.43-59.11-166.61-76.8-78.51-32.17-117.77-48.25-171.18-57.28-43.26-7.31-111.94-12.85-199.16,6.51l-19.52-31.89c4.78-2.92,11.3-6.73,19.2-10.9a395,395,0,0,1,48.16-21.16,430.08,430.08,0,0,1,48.65-14.48,438,438,0,0,1,53.53-9.11c49.61-13.93,89.48-13.42,114.55-11.06,39.93,3.75,69.73,14.77,126.27,36.12C247.47,569.45,279,583.8,300.21,594c36.09,13.57,57.36,20.86,70.46,25.06,9.18,3,18.22,6.33,27.5,9,8.36,2.37,16.44,5.66,24.73,8.3a42.08,42.08,0,0,1,10.57,5.21c3,2,8.84,6,8.14,9.43-.34,1.67-1.92,1.64-7.32,6-4.12,3.34-4.65,4.53-4.88,5.37a7.79,7.79,0,0,0,2.11,7.33c2.4,2.3,5.54,1.79,9.11,2.11,6.1.55,8.66,3.08,15.79,6.67,7.64,3.86,13.77,5.53,23.91,8.3,11.52,3.14,17.06,2.89,30.43,4.56,14,1.74,21.07,3.67,38.08,7.32,42.62,9.15,57.83,9.9,108,20.66,46.72,10,70.07,15,98.28,25.39,25.34,9.31,29.21,13.6,49,18a145.67,145.67,0,0,1,35.58,12.59c14.67,7.49,16.4,11.68,16.48,14.32.21,6.16-8.3,11.41-16.92,15.62-27.14,13.25-51.94,14.5-67.25,16.05-25.93,2.62-18.4,5.5-72.46,16.49-64,13-74.39,8.46-144.27,21.69-19.26,3.65-41.62,7.93-70.08,15.62A762.18,762.18,0,0,0,371.16,915.81Z"/><path class="cls-2" d="M2079,734.64c-10.77,5.72-21.44,3.2-32.11,3.11-10.67-.54-21.34-1.16-32-2.06s-21.27-1.94-31.89-3.17-21.22-2.72-31.78-4.42-21-3.74-31.5-5.72-20.86-3.89-31.34-5.55-21-3.12-31.54-4.59-21.07-2.74-31.63-3.84a577.21,577.21,0,0,0-63.58-3.31c-10.61,0-21.22.45-31.81,1.13s-21.17,1.71-31.7,3A532.56,532.56,0,0,0,1635.51,721c-10.31,2.55-20.55,5.39-30.77,8.35s-20.35,6.08-30.37,9.62c-20,7-39.42,15.84-58.76,24.69l-57.93,26.83c-38.67,17.79-77.39,35.44-116.36,52.57s-78.21,33.62-117.73,49.43-79.33,30.9-119.41,45.24l-.34-.94q120.24-42.91,237.08-94.63c38.92-17.2,77.62-34.93,116.24-52.8l57.83-27c19.3-8.94,38.69-17.86,58.79-25,10-3.6,20.22-6.79,30.43-9.8s20.47-5.9,30.8-8.5a535.74,535.74,0,0,1,62.79-12.05c42.31-5.58,85.22-5.61,127.71-2.07,10.63.83,21.24,1.91,31.84,3s21.18,2.18,31.79,3.49,21.17,2.84,31.7,4.46,21,3.24,31.5,4.62,21,2.52,31.56,3.51,21.11,1.91,31.68,2.64,21.14,1.43,31.72,1.91c10.59.92,21.19-.89,31.69,5.21Z"/><path class="cls-8" d="M826.64,815.55A230,230,0,0,0,858.33,826c9,2.23,16.52,3.53,21.61,4.29a241,241,0,0,0,29,2.41c31.56.93,63.17.18,94.7-1.43,41.88-2.13,84.44-12.69,124.63-23.78,0,0,28.22-7.8,27-17.93-.17-1.44-1.35-3.86-.19-6.21s4.15-3.08,5.19-3.33c5.82-1.43,84-15.37,190.94-34.15q-16.14-3.9-30.66-7.68c-42.76,7.51-73.16,11.67-95.14,14.19-22.62,2.6-44.06,13.31-66.81,14.33-3.08.13-15.31.53-18.66,7.38-2,4.06.42,7.81-2.17,12.57-3.84,7-14.57,8.51-21.49,10.64-66.39,20.4-104,34.15-205.46,22.93A550.23,550.23,0,0,1,845.65,809C839.44,811.43,833.08,813.6,826.64,815.55Z"/><path class="cls-9" d="M-204.2,585.75a428.4,428.4,0,0,1,38.83-20l.33-.15.1,0A430,430,0,0,1-119.58,548,431.72,431.72,0,0,1-37.3,530.19c7.48-.88,14.73-1.53,21.71-2h0c36.43-2.48,65.61,0,83.42,1.58,39.83,3.62,70.15,11.05,93.72,16.93,50,12.47,65.18,21.91,113.51,37.3l.05,0c4.38,1.4,9,2.84,14,4.34,11.49,3.45,30.27,9.07,54,14.85,19.78,4.84,43,9.81,68.33,13.77,7.3,1.16,19.49,2.95,53,5,21.32,1.3,51.28,2.72,94.07,4.11,25.61.84,51.77,1.55,120.29,2.84L738.24,630l7.44.12c80.34,1.41,88.6,1.43,113.61,2.48,102.18,4.27,140.4,11.29,165.32,16.92,17.53,4,23.8,6.2,59.32,17.58h0c7.45,2.38,16.19,5.17,26.58,8.46,27.32,8.64,90.29,28.55,144.84,44.51h0c10.73,3.15,21.14,6.13,30.88,8.85q15.81,4.41,34.39,9.24"/><path class="cls-9" d="M1351.3,745.85c39.48,9.52,86.22,19.49,139.55,28.46h0l1.06.18"/><path class="cls-2" d="M1253.78,719.33c.18.47.46.33.7.4l.73.11,1.49.18c1,.11,2,.2,3,.26a56.61,56.61,0,0,0,6,0,47.23,47.23,0,0,0,11.69-2c3.76-1.2,7.37-3,11.08-4.47s7.47-2.94,11.27-4.23,7.55-2.65,11.51-3.62a61.13,61.13,0,0,1,12-1.59,69.34,69.34,0,0,1,12.14.72c2,.29,4,.64,6,1s3.88.63,5.84.82c7.81.74,15.77.15,23.72-.45l11.93-1c4-.36,7.94-.67,11.88-1.16,7.89-.92,15.73-2.26,23.49-3.93,3.88-.83,7.74-1.78,11.58-2.78l2.88-.77c.95-.26,1.9-.56,2.87-.77a17.3,17.3,0,0,1,6.13-.35l.29,1c-3.3,2.92-7.34,3.57-11.22,4.62s-7.82,1.9-11.77,2.71c-7.89,1.61-15.85,2.89-23.86,3.75-4,.44-8,.77-12,1l-12,.77c-4,.22-8,.42-12,.46a93.37,93.37,0,0,1-12.15-.54c-2-.23-4.05-.57-6-1s-3.9-.8-5.85-1.12a66.3,66.3,0,0,0-11.76-1,59.37,59.37,0,0,0-11.73,1.24c-3.84.84-7.63,2.11-11.45,3.31s-7.56,2.52-11.27,4-7.36,3.11-11.25,4.27a48.22,48.22,0,0,1-11.92,1.84,52.56,52.56,0,0,1-6-.15c-1-.08-2-.19-3-.32l-1.48-.21-.75-.12c-.25,0-.47-.22-.79.17Z"/><path class="cls-2" d="M1581.58,643l14.22-5.63c4.76-1.84,9.57-3.51,14.38-5.19,9.61-3.37,19.4-6.26,28.55-10.66a145,145,0,0,0,13.36-7.27c4.33-2.64,8.34-5.74,12.42-8.81s8.3-6,12.62-8.66l3.26-2,3.32-1.91L1687,591l1.66-1,.83-.48.41-.23.21-.12.11-.06,0,0a.72.72,0,0,1,.26-.08h0l-.36.14a.75.75,0,0,1,.4-.17l-.23.06c8.09-4.27,16.43-8,24.84-11.61s16.78-7.23,25.19-10.8,16.81-7.15,25.35-10.42a158.7,158.7,0,0,1,26.25-8l-.08,0a4.77,4.77,0,0,1,.67-.15l.59-.11,1.17-.21,2.36-.4c1.58-.26,3.16-.47,4.74-.71,3.16-.42,6.33-.77,9.51-1a182.51,182.51,0,0,1,19.14-.51c12.79.31,25.46,2,38.08,3.71,6.32.94,12.61,2.08,18.85,3.5s12.41,3,18.55,4.74,12.25,3.48,18.36,5.28,12.22,3.64,18.29,5.61c12.15,3.89,24.17,8.23,36.09,12.7s23.79,8.94,35.83,12.9a671.66,671.66,0,0,0,73.4,19.59l-1.56,7a709.14,709.14,0,0,1-73.48-21.84c-12-4.26-23.9-9-35.71-13.72s-23.65-9.29-35.65-13.41-24.14-7.91-36.32-11.54c-6.09-1.79-12.19-3.52-18.35-5s-12.37-2.73-18.62-3.76c-12.55-1.95-25.14-3.77-37.81-4.28a182.48,182.48,0,0,0-19,.21q-4.74.31-9.47.88c-1.57.21-3.15.39-4.72.63l-2.35.36-1.17.2-1.08.19-.09,0a158.07,158.07,0,0,0-26.17,7.75c-8.54,3.2-17,6.69-25.38,10.28s-16.79,7.2-25.15,10.86-16.67,7.47-24.63,11.91l-.24.06a.35.35,0,0,0,.31-.12l-.35.15h0a.27.27,0,0,0,.16,0l0,0-.11.06-.2.12-.42.24-.82.47-1.65,1-3.3,1.9-3.3,1.9-3.25,2q-6.45,4-12.55,8.61c-4.06,3.06-8.12,6.19-12.5,8.86a143.28,143.28,0,0,1-13.45,7.32c-9.24,4.45-19.06,7.34-28.65,10.71-4.8,1.68-9.61,3.34-14.36,5.18L1582,643.92Z"/><path class="cls-8" d="M1191.55,624.48c.34,4,7.45,6.59,12.7,8.46,7.26,2.59,12.29,2.75,21.15,3.9,0,0,3.12.41,19.2,3.25,28.42,5,32,14.8,59.23,21.81,6,1.53,15.81,3.64,19.52,10.41a23.76,23.76,0,0,0,4.88,6.83,22.82,22.82,0,0,0,7.15,4.57,99.34,99.34,0,0,0,22.47,5.85c13,1.6,17.77,4.85,28,7.48,11.19,2.88,28.51,4.93,55.12.78,0,0,0,0,0,0,10.36-2.7,19.42-5.56,26.85-7.94,6.7-2.13,31.8-12.48,82-33.19,16.42-6.77,25.82-10.7,31.94-13.23a467.35,467.35,0,0,1-70.77,4.77c-7.09-.06-40.28-.52-86.35-8.68-20.42-3.62-63.53-11.26-111.07-26.9a218.32,218.32,0,0,0-48.17-10.84c-10.59-1.12-21.28-2.24-33.72-.9a170.45,170.45,0,0,0-30.06,13.8C1195,618.59,1191.29,621.4,1191.55,624.48Z"/><path class="cls-2" d="M1083.05,666.84a265.7,265.7,0,0,0,38-14.66c6.15-2.88,12.2-6,18.09-9.35s11.55-7.14,17.41-10.68,11.84-6.88,17.8-10.18,12-6.58,18-9.7a151.7,151.7,0,0,1,18.87-8.36,84.34,84.34,0,0,1,10-2.79,29.43,29.43,0,0,1,10.34-.71l.1,1a70.76,70.76,0,0,1-9.85,2.5,81.73,81.73,0,0,0-9.69,2.66,148.34,148.34,0,0,0-18.55,8.12c-6.05,3.07-12,6.33-18,9.59s-11.93,6.55-17.78,10-11.59,7.16-17.6,10.48-12.13,6.37-18.36,9.2a266.33,266.33,0,0,1-38.58,13.85Z"/><path class="cls-9" d="M1581.78,643.46c1-.14,2-.29,3-.44"/><path class="cls-10" d="M-187.93,622.27c4.67-2.28,9.88-4.7,15.6-7.15a339.32,339.32,0,0,1,99.6-26C-3.36,582,50.55,598.47,88.68,610.56c19.91,6.31,63.39,27.86,150.35,70.94C346.29,734.65,349.32,740,371.49,744.31c11.28,2.19,28.13,9.82,61.82,25.06,8.62,3.9,19.88,9.19,21.48,18.55,1.33,7.78-4.61,14.94-10.42,21.15C412.68,843.05,388,846.2,380,867c-2.48,6.4-4,16,.64,30.12a1.31,1.31,0,0,1,.05.15c.68,2.09,1.51,4.27,2.47,6.56l.09.19a1.57,1.57,0,0,1,0-.23c-.89-6.45-1.52-18.23,4.27-30.35,2.6-5.47,6.89-11.81,19.2-21.49,13.41-10.54,20.59-12.66,48.48-27.34,19.64-10.32,29.07-16.1,37.43-27,8.76-11.43,8.13-17.76,7.49-20.5-1.51-6.39-7.17-10.41-15.63-15-23.86-12.83-41-15.61-41-15.61-14.17-2.3-37.43-10.64-84-27.34a568.64,568.64,0,0,1-70.29-31.23c-35.28-18.7-35.66-24.23-99.91-66.07-24.67-16.07-42.48-26.66-78.1-47.84C80,555.52,68.75,549.49,53.87,543.76a246.07,246.07,0,0,0-69.43-15.57l-.54,0c-2.41.15-5.84.38-9.93.73-2.87.25-6.53.59-10.88,1.09a431.41,431.41,0,0,0-56.15,10.3,416.29,416.29,0,0,0-58.25,19.2c-5,2.1-9.6,4.15-13.73,6.08l-.33.15c-4.2,2-7.9,3.79-11,5.38Q-182.18,596.68-187.93,622.27Z"/><path class="cls-8" d="M1796.51,547.57a298.2,298.2,0,0,1,42.64,11.82,74.59,74.59,0,0,1,17.68,8.57c2.14,1.44,14.23,9.77,16.27,19.82a14.32,14.32,0,0,1-.11,7.08c-1,3.4-2.78,3.74-3.58,6.18-1.46,4.44,2.55,6.77,5.21,15.3,2.31,7.43.33,9,2.93,14,1.28,2.44,3.45,5.27,9.43,9.11,9.65,6.2,17.21,7.35,30.27,11.39,6.49,2,12.78,4.6,19.2,6.84,27.77,9.69,55.09,19.77,65.41,23.43,19.77,7,49.36,16,91.44,24.08a368.32,368.32,0,0,1-75.93-7.62c-58.63-12.19-67.52-29.32-107.17-36.88-5.17-1-19.56-3.47-32.11-14.32a62,62,0,0,1-12.59-15.19c-7.12-12.2-5.1-18.68-9.11-26.9-5.82-11.94-18.9-16.3-38.61-22.56A168.4,168.4,0,0,0,1757,573a174,174,0,0,0-66.5,16.49c13.91-7,25.76-12.43,34.61-16.38,15.59-7,26.42-11.78,41.22-16.82C1778.78,552.09,1789.28,549.31,1796.51,547.57Z"/><path class="cls-9" d="M1441,697.82c1.54-.24,3.12-.49,4.73-.78"/><path class="cls-9" d="M1231.7,600.91l1.5-.52"/><path class="cls-8" d="M1396.57,817.53c86.85-17.67,206.79-33.38,345.27-24.73a1333.34,1333.34,0,0,1,249.93,40.14c28.22,7.34,51.78,14.46,69,19.95l27.77-6.07a1512.23,1512.23,0,0,0-658-44.42Z"/><path class="cls-9" d="M1816.37,821.68A461.79,461.79,0,0,1,2070.2,933"/><path class="cls-9" d="M645,960.35q3.39,2.35,6.42,4.48"/><path class="cls-9" d="M375.27,909.43c2.57-2,5.15-3.79,7.73-5.54"/><path class="cls-9" d="M383.11,903.82l.05,0"/><path class="cls-2" d="M508.23,691.74c-6-.93-12-1.75-18-2.35a84.6,84.6,0,0,1-17.9-4.2c-11.61-3.85-22.59-9.21-34.3-11.79-3-.62-6.45-1.86-8.55-4.82a8.86,8.86,0,0,1-1.72-5,5.3,5.3,0,0,1,.83-2.85,5.56,5.56,0,0,1,2.2-1.9c1.57-.78,3-1.13,4.18-1.78a7.53,7.53,0,0,0,1.59-1.11,7.07,7.07,0,0,0,.65-.69,5.46,5.46,0,0,0,.49-.77,10.26,10.26,0,0,0,1.16-3.84c0-.34,0-.68.05-1s-.06-.57-.1-.86a5.9,5.9,0,0,0-.72-1.69c-1.41-2.24-3.91-4-6.39-5.51a66.15,66.15,0,0,0-8-4,136.64,136.64,0,0,0-17.07-5.8c-11.8-3.09-23.4-6.78-34.92-10.69s-22.94-8-34.34-12.28-22.74-8.58-34-13-22.59-9-33.86-13.5l.37-.93q34,13.15,68.21,25.62c11.42,4.12,22.87,8.16,34.38,12s23.09,7.48,34.8,10.5a137.29,137.29,0,0,1,17.43,5.87,66.15,66.15,0,0,1,8.32,4.1c2.64,1.64,5.35,3.4,7.25,6.32a8.21,8.21,0,0,1,1.05,2.48,11.17,11.17,0,0,1,.16,1.39q0,.63-.06,1.26a12.7,12.7,0,0,1-1.45,4.83,7.68,7.68,0,0,1-.73,1.14,8.36,8.36,0,0,1-.91,1,9.61,9.61,0,0,1-2.12,1.5c-1.49.8-3.05,1.21-4.19,1.8a3,3,0,0,0-1.22,1,2.69,2.69,0,0,0-.41,1.47,6.53,6.53,0,0,0,1.24,3.49,8,8,0,0,0,3,2.49,16.17,16.17,0,0,0,4,1.35c12.06,2.78,23.11,8.17,34.44,12.25a86.6,86.6,0,0,0,17.41,4.52c6,.83,12,1.8,18,3Z"/><path class="cls-9" d="M463.9,621.54a266.84,266.84,0,0,1,23.76,18.23c2.7,2.34,5.7,5,5.53,8.46-.2,4.08-4.78,7.06-9.44,10.09-7,4.54-10.26,4.16-14.32,8.78-1.61,1.84-3.53,4-3.58,6.84-.07,4.82,5.47,9.77,14,12.26"/><path class="cls-8" d="M329.82,961l55,3.25a90.47,90.47,0,0,1,5.77-20.79c3.81-9.21,7.31-17.34,18.32-27.12a98.62,98.62,0,0,1,23.61-15.48,113.87,113.87,0,0,1,16.74-6.22,107.74,107.74,0,0,1,18.89-3.79c1.35-.14,4.29-.43,8-.54a127.88,127.88,0,0,1,23,1.74c31.28,5.44,61.62,19.52,61.62,19.52,34.25,15.89,64,34.77,84.26,48.74q44.22.75,88.44,1.45c-100.13-47.76-136-63.43-147.1-67.12-6.34-2.11-12.31-5.28-18.66-7.38-4.2-1.38-15.24-4.84-20.83-11.49-3.23-3.86.32-6.35,4.09-7.35,21.93-5.82,44.24-9.8,66.66-13.19q26-3.93,52-8.26,51.39-8.57,102.45-18.8c18-3.61,36.61-7.26,54.59-12.66,6.44-1.95,12.8-4.12,19-6.6a168.84,168.84,0,0,0,17.27-8c3.22-1.72,6.5-3.67,8.39-6.79,3.4-5.61-.86-11.29-5.31-14.71-23.25-17.83-55.21-24.48-82.76-32.81q-44.5-13.48-89.85-24.08a1518.87,1518.87,0,0,0-185.07-31.36c30.64,5.47,60.6,15.07,91.07,21.64,34.89,7.53,69.54,16.09,104.09,25,33.34,8.66,66.51,17.08,98.36,30.43q6.63,2.79,13.18,5.79c5.58,2.55,31.21,10.17,28.08,19.59-.81,2.41-3.74,3.92-5.64,4.69-34.35,14-82.63,23.25-82.63,23.25-11,2.11-7.6,1.7-20.5,4.23-20.93,4.1-35.53,6.29-97.63,15.67l-10.27,1.56c-33.76,5.26-66.71,14-100.38,19.87-55.51,9.68-65.37,7.21-96.75,18.22-15.23,5.35-30.73,12.19-46.14,22.55a1.57,1.57,0,0,0,0,.23l-.09-.19-.11.07.09.21-7.82,5.33c-1.66,1.25-3.32,2.56-5,3.91-3.06,2.49-5.34,4.52-6.61,5.66A170.14,170.14,0,0,0,329.82,961Z"/><path class="cls-9" d="M627.16,960.06q8.93.16,17.87.29"/><path class="cls-9" d="M507.83,691.19l.49,0"/><path class="cls-9" d="M825.13,814.92l1.51.63"/><path class="cls-9" d="M844.32,808.64l1.33.31"/><path class="cls-9" d="M1320.64,738.17l.75-.12"/><path class="cls-9" d="M1734.68,814.2a1139.5,1139.5,0,0,0-356,12.36"/><path class="cls-9" d="M1408.93,860.16q-22.82.81-46.53,2.28-44.09,2.77-84.94,7.48"/><path class="cls-9" d="M1367,885.14c-20.77-.26-42.49-1.07-65.08-2.6q-23.16-1.57-44.91-3.91"/><path class="cls-9" d="M1324,897.5c-15.42-.34-31.72-1.15-48.82-2.6-16-1.35-31.19-3.14-45.55-5.21"/><path class="cls-8" d="M-180.77,615.12h8.44A1039.72,1039.72,0,0,1-40.5,623.9C4.68,629.84,192,657.46,306.07,765.47c23.47,22.22,41.53,45.67,39.06,71.26C342.74,861.34,322.91,872,300.21,909A258,258,0,0,0,270,981.22l105.32-71.79,7.82-5.33-.09-.21a57.55,57.55,0,0,1-2.36-6.63,1.31,1.31,0,0,0-.05-.15,41.78,41.78,0,0,1-.32-23c1.55-5.4,4.67-11.55,16.7-22.77,24.32-22.68,37.17-21.44,51-40.15,5.34-7.22,12-16.29,9.76-25.81-2.57-10.74-15.05-15.6-35.58-24.3-18.57-7.87-36.33-17.72-55.32-24.51-9.46-3.38-8.34-3.34-92.43-44.26-57.39-27.93-86.7-42.17-117.15-56.41-44-20.56-66-30.84-73.33-33.41-26.19-9.17-91-31-171.82-17.78A321.37,321.37,0,0,0-180.77,615.12Z"/><path class="cls-10" d="M2062.06,704v13a303.59,303.59,0,0,1-37.1-4.56c-18.83-3.51-40.61-7.56-64.76-19.85-12.49-6.36-15.28-9.66-28.31-14.65-14.9-5.69-18.39-4.11-33.84-8.78-12.51-3.79-24-9.72-46.21-24.41-19.06-12.59-17.11-13.68-29.29-20.5a156,156,0,0,0-39.92-15.62c-6.19-1.47-28-6.2-58.58-2.17-31.94,4.21-39.8,13.52-76.8,24.3a340.76,340.76,0,0,1-65.08,12.15c6.12-2.28,16-5.95,28.31-10.42,21.88-7.94,24.6-8.7,31-12,4.12-2.13,4.2-2.44,27.72-17.52,11.19-7.18,16.84-10.79,19.3-12.15,13.55-7.49,25.43-10.73,34.06-13a173.56,173.56,0,0,1,59.67-6.07s30.85,2.34,61.39,17.14a34,34,0,0,1,6.13,3.63c13.55,10.24,16.9,29.83,17.3,32.38.81,5.09.66,8.54,3.47,12.58a21.55,21.55,0,0,0,9.66,7.27c16.19,7,24.29,10.55,29,12,0,0,12.33,3.93,32.54,11.72,18,6.92,17.4,8.09,30.81,13.23s26.07,8.17,50.55,13.89C2032.57,697.84,2045.91,700.81,2062.06,704Z"/><path class="cls-10" d="M1433.18,699.57c-8.55,2.12-17.9,4-28,5.53a292.62,292.62,0,0,1-45.88,3.09c-13-.4-21.21-4.19-26.36-7.65-4.66-3.12-6-5.42-14.81-13-8.26-7.1-15.1-12-16.6-13-15-10.48-32.47-11.91-48-13.18a234.63,234.63,0,0,0-46,.81c-10.33,1.43-23.41,4.12-36.13-1.79a23.75,23.75,0,0,1-9.6-7.48c-5.62-7.69-4.37-16.83-3.9-19.53,1.81-1.18,4.5-2.89,7.81-4.88,5.58-3.36,9.64-5.53,22.94-12.53,8.42-4.43,12.65-6.65,13.83-7.16a86,86,0,0,1,20-6.18,87.19,87.19,0,0,1,18.06-.81C1255.19,602.74,1331.93,640.47,1433.18,699.57Z"/><path class="cls-10" d="M544,698.1c7.82,1.78,107.91,24.59,193.95,45.89,26.72,6.61,51.65,21.51,79.08,23.75,7.78.64,24.14,1.4,29.94,11.72,3.25,5.78,3,14.28-1,19.85-4.64,6.45-13.27,7.46-16,7.81-29.77,3.85-57.38,19.08-87.21,22.45-37.87,4.29-95.44,14.08-173.13,28.31,40.18-17,73.23-23.21,96.66-25.7,29-3.09,56.82-13.56,85.58-18.55,3.91-.68,15.35-2.62,23.11-11.72,3.24-3.81,6.85-10,6.83-14.64-.06-19.51-65.33-32.67-135.38-53.7C620.2,725.69,585.05,714.23,544,698.1Z"/><path class="cls-10" d="M1347.43,745.29l30.15,6.72c-35.7,4.64-73.33,10.67-112.59,18.44-29,5.75-56.8,12-83.31,18.66a130.23,130.23,0,0,1-10.2,10,153.29,153.29,0,0,1-18.22,13.45c-22.71,14-57.93,21.05-57.93,21.05a634.17,634.17,0,0,1-82.44,10.63c-35.21,2.37-59.44,1.88-88.51,1.3-42.88-.87-57.71-3.26-73.22-8.46a168.15,168.15,0,0,1-39.38-19.31L833,811.67a242.28,242.28,0,0,0,40.14,12.8c12.67,2.86,33.64,6.52,101.31,3.26,39.39-1.9,59.09-2.85,83.74-7.16a463.15,463.15,0,0,0,71.38-18.44,59.65,59.65,0,0,0,16.27-17.79c1.77-3.05,3.39-6.58,7.38-9.33,5.1-3.52,10.74-3.46,12.8-3.47,13.55-.08,26.64-5.28,40.13-6.51,44.43-4.06,66.87-21.56,118.89-21C1335.07,744.08,1343.06,744.82,1347.43,745.29Z"/><path class="cls-10" d="M606.76,965.27c-20.12-16.82-51.67-37.39-93.72-45.12-19.79-3.64-41.92-7.7-66.82,2.17-35.74,14.17-51.6,46.89-56,56.84l-17.79-41.22a132.86,132.86,0,0,1,33.84-35.15c34.5-24.48,71-24.8,85.48-24.73,42.51.21,73,17.33,108.47,37.32a387,387,0,0,1,69.43,49.89Z"/><path class="cls-8" d="M1865.5,978.29c-17.12-40.8-39.18-69.47-59.87-89.82-107.7-105.88-306-111.38-505.71-27.66l107.71-47.51a1058.84,1058.84,0,0,1,137-22.45c145.78-14.19,262,5.11,356.66,21.47a1829.09,1829.09,0,0,1,179,40.36q-3.57,58.25-7.15,116.5Z"/><path class="cls-11" d="M796.38,831.63c-34.5,8.64-72,16.55-112.17,23-28.06,4.5-55,7.9-80.7,10.41"/><path class="cls-11" d="M1160,703a693.58,693.58,0,0,0-142.53-44.91c-44.77-8.89-80.88-11.37-106.09-13a951.26,951.26,0,0,0-113.25-.65"/><path class="cls-11" d="M1435.94,784.34c-62.35,31.08-129.4,61.78-201.11,91.12Q1178,898.7,1123.54,918.41"/><path class="cls-11" d="M1864.85,724.46a551.2,551.2,0,0,0-285.07,22.13"/><path class="cls-11" d="M1980.92,662.41a527,527,0,0,1-58.57-18.66c-8.77-3.36-17.16-6.85-25.17-10.41"/><path class="cls-11" d="M1559.17,659.81a645.08,645.08,0,0,1-75.06,33c-15.81,5.77-31,10.64-45.56,14.75"/><path class="cls-11" d="M1838.82,950a264.42,264.42,0,0,0-43-51.74c-31-28.89-61-42.83-81.35-52.07a354.88,354.88,0,0,0-95.68-28"/><path class="cls-11" d="M809.83,745.94c-27.2-9-56.52-17.56-87.87-25.38-26-6.5-51-11.86-74.84-16.28"/><path class="cls-11" d="M265.72,747.24a263.12,263.12,0,0,1,39,35.15c11,12.11,14.94,18.88,17.57,26a57.45,57.45,0,0,1,3.26,29.94,56.44,56.44,0,0,1-11.72,26"/><path class="cls-11" d="M215,714.05A638.14,638.14,0,0,0,116,669.14c-47.95-17-84.85-23.52-143.18-33.85-42.43-7.51-66.45-9.65-87.87-10.41a532.51,532.51,0,0,0-60.53,1.3"/><path class="cls-11" d="M357.49,626.83c-45.26-18.71-83.65-33.15-112.6-43.6-47.1-17-68.73-23.27-84-27.34-29.22-7.8-54-12.63-71.59-15.62"/><path class="cls-11" d="M297.28,887.5a283.91,283.91,0,0,0-39,87.86"/><path class="cls-11" d="M665.34,904.75l85.91,49.46"/><path class="cls-11" d="M1108.57,787.59a354.23,354.23,0,0,1-137.33,28"/><path class="cls-11" d="M52.24,757A420.64,420.64,0,0,0-18,725.76a425.19,425.19,0,0,0-144.49-22.13"/><path class="cls-2" d="M1289.61,714.16a10.61,10.61,0,0,0-2.71,7.15,10.85,10.85,0,0,0,6.07,9.22c-28.56-6.76-34.84-9-34.71-9.7.1-.5,3.32-.1,7.22-.17A53,53,0,0,0,1289.61,714.16Z"/><path class="cls-2" d="M1521.42,792.37c-7.5,1-14.68-2.64-17.79-8.9-3.73-7.51.28-15,.65-15.62q-17.19,8.26-34.71,16.49-19.74,9.27-39.27,18.22Z"/><path class="cls-2" d="M1836.43,546.13a15.2,15.2,0,0,0-8.51,4.07,15.37,15.37,0,0,0-4.56,9.27l-28.31-11.23c2.94-.56,6-1,9.19-1.46A151.42,151.42,0,0,1,1836.43,546.13Z"/><path class="cls-2" d="M1112.88,656.69a14.81,14.81,0,0,0-2.52,8.87c.43,8.23,8.11,12.5,8.62,12.77l-34.66-11.14Z"/><path class="cls-2" d="M1323.18,897.75c0,.33-26.78-1.52-64.27-1.47-14.58,0-25.08.33-38.23,2.28a214.14,214.14,0,0,0-34.17,8l43.6-17.09C1305.37,895.73,1323.21,897.48,1323.18,897.75Z"/><path class="cls-2" d="M357.7,975.25l29.51-56L357.7,899.76,287.85,964Z"/><path class="cls-8" d="M1320.31,738.13a858.39,858.39,0,0,1-196.77-5.86,857.72,857.72,0,0,1-170.2-43,1218.61,1218.61,0,0,0,142.43,32.55A1222.42,1222.42,0,0,0,1320.31,738.13Z"/><path class="cls-8" d="M854.74,715.67c-43.6-16.24-91.17-31.88-142.54-45.88a1657.76,1657.76,0,0,0-241.14-46.86"/><path class="cls-8" d="M195.43,801.69A551.78,551.78,0,0,0,26.86,701a551.87,551.87,0,0,0-189.4-35.15A742.81,742.81,0,0,1,12.54,705.59,743.53,743.53,0,0,1,195.43,801.69Z"/><path class="cls-8" d="M1753.56,971.78a288.83,288.83,0,0,0-56.3-57.92c-67.2-51.92-140-59.43-196.88-65.3,0,0-70.52-7.28-181.59,6.94-3.62.46-5.86.85-5.86.87a730.52,730.52,0,0,1,117.59-11.5c10.93-.18,19,0,21.26,0,32,.58,82.44,1.87,137.55,20.61,16.06,5.46,33.79,11.49,54.89,24.3,42.41,25.74,67.1,59.84,80,81.35"/><path class="cls-10" d="M194.56,800.83a585.19,585.19,0,0,0-147.2-89.06,588.67,588.67,0,0,0-230.08-45.24q5.86,49.14,11.72,98.28A586.5,586.5,0,0,1-61.66,751.14C48.64,747.84,137.94,776.56,194.56,800.83Z"/><path class="cls-10" d="M1322.05,738.78c-22.63,1-54.55,1.6-92.75,0A1061.39,1061.39,0,0,1,1051,716.32c-58-12.44-98.3-26.27-98-27.66.42-1.67,58.88,18.55,135.81,18.88a452.24,452.24,0,0,0,92-9.11Z"/><path class="cls-10" d="M853.11,715.35c-88.35-25.63-181.65-49.52-279.76-70.73Q519,632.88,466.18,622.93c6,4.93,10.81,8.45,14.32,10.85,0,0,4.07,2.78,10.41,9.65a6.68,6.68,0,0,1,2.12,3.74c.42,3.48-3.09,6.53-5.37,8.46-4.49,3.8-6.41,3.4-11.56,6.67-4.72,3-10,6.34-10.35,11.18-.44,5.21,5,9.48,6.5,10.63A537.37,537.37,0,0,1,557,673.69c20-.85,57.55-1.33,150.89,13.45C745.15,693.05,794.73,701.93,853.11,715.35Z"/><path class="cls-10" d="M703.09,837.27c-7,4.42-23,15.91-29.29,36.23-9,28.92,5.27,63.87,36.45,85.27l-202.42-82c6.91-2.8,17-6.64,29.51-10.41,28.79-8.72,51-11.31,64.65-13C625.11,850.41,658.11,845.63,703.09,837.27Z"/><path class="cls-10" d="M1630.55,721.86c-4.48,3.27-10.37,8.86-13,17.24-5.06,16,3.69,36,22.46,48.82l-151,9.44q1-11.4,2.11-22.78c5.76-2.9,13.91-6.93,23.76-11.56,5.35-2.51,22.43-10.47,49.79-21.64,30.7-12.53,43.86-16.67,60.37-18.87C1627.35,722.2,1629.28,722,1630.55,721.86Z"/><path class="cls-10" d="M1728.83,963.32a224.72,224.72,0,0,0-32.11-39.27c-45.89-44.63-100-58.36-133.7-66.49a371.55,371.55,0,0,0-75-10.09c2.92,0,59.74,1.64,86.78,48.81,18,31.41,11.45,63.17,9.55,71.16Z"/></g><path class="cls-12" d="M1911,816.65a5683.12,5683.12,0,0,0-1918.25,0V1428.7H1911Z"/><path class="cls-13" d="M-6.41,1347.57a999.9,999.9,0,0,1,180.34-275c32.2-34.82,155.54-163.18,362-249.15,153-63.72,290.72-76.07,365.76-82.56,47.39-4.1,91.11-4.07,91.09-4.85,0-1.7-207-4.13-441.22,11.67a5093.83,5093.83,0,0,0-558.82,69Q-6.85,1082.11-6.41,1347.57Z"/><path class="cls-3" d="M-9,1427.39c155.64-47.87,467.84-128.75,887.72-137.09,500.38-10,872.34,88.72,1030,137.09Z"/><g class="cls-14"><path class="cls-15" d="M155.64,32.14A18.19,18.19,0,0,1,162,31c9.34-3,17.83-.94,26.53,1.84,2.17.69,4.36,1.43,6.58,2.17,2.93,1.09,6,2.78,9,2.92,23.19,1.06,46.49-.19,68.62,7a64.74,64.74,0,0,0,6.54,2.25c11,3.14,22.62,3.38,34.26,2.16q2.85-.3,5.71-.85c1.92-.37,3.86-.83,5.84-1.38,11.93-3.28,23.23-4.31,35.56-4.43,19.69-.19,29.49-1.65,39.35-1.41a297.51,297.51,0,0,1,61.37,8c-35.73-.93-52.23-.81-59.81-.36a40.26,40.26,0,0,1-6.43.39,124.71,124.71,0,0,0-21.24,1.31,46.72,46.72,0,0,1-8.4.84c-4.45-.15-8.71-1.78-13.12-2.41C344.65,48,337,50.06,329.88,53c-1.71.7-3.45,1.67-5.2,2.58a25,25,0,0,1-5.31,2.19c-13.33,3.73-26.06,2.61-38.63,0-2.51-.51-5-1.08-7.52-1.68-6.4-.61-11.74-2.4-18-1.91C239.7,55.81,224.9,57.45,209.48,56A24.55,24.55,0,0,0,196,57c-2.39.63-4.76,1.32-7.15,1.94a73.54,73.54,0,0,1-22.5,2.69c-2.56,0-5.09,0-7.64,0-7.62-.07-15.34-.62-23.08-.59-6.19-.28-9.84-5.1-11.94-9.84a14.22,14.22,0,0,1,3-14.58c7.34-8.18,18.09-6.14,28.09-5.39Z"/><path class="cls-15" d="M1913.22,397.11c-4.52,0-9,0-13.55.07-12.34.11-23.64,1.14-35.56,4.43-2,.54-3.93,1-5.84,1.38s-3.82.65-5.71.85c-11.64,1.22-23.25,1-34.27-2.17a63.15,63.15,0,0,1-6.54-2.25c-22.13-7.21-45.42-5.95-68.61-7-3.09-.14-6.11-1.83-9-2.92-2.22-.73-4.41-1.47-6.59-2.17-8.7-2.78-17.18-4.79-26.53-1.84a18.37,18.37,0,0,0-6.31,1.17,7.59,7.59,0,0,1-.84-.86c-10-.75-20.74-2.79-28.09,5.39a14.25,14.25,0,0,0-3,14.58c2.1,4.75,5.76,9.56,11.94,9.84,7.75,0,15.47.52,23.09.59q3.81,0,7.63,0a73.16,73.16,0,0,0,22.5-2.68c2.39-.63,4.76-1.32,7.16-1.94a24.63,24.63,0,0,1,13.44-1.08c15.42,1.49,30.21-.16,45.77-1.77,6.22-.49,11.56,1.31,18,1.92,2.5.6,5,1.17,7.53,1.68,12.57,2.56,25.29,3.68,38.62-.05a24.78,24.78,0,0,0,5.31-2.2c1.76-.91,3.49-1.88,5.2-2.58,7.09-2.9,14.77-5,22.48-3.87,4.41.62,8.67,2.26,13.12,2.4a47.54,47.54,0,0,0,8.4-.83l.32-.05Z"/><path class="cls-15" d="M240.47,517.48a18.19,18.19,0,0,1-6.32,1.16c-9.35,3-17.83.94-26.53-1.83-2.18-.7-4.36-1.44-6.59-2.18-2.92-1.09-5.94-2.77-9-2.91-23.18-1.07-46.48.19-68.61-7a62.28,62.28,0,0,0-6.54-2.24c-11-3.15-22.62-3.39-34.26-2.17q-2.85.3-5.71.85C75,501.5,73,502,71,502.51c-11.93,3.28-23.23,4.31-35.56,4.43-13.13.13-26.3-.23-39.35,1.41-3.43.43-7.29.89-10-1.24,2.14-2.9,5-5.54,8.44-6.45A23.41,23.41,0,0,1,1,500.27,124.77,124.77,0,0,0,22.23,499a47.64,47.64,0,0,1,8.4-.83c4.45.14,8.71,1.77,13.12,2.4,7.71,1.09,15.39-1,22.48-3.87,1.71-.7,3.45-1.68,5.2-2.59a25.48,25.48,0,0,1,5.31-2.19c13.33-3.73,26.06-2.61,38.63-.05,2.51.51,5,1.08,7.52,1.68,6.4.61,11.74,2.41,18,1.92,15.56-1.61,30.35-3.26,45.78-1.78a24.55,24.55,0,0,0,13.44-1.07c2.39-.62,4.76-1.32,7.15-1.94a73.23,73.23,0,0,1,22.5-2.68c2.55,0,5.09,0,7.64,0,7.62.07,15.34.61,23.08.58,6.19.29,9.84,5.1,11.94,9.84a14.24,14.24,0,0,1-3,14.58c-7.35,8.19-18.09,6.14-28.09,5.4A7.54,7.54,0,0,0,240.47,517.48Z"/><path class="cls-15" d="M938.44,382a18.13,18.13,0,0,1-6.31,1.16c-9.35,3-17.84.94-26.54-1.83-2.17-.7-4.36-1.44-6.58-2.17-2.93-1.09-6-2.78-9-2.92-23.19-1.07-46.48.19-68.61-7a66.41,66.41,0,0,0-6.54-2.24c-11-3.15-22.63-3.39-34.27-2.17q-2.84.3-5.71.85c-1.92.37-3.85.84-5.84,1.38-11.93,3.28-23.23,4.31-35.56,4.43-13.12.13-26.3-.23-39.35,1.41-3.43.43-7.28.89-10-1.24,2.15-2.9,4.95-5.54,8.45-6.45a23.36,23.36,0,0,1,6.42-.39,124.89,124.89,0,0,0,21.25-1.31,47.45,47.45,0,0,1,8.4-.83c4.45.14,8.71,1.78,13.11,2.4,7.71,1.09,15.4-1,22.48-3.87,1.71-.7,3.45-1.68,5.21-2.59a25.26,25.26,0,0,1,5.31-2.19c13.33-3.73,26-2.61,38.62-.05,2.51.51,5,1.08,7.53,1.68,6.39.61,11.73,2.41,18,1.92,15.57-1.61,30.36-3.26,45.78-1.77A24.64,24.64,0,0,0,898,357.05c2.39-.62,4.76-1.31,7.16-1.94a73.13,73.13,0,0,1,22.49-2.68c2.56,0,5.1-.05,7.64,0,7.62.07,15.34.62,23.09.58,6.18.29,9.83,5.1,11.94,9.85a14.22,14.22,0,0,1-3,14.57c-7.35,8.19-18.1,6.14-28.1,5.4A6.77,6.77,0,0,0,938.44,382Z"/><path class="cls-15" d="M1130.24,88.26c-.87.28-1.07.82-1.5,1.57a14.93,14.93,0,0,1-1.74,2.06c-.74.89-.3,1.72-.26,2.75s.42,2.17.39,3.25c0,.4-.09.82-.07,1.23,0,1.1,1.27,1.91,2.2,2.4a4.17,4.17,0,0,0,2.88.45c.9-.22,1.82-.29,2.69-.49a48.23,48.23,0,0,1,5.74-1.07c1-.11,1.88-.33,2.84-.53a3.27,3.27,0,0,0,1.39-.38,4.82,4.82,0,0,1,1.88-.6c1-.15,1.9-.33,2.87-.4s1.93-.11,2.94-.26a11.41,11.41,0,0,1,3.63-.39c1.37.22,2.74.9,4.12,1a3.58,3.58,0,0,0,1.74-.39c.52-.21,1-.21,1.51-.38a8.67,8.67,0,0,0,1.54-.8,6,6,0,0,1,1.57-.48,6.29,6.29,0,0,0,1.29-.6,7.39,7.39,0,0,1,1.71-.48,8.27,8.27,0,0,0,2.94-1.82c1.52-1.39,3.18-2.76,4.56-4.24a14.16,14.16,0,0,1,2.44-2.33c.49-.3,1-.51,1.53-.82s.9-.94,1.48-1.34c.89-.61,2.07-.61,3.06-1.16s2.24-1.34,3.4-1.88c.55-.26,1.31-.13,1.77-.42a8.42,8.42,0,0,0,.85-1.12,4,4,0,0,0,.65-2.59c.07-1.46,0-1.79-1.29-2.62a9.3,9.3,0,0,0-1.61-.64,6.55,6.55,0,0,0-1.8-.83,5.78,5.78,0,0,0-3.13.35c-1.89.8-2.78,2.88-4.17,4.22a9.35,9.35,0,0,1-4.46,2.67,44.65,44.65,0,0,1-5,.63,6.21,6.21,0,0,1-2.5-.51,15.75,15.75,0,0,0-2.67-.37,22.57,22.57,0,0,1-3.16-.6c-2.88-.67-6.16-1.39-9.06-1a13.26,13.26,0,0,0-4.2,1c-1.89,1-3.91,2-5.71,3.1-1.34.85-2.24,2.22-3.62,3C1137.25,88,1134.17,86.58,1130.24,88.26Z"/><path class="cls-15" d="M1865.33,56.57c.54-.09.69-.4,1-.81a9.34,9.34,0,0,1,1.18-1.08c.5-.47.31-1,.36-1.6s-.08-1.3,0-1.94c0-.23.12-.47.14-.72,0-.65-.61-1.22-1.11-1.58a2.49,2.49,0,0,0-1.67-.49c-.55.06-1.09,0-1.62.09a32.24,32.24,0,0,1-3.46.19,16.66,16.66,0,0,0-1.72.09,2,2,0,0,0-.84.12,2.88,2.88,0,0,1-1.16.21c-.59,0-1.14.05-1.71,0S1853.6,49,1853,49a6.87,6.87,0,0,1-2.17-.05c-.78-.23-1.54-.74-2.35-.9a2.07,2.07,0,0,0-1,.1c-.32.09-.6,0-.92.11a4.89,4.89,0,0,0-1,.35,3.21,3.21,0,0,1-1,.16,4.67,4.67,0,0,0-.8.26,4.16,4.16,0,0,1-1,.15,4.9,4.9,0,0,0-1.87.85c-1,.7-2.09,1.38-3,2.14a8.14,8.14,0,0,1-1.62,1.19c-.31.14-.65.22-1,.36s-.6.49-1,.68c-.57.29-1.27.2-1.89.45s-1.43.62-2.15.85c-.34.11-.79,0-1.08.11a5.41,5.41,0,0,0-.58.59,2.34,2.34,0,0,0-.58,1.48c-.16.86-.16,1.05.56,1.64a5.28,5.28,0,0,0,.89.5,4.33,4.33,0,0,0,1,.63,3.49,3.49,0,0,0,1.87,0c1.17-.33,1.86-1.48,2.78-2.16a5.43,5.43,0,0,1,2.83-1.23,25,25,0,0,1,3,0,3.63,3.63,0,0,1,1.43.49,9.82,9.82,0,0,0,1.55.42,12.79,12.79,0,0,1,1.81.6,15.21,15.21,0,0,0,5.26,1.25,8,8,0,0,0,2.55-.24c1.19-.44,2.45-.86,3.6-1.39.85-.4,1.49-1.14,2.36-1.51C1861.18,56.2,1862.89,57.26,1865.33,56.57Z"/><path class="cls-15" d="M1288.48,328c.54-.09.69-.39,1-.8a8.71,8.71,0,0,1,1.18-1.09c.5-.46.31-1,.36-1.6s-.08-1.3,0-1.94c0-.23.12-.47.14-.71,0-.66-.61-1.23-1.11-1.59a2.48,2.48,0,0,0-1.67-.48c-.55,0-1.09,0-1.62.08a32.24,32.24,0,0,1-3.46.19c-.58,0-1.13.05-1.72.09a2,2,0,0,0-.84.12,2.88,2.88,0,0,1-1.16.21c-.59,0-1.14,0-1.72,0s-1.14-.09-1.75-.08a6.87,6.87,0,0,1-2.17,0,24.72,24.72,0,0,0-2.35-.9,2.07,2.07,0,0,0-1,.09c-.32.09-.6.05-.92.11a5.62,5.62,0,0,0-1,.35,3.21,3.21,0,0,1-1,.16,4.4,4.4,0,0,0-.8.26,4.16,4.16,0,0,1-1.05.15,5.05,5.05,0,0,0-1.87.85c-1,.7-2.09,1.38-3,2.14a8.14,8.14,0,0,1-1.62,1.19c-.31.14-.65.22-1,.37s-.6.48-1,.67c-.57.29-1.27.2-1.9.45s-1.42.62-2.14.85c-.34.11-.79,0-1.08.11a5.41,5.41,0,0,0-.58.59,2.4,2.4,0,0,0-.59,1.48c-.15.86-.15,1.05.57,1.64a5.28,5.28,0,0,0,.89.5c.41.25.53.48,1,.63a3.49,3.49,0,0,0,1.87,0c1.17-.33,1.86-1.48,2.78-2.16a5.43,5.43,0,0,1,2.83-1.23,25,25,0,0,1,3,0,3.8,3.8,0,0,1,1.43.49,9,9,0,0,0,1.54.42,13.24,13.24,0,0,1,1.81.6,14.87,14.87,0,0,0,5.27,1.25,7.77,7.77,0,0,0,2.55-.24c1.19-.44,2.45-.85,3.6-1.39.85-.4,1.49-1.14,2.36-1.51C1284.33,327.63,1286,328.69,1288.48,328Z"/><path class="cls-15" d="M1166.22,214.17c.53-.09.68-.4,1-.81a9.34,9.34,0,0,1,1.18-1.08c.5-.47.31-1,.37-1.6s-.08-1.3,0-1.94c0-.23.12-.47.14-.72,0-.65-.6-1.22-1.11-1.58a2.48,2.48,0,0,0-1.66-.49c-.55.06-1.1,0-1.63.09a32.24,32.24,0,0,1-3.46.19,16.47,16.47,0,0,0-1.71.09,2.05,2.05,0,0,0-.85.12,2.85,2.85,0,0,1-1.16.21c-.59,0-1.14,0-1.71,0s-1.15-.09-1.75-.08a6.86,6.86,0,0,1-2.17-.05c-.79-.23-1.55-.74-2.35-.9a2.23,2.23,0,0,0-1.06.1c-.32.09-.6,0-.92.11a4.81,4.81,0,0,0-1,.35,3.32,3.32,0,0,1-1,.16,4.67,4.67,0,0,0-.8.26,4.15,4.15,0,0,1-1,.15,4.87,4.87,0,0,0-1.88.85c-1,.7-2.08,1.38-3,2.14a8.08,8.08,0,0,1-1.61,1.19c-.31.14-.65.22-1,.36s-.61.49-1,.68c-.57.29-1.27.2-1.89.45s-1.43.62-2.15.85c-.34.11-.78,0-1.08.11a6.51,6.51,0,0,0-.58.59,2.45,2.45,0,0,0-.58,1.48c-.16.86-.16,1.05.56,1.64a5.7,5.7,0,0,0,.89.5,4.33,4.33,0,0,0,1,.63,3.49,3.49,0,0,0,1.87,0c1.18-.33,1.86-1.48,2.78-2.16a5.46,5.46,0,0,1,2.84-1.23,24.86,24.86,0,0,1,3,0,3.58,3.58,0,0,1,1.43.49,9.82,9.82,0,0,0,1.55.42,12.79,12.79,0,0,1,1.81.6,15,15,0,0,0,5.27,1.25,8,8,0,0,0,2.54-.24c1.19-.44,2.45-.86,3.6-1.39.85-.4,1.49-1.14,2.36-1.51C1162.07,213.8,1163.77,214.86,1166.22,214.17Z"/><path class="cls-15" d="M406,462.6c.53-.09.69-.39,1-.8a8.59,8.59,0,0,1,1.18-1.08c.51-.47.32-1,.37-1.61s-.08-1.3,0-1.94c0-.23.12-.47.14-.71,0-.66-.61-1.23-1.12-1.59a2.51,2.51,0,0,0-1.66-.48c-.55.05-1.1,0-1.62.08a29.85,29.85,0,0,1-3.46.19c-.58,0-1.13,0-1.72.09a2,2,0,0,0-.84.12,2.91,2.91,0,0,1-1.16.21c-.59,0-1.14.05-1.72,0s-1.14-.09-1.75-.08a6.87,6.87,0,0,1-2.17,0c-.79-.24-1.54-.74-2.35-.9a2.07,2.07,0,0,0-1,.09c-.33.09-.61.05-.93.11a5.83,5.83,0,0,0-1,.35,3.21,3.21,0,0,1-1,.16,4.77,4.77,0,0,0-.81.26,4.15,4.15,0,0,1-1,.15,5.05,5.05,0,0,0-1.87.85c-1,.7-2.09,1.38-3,2.14a8.08,8.08,0,0,1-1.61,1.19c-.31.14-.65.22-1,.37s-.6.48-1,.67c-.57.29-1.26.2-1.89.45s-1.42.62-2.15.85c-.34.11-.78,0-1.07.11a4.63,4.63,0,0,0-.58.59,2.4,2.4,0,0,0-.59,1.48c-.15.86-.16,1.05.56,1.64a5.78,5.78,0,0,0,.9.5c.41.25.53.48,1,.63a3.49,3.49,0,0,0,1.87,0c1.17-.33,1.86-1.48,2.78-2.16a5.43,5.43,0,0,1,2.83-1.23,24.85,24.85,0,0,1,3,0,3.79,3.79,0,0,1,1.44.49,8.74,8.74,0,0,0,1.54.42,14.21,14.21,0,0,1,1.81.6,14.87,14.87,0,0,0,5.27,1.25,7.68,7.68,0,0,0,2.54-.24c1.19-.44,2.46-.85,3.61-1.39.85-.39,1.48-1.14,2.36-1.51C401.86,462.23,403.56,463.29,406,462.6Z"/><path class="cls-15" d="M630.28,528.1c.54-.09.69-.39,1-.8a8.71,8.71,0,0,1,1.18-1.09c.5-.46.31-1,.36-1.6s-.08-1.3,0-1.94c0-.23.12-.47.14-.71,0-.66-.6-1.23-1.11-1.59a2.48,2.48,0,0,0-1.67-.48c-.54.05-1.09,0-1.62.08a32.24,32.24,0,0,1-3.46.19c-.58,0-1.13.05-1.72.09a2,2,0,0,0-.84.12,2.88,2.88,0,0,1-1.16.21c-.59,0-1.14,0-1.71,0s-1.15-.09-1.76-.08a6.8,6.8,0,0,1-2.16,0,23.33,23.33,0,0,0-2.36-.9,2.07,2.07,0,0,0-1,.09c-.32.09-.6.05-.92.11a5.94,5.94,0,0,0-1,.35,3.21,3.21,0,0,1-1,.16,4.67,4.67,0,0,0-.8.26,4.16,4.16,0,0,1-1.05.15,5.05,5.05,0,0,0-1.87.85c-1,.7-2.09,1.38-3,2.14a8.37,8.37,0,0,1-1.61,1.19c-.31.14-.66.22-1,.36s-.6.49-1,.68c-.57.29-1.27.2-1.89.45s-1.43.62-2.15.85c-.34.11-.78,0-1.08.11a5.41,5.41,0,0,0-.58.59,2.34,2.34,0,0,0-.58,1.48c-.16.86-.16,1.05.56,1.64a5.28,5.28,0,0,0,.89.5,4.33,4.33,0,0,0,1,.63,3.49,3.49,0,0,0,1.87,0c1.18-.33,1.86-1.48,2.78-2.16a5.43,5.43,0,0,1,2.83-1.23,25,25,0,0,1,3,0,3.63,3.63,0,0,1,1.43.49,8.85,8.85,0,0,0,1.55.42,14.21,14.21,0,0,1,1.81.6,14.77,14.77,0,0,0,5.26,1.25,8,8,0,0,0,2.55-.24c1.19-.44,2.45-.85,3.6-1.39.85-.4,1.49-1.14,2.36-1.51C626.14,527.73,627.84,528.79,630.28,528.1Z"/><path class="cls-15" d="M419.32-4.89l-.14,0c-.45.2-.7.56-1.12.77-.66.34-1.45.24-2.17.52s-1.63.7-2.46,1c-.39.13-.9,0-1.23.13a6.17,6.17,0,0,0-.67.68,2.73,2.73,0,0,0-.67,1.69c-.18,1-.18,1.21.64,1.88a6.69,6.69,0,0,0,1,.58c.47.28.61.54,1.14.71a3.93,3.93,0,0,0,2.15,0c1.34-.38,2.13-1.7,3.18-2.48a6.37,6.37,0,0,1,3.25-1.41,30.19,30.19,0,0,1,3.43,0,4.1,4.1,0,0,1,1.64.56,11.54,11.54,0,0,0,1.77.48,16.17,16.17,0,0,1,2.07.68,17.16,17.16,0,0,0,6,1.44,9.18,9.18,0,0,0,2.92-.28c1.36-.5,2.81-1,4.12-1.59,1-.45,1.71-1.3,2.71-1.73,1.93-.81,3.88.4,6.68-.39.61-.1.79-.45,1.15-.92a10,10,0,0,1,1.36-1.24,1.4,1.4,0,0,0,.41-1.16Z"/><path class="cls-15" d="M756.35-4.89a3.05,3.05,0,0,0-.49,1.44c-.17,1-.18,1.2.65,1.88a6.53,6.53,0,0,0,1,.57,4.73,4.73,0,0,0,1.15.72,4,4,0,0,0,2.14,0c1.35-.38,2.13-1.7,3.19-2.48a6.22,6.22,0,0,1,3.24-1.41,28,28,0,0,1,3.43,0,4.06,4.06,0,0,1,1.64.57,12.94,12.94,0,0,0,1.78.48,15.18,15.18,0,0,1,2.07.68,17.16,17.16,0,0,0,6,1.44,9.45,9.45,0,0,0,2.91-.28c1.36-.51,2.81-1,4.13-1.59,1-.46,1.7-1.31,2.7-1.73,1.88-.8,3.78.32,6.46-.34Z"/><path class="cls-15" d="M286.3,387.06c.61-.11.79-.45,1.15-.92a9.88,9.88,0,0,1,1.35-1.24c.58-.54.36-1.14.42-1.84s-.09-1.49,0-2.23c0-.26.14-.54.16-.81.06-.75-.69-1.41-1.28-1.82a2.87,2.87,0,0,0-1.9-.56c-.63.07-1.26,0-1.86.1a36.38,36.38,0,0,1-4,.22,18.58,18.58,0,0,0-2,.11,2.29,2.29,0,0,0-1,.13,3.34,3.34,0,0,1-1.33.24c-.67,0-1.3.06-2,0s-1.32-.1-2-.08a8,8,0,0,1-2.49-.06c-.9-.27-1.77-.85-2.69-1a2.36,2.36,0,0,0-1.21.11,9.65,9.65,0,0,1-1,.12,5.48,5.48,0,0,0-1.11.41,3.93,3.93,0,0,1-1.1.18,4.13,4.13,0,0,0-.92.3,5,5,0,0,1-1.2.17,5.75,5.75,0,0,0-2.15,1c-1.14.81-2.39,1.58-3.45,2.46a9.79,9.79,0,0,1-1.85,1.36c-.35.16-.74.26-1.1.42s-.69.56-1.12.77c-.65.34-1.45.23-2.16.52s-1.64.7-2.47,1c-.39.13-.89,0-1.23.13a5.34,5.34,0,0,0-.66.68,2.74,2.74,0,0,0-.68,1.69c-.17,1-.18,1.2.65,1.88a6.53,6.53,0,0,0,1,.57c.47.29.61.55,1.15.72a4,4,0,0,0,2.14,0c1.35-.38,2.13-1.7,3.19-2.48a6.22,6.22,0,0,1,3.24-1.41,30.18,30.18,0,0,1,3.43,0,4.06,4.06,0,0,1,1.64.57,11.66,11.66,0,0,0,1.78.48,15.18,15.18,0,0,1,2.07.68,17.16,17.16,0,0,0,6,1.44,9.15,9.15,0,0,0,2.91-.28c1.36-.5,2.81-1,4.13-1.59,1-.46,1.7-1.3,2.71-1.73C281.54,386.63,283.5,387.85,286.3,387.06Z"/><path class="cls-15" d="M142.72,214.49c.61-.11.79-.46,1.15-.93a10.71,10.71,0,0,1,1.36-1.24c.57-.53.35-1.13.42-1.83s-.1-1.5,0-2.23c0-.26.13-.54.15-.82.06-.74-.69-1.4-1.27-1.81a2.85,2.85,0,0,0-1.91-.56c-.63.07-1.25,0-1.86.1a33.94,33.94,0,0,1-4,.21c-.66,0-1.3.06-2,.11a2.31,2.31,0,0,0-1,.13,3.33,3.33,0,0,1-1.32.25c-.68,0-1.31,0-2,0s-1.31-.1-2-.09a7.93,7.93,0,0,1-2.48-.05c-.91-.27-1.77-.85-2.7-1a2.42,2.42,0,0,0-1.2.1,9.88,9.88,0,0,1-1.06.13,6.71,6.71,0,0,0-1.11.4,3.58,3.58,0,0,1-1.1.19,5.16,5.16,0,0,0-.92.29,4.91,4.91,0,0,1-1.2.18,5.7,5.7,0,0,0-2.14,1c-1.15.81-2.39,1.58-3.45,2.46a9.79,9.79,0,0,1-1.85,1.36c-.36.16-.75.25-1.1.41s-.7.56-1.12.78c-.66.33-1.45.23-2.17.52s-1.63.7-2.46,1c-.39.12-.9,0-1.24.12a7.13,7.13,0,0,0-.66.68A2.77,2.77,0,0,0,100,216c-.18,1-.18,1.2.64,1.88a6.18,6.18,0,0,0,1,.57c.47.29.6.54,1.14.72a4,4,0,0,0,2.14,0c1.35-.38,2.14-1.7,3.19-2.48a6.22,6.22,0,0,1,3.25-1.41,28,28,0,0,1,3.43,0,4.32,4.32,0,0,1,1.64.56,11.56,11.56,0,0,0,1.77.49,14.74,14.74,0,0,1,2.07.68,17.38,17.38,0,0,0,6,1.44,9.39,9.39,0,0,0,2.91-.28c1.37-.51,2.81-1,4.13-1.59,1-.46,1.71-1.31,2.71-1.73C138,214.06,139.92,215.28,142.72,214.49Z"/><path class="cls-15" d="M1454,125.27c.61-.11.79-.46,1.15-.93a10,10,0,0,1,1.36-1.24c.57-.53.35-1.13.42-1.83s-.1-1.5,0-2.23c0-.26.13-.54.15-.82.06-.75-.69-1.4-1.27-1.81a2.85,2.85,0,0,0-1.91-.56c-.63.07-1.25,0-1.86.1a33.94,33.94,0,0,1-4,.21c-.66,0-1.3.06-2,.11a2.31,2.31,0,0,0-1,.13,3.16,3.16,0,0,1-1.32.24c-.68,0-1.31.06-2,0s-1.31-.1-2-.09a7.93,7.93,0,0,1-2.48,0c-.91-.27-1.77-.85-2.7-1a2.42,2.42,0,0,0-1.2.1c-.37.1-.7.06-1.06.13a6.71,6.71,0,0,0-1.11.4,3.58,3.58,0,0,1-1.1.19,4.46,4.46,0,0,0-.92.29,4.91,4.91,0,0,1-1.2.18,5.7,5.7,0,0,0-2.14,1c-1.15.8-2.39,1.58-3.45,2.45a9.84,9.84,0,0,1-1.85,1.37c-.36.16-.75.25-1.1.41s-.7.56-1.12.78c-.66.33-1.45.23-2.17.52s-1.63.7-2.46,1c-.39.12-.9,0-1.24.12a7.13,7.13,0,0,0-.66.68,2.75,2.75,0,0,0-.67,1.7c-.18,1-.18,1.2.64,1.88a7,7,0,0,0,1,.57c.47.29.6.54,1.14.72a4,4,0,0,0,2.14,0c1.35-.38,2.14-1.7,3.19-2.48a6.22,6.22,0,0,1,3.25-1.41,28,28,0,0,1,3.43,0,4.32,4.32,0,0,1,1.64.56,11.56,11.56,0,0,0,1.77.49,14.74,14.74,0,0,1,2.07.68,17.37,17.37,0,0,0,6,1.43,8.82,8.82,0,0,0,2.91-.28c1.37-.5,2.81-1,4.13-1.59,1-.45,1.71-1.3,2.71-1.72C1449.24,124.84,1451.19,126.06,1454,125.27Z"/><path class="cls-15" d="M1477,291.08c.61-.11.79-.46,1.15-.93a10.48,10.48,0,0,1,1.35-1.23c.58-.54.36-1.14.42-1.84s-.09-1.49,0-2.23c0-.26.14-.54.16-.82.06-.74-.69-1.4-1.28-1.81a2.82,2.82,0,0,0-1.9-.56c-.63.07-1.26,0-1.86.1a36.38,36.38,0,0,1-4,.22c-.67,0-1.3,0-2,.1a2.31,2.31,0,0,0-1,.14,3.34,3.34,0,0,1-1.33.24c-.67,0-1.3.05-2,0s-1.32-.1-2-.09a8,8,0,0,1-2.49-.05c-.9-.27-1.77-.85-2.69-1a2.36,2.36,0,0,0-1.21.11c-.37.1-.69.05-1,.12a5.48,5.48,0,0,0-1.11.41,3.93,3.93,0,0,1-1.1.18,4.13,4.13,0,0,0-.92.3,5.51,5.51,0,0,1-1.2.17,5.75,5.75,0,0,0-2.15,1c-1.14.81-2.39,1.58-3.45,2.46a9.79,9.79,0,0,1-1.85,1.36c-.35.16-.74.25-1.1.42s-.69.56-1.12.77c-.65.33-1.45.23-2.16.52s-1.64.7-2.47,1c-.39.12-.89,0-1.23.13a5.24,5.24,0,0,0-.66.67,2.79,2.79,0,0,0-.68,1.7c-.17,1-.18,1.2.65,1.88a6.53,6.53,0,0,0,1,.57,4.73,4.73,0,0,0,1.15.72,4,4,0,0,0,2.14,0c1.35-.38,2.13-1.7,3.19-2.48a6.22,6.22,0,0,1,3.24-1.41,28,28,0,0,1,3.43,0,4.06,4.06,0,0,1,1.64.57,12.94,12.94,0,0,0,1.78.48,15.18,15.18,0,0,1,2.07.68,17.16,17.16,0,0,0,6,1.44,9.15,9.15,0,0,0,2.91-.28c1.36-.51,2.81-1,4.13-1.59,1-.46,1.7-1.31,2.71-1.73C1472.22,290.65,1474.18,291.87,1477,291.08Z"/><path class="cls-15" d="M958.47,89.63c-9.22.55-20.29-1.87-29.66-2.62-17-1.37-31.49-.31-48.14,2.51a219.76,219.76,0,0,0-34.51,9.23c-16.92,5.81-36.87,3.45-54.17.06-9.68-1.91-19.25-4.12-29.5-3.93-11.78.21-22.78,4.78-34.67,6.76-28.23,4.68-57.63-.09-86.49.2s-59.76-1-88.19,3.15c-5.4.78-14.15,2-10.11,9.12,3.88,6.82,23.28,3.25,30.44,2.28,31.5-4.27,61.42,7.5,93,9.32,17.37,1,31.51-5.64,48.05-10.93,21.72-6.93,42.06-2.9,63.45,1.84,16.19,3.58,33,3.41,49.48,7,18.23,4,35.35,3.68,54,5.44,13,1.23,27,3.81,39.15.79,7.18-1.79,13.52-4.74,21.13-5.34,25.47-2,51.12,4.64,76.86,2.53,1.23-8.93-.67-13.72-7-19.9-7.69-7.52-14.18-4.55-24.47-4.64C975.89,102.45,965,95.84,958.47,89.63Z"/><path class="cls-15" d="M1593.51,194.66c5-.3,11,1,16.16,1.43a100.41,100.41,0,0,0,26.22-1.37,119.13,119.13,0,0,0,18.8-5c9.21-3.16,20.08-1.88,29.51,0,5.27,1,10.48,2.25,16.06,2.14,6.42-.11,12.41-2.6,18.89-3.68,15.37-2.55,31.39,0,47.11-.11s32.55.53,48-1.71c2.93-.43,7.7-1.11,5.5-5s-12.68-1.77-16.58-1.24c-17.16,2.32-33.46-4.09-50.68-5.08-9.47-.55-17.16,3.07-26.18,6-11.83,3.78-22.9,1.58-34.56-1-8.82-2-18-1.86-26.94-3.83-9.94-2.19-19.26-2-29.43-3-7.07-.67-14.7-2.07-21.32-.43-3.91,1-7.36,2.59-11.51,2.91-13.87,1.08-27.84-2.52-41.86-1.37-.68,4.86.36,7.47,3.8,10.83,4.19,4.1,7.72,2.48,13.32,2.53C1584,187.68,1590,191.28,1593.51,194.66Z"/><path class="cls-15" d="M1139.34,426.71c5-.3,11.05,1,16.15,1.43a100.84,100.84,0,0,0,26.22-1.37,120.22,120.22,0,0,0,18.8-5c9.21-3.16,20.08-1.88,29.51,0,5.27,1,10.48,2.24,16.06,2.14,6.42-.11,12.41-2.61,18.89-3.68,15.38-2.55,31.39.05,47.11-.11s32.55.52,48-1.72c2.93-.42,7.7-1.1,5.5-5s-12.68-1.77-16.58-1.25c-17.16,2.33-33.45-4.08-50.68-5.07-9.46-.55-17.16,3.07-26.17,5.95-11.83,3.78-22.91,1.58-34.57-1-8.82-1.95-18-1.86-26.94-3.84-9.93-2.18-19.26-2-29.43-3-7.07-.67-14.7-2.08-21.32-.43-3.91,1-7.36,2.59-11.51,2.91-13.87,1.08-27.84-2.53-41.86-1.38-.68,4.87.36,7.47,3.8,10.84,4.19,4.1,7.72,2.48,13.33,2.53C1129.85,419.73,1135.78,423.33,1139.34,426.71Z"/><path class="cls-15" d="M1481.26-4.89c-14.11,4.48-28.42,8.51-42.68,8.82-13.89.3-26.67-5.83-40.16-8.82h-30.34c-26,4.47-50.75,16.66-77.75,14.06-33.89-3.26-67.78-12.63-102.56-10.41-5.72.36-24.37.82-22.21,10.54,1.35,6.06,11,4.15,15.38,3.51,11.73-1.71,19.15,0,31.51,4.22,12.87,4.4,18.58,4.95,32.91,3.74,24.57-2.07,47,3.36,71.77,2.41,10.09-.38,18.37-3.48,28.35-4.78,24-3.12,42.18,4.47,65,10.74,15.8,4.33,31.31,6.47,45.34-3,17.66-11.9,37.67-17.25,58.69-21.11C1523,3.49,1532.2,3,1530-4.89Z"/><path class="cls-15" d="M1273.37,530.05c-23.9,5.84-49,17.75-73.92,18.29-18.42.4-34.9-10.52-53.66-10.42-32.29.17-61.81,18.82-94.59,15.67-33.89-3.27-67.77-12.64-102.55-10.42-5.73.36-24.38.82-22.21,10.54,1.34,6.07,11,4.15,15.38,3.52,11.72-1.72,19.14,0,31.51,4.22,12.86,4.39,18.57,4.94,32.9,3.73,24.58-2.07,47,3.36,71.78,2.42,10.08-.39,18.37-3.49,28.34-4.78,24-3.12,42.19,4.46,65,10.73,15.8,4.33,31.31,6.47,45.34-3,17.67-11.91,37.67-17.26,58.69-21.11,9.9-1.82,20.8-2.2,13.26-14.61C1284.86,528.57,1279.52,524.58,1273.37,530.05Z"/><path class="cls-15" d="M752.8,274.8c-37.13,9.07-76.1,27.58-114.87,28.41-28.64.62-54.24-16.34-83.4-16.19-50.18.28-96,29.25-147,24.35-52.67-5.07-105.33-19.64-159.37-16.19-8.9.57-37.89,1.28-34.53,16.39,2.1,9.42,17.16,6.44,23.91,5.46,18.22-2.67,29.75,0,49,6.56,20,6.82,28.86,7.68,51.14,5.8,38.19-3.22,73.07,5.22,111.53,3.76,15.68-.6,28.55-5.42,44.06-7.44,37.27-4.84,65.56,7,101.08,16.69,24.55,6.73,48.65,10.06,70.46-4.64C694.06,318,717.27,312.49,756,305c19.29-3.75,30.63-4.9,30.63-4.9,24.44-2.49,33.88-.06,34.85-3.28,1.63-5.39-22.06-21.52-49-23.26A77,77,0,0,0,752.8,274.8Z"/><path class="cls-15" d="M1913.22,469.76a142.49,142.49,0,0,1-15.12,1.17c-28.64.62-54.25-16.35-83.41-16.19-50.18.27-96,29.25-147,24.35C1615,474,1562.38,459.45,1508.33,462.9c-8.9.57-37.88,1.27-34.52,16.39,2.09,9.42,17.15,6.44,23.9,5.45,18.22-2.66,29.75,0,49,6.56,20,6.83,28.87,7.69,51.14,5.81,38.19-3.22,73.07,5.22,111.54,3.75,15.67-.6,28.55-5.41,44.05-7.43,37.27-4.85,65.56,6.95,101.08,16.69,20.22,5.54,40.14,8.76,58.73,1.51Z"/></g><g class="cls-16"><path class="cls-17" d="M858.78,236.36c26-29.65,54.2-59.53,84.89-89.27,145.9-141.33,300.52-233.75,433.83-295l350.4,5.82q-9.15,29.13-18.31,58.26c-44,7.5-97.63,18.09-158.14,33.29-99,24.89-172,50.95-191,57.85-98,35.5-166.32,70.14-294.77,135.8-66.87,34.19-121.76,64-160.08,85.17"/><path class="cls-17" d="M925.35,348.86c-10.85,4.69-22.23,7.66-33.75,10.14-9.37,2-18.8,3.7-28.21,5.5s-18,5.2-25,12.07a48.16,48.16,0,0,0-9.13,13.3c-1.64,3.32-2.92,6.82-5.07,9.86s-4.67,4-7.62,2.73a12.36,12.36,0,0,1-4.75-4.08c-4.3-5.61-6.93-12.05-8.93-18.73a103.3,103.3,0,0,1-4.36-27,110.34,110.34,0,0,1,2.26-25A89.27,89.27,0,0,1,821,286.18c2.43-2.46,5.89-6,10.14-10.39l1-1.08c3.76-3.9,15.19-12.32,30.15-16.22,13.5-3.52,24.7-2,31.39-1.09a89,89,0,0,1,16.58,3.83A87.89,87.89,0,0,1,934,273c7.15,5.11,13.35,11.14,17.56,19a39.12,39.12,0,0,1,4.26,25.25,33.29,33.29,0,0,1-11,19.65A69,69,0,0,1,925.35,348.86Z"/><path class="cls-17" d="M1079.05,385a2.4,2.4,0,0,0,.73-1.59q.4-2.82.7-5.79Q1079.92,381.31,1079.05,385Zm-4.21,12.88c-.35.84-.72,1.66-1.12,2.48a7,7,0,0,1,1.18-1.7A1.83,1.83,0,0,1,1074.84,397.85Zm-2.77,6.26c.43-.95.79-1.95,1.22-2.9-.49,1-1,2-1.58,3Zm-2.81,4.05c-.36.53-.73,1-1.11,1.55q-1.74,2.42-3.71,4.65c.75-.83,1.49-1.66,2.19-2.52a.86.86,0,0,1,.14-.13,1.92,1.92,0,0,1,.22-.39c1.19-1.56,2.71-2.85,3.39-4.75a1.41,1.41,0,0,1,.31-.52s0-.07,0-.11C1070.23,406.69,1069.76,407.43,1069.26,408.16Zm-23,21.27c.33-.16.65-.34,1-.51a63.56,63.56,0,0,0,9.76-7,1.64,1.64,0,0,1,.35-.47l.36-.35q-.77.69-1.56,1.35A70.66,70.66,0,0,1,1046.24,429.43Zm7.69-146.66A149.3,149.3,0,0,0,1016.15,248c-2.3-1.5-17.73-11.27-41.11-17.85-3.57-1-7.33-1.94-11.25-2.75,1.54.35,3.07.72,4.6,1.12,2.3.6,4.62,1.24,6.9,1.92h0l2.35.71,2.33.73c.77.25,1.55.5,2.32.77l2,.71.92.33a166.43,166.43,0,0,1,21.22,9.46,156,156,0,0,1,17.92,11.36,141.15,141.15,0,0,1,18.5,16.09,138.66,138.66,0,0,1,13.75,16.59h0c2.23,3.16,4.34,6.42,6.3,9.79a141.49,141.49,0,0,1,12.1,26.65,133.38,133.38,0,0,0-21.12-40.85Zm-11.28,172.81a32.24,32.24,0,0,0-2.17-7.38,1.65,1.65,0,0,1,1.17-2.27h0l0-.06c-2.64-3.17-5.76-6.07-7.86-8.59A1.53,1.53,0,0,1,1034,435l.06,0-.07,0h0a64.85,64.85,0,0,1-11.73,2.71l-1.29.16c-.86.11-1.72.19-2.58.26-2.25.19-4.49.27-6.72.26-.75,0-1.5,0-2.26,0h-.07l-2.32-.1q-3.5-.21-7-.69l-1.75-.25c-1.76-.27-3.51-.59-5.26-.94l-1.26-.26c-.87-.19-1.72-.38-2.58-.59s-1.57-.38-2.35-.59c-1.09-.29-2.17-.59-3.25-.91q-2.45-.72-4.86-1.53c-4.05-1.36-8-2.9-12-4.52-5-2.05-9.83-4.26-14.67-6.59-5.27-2.52-10.65-4.84-15.88-7.47-4.47-2.24-9-4.33-13.6-6.35q-2.45-1.08-4.92-2.09l-1.44-.57c-1.12-.44-2.24-.86-3.37-1.27l-1.58-.55c-.55-.2-1.1-.38-1.65-.56-.75-.24-1.51-.48-2.26-.7s-1.5-.46-2.26-.67-1.5-.43-2.26-.63-1.52-.39-2.28-.57h-.1c-1.24-.3-2.5-.56-3.76-.79a1.66,1.66,0,0,1,.88.63c.81,1.14.11,3.12-1.52,3a1.41,1.41,0,0,1-.4.37l-1,.6a2.13,2.13,0,0,1-1.31.69c.59-.08.27,0,.1,0a4.67,4.67,0,0,1-.65.13,1.87,1.87,0,0,1-1.86-1.24,1.8,1.8,0,0,1,0-1.19,10.72,10.72,0,0,0-2,.24h-.08a2,2,0,0,1-1.13,2.19c-2.29.91-3.27,2.18-4.77,4a3.21,3.21,0,0,1-1.78,1.19,13.86,13.86,0,0,1,.49,2.85c.16,2.31-.63,3.56-1.91,4.13a2,2,0,0,1-.09.51c-.15.52-.29,1-.41,1.57a1.58,1.58,0,0,1,.66.88,18.77,18.77,0,0,1,.33,2.58,1.85,1.85,0,0,0,0,.23c.12.76.35,1.5.46,2.26a1.19,1.19,0,0,1-.06.59v0a1.21,1.21,0,0,1-.11.3,18,18,0,0,1,1,2.52,22.63,22.63,0,0,0,1.72,3.08c.62.93,1.26,1.74,1.76,2.62a1.85,1.85,0,0,1,.77.91,5.93,5.93,0,0,0,1.17,1.34c.43.46.87.9,1.29,1.37a14.82,14.82,0,0,1,1.13,1.25l.12.19a2.25,2.25,0,0,1,1.07,1.08c.22.43.83.76,1.19,1.06a18.89,18.89,0,0,1,1.42,1.41c.31.33.65.65,1,1a1.48,1.48,0,0,1,.41.12,1.64,1.64,0,0,1,.69.65h0l0,0a9.94,9.94,0,0,0,2.2,2.24,12.47,12.47,0,0,0,2.25,1.79h0a2.63,2.63,0,0,0,.41.21,1.62,1.62,0,0,1,.94,1l0,0,.09.05h0a1.56,1.56,0,0,1,.46.34l.49.49c.86.84,1.73,1.67,2.54,2.55a1.71,1.71,0,0,1,.79.46c.7.69,1.4,1.41,2.11,2.12a1.87,1.87,0,0,1,.61.11,2,2,0,0,1,1,.69,3.64,3.64,0,0,1,.24.35h0c.16.22.3.44.44.67a1.9,1.9,0,0,1,1,.64c.24.28.48.54.72.81s.61.6.93.9a2.16,2.16,0,0,1,.43.25,55.45,55.45,0,0,1,4.52,4l.48.41c.24.2.46.4.67.6a1.52,1.52,0,0,1,.58.27l0,0a1.06,1.06,0,0,1,.2.17l.27.26,0,0c1.55,1.5,3.4,3.07,4.89,4.83a2.21,2.21,0,0,1,.44.26l1,.8.07.06a30.44,30.44,0,0,1,6.43,6.49s0,0,0,0c.19.28.36.58.52.87l.2.12a11.9,11.9,0,0,1,.94.79l0,0c1.16,1,2.18,2.24,3.24,3.4a16.6,16.6,0,0,1,2.2,3h0c.13.26.27.51.39.77a2.7,2.7,0,0,1,.36.26l.25.25a13.48,13.48,0,0,1,1.46,1.94l.5.69a7,7,0,0,0,.61.72,7.39,7.39,0,0,1,2.12,3h0c0,.1,0,.19.05.28a9.27,9.27,0,0,1,1.81,1.89,2.44,2.44,0,0,1,1.31.87c.07.09.16.19.22.28a.5.5,0,0,1,.12.08,6.28,6.28,0,0,1,1.1.47l.35.18a2.2,2.2,0,0,1,.41.31c.82.35,1.65.67,2.47,1a1.81,1.81,0,0,1,1.11.1c.43.17.92.38,1.42.55a6.26,6.26,0,0,1,1.68.3l.19.09a3.19,3.19,0,0,1,1.1.16,2,2,0,0,1,.89-.08l.16,0a1.3,1.3,0,0,1,.41-.07h0a1.5,1.5,0,0,1,.41,0h0l.14,0a15.48,15.48,0,0,0,6.21-.05h.09l.75-.1c.65-.09,1.28-.14,1.93-.19a.41.41,0,0,0,.16,0q.62-.06,1.23-.18h0a5.72,5.72,0,0,0,.79-.2,14,14,0,0,1,2.65-.73,1.59,1.59,0,0,1,.86.11h0l.12.05.09,0a35.46,35.46,0,0,0,3.67-1h0c1.8-.57,3.57-1.25,5.34-1.91a1.64,1.64,0,0,1,1.19,0l.14.05a1.82,1.82,0,0,1,1.31-.13l.05,0c-.56-.25.19-.26.72-.52s.82-.4,1.26-.56a23,23,0,0,0,3.81-1.47h0a5.36,5.36,0,0,0,.59-.38,1.59,1.59,0,0,1,1.22-.35,1.24,1.24,0,0,1,.39.1c2.74-1.21,6.11-2.82,9.93-4.89l.3-.15.21-.11.06,0a152.64,152.64,0,0,0,35.56-26.76h0c.3-.3.6-.6.89-.91-.11-.55-.21-1.09-.32-1.64h0c0-.22-.08-.43-.12-.64a1.93,1.93,0,0,1,.58-1.84l.1-.09,0-.35A.09.09,0,0,0,1042.65,455.58Zm-6.79-21,1.92-1c-.79.32-1.6.62-2.41.91A1.66,1.66,0,0,1,1035.86,434.56Zm-178.8,29.72a5.63,5.63,0,0,0,5.52-2.21,5.7,5.7,0,0,0,.74-6c-1.39-3.28-3.82-5.8-6-8.53-5.94-7.59-10-16-10.55-25.73a30.09,30.09,0,0,1,4.81-18.43,43,43,0,0,1,28.7-19.42,67.21,67.21,0,0,1,20.61-.55,138.51,138.51,0,0,1,13.91,2.27c6.79,1.43,13.52,3.09,20.22,4.86,5.34,1.39,10.72,2.65,16.1,3.87a158.63,158.63,0,0,0,18.23,3.17,87.64,87.64,0,0,0,19,.15,54.91,54.91,0,0,0,24.58-8.82,61,61,0,0,0,16.82-17,47.89,47.89,0,0,0,7-16.34c2.5-10.8,1.62-21.44-1.38-31.94a98.45,98.45,0,0,0-14.07-28.87A128.62,128.62,0,0,0,1000,270.89a147.9,147.9,0,0,0-21.61-15.6,138.82,138.82,0,0,0-16.16-8.36A107.53,107.53,0,0,0,943.93,241a128.08,128.08,0,0,0-13.23-2.32,116.64,116.64,0,0,0-19.77-.69,134.27,134.27,0,0,0-53.39,13.59,123.59,123.59,0,0,0-26.75,17.65,109.46,109.46,0,0,0-12.2,12.45A49.61,49.61,0,0,0,813,289c-.8,1.34-1.34,2.41-1.63,3-11.08,22.43-14.23,34.67-14.23,34.67a118.59,118.59,0,0,0-3.67,23.81c-.69,14.26,1.37,27.22,2.5,34.35a123.07,123.07,0,0,0,4.76,16.27,125.49,125.49,0,0,0,6.81,15.23l.13.25a125.68,125.68,0,0,0,21.1,29A89.57,89.57,0,0,0,846.69,460C849.87,461.88,853.19,463.84,857.06,464.28Zm-21-46.17a26.77,26.77,0,0,1-.88,8.44c-.8,2.5-3.88,4.42-6.22,4-3.07-.56-5.28-2.39-7.42-4.43-5.3-5-9-11.24-12.35-17.57A128.11,128.11,0,0,1,801.23,390a105.68,105.68,0,0,1-5.66-26.94,89.68,89.68,0,0,1,.71-23.37c.46-2.67.9-4.44,1.76-7.91,2.67-10.84,4.75-19.17,9.72-28.9,3.17-6.22,6.53-10.73,11.26-17.16,0,0,3.35-4.56,8.16-10.38.07-.07.2-.23.37-.44a36.41,36.41,0,0,1,4.27-4.06c1.83-1.48,9.42-6.65,20.09-13.12a86.41,86.41,0,0,1,30.75-7.08c11.12-.6,22.18.41,33.18,1.86a84.32,84.32,0,0,1,16.06,4,114.47,114.47,0,0,1,18.62,8.21,99.19,99.19,0,0,1,20.8,15c7.26,6.91,13.2,14.73,16.56,24.29a43.26,43.26,0,0,1,2,21.34,52.27,52.27,0,0,1-4,13.26,49.36,49.36,0,0,1-16.2,20.3c-7.57,5.49-16.1,8.72-25.12,10.75a162.81,162.81,0,0,1-29.44,3.51c-7.83.3-15.66.62-23.49.91a157,157,0,0,0-22,2c-8.37,1.5-16.22,4.07-22.31,10.54-4.42,4.7-7.94,9.8-9.76,16.09C836.08,407.76,836,412.92,836,418.11Zm86.18,67,.24.28a9.44,9.44,0,0,1,2.16,5.94c0-.37,0-.67,0-.9a9.83,9.83,0,0,0-1.24-3.79A9,9,0,0,0,922.21,485.15Zm-.6,12.6a1,1,0,0,0,.15-.14,8.62,8.62,0,0,1-3,1.57A7.27,7.27,0,0,0,921.61,497.75ZM912,477.22l2.62,1.63c1.14.72,2.25,1.47,3.31,2.28l-1.13-.88A36.66,36.66,0,0,0,912,477.22ZM897.63,497l2.27.77a44.36,44.36,0,0,0,10.83,1.78c-.94-.09-1.87-.21-2.81-.35A90.56,90.56,0,0,1,897.63,497Zm2.08-27.69c-5.85-4.21-12-9.2-12.19-9.33l-.12-.08-.18-.17a1.89,1.89,0,0,1-.38-.27c-2.2-2-4.65-3.72-6.66-5.93a3.91,3.91,0,0,1-.3-.41,38,38,0,0,1-4.06-4c-1.23-1.28-2.41-2.58-3.51-4l-.66-.85a1.68,1.68,0,0,1-.33-.69c-.24-.27-.48-.52-.76-.78a1.88,1.88,0,0,1-.3-.34,4,4,0,0,1-1.16-1.65,1.83,1.83,0,0,1-.15-.47,27.23,27.23,0,0,1-2.56-3.47,29.45,29.45,0,0,1-1.47-3.17,9,9,0,0,1-1.2-1.94,49.44,49.44,0,0,0,7.78,12.51,107.06,107.06,0,0,0,14.55,14.56c4.25,3.57,8.68,6.88,13.19,10.1Zm-9.8-70.94-.48,0,.12.08Zm-2.54,0h-.18a.27.27,0,0,1,.12,0Zm-2.3.34a8.36,8.36,0,0,1,.8-.27c-.78.05-1.55.12-2.31.24A7.56,7.56,0,0,1,885.07,398.66Zm-6,1.08a20.75,20.75,0,0,1,3-.89,26.35,26.35,0,0,0-7,2.31C876.47,400.58,877.93,400.17,879.09,399.74Zm-18.74,80.2c-2.52-1.55-5-3.17-7.36-4.87-2.16-1.51-4.26-3.07-6.33-4.69a.94.94,0,0,0-.12-.09l0,0-.17-.13c-.07-.05-.13-.11-.2-.15h0l-.13-.12h0c-1.11-.86-2.2-1.74-3.27-2.62,1.09.93,2.21,1.86,3.35,2.77a166.78,166.78,0,0,0,29.81,18.62c2.14,1.08,4.26,2,6.62,3q-3.84-1.64-7.59-3.49C869.9,485.64,865.07,482.89,860.35,479.94Zm11.5-76.66a4.72,4.72,0,0,1,.68-.66,21.37,21.37,0,0,0-2.32,1.69,14.47,14.47,0,0,1,1.39-.92Zm-6.81,6.8a12.27,12.27,0,0,1,.87-1.41,17.44,17.44,0,0,0-1.34,1.92,2.37,2.37,0,0,1,.39-.32A1,1,0,0,1,865,410.08Zm-2.39,18.62c.23.82.5,1.62.8,2.4-.09-.31-.14-.62-.21-.93a2.09,2.09,0,0,1-.23-.86A2.23,2.23,0,0,0,862.65,428.7Zm-.28-1.4c-.06-.12-.13-.23-.18-.35,0,.2.09.39.14.58A.93.93,0,0,1,862.37,427.3Zm-.82-7c.19-1.21.46-2.38.63-3.34.12-.67.24-1.42.4-2.19A20,20,0,0,0,861.55,420.3Zm.48,5.89a1.26,1.26,0,0,1,.13-.54l0,0a3.6,3.6,0,0,1-.31-.54C861.88,425.44,862,425.81,862,426.19Zm-70.72-58.8c-.34-4.86-.34-8.71-.32-10.68.28-22.93,6.46-38.85,8.4-43.53.5-1.22.94-2.2,1.2-2.81,2.84-6.11,5.12-10.94,6.61-14.11.21-.47.48-1.05.81-1.72a129.49,129.49,0,0,0-16.88,53.95,132.26,132.26,0,0,0,8,56.32c.33.93,1.2,3.32,2.7,6.75a162.57,162.57,0,0,1-6.38-18.93A135.37,135.37,0,0,1,791.31,367.39Z"/><path class="cls-15" d="M810.73,107.15c-41.48-36.15-62.22-54.23-78.52-83-7.57-13.37-41.06-72.53-20.77-141A157.7,157.7,0,0,1,718-134.87H664.75a176.67,176.67,0,0,0-25.08,57c-3.77,15.66-16.89,70,14.51,122,18,29.95,42.91,46.08,56.52,53.52C690,92,672,86.48,657.18,81.64,616,68.24,586.46,56,557.64,40.12c-21.46-11.82-32.33-20.07-41-33-2.56-3.8-12.09-18.31-13.75-37-3.11-34.67,22.79-61.78,39.26-79a194.12,194.12,0,0,1,30.55-25.94H473.91c-10.23,23.43-18.21,55.59-9.3,90.71,12.25,48.32,50.34,78,60,85.53,9.22,7.19,17.26,11.93,27,17.26,58,31.68,112.87,49.15,126,53.27,84.44,26.44,126.65,39.67,165.07,48,18.93,4.12,41.75,8.59,66.55,20.35q1.71-1.75,3.5-3.51a330.24,330.24,0,0,1-41-22.59C845.18,137.17,827,121.29,810.73,107.15Z"/><path class="cls-18" d="M846.13,469.8a.59.59,0,0,0-.14.06"/><path class="cls-19" d="M1042.06,458.86h0a4.09,4.09,0,0,1-.57,2.35,26.85,26.85,0,0,1-2.07,2.95,25.53,25.53,0,0,1-2,2.26c-6.8,6.74-14.69,12-22.89,16.78a142.61,142.61,0,0,1-33.07,14.55c-8.36,2.38-16.85,4.05-25.62,2.16-4.61-1-8.55-3-11.26-7a121.55,121.55,0,0,0-11.18-13.91c-7.81-8.4-16.47-15.92-25.13-23.41C901.65,450,895,444.33,889,438.05c-3.1-3.24-6-6.71-7.73-11a13.62,13.62,0,0,1-.95-3.63,10,10,0,0,1,.12-2.82c1-5.15,6.51-9,12.39-8.43l1.22.13a21,21,0,0,1,3.64.57l.16,0a168.89,168.89,0,0,1,18.6,8.24c5.16,2.67,5.17,3,26.24,15.5,5.65,3.36,11.44,6.47,17.3,9.43,2.38,1.2,4.8,2.32,7.24,3.34a92.07,92.07,0,0,0,16.38,5.13,115.89,115.89,0,0,0,12.72,1.95,113.49,113.49,0,0,0,13.92.48,77.15,77.15,0,0,0,16.7-2.31c3.32-.85,6.62-1.94,10.21-1.46A6.06,6.06,0,0,1,1042.06,458.86Z"/><path class="cls-18" d="M955.78,317.2a33.29,33.29,0,0,1-11,19.65,69,69,0,0,1-19.45,12c-10.85,4.69-22.23,7.66-33.75,10.14-9.37,2-18.8,3.7-28.21,5.5s-18,5.2-25,12.07a48.16,48.16,0,0,0-9.13,13.3c-1.64,3.32-2.92,6.82-5.07,9.86s-4.67,4-7.62,2.73a12.36,12.36,0,0,1-4.75-4.08c-4.3-5.61-6.93-12.05-8.93-18.73a103.3,103.3,0,0,1-4.36-27,110.34,110.34,0,0,1,2.26-25A89.27,89.27,0,0,1,821,286.18c2.43-2.46,5.89-6,10.14-10.39l1-1.08c3.76-3.9,15.19-12.32,30.15-16.22,13.5-3.52,24.7-2,31.39-1.09a89,89,0,0,1,16.58,3.83A87.89,87.89,0,0,1,934,273c7.15,5.11,13.35,11.14,17.56,19A39.12,39.12,0,0,1,955.78,317.2Z"/><path class="cls-18" d="M1079.79,342.58a125,125,0,0,0-4.73-18.95c.16.49.31,1,.46,1.49a134.73,134.73,0,0,1,5,52.47c.4-2.66.69-5.34.85-8A117.68,117.68,0,0,0,1079.79,342.58Zm-2.23,47.79c.56-1.79,1.06-3.58,1.49-5.4a1.71,1.71,0,0,0-.24.51C1078.33,387.11,1078,388.74,1077.56,390.37Zm-2.61,7a1.89,1.89,0,0,0-.11.44c.68-1.56,1.29-3.15,1.85-4.76,0-.13.09-.25.12-.38q.29-.82.54-1.65c-.09.27-.18.54-.28.8C1076.37,393.71,1075.67,395.57,1075,397.41Zm-4.27,8.53c.37-.58.71-1.16,1-1.75A1.64,1.64,0,0,0,1070.68,405.94Zm-13,15.18a70.71,70.71,0,0,0,6.76-6.76C1062.28,416.7,1060,418.93,1057.68,421.12Zm-11.44,8.31c-2.78,1.47-5.65,2.75-8.46,4.15A63.72,63.72,0,0,0,1046.24,429.43Zm-10.87,5.06a2.16,2.16,0,0,0-1.31.45ZM927.54,223.71a144.83,144.83,0,0,0-33.12,4.42,140.15,140.15,0,0,0-54.56,27.66,133.83,133.83,0,0,0-28.11,31.83c-.31.49-.59,1-.59,1-1.37,2.35-2.4,4.36-3.13,5.89a139.77,139.77,0,0,1,24-31.1c4.42-4.27,25.89-24.41,61.18-34.12a149.41,149.41,0,0,1,70.49-1.89c-4.67-1-9.4-1.83-14.16-2.42A156.21,156.21,0,0,0,927.54,223.71Zm-2.93,267.72a10,10,0,0,1-2.17,5.52A8,8,0,0,0,924.61,491.43Zm-6.5-10.16c1,.8,1.71,1.52,2.44,2.21s1.2,1.17,1.59,1.6A25.9,25.9,0,0,0,918.11,481.27Zm-7.38,18.26a30.88,30.88,0,0,0,6.08,0,10.92,10.92,0,0,0,1.89-.36,14.66,14.66,0,0,1-3,.36C914,499.63,912.28,499.61,910.73,499.53ZM912,477.22c-4.13-2.57-8.3-5.12-12.3-7.93,1,.76,2.09,1.5,3.08,2.17a99,99,0,0,0,8.45,5.33Zm-15.49-78.17a23.06,23.06,0,0,0-6.24-.73,1.84,1.84,0,0,0-.33,0c.65,0,1.31.07,2,.13,1.62.14,3.22.35,4.79.63A1.06,1.06,0,0,0,896.52,399.05Zm-5,96.06q3,1,6.06,1.87c-6.54-2.2-11.17-3.79-15.13-5.38Q887,493.51,891.56,495.11Zm-4.19-96.79c.68,0,1.37,0,2.06,0a1.77,1.77,0,0,0-1-.32A1.6,1.6,0,0,0,887.37,398.32Zm-1.11,0a2.85,2.85,0,0,0-.39.11l1.32-.06A1.7,1.7,0,0,0,886.26,398.28Zm-11.16,2.88a9.59,9.59,0,0,0-2.55,1.44A23,23,0,0,1,875.1,401.16Zm-9.16,7.48a23.82,23.82,0,0,1,2.78-3.05c.44-.41.88-.8,1.33-1.16A20.23,20.23,0,0,0,865.94,408.64Zm-2.38,22.8c.05.12.1.24.16.36-.09-.22-.17-.44-.26-.67C863.49,431.23,863.52,431.34,863.56,431.44Zm1-20.85a7.77,7.77,0,0,0-2,4.18A19.5,19.5,0,0,1,864.57,410.59Zm-1.92,18.11c-.12-.39-.23-.78-.32-1.17A1.45,1.45,0,0,0,862.65,428.7Zm-.62-2.51a1.36,1.36,0,0,0,.14.72s0,0,0,0-.05-.23-.08-.34S862.05,426.33,862,426.19Zm-.48-5.89a8.63,8.63,0,0,0,.27,4.77A23.55,23.55,0,0,1,861.55,420.3Zm-59.66-8.58c.33.84.67,1.67,1,2.5.41,1,.84,2,1.27,3a3.31,3.31,0,0,1,.15.33,127.17,127.17,0,0,0,18.06,29.33,151.06,151.06,0,0,0,15.09,15.88c.67.61,1.35,1.2,2,1.8,1,.89,2,1.77,3.1,2.64C819.5,447.41,807.06,423.53,801.89,411.72Z"/><path class="cls-12" d="M1075.52,325.12c-.15-.5-.3-1-.46-1.49A141.49,141.49,0,0,0,1063,297c-2-3.37-4.07-6.63-6.3-9.79h0a138.66,138.66,0,0,0-13.75-16.59,141.15,141.15,0,0,0-18.5-16.09,156,156,0,0,0-17.92-11.36,166.43,166.43,0,0,0-21.22-9.46l-.92-.33-2-.71c-.77-.27-1.55-.52-2.32-.77l-2.33-.73-2.35-.71h0c-2.28-.68-4.6-1.32-6.9-1.92-1.53-.4-3.06-.77-4.6-1.12h0a149.41,149.41,0,0,0-70.49,1.89C858,239,836.49,259.12,832.07,263.39a139.77,139.77,0,0,0-24,31.1l0,.05c-.33.67-.6,1.25-.81,1.72-1.49,3.17-3.77,8-6.61,14.11-.26.61-.7,1.59-1.2,2.81-1.94,4.68-8.12,20.6-8.4,43.53,0,2,0,5.82.32,10.68a135.37,135.37,0,0,0,4.14,25.24,162.57,162.57,0,0,0,6.38,18.93l.06.16c5.17,11.81,17.61,35.69,40.72,55.44l.1.08c1.07.88,2.16,1.76,3.27,2.62h0l.13.12h0c.07,0,.13.1.2.15l.17.13,0,0a.94.94,0,0,1,.12.09c2.07,1.62,4.17,3.18,6.33,4.69,2.4,1.7,4.84,3.32,7.36,4.87,4.72,2.95,9.55,5.7,14.55,8.17q3.75,1.86,7.59,3.49c4,1.59,8.59,3.18,15.13,5.38h0a90.56,90.56,0,0,0,10.29,2.2c.94.14,1.87.26,2.81.35,1.55.08,3.24.1,5,0a14.66,14.66,0,0,0,3-.36h0a8.62,8.62,0,0,0,3-1.57l.34-.3h0a2.69,2.69,0,0,0,.33-.35,10,10,0,0,0,2.17-5.52v-.06a9.44,9.44,0,0,0-2.16-5.94l-.24-.28a.15.15,0,0,0-.07-.07c-.39-.43-.91-1-1.59-1.6s-1.48-1.41-2.44-2.21l-.17-.14c-1.06-.81-2.17-1.56-3.31-2.28L912,477.22l-.77-.43a99,99,0,0,1-8.45-5.33c-1-.67-2-1.41-3.08-2.17l-.47-.32c-4.51-3.22-8.94-6.53-13.19-10.1a107.06,107.06,0,0,1-14.55-14.56,49.44,49.44,0,0,1-7.78-12.51c-.06-.12-.11-.24-.16-.36s-.07-.21-.1-.31v0c-.3-.78-.57-1.58-.8-2.4a1.45,1.45,0,0,1-.32-1.17c-.05-.19-.1-.38-.14-.58,0,0,0,0,0,0a1.36,1.36,0,0,1-.14-.72c-.08-.38-.15-.75-.21-1.12a8.63,8.63,0,0,1-.27-4.77,20,20,0,0,1,1-5.53,7.77,7.77,0,0,1,2-4.18,17.44,17.44,0,0,1,1.34-1.92s0,0,0,0a20.23,20.23,0,0,1,4.11-4.21.83.83,0,0,1,.16-.12,21.37,21.37,0,0,1,2.32-1.69l0,0a9.59,9.59,0,0,1,2.55-1.44,26.35,26.35,0,0,1,7-2.31l.79-.14.66-.08c.76-.12,1.53-.19,2.31-.24a2.85,2.85,0,0,1,.39-.11,1.7,1.7,0,0,1,.93.05h.18a1.6,1.6,0,0,1,1-.31,1.77,1.77,0,0,1,1,.32l.48,0h0a1.84,1.84,0,0,1,.33,0,23.06,23.06,0,0,1,6.24.73,1.06,1.06,0,0,1,.19.06c1.26.23,2.52.49,3.76.79h.1q1.14.27,2.28.57c.76.2,1.51.41,2.26.63s1.51.44,2.26.67,1.51.46,2.26.7c.55.18,1.1.36,1.65.56s1.05.35,1.58.55c1.13.41,2.25.83,3.37,1.27l1.44.57q2.48,1,4.92,2.09c4.57,2,9.13,4.11,13.6,6.35,5.23,2.63,10.61,4.95,15.88,7.47,4.84,2.33,9.71,4.54,14.67,6.59,4,1.62,7.93,3.16,12,4.52q2.41.81,4.86,1.53c1.08.32,2.16.62,3.25.91.78.21,1.56.41,2.35.59s1.71.4,2.58.59l1.26.26c1.75.35,3.5.67,5.26.94l1.75.25q3.48.48,7,.69l2.32.1h.07c.76,0,1.51,0,2.26,0,2.23,0,4.47-.07,6.72-.26.86-.07,1.72-.15,2.58-.26l1.29-.16A64.85,64.85,0,0,0,1034,435h0l.07,0a2.16,2.16,0,0,1,1.31-.45c.81-.29,1.62-.59,2.41-.91,2.81-1.4,5.68-2.68,8.46-4.15a70.66,70.66,0,0,0,9.88-7q.8-.66,1.56-1.35c2.27-2.19,4.6-4.42,6.76-6.76q2-2.24,3.71-4.65c.38-.5.75-1,1.11-1.55.5-.73,1-1.47,1.42-2.22a1.64,1.64,0,0,1,1-1.75c.57-1,1.09-2,1.58-3,0,0,0,0,0,0a8.16,8.16,0,0,1,.41-.84c.4-.82.77-1.64,1.12-2.48a1.89,1.89,0,0,1,.11-.44c.72-1.84,1.42-3.7,2.12-5.55.1-.26.19-.53.28-.8l.21-.69c.47-1.63.77-3.26,1.25-4.89a1.71,1.71,0,0,1,.24-.51q.87-3.66,1.43-7.38A134.73,134.73,0,0,0,1075.52,325.12Zm-38.79,30.39a47.89,47.89,0,0,1-7,16.34,61,61,0,0,1-16.82,17,54.91,54.91,0,0,1-24.58,8.82,87.64,87.64,0,0,1-19-.15,158.63,158.63,0,0,1-18.23-3.17c-5.38-1.22-10.76-2.48-16.1-3.87-6.7-1.77-13.43-3.43-20.22-4.86a138.51,138.51,0,0,0-13.91-2.27,67.21,67.21,0,0,0-20.61.55,43,43,0,0,0-28.7,19.42,30.09,30.09,0,0,0-4.81,18.43c.53,9.76,4.61,18.14,10.55,25.73,2.14,2.73,4.57,5.25,6,8.53a5.7,5.7,0,0,1-.74,6,5.63,5.63,0,0,1-5.52,2.21c-3.87-.44-7.19-2.4-10.37-4.31a89.57,89.57,0,0,1-17.9-14.43,125.68,125.68,0,0,1-21.1-29l-.13-.25a125.49,125.49,0,0,1-6.81-15.23A123.07,123.07,0,0,1,796,384.78c-1.13-7.13-3.19-20.09-2.5-34.35a118.59,118.59,0,0,1,3.67-23.81s3.15-12.24,14.23-34.67c.29-.57.83-1.64,1.63-3a49.61,49.61,0,0,1,5.57-7.27,109.46,109.46,0,0,1,12.2-12.45,123.59,123.59,0,0,1,26.75-17.65A134.27,134.27,0,0,1,910.93,238a116.64,116.64,0,0,1,19.77.69A128.08,128.08,0,0,1,943.93,241a107.53,107.53,0,0,1,18.29,5.91,138.82,138.82,0,0,1,16.16,8.36,147.9,147.9,0,0,1,21.61,15.6,128.62,128.62,0,0,1,21.29,23.81,98.45,98.45,0,0,1,14.07,28.87C1038.35,334.07,1039.23,344.71,1036.73,355.51Z"/><path class="cls-18" d="M955.78,317.2a33.29,33.29,0,0,1-11,19.65,69,69,0,0,1-19.45,12c-10.85,4.69-22.23,7.66-33.75,10.14-9.37,2-18.8,3.7-28.21,5.5s-18,5.2-25,12.07a48.16,48.16,0,0,0-9.13,13.3c-1.64,3.32-2.92,6.82-5.07,9.86s-4.67,4-7.62,2.73a12.36,12.36,0,0,1-4.75-4.08c-4.3-5.61-6.93-12.05-8.93-18.73a103.3,103.3,0,0,1-4.36-27,110.34,110.34,0,0,1,2.26-25A89.27,89.27,0,0,1,821,286.18c2.43-2.46,5.89-6,10.14-10.39l1-1.08c3.76-3.9,15.19-12.32,30.15-16.22,13.5-3.52,24.7-2,31.39-1.09a89,89,0,0,1,16.58,3.83A87.89,87.89,0,0,1,934,273c7.15,5.11,13.35,11.14,17.56,19A39.12,39.12,0,0,1,955.78,317.2Z"/><path class="cls-18" d="M955.78,317.2a33.29,33.29,0,0,1-11,19.65,69,69,0,0,1-19.45,12c-10.85,4.69-22.23,7.66-33.75,10.14-9.37,2-18.8,3.7-28.21,5.5s-18,5.2-25,12.07a48.16,48.16,0,0,0-9.13,13.3c-1.64,3.32-2.92,6.82-5.07,9.86s-4.67,4-7.62,2.73a12.36,12.36,0,0,1-4.75-4.08c-4.3-5.61-6.93-12.05-8.93-18.73a103.3,103.3,0,0,1-4.36-27,110.34,110.34,0,0,1,2.26-25A89.27,89.27,0,0,1,821,286.18c2.43-2.46,5.89-6,10.14-10.39l1-1.08c3.76-3.9,15.19-12.32,30.15-16.22,13.5-3.52,24.7-2,31.39-1.09a89,89,0,0,1,16.58,3.83A87.89,87.89,0,0,1,934,273c7.15,5.11,13.35,11.14,17.56,19A39.12,39.12,0,0,1,955.78,317.2Z"/><path class="cls-19" d="M987.88,304c-3.36-9.56-9.3-17.38-16.56-24.29a99.19,99.19,0,0,0-20.8-15,114.47,114.47,0,0,0-18.62-8.21,84.32,84.32,0,0,0-16.06-4c-11-1.45-22.06-2.46-33.18-1.86a86.41,86.41,0,0,0-30.75,7.08c-10.67,6.47-18.26,11.64-20.09,13.12a36.41,36.41,0,0,0-4.27,4.06c-.17.21-.3.37-.37.44-4.81,5.82-8.16,10.38-8.16,10.38-4.73,6.43-8.09,10.94-11.26,17.16-5,9.73-7,18.06-9.72,28.9-.86,3.47-1.3,5.24-1.76,7.91a89.68,89.68,0,0,0-.71,23.37A105.68,105.68,0,0,0,801.23,390a128.11,128.11,0,0,0,7.93,18.54c3.39,6.33,7.05,12.56,12.35,17.57,2.14,2,4.35,3.87,7.42,4.43,2.34.42,5.42-1.5,6.22-4a26.77,26.77,0,0,0,.88-8.44c0-5.19.05-10.35,1.53-15.42,1.82-6.29,5.34-11.39,9.76-16.09,6.09-6.47,13.94-9,22.31-10.54a157,157,0,0,1,22-2c7.83-.29,15.66-.61,23.49-.91a162.81,162.81,0,0,0,29.44-3.51c9-2,17.55-5.26,25.12-10.75a49.36,49.36,0,0,0,16.2-20.3,52.27,52.27,0,0,0,4-13.26A43.26,43.26,0,0,0,987.88,304Zm-32.1,13.22a33.29,33.29,0,0,1-11,19.65,69,69,0,0,1-19.45,12c-10.85,4.69-22.23,7.66-33.75,10.14-9.37,2-18.8,3.7-28.21,5.5s-18,5.2-25,12.07a48.16,48.16,0,0,0-9.13,13.3c-1.64,3.32-2.92,6.82-5.07,9.86s-4.67,4-7.62,2.73a12.36,12.36,0,0,1-4.75-4.08c-4.3-5.61-6.93-12.05-8.93-18.73a103.3,103.3,0,0,1-4.36-27,110.34,110.34,0,0,1,2.26-25A89.27,89.27,0,0,1,821,286.18c2.43-2.46,5.89-6,10.14-10.39l1-1.08c3.76-3.9,15.19-12.32,30.15-16.22,13.5-3.52,24.7-2,31.39-1.09a89,89,0,0,1,16.58,3.83A87.89,87.89,0,0,1,934,273c7.15,5.11,13.35,11.14,17.56,19A39.12,39.12,0,0,1,955.78,317.2Z"/><path class="cls-20" d="M1014.55,465.57a108.69,108.69,0,0,0-17.86.76,60.75,60.75,0,0,1-25.51-3,133,133,0,0,1-20-8.56c-5.07-2.65-9.82-5.86-14.72-8.82-2.3-1.39-4.58-2.93-7.4-3.29-4.59-.58-7.81,3-6.3,7.39a38.07,38.07,0,0,0,5.66,10,71.45,71.45,0,0,0,19.37,17.84,68.32,68.32,0,0,0,17.77,8.31,47.61,47.61,0,0,0,18.86,1.47,61.87,61.87,0,0,0,31.14-12.27,17.12,17.12,0,0,0,2.48-2.41c2.41-2.79.37-6.18-2-6.94-.45-.15-.9-.26-1.36-.39"/><path class="cls-18" d="M955.78,317.2a33.29,33.29,0,0,1-11,19.65,69,69,0,0,1-19.45,12c-10.85,4.69-22.23,7.66-33.75,10.14-9.37,2-18.8,3.7-28.21,5.5s-18,5.2-25,12.07a48.16,48.16,0,0,0-9.13,13.3c-1.64,3.32-2.92,6.82-5.07,9.86s-4.67,4-7.62,2.73a12.36,12.36,0,0,1-4.75-4.08c-4.3-5.61-6.93-12.05-8.93-18.73a103.3,103.3,0,0,1-4.36-27,110.34,110.34,0,0,1,2.26-25A89.27,89.27,0,0,1,821,286.18c2.43-2.46,5.89-6,10.14-10.39l1-1.08c3.76-3.9,15.19-12.32,30.15-16.22,13.5-3.52,24.7-2,31.39-1.09a89,89,0,0,1,16.58,3.83A87.89,87.89,0,0,1,934,273c7.15,5.11,13.35,11.14,17.56,19A39.12,39.12,0,0,1,955.78,317.2Z"/><path class="cls-19" d="M1005.51,471.53c-1.67-.39-3.12.52-4.64.87-7.82,1.81-15.58,1.86-23.2-.74a101.84,101.84,0,0,1-10.23-4.34,9,9,0,0,0-5.75-1.07,5.14,5.14,0,0,0-4.2,4.53,5.2,5.2,0,0,0,2.37,5.42,30.93,30.93,0,0,0,12.36,4.93,53,53,0,0,0,14,.82,43.5,43.5,0,0,0,19.2-6c2.27-1.38,2.28-2.51.25-4.34"/><path class="cls-18" d="M879.37,270.49a64.46,64.46,0,0,0-12.77-1.13c-15.74.36-29.93,5.06-41.68,15.79a62.45,62.45,0,0,0-12.61,16.69,66.38,66.38,0,0,0-8,31.44c-.09,11.8,2.63,23,6.83,34,1.07,2.79,2.59,5.45,5.23,7,4.57,2.66,7.41,2.36,11.35-1.5s7.33-8.63,11-12.95c6.36-7.5,13.62-13.81,22.6-18,4.44-2.08,9.23-3.13,13.88-4.61,9.24-2.94,18.06-6.72,25.23-13.51,6.78-6.42,9.83-14.29,8.42-23.61-1.09-7.25-3.66-13.89-8.95-19.23a35.17,35.17,0,0,0-12.34-7.89c-2.6-1-5.33-1.58-8-2.4"/><path class="cls-18" d="M858.87,288.12a50.84,50.84,0,0,0-10.52-1c-10,.26-19.14,3.22-26.87,9.66-5,4.17-8.28,9.7-10.56,15.8a37.53,37.53,0,0,0-2.51,17.12c.85,8.44,3.94,15.84,10.26,21.68a11.81,11.81,0,0,0,2.92,1.81,4.11,4.11,0,0,0,5.29-1.92c1-1.76,1.31-3.78,2-5.65,1.13-2.94,2.18-5.86,4.31-8.28a19.12,19.12,0,0,1,9.13-5.58,162.58,162.58,0,0,0,17-5.74c4.68-2,9.14-4.38,12.63-8.21,4.06-4.45,5-9.66,3.5-15.36-1.77-6.89-6.47-10.92-13-13.15-1.14-.39-2.29-.75-3.44-1.13"/><path class="cls-21" d="M1042.65,455.58l-.06.49a21.14,21.14,0,0,1-.46,2.48h0c0,.1-.05.2-.07.3a6.06,6.06,0,0,0-4.9-5.62c-3.59-.48-6.88.61-10.21,1.46a76.53,76.53,0,0,1-16.7,2.31,113.55,113.55,0,0,1-13.92-.47,118.36,118.36,0,0,1-12.72-2,91.26,91.26,0,0,1-16.38-5.13c-2.44-1-4.86-2.13-7.24-3.33-5.86-3-11.65-6.07-17.3-9.43-21.07-12.53-21.08-12.84-26.24-15.51a172.8,172.8,0,0,0-18.6-8.24l-.16,0a22,22,0,0,0-3.64-.57l-1.22-.13c-5.87-.57-11.39,3.28-12.38,8.44a9.29,9.29,0,0,0-.18,1.79,8.6,8.6,0,0,0,.06,1c-.89-1.91-3-7.12-1.07-12.55,2.31-6.51,9.6-11.13,18.33-11.16a25.66,25.66,0,0,1,2.88.16h.1q1.14.27,2.28.57c.76.2,1.51.41,2.26.63s1.51.44,2.26.67l2.25.71,1.66.55,1.58.55c1.13.41,2.25.83,3.37,1.27l1.44.57q2.48,1,4.92,2.09c4.57,2,9.13,4.11,13.6,6.35,5.23,2.63,10.61,4.95,15.88,7.47,4.84,2.33,9.71,4.54,14.67,6.59,4,1.62,7.93,3.16,12,4.52q2.41.81,4.86,1.53c1.08.32,2.16.62,3.25.91.78.21,1.56.41,2.35.59s1.72.41,2.59.6c.42.09.83.18,1.25.25,1.75.36,3.5.68,5.26.94.58.09,1.16.18,1.75.25q3.48.48,7,.69l2.32.1h.07c.76,0,1.51,0,2.26,0,2.23,0,4.47-.07,6.72-.26.86-.07,1.72-.15,2.58-.26l1.29-.16A64.85,64.85,0,0,0,1034,435h0v0a23.48,23.48,0,0,1,7.63,10.88.14.14,0,0,1,0,.07c.11.31.21.64.3,1A23.12,23.12,0,0,1,1042.65,455.58Z"/><path class="cls-18" d="M901.46,400c-.29,0-.59-.08-.89-.1"/><path class="cls-18" d="M880.44,423.7l-.12-.25"/><path class="cls-18" d="M1034,435l-.32-.23"/><path class="cls-18" d="M1042.06,458.87c-.11.41-.2.77-.29,1.06"/><path class="cls-18" d="M912.81,176.75s0,0,0,0"/><path class="cls-18" d="M1058.83,290.84c-.72-1.23-1.45-2.44-2.17-3.65"/><path class="cls-18" d="M976.29,231.57l-1-1.15"/><path class="cls-2" d="M1317.79-119.33q-40.86,22.08-80.67,46.05t-78,50.35l-.08.05q-4.41,2.2-8.59,4.84c-1.38.87-2.81,1.77-4.11,2.69s-2.54,2-3.79,3.13S1140-10.07,1138.62-9l-4.1,2.81-8.2,5.61q-16.38,11.25-32.4,22.94-32.1,23.37-62.82,48.54c-41,33.51-80.06,69.29-117.66,106.54a.92.92,0,0,1-1.29-1.3h0c37.7-37.22,76.89-73,118-106.45q30.8-25.13,63-48.49,16.1-11.65,32.46-22.91l8.21-5.58,4.09-2.8c1.28-1,2.55-2,3.8-3.11s2.52-2.15,3.87-3.18,2.78-1.85,4.2-2.74c2.82-1.77,5.73-3.41,8.71-4.89l-.08.05q38.39-26.23,78.2-50.26t80.79-45.95a.51.51,0,0,1,.68.2A.5.5,0,0,1,1317.79-119.33Z"/><path class="cls-2" d="M836,258.47q35-40.61,72.74-78.81a.85.85,0,1,1,1.21,1.19h0Q872,218.68,836.52,259a.38.38,0,0,1-.53,0A.37.37,0,0,1,836,258.47Z"/><path class="cls-21" d="M1056.65,287.18a138.66,138.66,0,0,0-13.75-16.59,141.15,141.15,0,0,0-18.5-16.09,156,156,0,0,0-17.92-11.36,166.43,166.43,0,0,0-21.22-9.46l-.92-.33-2-.71c-.77-.27-1.55-.52-2.32-.77l-2.33-.73-2.35-.71c-.08-.1-.17-.19-.26-.29a210.84,210.84,0,0,0-27.42-26l-.16-.13q6.91-3.67,13.47-7l.19.09A190.11,190.11,0,0,1,986.8,211.7c18.78,12.69,43.83,34,67.13,71.07h0C1054.84,284.22,1055.75,285.69,1056.65,287.18Z"/><path class="cls-18" d="M1704.15-84.3C1511.91-49.64,1373.33-.09,1285.93,36.79c0,0-93.69,39.54-329.59,162.72-23.93,12.49-46.79,25.63-46.79,25.63l-.53.3"/><path class="cls-18" d="M790.06,67.19c-.16-.07-.31-.12-.45-.19"/><path class="cls-18" d="M805.46,22.52c0-.16,0-.31,0-.46"/><path class="cls-2" d="M955.21,164.7c28.08-24.42,59-49.11,92.86-73.39A1269.67,1269.67,0,0,1,1340.13-64.45,2020.68,2020.68,0,0,0,1115,55.36C1055.87,91.78,1002.68,128.76,955.21,164.7Z"/><path class="cls-22" d="M766.31,67.17h0s0,0,0,0,0,0,0,0c-4.16-6-9-11.49-13.18-17.57-1-3.45-1.67-7.1-2.93-10.22-1.91-4.69-5-8.73-8.17-12.71q-1.41-3.52-2.93-6.95c-9.47-21.09-18.5-41.92-18.45-65.46a114.46,114.46,0,0,1,4.95-32.55c3.13-10.45,8.08-20.17,11.42-30.53a144.78,144.78,0,0,1,11-26H718c-2.75,8.4-4.24,17.1-6.27,25.68-1.31,4-2.49,8.12-3.45,12.27a95.9,95.9,0,0,0-1.88,32.61,95.6,95.6,0,0,1,.14,14.65v.14c-.27,5.83-.67,11.68-.15,17.54a120.16,120.16,0,0,0,19.06,54.22c2.06,3.13,4.53,6.1,6.91,9.1,2.86,7,5.71,14.1,9.55,20.46.63,1.05,1.29,2.06,2,3.07,1.42,4.37,3.3,8.5,7.07,11.52a5.39,5.39,0,0,0,2.5,1.17,81.33,81.33,0,0,1,7.41,11c3.28,6,12.46.65,9.2-5.37C768.91,71.1,767.64,69.12,766.31,67.17Zm-49.09-154c.37-2.55.85-5.12,1.45-7.68A5.32,5.32,0,0,0,720-94Q718.54-90.41,717.22-86.81Z"/><path class="cls-22" d="M570.42-134.87c-2.36,1.6-4.71,3.22-7.06,4.84a4.46,4.46,0,0,0-5.41,0,189.9,189.9,0,0,0-19,15c-5.73,5-12.81,9.76-17.64,15.64s-7.65,13.81-10.8,20.64c-2.54,5.48-5,11-7.64,16.4-2.81-2.17-7.39-1.87-8.09,2.52A101.35,101.35,0,0,0,496.42-21c0,.42,0,.85,0,1.28a5.12,5.12,0,0,0,1.08,3.05,150,150,0,0,0,4.92,15.23,36,36,0,0,1-.25,6.39A5.86,5.86,0,0,0,508,11.57c.2.41.37.82.57,1.23,2.51,5.29,9.42,2,9.91-2.68,0-.13,0-.23,0-.37h0a182.43,182.43,0,0,0,.5-21.63c0-.12.07-.22.09-.34,1.59-6.82,2.44-13.84,5.31-20.28,6-13.45,14.81-26.32,24.07-37.7,17.86-22,39.2-43.07,64.39-56.4a5.54,5.54,0,0,0,1.54-1.22c6-2.35,12-4.54,18-6.5l1.72-.54ZM539.49-75.93c-4.73,5.94-9.26,12.14-13.41,18.58a5.12,5.12,0,0,0-.48-1.6,35.84,35.84,0,0,0,4.74-11.55q1.5-2,3-3.89a133.71,133.71,0,0,1,29.7-27.93A297.52,297.52,0,0,0,539.49-75.93Z"/><path class="cls-15" d="M452.56-81.36C452-60.6,454.78-32,469.78-2.95c24.56,47.46,67.36,68.1,88,78A225.66,225.66,0,0,0,616,93.9C583.14,84.62,503.61,57,469.88-15.31a159.73,159.73,0,0,1-9-24.14A216.48,216.48,0,0,1,452.56-81.36Z"/><path class="cls-15" d="M739.24,136.5c25.32,8.15,46.1,13.34,60.09,16.51,30.36,6.91,51.53,9.55,83.47,21.1,10,3.62,18,7,22.93,9.18"/><path class="cls-23" d="M650.67-129.69c-8.33,13-29.39,49.51-27,99.79a169.81,169.81,0,0,0,26.26,82.53"/><path class="cls-23" d="M1029.57,83.76a1375.42,1375.42,0,0,1,330.87-209.32"/><path class="cls-23" d="M1071.33,325.23c2.28,5.21,12.23,29.53,2,58-9.75,27.21-31.24,39.66-36.51,42.52"/><path class="cls-23" d="M928,276.21c3.22,1.83,15.08,9.07,19.51,23.76,1.28,4.24,4.72,15.65-1.75,26.51-5.37,9-14.27,12.15-17,13"/><path class="cls-23" d="M858.75,471.29A113.65,113.65,0,0,0,909,493.8"/><path class="cls-23" d="M908,396.26c15.23,7,27.4,12.83,35.52,16.75,16.29,7.88,23.41,11.6,35,15.26a159.37,159.37,0,0,0,25,5.75"/><path class="cls-23" d="M811.49,323a34.87,34.87,0,0,1,11-20.76c7.2-6.38,15-7.53,21.51-8.5,7-1,14-2.07,19.75,2.25a18.77,18.77,0,0,1,6.51,10"/><path class="cls-23" d="M877.64,219.94a478.41,478.41,0,0,1,56.64-57.77q11-9.45,21.76-17.63"/><path class="cls-23" d="M998.79,164.76c20.74-12.52,43.21-25.12,67.41-37.45q27-13.75,52.44-25"/><path class="cls-15" d="M838.21,256.12a143.54,143.54,0,0,1,72.63-31.26l14.61-8.8a101.11,101.11,0,0,0-26,.37,102.7,102.7,0,0,0-38.75,14Z"/><path class="cls-15" d="M1286.21-134.87a747.69,747.69,0,0,0-85,47.45C1122-36.15,1065.7,21.8,1065.8,21.91a895.78,895.78,0,0,1,98.35-82.12,835.55,835.55,0,0,1,125.62-74.66Z"/></g><rect class="cls-24" x="-7.29" y="-4.06" width="1918.25" height="1431.44"/></svg>