<svg width="144" height="188" viewBox="0 0 144 188" fill="none" xmlns="http://www.w3.org/2000/svg">
<g clip-path="url(#clip0_2411_106)">
<path d="M30.13 27.1602L33.18 24.4502L47.38 37.0002L43.33 40.9002L33.18 36.5502L30.13 27.1602Z" fill="#9DA59E"/>
<path d="M32.85 24.5903L47.43 36.9303C50.61 33.7203 53.35 31.2403 55.29 29.5503C60.04 25.3803 62.39 23.8603 64.58 20.0703C66.77 16.2803 66.7 13.9703 66.67 13.1603C66.67 12.0903 66.52 8.80031 63.96 6.58031C61.21 4.21031 57.64 4.78031 56.48 5.00031C54.1447 5.39429 51.9928 6.51395 50.33 8.20031L32.85 24.5903Z" fill="#FBEDF5"/>
<path d="M28.16 24.9199L34 29.1199C33.6027 30.2672 33.5198 31.4998 33.76 32.6899C33.9967 33.612 34.4 34.4829 34.95 35.2599C37.3 38.5699 43.51 40.2599 44.1 40.3599C44.3466 41.4529 44.474 42.5695 44.48 43.6899C44.4871 45.5951 44.1483 47.4858 43.48 49.2699L23 42.6899L16.6 34.4099" fill="#D4C0DE"/>
<path d="M22.8699 42.6796L19.5799 38.1396C18.6026 38.4104 17.7307 38.9719 17.0799 39.7496C16.3749 40.6477 15.9942 41.7579 15.9999 42.8997C15.9999 44.1397 16.3599 44.6996 16.8499 46.2596C17.7599 49.0896 17.2299 49.6997 17.8499 51.3997C18.6313 53.3118 20.0426 54.8995 21.8499 55.8997L25.7799 53.6497C24.8133 50.003 23.8433 46.3463 22.8699 42.6796Z" fill="#DEB69D"/>
<path d="M25.44 53.3305C23.6092 51.577 22.3509 49.3114 21.83 46.8305C21.4266 45.5074 21.53 44.0815 22.12 42.8305C22.5192 42.2236 23.0383 41.7048 23.6453 41.3058C24.2524 40.9069 24.9345 40.6362 25.65 40.5105C26.7333 40.309 27.8468 40.3375 28.9184 40.5942C29.9899 40.8509 30.9956 41.33 31.87 42.0005C32.8257 42.7424 33.6221 43.6694 34.2114 44.7261C34.8008 45.7828 35.171 46.9474 35.3 48.1505" fill="#F79E88"/>
<path d="M39.84 173.42C39.14 171.11 38.44 168.8 37.75 166.42C35.8567 160 34.0633 153.65 32.37 147.37C35.72 144.15 39.37 140.83 43.42 137.5C48.8575 133.008 54.5323 128.812 60.42 124.93C59.75 126.08 58.83 127.72 57.75 129.69C54.2817 136.064 51.1507 142.617 48.37 149.32C46.97 152.71 45.3 156.99 43.6 162.04C43.49 150.1 43.66 144.04 44.01 141.9C44.01 141.63 44.23 140.66 43.9 140.51C43.57 140.36 42.17 141.89 41.08 143.44C41 144.1 40.86 145.24 40.72 146.65C40.09 153.12 40.21 157.06 40.01 166.55C40 168.09 39.93 170.46 39.84 173.42Z" fill="#866678" stroke="#866678" stroke-linecap="round" stroke-linejoin="round"/>
<path d="M16.08 83.0502C16.13 84.4102 16.02 84.0502 15.98 86.7102C15.877 88.7111 15.9272 90.717 16.13 92.7102C16.46 95.0102 16.98 95.2902 18.13 99.0402C18.92 101.64 19.26 103.44 19.51 104.52C20.28 107.97 23.51 119.67 31.61 147.68L61.15 124.68C59.39 127.54 57.6334 130.407 55.88 133.28C59.3538 130.106 63.3402 127.543 67.67 125.7C74.35 122.9 76.98 123.98 85.67 120.77C89.8482 119.393 93.8158 117.445 97.46 114.98C100.38 112.98 103.15 110.29 108.68 104.98C113.88 99.9803 114.23 99.3203 116.11 98.1903C120.148 95.9162 124.789 94.9419 129.4 95.4002C128 97.1261 127.057 99.1769 126.658 101.363C126.26 103.55 126.419 105.801 127.12 107.91C129.26 114.08 135.88 116.09 136.6 116.29C136.143 115.156 135.759 113.994 135.45 112.81C134.14 107.677 134.206 102.29 135.64 97.1903C136.845 93.0921 138.927 89.3048 141.74 86.0902C142.16 85.3802 142.49 84.7702 142.74 84.2902C142.987 83.9045 143.122 83.458 143.13 83.0002C143.148 82.6341 143.022 82.2754 142.78 82.0002C142.11 81.5102 140.42 82.7102 140.1 82.9302C136.66 85.3402 132.45 86.4403 128.84 88.5802C122.74 92.2002 123.14 91.3002 116.76 94.9702C111.965 97.7136 107.331 100.728 102.88 104C99.9624 103.813 97.0729 103.317 94.26 102.52C90.0261 101.216 85.9891 99.3423 82.26 96.9502C77.2467 93.8579 72.574 90.2445 68.32 86.1702C64.0128 82.1959 60.0208 77.8929 56.38 73.3002L55.6 74.3702C53.3675 72.5319 51.4285 70.3636 49.85 67.9402C47.0746 63.6328 45.4685 58.6769 45.19 53.5602C35.4626 53.2959 25.8276 55.5085 17.19 59.9902L15.78 60.9402L14.28 64.3702C14.9304 64.4928 15.5421 64.7691 16.064 65.1762C16.5859 65.5833 17.0028 66.1092 17.28 66.7102C17.7464 67.7207 17.8557 68.8596 17.59 69.9402C17.2358 70.1345 16.9009 70.3622 16.59 70.6202C15.8779 71.115 15.331 71.8125 15.0207 72.6222C14.7104 73.4319 14.6509 74.3163 14.85 75.1602C14.9278 75.6952 15.0585 76.2211 15.24 76.7302C15.7923 78.7917 16.0747 80.9161 16.08 83.0502Z" fill="#BDCAC0"/>
<path d="M15 74.7997C21.56 77.7731 28.1833 80.8397 34.87 83.9997C38.41 85.6864 41.9133 87.3797 45.38 89.0797C48.8466 84.1397 52.3233 79.2064 55.81 74.2797L51.59 70.2097L42.88 81.2097C41.5408 79.8659 40.0814 78.6474 38.52 77.5697C36.37 76.0997 35.73 76.0697 32.87 74.3497C28.69 71.8497 28.97 71.2497 26.51 70.2797C24.3636 69.3533 21.9948 69.0685 19.69 69.4597C18.2962 69.6467 17.001 70.282 16 71.2697C15 72.2697 14.14 74.0497 14.64 74.6197C14.7362 74.7187 14.8631 74.7822 15 74.7997Z" fill="#FBEDF5"/>
<path d="M0.51 0.5C0.51 0.6 0.51 0.71 0.5 0.81" stroke="#866678" stroke-linecap="round" stroke-linejoin="round"/>
<path d="M22.59 41.9998L16.7 34.4998L28.2199 24.7998L34.16 29.3098C33.825 30.1112 33.6524 30.9712 33.6524 31.8398C33.6524 32.7084 33.825 33.5684 34.16 34.3698C34.52 35.0998 35.16 35.8498 38.45 37.7898C39.8 38.5698 41.66 39.5898 43.95 40.6498C44.2659 41.7957 44.4141 42.9814 44.3899 44.1698C44.3399 45.6748 44.0426 47.1613 43.5099 48.5698" stroke="#866678" stroke-linecap="round" stroke-linejoin="round"/>
<path d="M25.38 53.4201C24.2197 52.2283 23.2967 50.8267 22.66 49.2901C21.91 47.4601 20.84 44.8801 22.08 42.7701C23.32 40.6601 26.36 40.1101 28.35 40.3801C29.9238 40.663 31.3847 41.3876 32.5622 42.4695C33.7397 43.5514 34.5852 44.9458 35 46.4901" stroke="#866678" stroke-linecap="round" stroke-linejoin="round"/>
<path d="M19.2701 38.2305C18.0801 38.9305 16.4001 40.2305 16.0501 42.1105C15.9001 42.9905 16.1301 43.4105 16.6301 45.3305C17.8501 50.0005 17.3401 50.7705 18.4501 52.5905C19.208 53.8233 20.2548 54.853 21.5001 55.5905" stroke="#866678" stroke-linecap="round" stroke-linejoin="round"/>
<path d="M30.75 26.6195L49.35 8.99952C50.5742 7.73345 52.0307 6.71491 53.64 5.99952C55.3 5.26952 58.57 3.83952 61.89 5.33952C63.7799 6.24142 65.2715 7.80777 66.08 9.73952C66.7614 11.5317 66.8766 13.4898 66.41 15.3495C65.8649 17.9722 64.5156 20.3596 62.55 22.1795L44 40.3795" stroke="#866678" stroke-linecap="round" stroke-linejoin="round"/>
<path d="M15.4 61.4697C14.8749 62.4653 14.4495 63.5104 14.13 64.5897C14.7291 64.6279 15.3111 64.8045 15.8304 65.1057C16.3496 65.4069 16.7919 65.8245 17.1224 66.3256C17.4529 66.8267 17.6627 67.3976 17.7351 67.9935C17.8076 68.5894 17.7408 69.194 17.54 69.7597" stroke="#866678" stroke-linecap="round" stroke-linejoin="round"/>
<path d="M126.56 102.62C126.442 103.778 126.496 104.948 126.72 106.09C127.107 107.964 127.886 109.735 129.006 111.286C130.126 112.838 131.562 114.134 133.22 115.09" stroke="#866678" stroke-linecap="round" stroke-linejoin="round"/>
<path d="M126.49 102.61C126.528 100.755 127.015 98.9362 127.91 97.3103C128.304 96.5906 128.78 95.9194 129.33 95.3103C125.908 94.9731 122.455 95.4176 119.23 96.6103C114.02 98.6103 112.23 101.73 105.8 107.61C100.8 112.17 97.3099 115.38 92.2699 117.95C85.0199 121.66 81.8199 120.34 73.5599 123.13C67.0919 125.36 61.101 128.786 55.8999 133.23L55.8099 133.3C56.3416 132.114 56.9392 130.959 57.5999 129.84C59.2115 127.121 61.1752 124.626 63.4399 122.42C51.8584 129.422 41.1615 137.792 31.5799 147.35C28.9599 139.44 26.8299 132.35 25.1399 126.43C21.0899 112.26 22.4299 114.78 18.6499 101.43C16.5099 93.9203 15.8399 92.2803 15.8899 88.8803C16.1495 85.2746 15.9648 81.6508 15.3399 78.0903C15.0799 76.7303 14.7799 75.6303 14.5699 74.9103C14.569 73.6364 14.9911 72.3983 15.7699 71.3903C16.361 70.7471 17.0756 70.2296 17.8711 69.8688C18.6666 69.508 19.5267 69.3112 20.3999 69.2903C22.7802 69.0976 25.1627 69.6348 27.2299 70.8303C32.7363 73.9362 38.0071 77.4423 42.9999 81.3203C45.7999 77.6203 48.6766 73.9536 51.6299 70.3203L51.7999 70.1103" stroke="#866678" stroke-linecap="round" stroke-linejoin="round"/>
<path d="M97.11 109.06C99.11 107.23 100.97 105.6 102.74 104.18C105.35 102.09 107.66 100.43 109.54 99.1804C109.54 99.1804 111.14 98.1104 112.97 97.0004C119.21 93.2104 130.15 87.8904 131.75 87.1104" stroke="#866678" stroke-linecap="round" stroke-linejoin="round"/>
<path d="M131.78 87.0701C133.58 86.0701 135.11 85.2401 136.41 84.5401C140.7 82.2201 142.47 81.4001 143.12 82.0901C143.77 82.7801 141.43 86.4401 141 87.0001C140.29 88.0001 140 88.1501 139.36 89.1001C138.359 90.5753 137.571 92.1845 137.02 93.8801C135.78 97.3401 134.53 100.81 134.55 105.6C134.561 109.255 135.274 112.874 136.65 116.26L133.26 115.08" stroke="#866678" stroke-linecap="round" stroke-linejoin="round"/>
<path d="M15.4001 61.4697H15.3101" stroke="#866678" stroke-linecap="round" stroke-linejoin="round"/>
<path d="M103.05 104.21C98.7569 103.762 94.5411 102.753 90.51 101.21C85.6519 99.2842 81.1006 96.6599 77 93.4203C69.2924 87.6212 62.3652 80.852 56.3899 73.2803C54.7966 75.6736 53.11 78.0969 51.33 80.5503C49.23 83.4836 47.1366 86.3069 45.0499 89.0203C41.7768 87.6564 38.6451 85.9751 35.7 84.0003C30.99 80.8203 29.56 78.7803 25.7 76.8503C22.2715 75.1723 18.5164 74.2677 14.7 74.2003" stroke="#866678" stroke-linecap="round" stroke-linejoin="round"/>
<path d="M45.23 89C55.9648 96.4425 68.5484 100.772 81.59 101.51" stroke="#866678" stroke-linecap="round" stroke-linejoin="round"/>
<path d="M45.1899 54.5303C45.7853 60.1245 47.8981 65.4496 51.2999 69.9303C52.5682 71.5614 54.0063 73.0531 55.5899 74.3803" stroke="#866678" stroke-linecap="round" stroke-linejoin="round"/>
<path d="M32.1801 146.8C33.6134 151.807 35.0434 156.833 36.4701 161.88C37.6101 165.92 38.7467 169.957 39.8801 173.99C39.8001 161.58 40.0401 155.99 40.3201 153.3C40.4201 152.36 40.5301 151.71 40.6501 150.21C40.9901 145.94 40.6501 144.7 41.4201 143.06C42.097 141.817 43.146 140.817 44.4201 140.2C44.0701 143.5 43.7901 147.03 43.6501 150.76C43.5001 154.76 43.5201 158.57 43.6501 162.1C45.4501 156.75 47.6501 151.02 50.2601 145.04C52.2601 140.56 54.2601 136.37 56.3101 132.5" stroke="#866678" stroke-linecap="round" stroke-linejoin="round"/>
<path d="M50.12 54.11C48.49 54.05 46.68 54.05 44.74 54.11C37.9996 54.3807 31.3263 55.5579 24.9 57.61C21.6527 58.6627 18.4846 59.946 15.42 61.45C16.2442 59.8967 17.3855 58.5339 18.77 57.45C19.8477 56.7246 20.989 56.0987 22.18 55.58C27.37 52.83 27.18 51.04 31.31 48.87C33.14 47.87 36.94 45.87 40.79 47.11C42.3253 47.7024 43.7489 48.5511 45 49.62C46.8203 50.9819 48.5322 52.4831 50.12 54.11Z" fill="#866678" stroke="#866678" stroke-linecap="round" stroke-linejoin="round"/>
<path d="M62 15.4502C59.5 17.7802 57 20.1302 54.51 22.4502C53.4829 22.6891 52.4342 22.8231 51.38 22.8502C49.61 22.9002 47.7 22.9502 46.38 21.7002C46.0395 21.4409 45.7614 21.1088 45.5659 20.7282C45.3703 20.3475 45.2624 19.928 45.25 19.5002C45.37 18.5002 46.5 17.8402 47.84 17.1302C50.3 15.8202 50.93 16.3802 52.62 15.2702C53.681 14.4291 54.6588 13.4881 55.54 12.4602C57 10.8702 57.33 10.3202 58 10.3302C58.89 10.3302 59.57 11.3302 60.64 12.9802C61.1565 13.7672 61.6112 14.593 62 15.4502Z" fill="#866678" stroke="#866678" stroke-linecap="round" stroke-linejoin="round"/>
<path d="M33 24.5498L47.36 36.9398" stroke="#866678" stroke-linecap="round" stroke-linejoin="round"/>
<path d="M15.29 76.2296C18.2404 77.1411 21.1296 78.2399 23.94 79.5196C28.94 81.7896 30.44 83.1496 36.02 85.7396C38.9966 87.2212 42.1072 88.4166 45.31 89.3096C41.6347 88.1082 38.1991 86.2703 35.16 83.8796C33.55 82.5596 32.52 81.4096 29.73 79.3796C28.3523 78.3157 26.8946 77.3596 25.37 76.5196C21.18 74.3096 15.58 72.9896 14.79 74.3696C14.63 74.6696 14.61 75.1896 15.29 76.2296Z" fill="#866678" stroke="#866678" stroke-width="0.5" stroke-linecap="round" stroke-linejoin="round"/>
<path d="M32.73 147.84C34.6633 146.054 36.6866 144.267 38.8 142.48C45.0964 137.189 51.7597 132.35 58.74 128C62.14 124.48 62.64 123.51 62.46 123.28C61.75 122.44 50.23 130.47 40.46 138.93C36.86 142.04 34.01 144.76 32.1 146.65L32.73 147.84Z" fill="#866678" stroke="#866678" stroke-width="0.5" stroke-linecap="round" stroke-linejoin="round"/>
<path opacity="0.45" d="M37.73 187.42C56.226 187.42 71.22 185.517 71.22 183.17C71.22 180.823 56.226 178.92 37.73 178.92C19.234 178.92 4.23999 180.823 4.23999 183.17C4.23999 185.517 19.234 187.42 37.73 187.42Z" fill="#866678"/>
</g>
<defs>
<clipPath id="clip0_2411_106">
<rect width="143.77" height="187.42" fill="white"/>
</clipPath>
</defs>
</svg>
