<svg id="Layer_1" data-name="Layer 1" xmlns="http://www.w3.org/2000/svg" xmlns:xlink="http://www.w3.org/1999/xlink" viewBox="0 0 1312.04 1030.64"><defs><style>.cls-1,.cls-4,.cls-5{fill:none;}.cls-2,.cls-6,.cls-8{fill:#866678;}.cls-3{fill:#f79e88;}.cls-4,.cls-5,.cls-6{stroke:#866678;stroke-width:2px;}.cls-4{stroke-miterlimit:10;}.cls-5,.cls-6{stroke-linecap:round;stroke-linejoin:round;}.cls-7{fill:url(#_10_dpi_30_8);}.cls-8{opacity:0.45;}</style><pattern id="_10_dpi_30_8" data-name="10 dpi 30% 8" width="28.8" height="28.8" patternTransform="translate(285.87 345.13) rotate(-7.06) scale(0.74)" patternUnits="userSpaceOnUse" viewBox="0 0 28.8 28.8"><rect class="cls-1" width="28.8" height="28.8"/><path class="cls-2" d="M28.8,31a2.16,2.16,0,1,0-2.16-2.16A2.16,2.16,0,0,0,28.8,31Z"/><path class="cls-2" d="M14.4,31a2.16,2.16,0,1,0-2.16-2.16A2.16,2.16,0,0,0,14.4,31Z"/><path class="cls-2" d="M28.8,16.56a2.16,2.16,0,1,0-2.16-2.16A2.16,2.16,0,0,0,28.8,16.56Z"/><path class="cls-2" d="M14.4,16.56a2.16,2.16,0,1,0-2.16-2.16A2.16,2.16,0,0,0,14.4,16.56Z"/><path class="cls-2" d="M7.2,23.76A2.16,2.16,0,1,0,5,21.6,2.16,2.16,0,0,0,7.2,23.76Z"/><path class="cls-2" d="M21.6,23.76a2.16,2.16,0,1,0-2.16-2.16A2.16,2.16,0,0,0,21.6,23.76Z"/><path class="cls-2" d="M7.2,9.36A2.16,2.16,0,1,0,5,7.2,2.16,2.16,0,0,0,7.2,9.36Z"/><path class="cls-2" d="M21.6,9.36A2.16,2.16,0,1,0,19.44,7.2,2.16,2.16,0,0,0,21.6,9.36Z"/><path class="cls-2" d="M0,31A2.16,2.16,0,0,0,2.16,28.8,2.16,2.16,0,0,0,0,26.64,2.16,2.16,0,0,0,0,31Z"/><path class="cls-2" d="M0,16.56A2.16,2.16,0,0,0,2.16,14.4,2.16,2.16,0,0,0,0,12.24a2.16,2.16,0,1,0,0,4.32Z"/><path class="cls-2" d="M28.8,2.16A2.16,2.16,0,0,0,31,0a2.16,2.16,0,0,0-4.32,0A2.16,2.16,0,0,0,28.8,2.16Z"/><path class="cls-2" d="M14.4,2.16A2.16,2.16,0,0,0,16.56,0a2.16,2.16,0,1,0-4.32,0A2.16,2.16,0,0,0,14.4,2.16Z"/><path class="cls-2" d="M0,2.16A2.16,2.16,0,0,0,2.16,0,2.16,2.16,0,0,0,0-2.16,2.16,2.16,0,0,0-2.16,0,2.16,2.16,0,0,0,0,2.16Z"/></pattern></defs><title>Topology Website Elements</title><path class="cls-3" d="M1310.45,805.38l0,.27c0,.32.07.65.09,1s.06.71.07,1.07c.23,6.72-2.13,14.82-5,17.32a2.73,2.73,0,0,1-1.73.79c-4.3.14-3.18-13.71-13.32-20.19-9.44-6-23.38-2.29-25.53-1.68-4.86,1.37-8,3.35-11.15,4.47a13.23,13.23,0,0,1-6.9.7,16.44,16.44,0,0,1-3.75-1.06,22.43,22.43,0,0,1-6.37-4.32c-10-9-40.88-21.32-69.79-16.13-23.76,4.27-44.66,20.12-55.42,38.5-.26.45-.53.89-.77,1.34a55.65,55.65,0,0,0-3,7.16v0c-2.11,5.86-5.1,15-9.43,28.36-1.7,5.25-5.29,16.62-12.46,39.36a4.66,4.66,0,0,1-.16.49c-.07.23-.15.46-.22.69-1.63,5.17-3.35,10.3-5,15.47-2.1,6.68-3.33,10.79-4.28,13.73a.55.55,0,0,0-.06.18,40.64,40.64,0,0,1-3,7.48.37.37,0,0,1-.08.15,51,51,0,0,1-8.93,12.68c-.17.18-.36.33-.53.5-.92.91-1.91,1.79-3,2.66-8.07,6.44-16.39,8.18-23.57,9.67-7.38,1.53-13,1.54-19.85,1.55a130,130,0,0,1-26.1-2.49,155.32,155.32,0,0,1-17.52-5.05c-1.54-.51-3.49-1.16-8-2.84l-.3-.11c-3.67-1.36-9-3.39-17.06-6.51-3.68-1.42-11.91-4.62-23.39-9.2l-.76-.31c-10.75-4.28-16.19-6.46-19.68-8-5.72-2.57-8.48-4.06-11.24-5.49l-.12-.06c-2.38-1.24-4.79-2.45-9.11-4.3-2.91-1.23-5.56-2.31-8.17-3.27-.32-.12-.64-.24-1-.38-3.35-1.25-6.7-2.4-10.47-3.71-2.43-.85-4.79-1.64-7.13-2.38-.25-.09-.49-.17-.76-.24-3.62-1.2-7.19-2.28-10.88-3.38-17.29-5.15-23.46-6.14-32.82-8.82l-.47-.13A161.23,161.23,0,0,1,794,894.21s0,0,0,0c-5.15-2.16-11.13-4.81-18.71-8.17-9.79-4.34-18.67-8.27-28-13-.4-.21-.79-.4-1.19-.58-3.59-1.82-7.23-3.76-11-5.88l-1-.57c-2.09-1.18-4.21-2.39-6.41-3.7a348.74,348.74,0,0,1-31.28-20.78,283.77,283.77,0,0,1-22.25-18c-2.67-2.45-5.34-5-8-7.65-1.07-1.05-2.07-2.09-3.06-3.11-.51-.52-1-1.07-1.54-1.62-6.05-6.46-10.84-12.35-16-18.69-4.13-5.12-7.57-9.38-10.59-13.27l-.21-.28a162.28,162.28,0,0,1-13.24-19.61A187.43,187.43,0,0,1,607,727.13l0,0c-.15-.43-.3-.86-.44-1.3-.35-1-.68-2.1-1-3.17-.76-2.34-1.47-4.77-2.15-7.26a186.78,186.78,0,0,1-4.27-20c-1.46-9.45-3.27-21.75-1.35-37.21A91.59,91.59,0,0,1,601,642.25c.53-1.77,1.13-3.48,1.77-5.15.39-1,.81-2.05,1.24-3,0,0,0,0,0-.07a79.23,79.23,0,0,1,7.51-13.27,157.24,157.24,0,0,1,11.17-14q2.17-2.5,4.59-5.17c1.49-1.64,3.06-3.35,4.69-5.11s3.56-3.85,5.49-5.91l2.28-2.44c.14-.15.28-.31.42-.45,4.87-5.17,8.94-9.28,11.69-12,8.57-8.48,15.83-15,21.41-19.79.1-.1.21-.17.29-.25.48-.39.92-.78,1.37-1.17l3.64-3.11,10.32-8.81c.72-.63,1.44-1.23,2.13-1.82l.14-.1c14.85-12.71,23.26-20,28.75-25.16.56-.52,1.1-1,1.65-1.58,1-1,2.08-2,3.17-3.08.92-.89,1.87-1.86,2.87-2.87.32-.31.61-.62.92-.93,2.38-2.42,5-5.09,7.84-8.08.1-.1.18-.19.28-.31,1-1,2-2.11,3.05-3.23s1.95-2.05,3-3.14l4.12-4.37c2.82-3,5.91-6.29,9.31-9.93,6.81-7.26,12.11-13,20-21.64l2.3-2.5,5.5-6c18.67-20.44,27.09-30,29.56-32.79,4.27-4.84,9.14-10.37,14.77-17,.17-.18.32-.38.49-.59l3.53-4.15c9.42-11.16,13-15.92,19.45-24.12l.36-.43c2.51-3.17,5.46-6.87,9.33-11.63,1.27-1.56,2.45-3,3.59-4.39.14-.19.29-.37.43-.53,4.58-5.58,8.07-9.74,11.28-13.52a.89.89,0,0,1,.16-.17c5.72-6.73,10.6-12.32,19.23-22.87,1.54-1.92,3.21-4,5-6.23,7-8.7,8.82-11.12,10.95-13.92.23-.31.47-.6.7-.9,1.34-1.71,3-3.77,6-7.49.79-1,1.64-2,2.57-3.14l.19-.24c9.31-11.28,24.87-30.08,40.36-50.9a82.29,82.29,0,0,0,10.34-18,1.07,1.07,0,0,1,.09-.19c.85-2.11,1.73-4.26,2.51-6.49,0-.2.11-.39.18-.59a36.52,36.52,0,0,0,2.16-13.64,28.89,28.89,0,0,0-.57-4.6,30,30,0,0,0-3.54-9.7c-.32-.53-.66-1.06-1.06-1.6a23.93,23.93,0,0,0-3.27-3.79A25.94,25.94,0,0,0,956,167.68l-.82-.16-.43-.13c-2.07-.69-4.11-1.34-6.13-2l-1.68-.53-6.62-2.07c-.7-.22-1.39-.44-2.09-.64-19.81-6.08-36.48-10.52-48.91-13.65-31.55-8-44-9.41-95.28-21.53l-7.43-1.75-2.3-.57c-8.91-2.16-11.46-2.9-33.35-8.16,0,0,0,0,0,0l-1-.25-.36-.08L742,114.35c-30.79-7.36-39.85-9.2-84.08-19.57l-22.62-5.32c-.55-.14-1.12-.28-1.69-.4C604.32,82.2,587.39,78.22,582,76.91l-1.73-.44c-5.12-1.4-9.63-2.67-13.8-3.83-6.8-1.88-12.74-3.43-19.13-4.73a.74.74,0,0,1-.28-.06c-4.58-.93-9.43-1.71-15-2.38A234.72,234.72,0,0,0,479.94,65a239.22,239.22,0,0,0-32.5,5.72c-7,1.76-12,3.38-14.32,4.15a213.87,213.87,0,0,0-29.34,12.39l-.28.14c-3,1.52-6.07,3.17-9.28,5l-.09.06q-2.88,1.62-5.85,3.42c-4.34,2.62-8.09,5.12-12,8h0c-1.6,1.14-3.22,2.34-4.94,3.62L369,109.24c-2.71,2.07-5.67,4.36-9.07,7l-.07.05-2.44,1.9c-11,8.59-24.11,18.84-39.63,33.23-1.21,1.12-2.4,2.24-3.52,3.32s-2.18,2.07-3.27,3.13c-8.08,7.81-15,15.07-20.81,21.34l-.25.29q-2.2,2.4-4.17,4.61c-1.62,1.82-3.13,3.54-4.49,5.12-2.32,2.66-4.24,5-5.78,6.81-5.81,7-10.55,13.14-14.3,18.22l-.21.28c-5.83,7.9-9.19,13.16-10.28,14.9-4.82,7.6-9.8,16.4-9.8,16.4-.26.47-.52.93-.75,1.36s-.65,1.11-.93,1.64c-2.17,4-3.42,6.44-5.15,9.69a.78.78,0,0,0-.05.12l-2,3.72c-6.82,12.56-10.33,19.05-15.78,26.17-1,1.33-2.14,2.79-3.41,4.34l-.14.17a80.59,80.59,0,0,1-17,15.82c-2.05,1.4-4.06,2.64-6.07,3.76a.18.18,0,0,0-.09,0l-.21.11a80.73,80.73,0,0,1-8.75,4.16,141.43,141.43,0,0,1-14.46,4.83,142.32,142.32,0,0,1-17.66,3.87c-3.12.52-5.77.86-8.11,1.12-7.76.82-12.37.58-21.13,1.84q-2.23.31-4.29.69c-.39.08-.78.14-1.19.21a157.07,157.07,0,0,0-18.13,4.73c-2.69.82-5.78,1.78-9.19,2.95l-1,.37c-1.57.56-3.2,1.16-4.91,1.81l-.71.28a138,138,0,0,0-47.38,31l-1,1s0,0,0,0l-.12.11A55.24,55.24,0,0,1,21,365.83,50.78,50.78,0,0,1,14,359.92a47.86,47.86,0,0,1-7.65-10.18l-.1-.18a48.24,48.24,0,0,1-5.08-13.89.45.45,0,0,1,0-.11c.84-.15,2-.34,3.38-.53.86-.12,2.31-.32,4.14-.49.12,0,.25,0,.38,0,1.93-.18,4.28-.34,6.78-.37,1.24,0,2.31,0,3.27,0h.06c2.27.07,3.93.26,5.76.38h.2l1.25.09a50,50,0,0,0,10.74-.78c2.08-.32,4.58-.74,7.58-1.32,2.17-.41,4.27-.85,6.27-1.27l.34-.07c7.18-1.53,13-3,16.53-3.95l1.42-.38.83-.23.89-.25,3.86-1.12c1.49-.44,3-.89,4.42-1.34,7.6-2.38,13.85-4.61,20-6.83,12-4.3,24.49-8.81,40.34-16.14,6.66-3.09,12.23-5.88,17-8.38a3.8,3.8,0,0,0,.6-.32c2.65-1.38,5.05-2.66,7.28-3.84,8.84-4.73,15-8.35,23.24-13.22l5.1-3c4.76-2.84,7.82-4.74,11.51-7.38l.71-.52c.86-.62,1.7-1.21,2.49-1.79A68.63,68.63,0,0,0,219,252.4,65.05,65.05,0,0,0,227.5,240c7.37-13.62,10-26.73,11.37-33.4,0,0,.25-1.25.73-3.46a.24.24,0,0,0,0-.08c.38-1.8.93-4.23,1.58-7.08a.06.06,0,0,0,0-.06c1.07-4.73,2.47-10.69,4.07-17.06,0-.15.06-.29.1-.44,1.34-5.36,2.82-11,4.39-16.51,1-3.42,2-7,3.2-10.88.19-.64.38-1.28.6-2,1-3.12,2.08-6.36,3.32-9.74A196.46,196.46,0,0,1,267.59,115,193.39,193.39,0,0,1,279,96c1.81-2.67,3.63-5.19,5.45-7.61l1.46-2c3.61-4.74,7.15-9.05,10.5-13.13,5.23-6.34,10.58-12.8,17.44-19.72L315.42,52c2.69-2.67,5.64-5.39,8.88-8.21a211.86,211.86,0,0,1,28.32-20.47.06.06,0,0,0,.05,0c2.5-1.52,5.14-3.07,7.93-4.61C371,12.9,378.81,8.56,386.87,5.62l.43-.15a73.3,73.3,0,0,1,15.44-3.71A85.28,85.28,0,0,1,413.41,1,90.36,90.36,0,0,1,431,2.54l.33.07A93.88,93.88,0,0,1,447.1,7.48a.51.51,0,0,1,.15.07c3.06,1.14,6.54,2.51,10.66,4.14l3.71,1.46a1.3,1.3,0,0,1,.25.1,284.13,284.13,0,0,1,26,11.61c9,4.62,14,7.89,19.46,11.22l.36.21,2.13,1.28a186,186,0,0,0,29.28,14s.05,0,.08,0c5.82,2.27,12.38,4.69,20.27,7.6A487.58,487.58,0,0,0,617.38,76.6c1.46.35,2.9.66,4.32,1,20.6,4.6,37.12,6.86,46.21,8,10.72,1.28,26.19,2.77,44.87,3.21a443.37,443.37,0,0,0,54.88-2c11.9-1.22,21.2-2.72,25.29-3.41,5.49-.93,14.27-2.43,25.48-5.19,10.35-2.54,11.71-3.43,24-6.48l.81-.2c5.67-1.38,10.81-2.64,17.75-4l1-.19.29,0c10.39-1.89,18.3-2.68,20.36-2.89a230.71,230.71,0,0,1,32.85-.84c2.51.12,4.92.27,7.25.46,1.67.13,3.36.27,5.08.43,7.48.75,13.77,1.75,18.57,2.64a235.34,235.34,0,0,1,34.31,9.11c2.64.89,5.3,1.79,8,2.76a.14.14,0,0,1,.08,0,158.26,158.26,0,0,1,16.38,6.8c3.29,1.57,6.69,3.38,10.28,5.46,1.27.74,2.44,1.45,3.51,2.12a1.51,1.51,0,0,1,.22.11c1.62,1,3,1.92,4.09,2.65a136.14,136.14,0,0,1,2.4,19.44c.3,5.7.8,22.89-6.31,49A215.58,215.58,0,0,1,1006.29,200c-2.53,5.37-5.06,10.29-7.45,14.91-.46.89-.91,1.77-1.37,2.63-11.22,21.24-22.16,36.51-32.91,51.39-14,19.35-17.88,22.24-28.06,35.65-1.28,1.7-2.69,3.58-4.23,5.68s-3.23,4.47-5.1,7.12c-5.36,7.63-9.18,13.4-14.18,20.5-1.63,2.29-3.36,4.73-5.34,7.43l-.08.12c-1.6,2.2-3.35,4.57-5.3,7.17-4.87,6.46-8.92,11.64-12.56,16.09-.12.15-.24.31-.37.46-3.47,4.23-6.56,7.8-9.62,11.17-6.91,7.64-13.08,13.77-16.21,16.86-2.88,2.84-5.08,4.94-7,6.71-.22.2-.43.42-.65.6-4.48,4.17-7.32,6.56-13.74,13.06l-3.92,4c-.89.9-1.78,1.79-2.65,2.71-.61.64-1.2,1.25-1.76,1.86-1.65,1.75-3.26,3.53-4.82,5.37-1.23,1.48-2.46,3-3.76,4.69-4.11,5.38-7.22,10.19-11.43,16.73-.48.74-.92,1.44-1.33,2.09-.16.24-.32.49-.47.74-2.58,4.08-4,6.62-7.7,12.61-7.63,12.46-11.54,18.86-16.21,25.38-.14.18-.26.37-.4.54a218,218,0,0,1-17.11,20.59c-12.14,13.4-15.39,14.8-25.73,26.67l-.07.09-2.37,2.73c0,.05-.1.1-.14.16-5.5,6.36-8.64,10.16-11.89,15.42a92,92,0,0,0-7.88,16.27A100,100,0,0,0,718,592c0,.12,0,.23-.06.36a99.06,99.06,0,0,0-1.38,10c-1.58,18.46,2.48,32.6,5.75,42.51l.08.26c.44,1.38.9,2.76,1.39,4.13.07.23.15.47.23.7,2.87,8.4,7.64,20.59,18,32.77a74.73,74.73,0,0,0,17.81,15.64,71,71,0,0,0,19.79,8,87.11,87.11,0,0,0,16.06,2.43c1.67.11,3.22.17,4.64.24,1.16.05,5.89.24,11.48,0a148.67,148.67,0,0,0,31.67-5.25,1,1,0,0,0,.23-.06c.41-.13.81-.23,1.21-.34h0l2.24-.65c4-1.14,8.13-2.42,12.62-3.92,3.78-1.23,7.79-2.63,12.11-4.25,5.06-1.87,10.54-4,16.56-6.51,12.68-5.25,18.81-8.3,25.94-11.68l.15-.07c5.56-2.66,11.75-5.51,22.14-9.76,2.85-1.17,5.49-2.24,8-3.26l.15-.06a271.62,271.62,0,0,1,26.2-9.28c14.87-4.38,26.18-6.33,38.59-8.49a394.1,394.1,0,0,1,44.82-5.33c5.39-.3,9.72-.55,15.81-.5,8.16.09,11.91.65,26.17,1.27,2,.08,3.52.15,4.65.18h.07c4,.13,3.49,0,5.78.19q.9.06,1.77.15s0,0,0,0c1.4.13,2.79.29,4.33.53l.69.1c3.39.54,7.59,1.42,14.14,2.92l.13,0,9,2.1c10.48,2.51,15.71,3.76,19,4.69,3.45,1,7.31,2.1,11.63,3.54.35.12.7.25,1.07.36,3.07,1,6.37,2.25,9.91,3.71a186.53,186.53,0,0,1,19.73,9.64c.1.05.21.1.34.18l1.39.75c3.62,2,6.68,3.63,9.4,5.15l.8.46a115.74,115.74,0,0,1,14.54,9.52c3.41,2.63,6.79,5.24,10.13,8.36a69,69,0,0,1,8.73,9.84,83.57,83.57,0,0,1,6,9.57c2.58,4.74,4.71,9.48,6.7,13.94l.07.19c.11.22.2.46.31.69,3,6.87,2.73,7.27,5,11.44a71.48,71.48,0,0,0,6.3,9.4c2,2.52,4.42,5.55,7.59,9.14l1.57,1.75.22.23c2.47,2.73,3.77,4,5.46,5.61.27.27.53.55.8.84,1.31,1.33,2.94,3.06,5.44,5.88.48.55.47.55,2.36,2.88a6.68,6.68,0,0,1,.49.57c1.62,2,4.38,5.4,9.22,11.33.32.37.6.73.88,1.08,2.87,3.5,4.26,5.3,5.62,8.24.24.48.55,1.17.89,2a1.28,1.28,0,0,1,.14.35A28.89,28.89,0,0,1,1310.45,805.38Z"/><path class="cls-4" d="M1.18,335.57a48.66,48.66,0,0,0,5.11,14c7.6,13.72,19.89,19.9,25,22.12A139.19,139.19,0,0,1,53.8,353.14c16.73-11.07,31.92-15.87,41.79-18.91a143.46,143.46,0,0,1,23.62-5.63c11.4-1.64,15.78-.73,29.25-3a142.17,142.17,0,0,0,17.64-3.87c8.29-2.41,18.69-5.44,29.59-12.9,10.28-7,16.34-14.83,20.56-20.34,5.45-7.12,9-13.61,15.79-26.16,3.51-6.47,4.63-9,8.87-16.52,0,0,5-8.81,9.79-16.42,1.82-2.87,9.77-15.3,24.8-33.39A476.58,476.58,0,0,1,311,157.87a532.38,532.38,0,0,1,46.42-39.67c13.83-10.77,20.75-16.15,30.87-22.29A211.12,211.12,0,0,1,479.94,65a233.28,233.28,0,0,1,52.14.44c18.17,2.2,28.57,5.63,48.2,11,2.41.66,27.48,6.54,77.63,18.31,47.78,11.21,54.52,12.47,92,21.48,29.24,7,25.13,6.26,44.11,10.74,51.26,12.11,63.74,13.58,95.29,21.52,15.83,4,38.53,10.11,65.85,19a26.25,26.25,0,0,1,13.58,6.58,27.1,27.1,0,0,1,7.87,15.09c2,9.78-1.24,17.91-4.35,25.45a81.48,81.48,0,0,1-10.37,18.1c-17.15,23-34.39,43.62-43.11,54.28s-5.85,7.66-17.65,22.3c-19.25,23.88-21.94,25.79-39.73,47.71-14.2,17.5-16,20.56-29.14,36.18-7.37,8.74-13.53,15.74-18.78,21.7-2.48,2.81-10.89,12.34-29.56,32.78-12.65,13.84-19,20.76-27.79,30.17-18.26,19.47-27.4,29.21-36.19,37.5-6.87,6.49-18.35,16.29-41.33,35.9-5.86,5-15.09,12.83-26.71,24.33-2.83,2.79-7.07,7.06-12.12,12.46-22,23.57-33.18,35.73-38.77,54.19a90.3,90.3,0,0,0-3.2,15.93c-1.94,15.45-.12,27.75,1.34,37.21a182,182,0,0,0,4.28,20,190,190,0,0,0,18.05,43.92c6.71,11.72,12.72,19.16,24,33.16A267.55,267.55,0,0,0,668,817.8a258.65,258.65,0,0,0,28.27,23.74,349.36,349.36,0,0,0,31.29,20.78c17.55,10.37,31.29,16.46,47.63,23.71,17.86,7.92,26.79,11.88,37.2,14.87,9.63,2.77,15.72,3.7,33.31,8.93,6.31,1.88,12.28,3.77,18.75,6,7.07,2.45,12.6,4.36,19.61,7.37,9.4,4,9.71,5,20.47,9.85,3.48,1.56,8.93,3.74,19.68,8,11.88,4.73,20.39,8,24.15,9.5,18.42,7.15,22.58,8.55,25.38,9.47,7.82,2.55,11.73,3.83,17.51,5a128.89,128.89,0,0,0,26.09,2.5c6.92,0,12.48,0,19.85-1.55,7.18-1.5,15.52-3.24,23.57-9.68a47.58,47.58,0,0,0,12.45-15.84c2.46-4.62,2.89-7,7.47-21.53,1.74-5.56,3.61-11.09,5.36-16.65,7.17-22.75,10.75-34.12,12.46-39.37,7-21.34,10.42-32,12.38-35.54,10.52-18.93,31.85-35.47,56.19-39.84,28.9-5.18,59.8,7.18,69.78,16.13,1.3,1.16,4.78,4.54,10.12,5.38,6.7,1.06,10-2.87,18-5.16,2.16-.61,16.1-4.36,25.54,1.68,10.13,6.47,9,20.32,13.31,20.19,3.64-.11,7-10.09,6.77-18.12a30,30,0,0,0-3-11.62c-1.51-3.23-3-5.1-6.51-9.33C1289.23,772.15,1290,773,1289.1,772c-7.28-8.23-7.09-7.08-13.49-14.32-9.79-11.09-13-16.91-13.89-18.54-2.24-4.16-1.92-4.56-5-11.44-3.43-7.74-7.25-16.38-13.1-24.38-6.14-8.4-12.45-13.27-18.86-18.21-7.35-5.66-13.15-8.82-24.73-15.12A179.61,179.61,0,0,0,1156,651.79c-3.26-.93-8.51-2.18-19-4.69-18.5-4.41-23.5-5.34-30-5.84-3-.23-1.26,0-10.52-.39-14.25-.62-18-1.18-26.16-1.26-6.09-.06-10.43.19-15.82.5a393.72,393.72,0,0,0-44.82,5.32c-12.41,2.16-23.71,4.12-38.58,8.5-12.56,3.7-21.31,7.25-34.36,12.59-23.83,9.75-25.59,12.15-48.22,21.51a383.14,383.14,0,0,1-41.3,14.69c-7.18,2.06-20.35,5.6-35.36,6.29-5.61.26-10.34.07-11.49,0a96.92,96.92,0,0,1-20.7-2.67,70.69,70.69,0,0,1-19.79-8A74.37,74.37,0,0,1,742,682.76c-11.33-13.35-16-26.73-18.75-35.1-3.35-10-8.39-25-6.66-45.26a98.18,98.18,0,0,1,13.79-42.54c3.71-6,7.27-10.1,14.4-18.29,10.4-12,13.63-13.34,25.8-26.77a217.84,217.84,0,0,0,17.12-20.58c4.84-6.72,8.76-13.12,16.6-25.93,4.45-7.26,5.63-9.43,9.5-15.44,4.2-6.53,7.31-11.35,11.44-16.73,5.16-6.73,9.37-11,16.9-18.6,9.35-9.43,11.1-10.22,21.35-20.36,3.13-3.1,9.31-9.23,16.22-16.87,6.31-7,12.83-14.78,22.54-27.72,11.72-15.6,16.35-23.05,24.91-35.21,18.19-25.81,19.81-24.16,37.38-48.46,11.2-15.49,22.59-31.38,34.29-54,6.78-13.11,14.61-28.47,20.57-50.29,7.11-26.08,6.6-43.27,6.31-49a133.09,133.09,0,0,0-2.41-19.44c-1.84-1.23-4.51-3-7.81-4.89-13.22-7.73-24.22-11.51-34.74-15.06a234.76,234.76,0,0,0-34.3-9.11,230.37,230.37,0,0,0-63.76-2.68c-2.15.21-10.65,1.07-21.68,3.13-6.93,1.3-12.08,2.56-17.75,4-13.08,3.21-14.28,4.08-24.84,6.68-11.22,2.76-20,4.26-25.48,5.18-4.09.69-13.39,2.19-25.28,3.42a446,446,0,0,1-54.89,2c-18.69-.45-34.15-1.93-44.87-3.23a473.86,473.86,0,0,1-50.54-8.93,490.11,490.11,0,0,1-57.88-17.38c-23-8.45-34.65-12.75-49.63-21.66-6.49-3.86-11.62-7.39-21.95-12.7a307.38,307.38,0,0,0-30-13.17c-13.2-5.21-19.81-7.81-26.57-9.09a91.09,91.09,0,0,0-28.59-.85c-15.29,2-25.3,7.57-42.15,16.93a216.73,216.73,0,0,0-36.29,25.1C311.88,54.55,304,64,296.42,73.25c-9,10.89-19.17,23.3-28.83,41.74s-14.2,34.13-17.83,46.91c-6,21.14-10.9,44.69-10.9,44.69-1.38,6.67-4,19.78-11.36,33.38A63.89,63.89,0,0,1,219,252.4c-4.7,5.31-9.31,8.64-14.57,12.39-4,2.89-7.33,4.92-12.93,8.25-10.17,6-16.81,10-26.92,15.38-6.35,3.39-14.25,7.61-24.91,12.54-15.84,7.33-28.35,11.85-40.33,16.14-8.26,3-16.62,5.95-28.13,9.23-1.81.52-12.53,3.55-26.47,6.21-11.32,2.16-15.19,2.25-18.32,2.1-3.31-.16-5.59-.58-10.53-.5a95.76,95.76,0,0,0-11.32.9C3.18,335.23,2,335.42,1.18,335.57Z"/><path class="cls-5" d="M87.73,338.89c-.11-.09-.2-.21-.33-.32a0,0,0,0,0,0,0c-.46-.5-.93-1-1.43-1.5"/><path class="cls-5" d="M87.73,338.89c-.4-.15-.79-.31-1.19-.45"/><path class="cls-2" d="M85.66,337.38c.34-.59.4-.62.42-.57l.12.06.22.11.44.25c.29.18.57.38.85.59l.16.09a.93.93,0,0,1,.31.56l-.44-.61c.63.5,1.25,1,1.89,1.46a.29.29,0,0,1,.08.41.3.3,0,0,1-.33.12c-.76-.22-1.54-.39-2.32-.57l-.44-.61a.73.73,0,0,0,.27.49l.17.1c-.35-.09-.68-.18-1-.3a4.89,4.89,0,0,1-.48-.2l-.24-.1-.12-.05s-.06-.06.19-.69C85.48,337.74,85.57,337.55,85.66,337.38Z"/><path class="cls-5" d="M543.68,651.39c-.29-.54-.56-1.08-.85-1.62"/><path class="cls-5" d="M690.22,542.56q-.83-.07-1.74-.12"/><path class="cls-5" d="M614.49,619.49c-.75.28-1.53.55-2.34.86"/><path class="cls-5" d="M931.65,310.29l-2.09.59"/><path class="cls-5" d="M996.32,217.91l-1.41.77"/><path class="cls-5" d="M750.44,116.51c.28,0,.55-.06.83-.09h0"/><path class="cls-5" d="M224.13,57.7l-.3.27"/><path class="cls-5" d="M1311,808c-.28-.49-.57-1-.86-1.44"/><path class="cls-5" d="M1249.8,808.52a6.58,6.58,0,0,0,2.92-.08h0"/><path class="cls-5" d="M1252.74,808.44h0c-.93,0-1.9.08-2.92.08"/><path class="cls-5" d="M1110.18,826.87a1.51,1.51,0,0,0-.26.18"/><path class="cls-5" d="M1310.17,806.55a22.82,22.82,0,0,0-.28-2.94c-1.18-7.46-6.41-13.91-16.86-26.51s-15.45-16.49-21.53-23.44c-15.47-17.7-12.56-26.19-24-43.86-15.19-23.38-37.21-34.6-56.85-44.59s-35.51-13.91-51.14-17.68c-53.79-13-112.53-9.51-165.61,5.31-37.43,10.45-71.23,30.39-107.61,43.67-52.17,19-111.16,22.71-137.8-35-9.7-21-14.42-44.61-11.09-67.48.08-.45.15-.91.22-1.35,3.3-20.25,14-36.39,26.89-51.26,13.81-15.94,30.14-30.4,42.58-46.86q2.21-2.89,4.25-5.9c10.71-15.47,19.14-32.44,30-47.84,11.31-16.08,26.42-28.27,40.14-42.14,10.46-10.58,20.86-21.15,32.52-35.56,5.66-7,9.49-12.25,13.4-17.9,3.64-5.32,7.38-11,12.71-18.66,4.58-6.63,8.35-11.88,11.62-16.29h0"/><path class="cls-5" d="M278.79,95.94a205.34,205.34,0,0,0-24,48.28c-4,11.64-4.13,15.72-8.85,34.28h0c-1.56,6.12-3.62,13.83-6.45,23.89-7.72,27.31-11.06,35.85-15.41,42.6-.51.78-1,1.53-1.55,2.28a55.89,55.89,0,0,1-3.82,4.87c-6.25,7.21-15.55,14.18-36.9,26.3-24.89,14.12-45.9,26-77.82,37.11-8.81,3.05-18.88,6.56-29.45,9.69-16.94,5-35.18,9.1-51.57,8.91a123.47,123.47,0,0,0-14.38.52"/><path class="cls-5" d="M304.23,63.24A210.71,210.71,0,0,1,349,25.35C368.6,13,386,2.15,410.41,1.08a79.77,79.77,0,0,1,20.12,1.64c11.43,2.4,23,7.16,38.52,13.62,26.6,11,31.48,18.08,63,32.27A417.7,417.7,0,0,0,574.6,65a459.45,459.45,0,0,0,45.85,12.6h0C672.24,89,713.16,89,722.59,89c17.87-.11,49.69-.46,89.37-9.27,25.41-5.64,30.82-9.59,54.22-13,14.76-2.18,43.79-6.19,80.22.41a228.31,228.31,0,0,1,57.93,18.82c6.9,3.31,13.1,6.71,18.59,10a157.23,157.23,0,0,1,2,34c-.41,8-2.21,31.13-19,68.56-3.13,7-6.31,13.39-9.56,19.44,0,0,0,0,0,0"/><path class="cls-5" d="M1,336.27A48.2,48.2,0,0,0,13.42,359,45.87,45.87,0,0,0,20.93,365"/><path class="cls-5" d="M688.48,542.44l.28-.23c10.48-8.62,18.2-14.42,35.63-31.51,4-3.91,8.76-8.81,15-15.42,8.26-8.76,19.15-20.51,34.38-36.92,21.65-23.39,32.76-35.39,46-50.74,10.17-11.83,10.25-12.39,37.55-45.79,2.88-3.51,5.52-6.76,8-9.74,12.19-14.86,19.74-24,28.15-34.23"/><path class="cls-6" d="M1310.19,806.55v0c.3,6.74-1.94,13.09-4.93,18.42-.61,1.1-1.24,2.16-1.91,3.17a68.66,68.66,0,0,1-7.48,9.38c.29-.59.68-1.42,1.06-2.43,1.27-3.27,2.52-8.43.57-13.53-3.13-8.18-12.49-11-18-12.64-10.89-3.25-17.39-1.11-26-.56l-.79.05c4.34-1,9.23-5.41,12.16-7.08,13.34-7.57,21.27-9.86,28.65-8.37,3.08.6,10,2.82,16.61,13.53C1310.17,806.53,1310.19,806.53,1310.19,806.55Z"/><path class="cls-6" d="M1255.05,760c-3.52,9.64-21.69,40.69-6.29,48.18a4.85,4.85,0,0,0,1,.36,49.78,49.78,0,0,1-6.9-.5c-.67-.1-1.37-.21-2.07-.35-10.59-1.95-11.38-5.24-21.8-8.79-22.1-7.5-43.13-1-62,4.76a162.69,162.69,0,0,0-45.7,22.44c-.38.25-.74.52-1.12.79a365.52,365.52,0,0,1,15.39-37.12c14.45-30,24.22-40.4,30.32-46.09.95-.9,2.08-1.93,3.42-3.08.66-.58,1.37-1.17,2.12-1.78,10.16-8.32,28.54-20.36,53-22.67,2.55-.23,5.71-.53,9.15-.67,9.68-.37,21.57.53,28.72,7.63a18.84,18.84,0,0,1,1.93,2.23C1261.42,735.09,1258.88,749.42,1255.05,760Z"/><path class="cls-5" d="M31.39,371.39a154.56,154.56,0,0,1,23-18.37A159.28,159.28,0,0,1,86,337a165.09,165.09,0,0,1,17.31-5.4c23.32-5.89,27.8-1.56,56.33-8.78,14.07-3.56,21.13-5.34,29.58-10.2,18.52-10.61,28.88-26.44,35.52-36.83,4.59-7.17,5.76-10.41,8.39-16,1.64-3.47,3.88-7.83,7.86-14.63.93-1.59,1.86-3.13,2.76-4.61,6.3-10.37,11.8-18,16.19-24.07a0,0,0,0,1,0,0,454.51,454.51,0,0,1,45.4-53.37c2-2,4.27-4.26,6.8-6.69a467.39,467.39,0,0,1,39.34-34c7.3-5.63,14.21-11,21.14-16"/><path class="cls-5" d="M446.18,70.67c33.47-8.66,62.25-7.22,76.7-6.36,16.19,1,21,2.8,60.38,12.62"/><path class="cls-5" d="M612.15,620.35a85,85,0,0,0-9.6,17v0c-.73,1.83-1.19,3.27-1.53,4.4-4.87,16.46-4.62,31-3.29,43.19.45,4.28,1,8.27,1.58,12,7.15,48.64,33.83,81.49,50.39,101.39C687,843,730.08,864.65,756.37,877.82a458.71,458.71,0,0,0,47.55,20.24c23.86,8.48,30.1,8.28,52.31,15.13,30.13,9.3,31,13.45,82.56,33.9,42.29,16.79,53.26,18.57,61.85,19.36,15.39,1.43,41.59,3.84,60.78-11.12,11.12-8.7,13.65-18.37,24.11-52.53,10.84-35.46,18.45-58.78,24.65-75.92"/><path class="cls-6" d="M602.2,636.62a133.47,133.47,0,0,0,30.74,42.13c32.17,29.47,69.72,34.14,83.32,35.16a145.15,145.15,0,0,1-49.65-22.67c-17.18-12.25-40-28.52-42.9-55.48-2.48-23,10.9-41.61,16.91-48.93a208.34,208.34,0,0,0-38.42,49.79Z"/><path class="cls-6" d="M925.33,891.72a225.74,225.74,0,0,0-93.7-19.62,143.72,143.72,0,0,1,83,3.23c44.29,15.46,66.88,48.13,73.44,58.46A224.53,224.53,0,0,0,925.33,891.72Z"/><path class="cls-5" d="M974.44,181.89a104.42,104.42,0,0,0-14.55-24.17c-22.27-27.62-52.78-36.16-65.62-38.93"/><path class="cls-5" d="M358.11,84.12a286.85,286.85,0,0,0-62.85,64.52q-5,7.08-9.27,14a286.27,286.27,0,0,0-26.09,53.89,0,0,0,0,0,0,0s0,.09-.05.14"/><polyline class="cls-5" points="649.74 678.47 641.51 679.49 634.72 680.33 634.71 680.34"/><path class="cls-5" d="M649.79,678.52l-8.23,1-6.81.84"/><path class="cls-2" d="M893.84,118.9c-.24.68,20.63,4.82,38.66,19.47a88.87,88.87,0,0,1,23.25,29.54,36.78,36.78,0,0,1,18.67,13.83,99.85,99.85,0,0,0-11.93-21.19C946,138.21,924.7,129,917.05,125.8,904.44,120.53,894,118.42,893.84,118.9Z"/><path class="cls-2" d="M260.77,214.47a279.2,279.2,0,0,1,25.82-53.34,283,283,0,0,1,71.48-77.31A297.28,297.28,0,0,0,284.57,186Z"/><path class="cls-6" d="M1205.6,696.67c-.06-.27-18.35,1.19-40.59,11.63-10.72,5-28.8,13.76-44,32.48-20.16,24.81-23.27,52.41-23.87,64.2-1.14-20.29.73-48.81,18.85-70.79C1146,697.82,1205.72,697.15,1205.6,696.67Z"/><path class="cls-7" d="M895.36,120.31c-.81,1.45,8.83,6.22,16,16.48a50.12,50.12,0,0,1,8.26,21.27c7.44,1.86,15.24,4,23.33,6.57,7.63,2.39,14.84,4.89,21.64,7.45a108.55,108.55,0,0,0-25.1-30c-11-9.13-20.81-13.5-28.92-17.14C909.74,124.58,896.32,118.62,895.36,120.31Z"/><path class="cls-7" d="M717.14,714.93a127,127,0,0,1-45-13.94c-14.41-7.68-45.92-24.44-51.2-54.6-5.56-31.79,21.17-60.36,31.74-71.65,8-8.54,10.81-9,35.92-31,14.46-12.68,26-23.4,33.41-30.49a204.78,204.78,0,0,0-35.22,40.33c-10.65,16.06-20.15,30.37-23.41,51.77-3.94,25.85,3.62,46.26,6.38,53.46C682.52,691.89,707.69,709.12,717.14,714.93Z"/><path class="cls-7" d="M832.46,873.88a378.06,378.06,0,0,1,157.48,64.26,170.8,170.8,0,0,0-47-41.47C896.66,869.19,850.29,871.88,832.46,873.88Z"/><path class="cls-7" d="M875.12,694.76c60.81-24.64,74.66-34.2,108.23-42.46,11.9-2.92,20.81-4.35,28.58-5.56,26.18-4.11,72.69-11,127.66,1.74a266,266,0,0,1,55.58,19.69c25,12.13,35.07,21.92,37.73,24.6A104.86,104.86,0,0,1,1255,725.94a75.54,75.54,0,0,0-27.77-8.46c-36.29-3.55-64,21.81-71.5,28.68-39.31,36-43.76,87.75-47.47,86.94C1102.41,831.83,1150,711,1107,672.78,1071.21,641,980.2,680,918.68,701.07h0a154.61,154.61,0,0,1-153.8,1.45c16.59,4.87,41.81,9.77,71,4.75C846.8,705.41,856.43,702.34,875.12,694.76Z"/><path class="cls-7" d="M281.25,191.89a252.44,252.44,0,0,1,39.1-67.29c5.58-6.87,24.53-30.21,48.68-45.66,57.9-37,129.9-18.72,148.77-13.33a205.42,205.42,0,0,0-64.86,4.73c-37.72,9-63.42,26.62-87.16,42.93a388.64,388.64,0,0,0-54.93,46.13A433.91,433.91,0,0,0,281.25,191.89Z"/><path class="cls-7" d="M32.22,373.77l-9.37-9-1.24,2.1-6.39-5.51A38.49,38.49,0,0,1,9,354.87a40.39,40.39,0,0,1-7.6-17.67c2.14-.33,5.37-.77,9.34-1a142.54,142.54,0,0,1,14.72.13c6.15.15,10.44-.44,19-1.6,20.4-2.79,41.25-10.5,46.06-12.32C82.71,324.64,66.84,330.15,53,343a78.36,78.36,0,0,0-15.6,19.49A77.53,77.53,0,0,0,32.22,373.77Z"/><ellipse class="cls-8" cx="968.64" cy="1013.57" rx="165.85" ry="17.08"/></svg>