<svg width="731" height="610" viewBox="0 0 731 610" fill="none" xmlns="http://www.w3.org/2000/svg">
<g clip-path="url(#clip0_2311_1002)">
<path d="M730.369 535.286V535.444C730.369 535.63 730.369 535.825 730.369 536.02C730.369 536.215 730.369 536.438 730.369 536.651C730.007 540.589 728.056 545.14 726.18 546.394C725.873 546.631 725.491 546.75 725.103 546.728C722.586 546.496 724.239 538.5 718.797 533.986C713.726 529.779 705.321 530.958 704.02 531.2C701.095 531.645 699.126 532.574 697.194 533.001C695.851 533.331 694.444 533.299 693.117 532.909C692.379 532.686 691.671 532.374 691.009 531.98C689.709 531.194 688.558 530.185 687.609 528.998C682.418 523.055 665.319 513.609 648.054 514.547C641.238 515.006 634.593 516.885 628.545 520.063C622.498 523.241 617.182 527.648 612.938 533.001C612.752 533.243 612.566 533.484 612.399 533.726C611.555 534.992 610.804 536.317 610.152 537.692C608.498 540.961 606.093 546.05 602.601 553.555C601.236 556.499 598.31 562.842 592.487 575.622C592.455 575.717 592.411 575.807 592.357 575.891C592.301 576.021 592.236 576.151 592.19 576.281C590.852 579.179 589.478 582.049 588.149 584.946C586.441 588.661 585.428 591.002 584.657 592.646C584.636 592.677 584.621 592.712 584.611 592.748C583.979 594.201 583.204 595.589 582.298 596.89V596.974C580.603 599.52 578.534 601.797 576.159 603.726C576.048 603.819 575.927 603.893 575.816 603.977C575.198 604.454 574.556 604.901 573.893 605.314C568.711 608.49 563.733 608.899 559.432 609.252C555.527 609.511 551.605 609.333 547.74 608.722C542.624 608.12 537.583 606.999 532.694 605.379C529.332 604.172 526.045 602.768 522.849 601.172C521.976 600.763 520.889 600.243 518.372 598.933L518.215 598.85C516.162 597.791 513.199 596.221 508.723 593.816C506.68 592.72 502.11 590.259 495.72 586.757L495.302 586.525C489.349 583.247 486.331 581.584 484.399 580.414C481.26 578.501 479.755 577.433 478.251 576.402L478.176 576.355C476.876 575.427 475.557 574.582 473.17 573.188C471.563 572.26 470.105 571.442 468.638 570.69L468.109 570.402C466.251 569.473 464.394 568.545 462.267 567.477C460.911 566.808 459.592 566.176 458.292 565.619L457.855 565.424C455.83 564.495 453.824 563.567 451.753 562.638C442.039 558.384 438.509 557.362 433.243 555.124L432.974 555.013C429.405 553.465 425.934 551.7 422.581 549.728C419.73 548.094 416.433 546.115 412.254 543.608C406.857 540.366 401.963 537.432 396.873 534.014L396.223 533.586C394.264 532.268 392.276 530.875 390.205 529.361L389.648 528.952C388.515 528.116 387.363 527.252 386.174 526.333C380.348 521.841 374.767 517.039 369.457 511.947C365.363 508.104 361.466 504.055 357.782 499.817C356.398 498.192 354.996 496.511 353.687 494.774C353.129 494.087 352.618 493.409 352.117 492.74L351.337 491.681C348.272 487.474 345.904 483.694 343.377 479.608C341.334 476.32 339.662 473.589 338.158 471.1L338.056 470.924C335.655 466.95 333.547 462.806 331.749 458.525C329.102 452.133 327.062 445.507 325.657 438.733C325.601 438.473 325.545 438.213 325.499 437.944C325.369 437.325 325.248 436.684 325.137 436.021C324.858 434.6 324.617 433.133 324.403 431.628C323.834 427.663 323.483 423.67 323.354 419.666C322.909 412.335 323.544 404.978 325.239 397.831C325.979 394.729 326.992 391.699 328.267 388.776C328.703 387.782 329.195 386.825 329.669 385.897C329.976 385.321 330.291 384.764 330.598 384.216C332.143 381.651 333.931 379.24 335.938 377.018C338.309 374.418 340.823 371.953 343.47 369.634C344.436 368.761 345.455 367.867 346.526 366.95C347.51 366.096 348.551 365.213 349.628 364.303C350.705 363.393 351.987 362.316 353.259 361.257L354.764 359.994L355.043 359.762C358.256 357.096 360.931 354.997 362.733 353.604C368.305 349.276 373.051 346.016 376.664 343.601L376.85 343.481L377.732 342.896L380.082 341.345L386.741 336.952L388.115 336.023L388.199 335.976C397.784 329.633 403.217 325.992 406.774 323.373L407.851 322.575L409.922 321.005C410.526 320.55 411.148 320.076 411.78 319.538L412.384 319.064C413.944 317.819 415.643 316.454 417.538 314.912C417.604 314.865 417.667 314.812 417.724 314.754C418.383 314.225 419.043 313.668 419.739 313.092L421.699 311.476L424.42 309.219L430.568 304.102C435.064 300.387 438.584 297.378 443.794 292.957L445.317 291.666L448.958 288.554C461.338 277.976 466.938 273.026 468.582 271.558C471.415 269.041 474.656 266.172 478.418 262.735C478.538 262.642 478.631 262.54 478.752 262.429L481.111 260.265C487.408 254.432 489.841 251.906 494.197 247.597L494.439 247.374C496.129 245.702 498.154 243.761 500.717 241.262C501.571 240.445 502.37 239.674 503.141 238.959C503.227 238.859 503.32 238.766 503.42 238.681C506.494 235.755 508.834 233.582 510.98 231.613L511.082 231.52C514.983 227.963 518.242 225.084 524.029 219.511C525.078 218.508 526.202 217.431 527.419 216.242C532.137 211.673 533.363 210.391 534.849 208.914C534.997 208.747 535.155 208.598 535.322 208.44C536.251 207.512 537.319 206.453 539.353 204.503C539.882 203.992 540.458 203.444 541.09 202.859L541.21 202.729C547.452 196.822 557.928 186.94 568.432 175.953C571.285 173.019 573.751 169.733 575.769 166.173L575.834 166.071C576.484 164.901 577.153 163.712 577.775 162.467C577.775 162.356 577.859 162.244 577.915 162.133C579.156 159.7 579.919 157.052 580.162 154.332C580.237 153.426 580.237 152.516 580.162 151.61C580.058 149.573 579.596 147.571 578.797 145.694C578.651 145.347 578.483 145.009 578.295 144.682C577.841 143.811 577.293 142.992 576.661 142.239C574.817 140.072 572.405 138.464 569.695 137.595L569.231 137.447L568.989 137.335C567.828 136.787 566.677 136.258 565.544 135.738L564.615 135.311L560.9 133.62C560.51 133.444 560.129 133.267 559.73 133.1C548.585 128.122 539.204 124.324 532.183 121.602C514.351 114.683 507.172 112.928 478.148 102.154L473.941 100.594L472.65 100.093C467.598 98.1886 466.149 97.5756 453.787 92.9226L453.221 92.7089L453.016 92.6346L448.753 91.0279C431.321 84.5267 426.166 82.7806 401.118 73.5303L388.217 68.7658L387.289 68.4128C370.701 62.2924 361.126 58.7446 358.07 57.5929L357.141 57.2121C354.253 56.0233 351.718 54.9553 349.368 53.9801C345.532 52.3919 342.179 51.0545 338.548 49.8379C338.493 49.8276 338.439 49.8088 338.39 49.7821C335.78 48.9091 333.013 48.1011 329.827 47.3117C319.876 44.8417 309.68 43.4898 299.429 43.2809C292.956 43.1597 286.483 43.4887 280.055 44.2654C275.82 44.7855 272.802 45.3706 271.399 45.6492C265.278 46.9041 259.259 48.6115 253.391 50.7573L253.214 50.8223C251.357 51.491 249.444 52.234 247.438 53.0699H247.382C246.184 53.5621 244.967 54.0822 243.723 54.6395C241.001 55.8562 238.633 57.045 236.116 58.4288C235.104 58.9768 234.073 59.5619 232.977 60.1841L231.519 61.0293L225.686 64.4842H225.64L224.079 65.413C217.03 69.6295 208.653 74.7005 198.557 81.9354C197.768 82.502 196.997 83.0685 196.263 83.6165L194.109 85.2325C188.843 89.2076 184.245 92.9411 180.428 96.1825L180.261 96.3311C179.332 97.1577 178.404 97.9564 177.475 98.718C176.397 99.6467 175.394 100.575 174.484 101.383C172.943 102.767 171.652 103.975 170.621 104.941C166.729 108.6 163.516 111.841 160.962 114.535L160.822 114.683C156.847 118.872 154.507 121.695 153.745 122.633C150.383 126.72 146.845 131.494 146.845 131.494L146.306 132.227C146.074 132.534 145.851 132.831 145.647 133.156C144.096 135.311 143.185 136.667 141.932 138.441C141.932 138.441 141.932 138.487 141.932 138.506L140.501 140.53C135.616 147.366 133.071 150.895 129.412 154.657C128.715 155.362 127.954 156.133 127.099 156.941L127.007 157.034C123.724 160.219 119.998 162.912 115.945 165.031C114.636 165.699 113.373 166.275 112.119 166.786H112.063H111.933C110.169 167.493 108.364 168.092 106.528 168.579C103.634 169.33 100.701 169.922 97.7416 170.352C94.2401 170.906 90.7067 171.235 87.1632 171.337C85.3057 171.411 83.7361 171.421 82.3522 171.402C77.7642 171.318 75.0894 170.845 69.8884 170.947C68.9597 170.947 68.1517 170.947 67.3344 171.04H66.6285C62.967 171.326 59.326 171.832 55.725 172.554C54.0997 172.841 52.2236 173.176 50.1525 173.612L49.5395 173.752C48.6108 173.965 47.5891 174.197 46.5489 174.458L46.1124 174.569C35.2492 177.332 25.0761 182.316 16.2345 189.206L15.603 189.698L15.5287 189.754C13.5079 188.571 11.6209 187.173 9.90047 185.584C8.58271 184.38 7.37661 183.058 6.29692 181.637C4.77359 179.645 3.52412 177.459 2.58192 175.136C2.57826 175.098 2.57826 175.061 2.58192 175.024C1.45636 172.332 0.760611 169.48 0.520096 166.572C0.512263 166.551 0.512263 166.528 0.520096 166.507C1.02162 166.507 1.7089 166.452 2.5262 166.442C3.03701 166.442 3.90075 166.442 4.9781 166.442H5.20099C6.34336 166.442 7.73648 166.554 9.18533 166.721C9.90976 166.795 10.532 166.879 11.0893 166.963C12.4081 167.167 13.3647 167.399 14.4328 167.603H14.5349L15.2594 167.743C17.3497 168.079 19.4703 168.188 21.5841 168.068C22.8194 168.068 24.3054 167.966 26.0979 167.845C27.3981 167.761 28.6519 167.659 29.8129 167.557H30.0172C34.3173 167.185 37.8373 166.749 39.9548 166.452L40.8 166.331L41.3015 166.257L41.8402 166.173L44.1713 165.802L46.8461 165.337C51.4899 164.501 55.2606 163.647 59.0313 162.802C66.3313 161.158 73.9564 159.43 83.7361 156.3C87.8412 154.982 91.2961 153.756 94.2774 152.641C94.4047 152.604 94.5289 152.558 94.6489 152.502C96.2928 151.889 97.7881 151.313 99.1719 150.784C104.67 148.666 108.543 147.004 113.688 144.756L116.883 143.354C119.864 142.044 121.787 141.153 124.127 139.88L124.583 139.629L126.161 138.766C128.794 137.358 131.261 135.66 133.517 133.704C135.726 131.73 137.696 129.505 139.387 127.073C143.321 121.342 146.371 115.052 148.433 108.414C148.433 108.414 148.674 107.699 149.111 106.445C149.111 106.445 149.111 106.445 149.111 106.399C149.464 105.377 149.956 104.003 150.541 102.387C151.47 99.7024 152.751 96.3311 154.145 92.7275C154.145 92.6439 154.2 92.5603 154.238 92.4768C155.408 89.449 156.68 86.2541 157.952 83.1893C158.77 81.2667 159.634 79.2328 160.609 77.0781C160.767 76.7159 160.924 76.3537 161.101 75.9729C161.909 74.2268 162.773 72.4158 163.739 70.5304C166.102 65.8828 168.78 61.402 171.754 57.1193C174.265 53.5094 176.988 50.0515 179.908 46.7637C181.162 45.3334 182.397 43.9774 183.623 42.7143L184.617 41.6741C187.069 39.1665 189.446 36.9097 191.694 34.7735C195.205 31.4486 198.799 28.068 203.294 24.5573L204.316 23.7771C206.08 22.4119 208.031 20.9909 210.093 19.6256C215.813 15.841 221.836 12.5358 228.101 9.74372C229.671 9.03787 231.324 8.32273 233.061 7.62617C239.617 4.96994 244.447 3.02885 249.36 1.89578L249.62 1.84005C252.669 1.15519 255.783 0.803303 258.908 0.790567C261.006 0.771725 263.103 0.886503 265.186 1.1342C268.632 1.51973 272.032 2.2414 275.337 3.2889L275.523 3.35392C278.586 4.41709 281.548 5.75045 284.374 7.33825H284.458C286.157 8.267 288.089 9.27934 290.374 10.5239L292.435 11.6477L292.575 11.722C297.501 14.3639 302.29 17.2529 306.924 20.3779C311.837 23.7214 314.54 25.9968 317.465 28.328L317.66 28.4766L318.812 29.4054C323.857 33.3006 329.233 36.747 334.879 39.7052H334.926C338.158 41.4512 341.808 43.3366 346.201 45.6028C356.731 51.041 367.587 55.8239 378.707 59.9241L381.159 60.8528C392.843 65.0229 402.316 67.5398 407.545 68.8401C413.702 70.3632 422.618 72.3507 433.485 73.9575C444.137 75.5518 454.879 76.4823 465.647 76.7437C472.678 76.8923 478.213 76.688 480.647 76.5858C483.916 76.4372 489.145 76.1958 495.887 75.397C502.11 74.6633 502.974 74.2454 510.376 73.3538L510.868 73.2981C514.267 72.8987 517.369 72.5365 521.502 72.2765H522.115H522.301C528.487 71.9235 533.167 72.035 534.375 72.0628C540.822 72.2245 547.25 72.8452 553.609 73.9203C555.058 74.1711 556.451 74.4311 557.807 74.7098C558.736 74.9048 559.739 75.1091 560.733 75.332C565.042 76.2608 568.636 77.3474 571.376 78.2112C578.017 80.3191 584.49 82.9239 590.741 86.0034C592.208 86.7185 593.694 87.4336 595.208 88.1952C598.324 89.742 601.35 91.4629 604.273 93.3498C606.13 94.5014 607.988 95.8017 609.845 97.2784C610.532 97.7985 611.164 98.3 611.703 98.7644L611.823 98.848C612.752 99.5631 613.449 100.185 614.015 100.705C614.298 104.539 614.298 108.388 614.015 112.222C613.774 115.565 612.826 125.633 606.789 140.335C603.969 147.186 600.55 153.774 596.573 160.025C594.716 162.978 592.858 165.662 591.149 168.188L590.165 169.619C582.085 181.2 574.59 189.318 567.243 197.221C557.696 207.502 555.17 208.905 548.297 215.991C547.424 216.92 546.439 217.849 545.418 219C544.396 220.152 543.207 221.378 541.926 222.79C538.211 226.848 535.61 229.941 532.174 233.721C531.059 234.938 529.87 236.238 528.524 237.668L528.468 237.733C527.372 238.903 526.183 240.157 524.855 241.532C521.549 244.95 518.809 247.68 516.376 250.011L516.125 250.253C513.794 252.473 511.732 254.33 509.698 256.076C505.11 260.033 501.07 263.162 499.017 264.741C497.16 266.19 495.711 267.258 494.466 268.15L494.058 268.456C491.132 270.565 489.303 271.753 485.086 275.078L482.513 277.112C481.928 277.577 481.343 278.041 480.767 278.505C480.377 278.83 479.978 279.146 479.607 279.434C478.529 280.363 477.452 281.292 476.421 282.22C475.585 282.991 474.768 283.799 473.885 284.682C471.099 287.524 468.926 290.105 466 293.616L465.072 294.74C464.96 294.87 464.849 295 464.746 295.139C462.954 297.331 461.96 298.706 459.341 301.938C453.992 308.653 451.242 312.108 448.048 315.572L447.778 315.86C444.178 319.681 440.348 323.279 436.308 326.633C428.256 333.571 426.259 334.156 419.368 340.332L419.321 340.379L417.742 341.8L417.65 341.883C414.738 344.36 412.044 347.082 409.597 350.019C407.384 352.798 405.449 355.787 403.82 358.944C402.338 361.818 401.095 364.81 400.105 367.888C400.105 367.953 400.105 368.018 400.04 368.093C399.436 369.979 398.928 371.894 398.517 373.832C396.828 382.163 396.923 390.757 398.796 399.048V399.206C398.954 400.042 399.121 400.877 399.316 401.713C399.316 401.853 399.362 402.001 399.39 402.141C400.754 409.411 403.51 416.349 407.508 422.573C410.028 426.517 413.164 430.032 416.795 432.984C420.122 435.553 423.821 437.601 427.764 439.058C430.741 440.204 433.82 441.068 436.958 441.64C437.887 441.826 438.816 441.975 439.652 442.114C440.32 442.225 443.069 442.68 446.348 442.931C452.642 443.356 458.963 443.097 465.202 442.16H465.341L466.075 442.049L467.431 441.835C469.827 441.455 472.344 441.009 475.083 440.461C477.377 440.015 479.811 439.486 482.458 438.854C485.532 438.13 488.885 437.266 492.581 436.254C500.364 434.108 504.153 432.771 508.556 431.313H508.648C512.085 430.161 515.911 428.944 522.273 427.217L527.177 425.898H527.279C532.561 424.436 537.914 423.249 543.319 422.341C550.975 421.14 558.699 420.418 566.445 420.177C575.285 419.716 584.144 419.759 592.979 420.307C596.146 420.521 598.7 420.688 602.266 421.161C607.031 421.802 609.176 422.397 617.442 423.79L620.145 424.236C622.476 424.598 622.179 424.496 623.516 424.765L624.529 424.979C625.346 425.155 626.135 425.35 627.018 425.601L627.417 425.712C629.349 426.269 631.736 427.087 635.451 428.433H635.534L640.596 430.291C646.531 432.511 649.503 433.616 651.342 434.396C653.181 435.176 655.447 436.151 657.843 437.303L658.428 437.591C660.155 438.418 661.994 439.365 663.945 440.47C667.686 442.607 671.299 444.96 674.765 447.519L674.941 447.649L675.712 448.188C677.672 449.6 679.334 450.788 680.82 451.903L681.257 452.228C684.013 454.231 686.615 456.438 689.04 458.831C690.899 460.599 692.669 462.459 694.343 464.404C696.009 466.379 697.477 468.513 698.726 470.775C699.794 472.714 700.725 474.725 701.513 476.793C702.674 479.747 703.575 482.663 704.42 485.412V485.524C704.42 485.663 704.494 485.812 704.54 485.951C705.831 490.177 705.608 490.39 706.612 492.982C707.452 495.038 708.452 497.025 709.602 498.926C710.531 500.532 711.785 502.483 713.373 504.805C713.661 505.223 713.93 505.594 714.172 505.938C714.2 505.991 714.234 506.04 714.274 506.086C715.518 507.86 716.187 508.668 717.06 509.801C717.209 509.978 717.329 510.163 717.469 510.349C718.147 511.222 718.964 512.346 720.255 514.176C720.496 514.529 720.487 514.529 721.425 516.033L721.667 516.405C722.456 517.696 723.821 519.869 726.217 523.677C726.375 523.918 726.524 524.15 726.654 524.373C727.788 525.976 728.692 527.73 729.338 529.584C729.44 529.881 729.57 530.308 729.71 530.847C729.744 530.913 729.766 530.986 729.775 531.06C730.144 532.44 730.344 533.859 730.369 535.286Z" fill="#F79E88"/>
<path d="M0.501526 166.507C0.717742 169.439 1.38176 172.321 2.47048 175.052C5.08006 181.245 9.64726 186.413 15.473 189.763C19.9552 186.201 24.7989 183.12 29.9243 180.569C38.073 176.616 46.7709 173.914 55.725 172.554C60.4027 171.63 65.1499 171.102 69.9163 170.975C76.6776 170.845 79.2038 171.69 87.191 171.374C90.7312 171.267 94.2611 170.938 97.7602 170.39C102.775 169.582 109.054 168.532 115.954 165.003C120.995 162.324 125.548 158.813 129.421 154.619C133.136 150.904 135.644 147.329 140.52 140.502C143.037 136.982 143.882 135.58 146.891 131.503C146.891 131.503 150.43 126.72 153.792 122.633C159.039 116.401 164.675 110.507 170.667 104.987C178.115 97.9825 185.94 91.3909 194.109 85.2418C203.703 78.0733 213.704 71.4651 224.061 65.4501C232.903 60.1655 237.323 57.5279 243.676 54.6766C261.122 46.6261 280.196 42.7286 299.401 43.2901C309.65 43.4933 319.843 44.8453 329.79 47.3209C340.229 49.9121 346.052 52.6612 357.114 57.2121C358.47 57.7693 372.679 63.0168 401.081 73.5024C428.154 83.4957 431.952 84.7217 453.156 92.6811C469.706 98.9037 467.366 98.1514 478.111 102.145C507.144 112.909 514.332 114.674 532.146 121.584C541.09 125.048 553.897 130.268 569.194 137.438C572.087 138.282 574.669 139.954 576.624 142.248C578.767 144.916 579.997 148.201 580.134 151.62C580.58 157.48 578.11 161.984 575.751 166.164C573.731 169.736 571.258 173.032 568.395 175.971C556.73 188.166 545.176 198.93 539.316 204.521C533.455 210.112 535.35 208.57 527.409 216.261C514.407 228.799 512.754 229.709 500.782 241.216C491.234 250.401 489.99 252.055 481.167 260.218C476.235 264.788 472.139 268.419 468.647 271.521C466.994 272.979 461.403 277.93 449.023 288.508C440.664 295.669 436.457 299.244 430.633 304.092C418.56 314.141 412.541 319.157 406.811 323.364C402.334 326.652 394.923 331.537 380.1 341.317C376.329 343.806 370.376 347.716 362.76 353.576C360.903 355.006 358.117 357.189 354.792 359.975C340.229 372.133 332.845 378.42 328.257 388.767C326.984 391.691 325.977 394.725 325.248 397.831C323.001 406.71 323.168 414.01 323.335 419.638C323.464 423.639 323.818 427.63 324.394 431.591C325.708 440.842 328.179 449.891 331.749 458.525C334.814 465.843 337.786 470.599 343.368 479.608C346.788 485.312 350.563 490.796 354.671 496.028C359.211 501.671 364.149 506.981 369.447 511.919C374.756 517.012 380.337 521.815 386.165 526.305C395.647 533.642 403.263 538.193 412.272 543.645C422.117 549.561 427.039 552.514 432.9 555.013C438.324 557.325 441.806 558.31 451.688 562.628C455.236 564.18 458.58 565.712 462.192 567.495C466.14 569.427 469.223 570.941 473.096 573.207C478.297 576.244 478.399 576.829 484.334 580.433C486.247 581.594 489.265 583.219 495.237 586.535C501.822 590.157 506.54 592.711 508.63 593.834C518.846 599.333 521.187 600.447 522.756 601.19C525.951 602.791 529.242 604.193 532.61 605.388C537.498 606.987 542.536 608.082 547.647 608.657C551.512 609.27 555.435 609.444 559.34 609.177C563.64 608.825 568.627 608.416 573.791 605.24C577.158 603.086 580.024 600.236 582.196 596.881C583.961 594.364 584.388 593.017 588.112 584.863C589.533 581.742 591.019 578.649 592.44 575.529C598.273 562.786 601.18 556.406 602.564 553.462C608.136 541.518 610.922 535.546 612.343 533.624C619.857 523.342 633.5 515.234 648.017 514.445C665.245 513.516 682.38 522.962 687.554 528.896C688.961 530.713 690.884 532.062 693.07 532.769C696.906 533.874 699.107 531.84 703.974 531.07C705.274 530.865 713.679 529.686 718.75 533.856C724.193 538.36 722.549 546.357 725.057 546.598C727.183 546.793 729.895 541.212 730.313 536.512C730.482 534.142 730.166 531.762 729.385 529.519C728.734 527.531 727.973 526.324 726.264 523.602C720.348 514.222 720.691 514.761 720.283 514.111C716.633 508.789 716.661 509.467 713.456 504.823C708.543 497.653 707.085 494.022 706.686 493C705.683 490.418 705.896 490.214 704.615 485.969C703.184 481.205 701.578 475.893 698.736 470.803C695.764 465.453 692.429 462.156 689.049 458.813C685.176 454.977 682.018 452.72 675.721 448.207C671.987 445.428 668.092 442.873 664.056 440.554C659.965 438.278 655.741 436.249 651.407 434.48C649.549 433.699 646.605 432.622 640.67 430.375C630.194 426.455 627.343 425.554 623.563 424.802C621.845 424.449 622.82 424.718 617.452 423.818C609.186 422.424 607.031 421.821 602.276 421.189C598.737 420.706 596.183 420.539 592.988 420.335C584.153 419.782 575.294 419.738 566.454 420.205C558.705 420.434 550.978 421.151 543.319 422.35C536.249 423.573 529.253 425.195 522.366 427.207C507.757 431.173 506.577 432.455 492.646 436.272C484.374 438.612 475.973 440.472 467.486 441.845C460.526 443.037 453.451 443.414 446.404 442.968C443.116 442.708 440.367 442.253 439.698 442.142C435.637 441.555 431.651 440.53 427.81 439.086C423.869 437.625 420.171 435.577 416.842 433.012C413.205 430.065 410.069 426.549 407.554 422.601C401.907 414.001 400.18 405.883 399.149 400.775C397.914 394.701 396.065 385.562 398.536 373.888C400.369 365.196 404.183 357.044 409.681 350.066C412.281 346.833 414.659 344.697 419.405 340.434C426.343 334.202 428.321 333.636 436.401 326.68C440.438 323.327 444.269 319.732 447.871 315.915C451.187 312.34 453.936 308.894 459.434 301.984C462.545 298.065 463.4 296.885 466.084 293.625C469.009 290.124 471.173 287.533 473.969 284.7C477.475 281.227 481.221 278.006 485.179 275.06C491.318 270.239 492.386 269.905 499.11 264.732C501.163 263.144 505.212 260.023 509.8 256.057C513.979 252.445 518.345 248.367 524.948 241.523C532.907 233.266 536.149 229.254 542.028 222.78C554.501 209.035 555.327 210.112 567.336 197.203C574.989 188.974 582.781 180.532 591.242 168.17C596.146 161.018 601.83 152.623 606.873 140.307C612.91 125.605 613.857 115.538 614.099 112.194C614.382 108.36 614.382 104.511 614.099 100.678C613.114 99.8231 611.684 98.6251 609.901 97.2598C603.944 92.7995 597.512 89.0119 590.722 85.9662C578.996 80.1467 566.479 76.0788 553.572 73.8924C547.219 72.8179 540.798 72.1972 534.356 72.0349C533.084 72.0349 528.069 71.8863 521.475 72.295C517.342 72.555 514.249 72.908 510.84 73.3073C502.974 74.2361 502.212 74.6633 495.86 75.4156C489.117 76.2143 483.888 76.4558 480.628 76.5951C478.185 76.7066 472.65 76.9109 465.629 76.7623C454.861 76.4961 444.119 75.5656 433.466 73.976C422.59 72.36 413.674 70.3818 407.517 68.8493C397.751 66.4174 388.124 63.4565 378.679 59.9798C367.559 55.8837 356.703 51.1039 346.173 45.6677C333.421 39.0643 326.92 35.7115 318.803 29.4332C315.301 26.7119 312.561 24.2786 306.915 20.4336C301.578 16.844 296.053 13.5422 290.364 10.5424C283.037 6.54879 279.377 4.55198 275.504 3.31674C270.139 1.60887 264.538 0.756371 258.908 0.790538C249.834 0.864838 243.602 3.38175 233.116 7.62614C225.056 10.8398 217.345 14.8666 210.102 19.6442C203.519 24.1276 197.364 29.2077 191.713 34.8199C185.694 40.5225 178.84 47.0237 171.874 57.1099C164.909 67.1962 161.12 76.0007 158.083 83.1892C153.039 95.0865 148.489 108.479 148.489 108.479C146.428 115.115 143.378 121.402 139.443 127.128C137.759 129.564 135.792 131.79 133.582 133.76C130.711 136.192 127.555 138.266 124.183 139.936C121.611 141.329 119.539 142.276 116.038 143.809C109.676 146.595 105.515 148.452 99.2276 150.839C95.2712 152.363 90.3581 154.257 83.7918 156.356C74.0121 159.486 66.3963 161.223 59.0964 162.857C54.0625 163.99 48.9637 165.133 42.0166 166.21C40.9207 166.377 34.4473 167.371 26.1164 167.919C19.3644 168.365 17.0983 168.133 15.2872 167.817C13.4762 167.501 12.0645 167.083 9.17605 166.767C6.96063 166.543 4.73426 166.443 2.50763 166.47L0.501526 166.507Z" stroke="#866678" stroke-miterlimit="10"/>
<path d="M50.7562 174.708L50.589 174.495C50.3568 174.17 50.1153 173.854 49.8646 173.566" stroke="#866678" stroke-width="0.75" stroke-linecap="round" stroke-linejoin="round"/>
<path d="M50.7562 174.708L50.0968 174.355" stroke="#866678" stroke-width="0.75" stroke-linecap="round" stroke-linejoin="round"/>
<path d="M49.7531 173.528C50.2082 172.878 50.2639 172.832 50.2639 172.878L50.3289 172.925L50.4404 173.008C50.5209 173.066 50.5955 173.131 50.6633 173.203C50.8133 173.346 50.9473 173.505 51.0627 173.677L51.2391 173.816C51.4093 174.002 51.5052 174.243 51.5085 174.494L51.0905 173.714C51.341 174.141 51.6203 174.551 51.9264 174.94C51.9939 175.008 52.0318 175.1 52.0318 175.196C52.0318 175.291 51.9939 175.383 51.9264 175.451C51.8789 175.489 51.8231 175.516 51.7634 175.529C51.7037 175.542 51.6419 175.541 51.5828 175.525C51.0994 175.408 50.6094 175.322 50.1153 175.265L49.6974 174.485C49.6936 174.603 49.7139 174.721 49.757 174.831C49.8001 174.941 49.8651 175.042 49.9482 175.126L50.1246 175.265C49.9118 175.227 49.7033 175.168 49.5024 175.089C49.4063 175.042 49.3132 174.989 49.2237 174.931L49.0844 174.847H49.0194C49.0194 174.847 49.0194 174.847 49.4002 174.114C49.5209 173.928 49.6324 173.742 49.7624 173.566L49.7531 173.528Z" fill="#866678"/>
<path d="M294.172 389.974L293.791 388.971" stroke="#866678" stroke-width="0.75" stroke-linecap="round" stroke-linejoin="round"/>
<path d="M387.53 337.072L386.527 336.877" stroke="#866678" stroke-width="0.75" stroke-linecap="round" stroke-linejoin="round"/>
<path d="M337.786 376.47L336.356 376.804" stroke="#866678" stroke-width="0.75" stroke-linecap="round" stroke-linejoin="round"/>
<path d="M545.176 219.019L543.913 219.214" stroke="#866678" stroke-width="0.75" stroke-linecap="round" stroke-linejoin="round"/>
<path d="M589.57 169.805L588.697 170.148" stroke="#866678" stroke-width="0.75" stroke-linecap="round" stroke-linejoin="round"/>
<path d="M453.453 92.8667H453.964" stroke="#866678" stroke-width="0.75" stroke-linecap="round" stroke-linejoin="round"/>
<path d="M150.653 20.5171L150.458 20.6471" stroke="#866678" stroke-width="0.75" stroke-linecap="round" stroke-linejoin="round"/>
<path d="M730.527 536.8C730.397 536.493 730.267 536.187 730.127 535.871" stroke="#866678" stroke-width="0.75" stroke-linecap="round" stroke-linejoin="round"/>
<path d="M694.761 532.686C695.314 532.869 695.901 532.926 696.479 532.853" stroke="#866678" stroke-width="0.75" stroke-linecap="round" stroke-linejoin="round"/>
<path d="M696.488 532.853C695.931 532.853 695.364 532.76 694.77 532.686" stroke="#866678" stroke-width="0.75" stroke-linecap="round" stroke-linejoin="round"/>
<path d="M611.981 533.299L611.814 533.382" stroke="#866678" stroke-width="0.75" stroke-linecap="round" stroke-linejoin="round"/>
<path d="M730.127 535.899C730.18 535.325 730.196 534.748 730.174 534.172C730.025 529.732 727.443 525.59 722.252 517.454C717.06 509.318 714.432 506.718 711.385 502.223C703.649 490.781 705.952 486.035 700.528 474.89C693.358 460.15 681.322 452.024 670.585 444.77C659.849 437.517 650.877 434.09 642.026 430.755C611.591 419.285 577.069 417.084 545.028 421.895C522.44 425.276 501.274 434.47 479.086 439.588C447.267 446.925 412.588 444.798 401.22 409.227C397.078 396.28 396.028 382.154 399.622 369.059L399.845 368.288C403.235 356.706 410.647 348.069 419.238 340.323C428.451 332.02 439.02 324.767 447.472 316.064C448.465 315.043 449.441 314.002 450.379 312.925C457.744 304.678 463.892 295.39 471.313 287.18C479.077 278.617 488.773 272.599 497.773 265.503C505.273 259.752 512.465 253.611 519.32 247.104C523.128 243.445 525.737 240.65 528.431 237.631C530.938 234.789 533.53 231.771 537.198 227.666C540.347 224.127 542.929 221.341 545.148 219" stroke="#866678" stroke-width="0.75" stroke-linecap="round" stroke-linejoin="round"/>
<path d="M179.778 46.7637C172.81 54.7643 166.927 63.6484 162.28 73.1866C159.123 79.6879 158.733 82.0655 154.637 92.551C153.29 96.0153 151.535 100.362 149.148 106.027C142.647 121.398 140.102 126.144 137.074 129.766C136.721 130.184 136.368 130.583 135.997 130.983C135.184 131.884 134.325 132.742 133.424 133.555C129.254 137.27 123.329 140.697 109.992 146.223C94.4538 152.641 81.3306 158.121 61.9105 162.263C56.5516 163.415 50.4218 164.733 44.032 165.792C33.8158 167.501 22.8472 168.579 13.2997 167.26C10.5075 166.867 7.6948 166.638 4.87592 166.572" stroke="#866678" stroke-width="0.75" stroke-linecap="round" stroke-linejoin="round"/>
<path d="M196.988 29.5354C205.688 21.9344 215.407 15.5855 225.863 10.6725C238.169 4.90496 249.081 -0.193876 263.431 0.948486C267.389 1.26383 271.293 2.0751 275.049 3.36324C281.551 5.58295 287.922 9.19578 296.531 14.0903C311.252 22.449 313.592 26.9163 330.951 37.4762C338.598 42.1039 346.492 46.3112 354.597 50.0794C363.021 54.0771 371.645 57.6389 380.435 60.7507C399.459 67.5428 419.165 72.2482 439.206 74.7841C456.713 77.08 474.421 77.4319 492.005 75.8336C507.237 74.3754 510.682 72.4622 524.586 72.1186C540.405 71.4827 556.218 73.5237 571.358 78.1555C582.797 81.7409 593.704 86.8417 603.79 93.3219C607.579 95.7553 610.95 98.1793 613.913 100.492C614.199 107.176 613.76 113.871 612.603 120.46C611.786 125.104 609.065 138.468 596.582 159.087C594.242 162.941 591.939 166.442 589.589 169.739" stroke="#866678" stroke-width="0.75" stroke-linecap="round" stroke-linejoin="round"/>
<path d="M0.352905 166.907C0.884086 172.036 2.81144 176.922 5.9254 181.033C7.09553 182.543 8.42514 183.923 9.89117 185.147" stroke="#866678" stroke-width="0.75" stroke-linecap="round" stroke-linejoin="round"/>
<path d="M386.527 336.877L386.704 336.766C394.681 331.94 402.38 326.669 409.764 320.977C412.384 318.989 415.513 316.472 419.628 313.064C425.089 308.55 432.287 302.485 442.354 294.006C456.676 281.932 464.031 275.737 472.827 267.732C479.625 261.565 479.709 261.23 498.051 243.733C499.983 241.875 501.766 240.185 503.41 238.625C511.593 230.832 516.654 226.068 522.31 220.69" stroke="#866678" stroke-width="0.75" stroke-linecap="round" stroke-linejoin="round"/>
<path d="M730.137 535.899C729.724 539.686 728.267 543.284 725.929 546.292C725.493 546.886 725.001 547.462 724.583 548.001C723.05 549.79 721.363 551.44 719.54 552.932C719.753 552.607 720.041 552.152 720.338 551.595C721.723 549.225 722.189 546.429 721.648 543.738C720.413 538.741 715.147 536.428 712.054 535.063C705.933 532.379 701.986 533.206 696.952 532.862H696.488C699.098 532.583 702.265 530.373 704.095 529.611C712.453 526.156 717.218 525.395 721.416 526.825C723.171 527.401 726.988 529.193 730.127 535.918L730.137 535.899Z" fill="#866678" stroke="#866678" stroke-width="0.75" stroke-linecap="round" stroke-linejoin="round"/>
<path d="M701.336 504.749C698.55 510.117 685.743 526.918 694.185 532.398C694.365 532.516 694.558 532.612 694.761 532.686C693.413 532.514 692.079 532.251 690.767 531.896C690.386 531.785 689.987 531.673 689.588 531.543C683.551 529.639 683.328 527.661 677.514 524.838C665.161 518.866 652.438 521.123 640.986 523.129C631.104 524.888 621.561 528.191 612.706 532.918L611.99 533.299C615.5 526.242 619.395 519.384 623.656 512.755C634.253 496.306 640.707 490.938 644.673 488.059C645.295 487.604 646.029 487.13 646.893 486.508C647.32 486.22 647.822 485.923 648.258 485.579C654.759 481.456 666.378 475.763 680.764 476.18C682.269 476.227 684.136 476.283 686.151 476.45C691.826 476.933 698.699 478.307 702.358 482.951C702.704 483.406 703.014 483.888 703.287 484.391C706.853 490.706 704.336 498.861 701.336 504.749Z" fill="#866678" stroke="#866678" stroke-width="0.75" stroke-linecap="round" stroke-linejoin="round"/>
<path d="M15.538 189.596C20.1465 186.107 25.0755 183.063 30.2587 180.504C36.5095 177.44 43.0822 175.081 49.8553 173.473C53.3223 172.653 56.8322 172.027 60.3687 171.597C74.4021 169.851 76.6961 172.702 93.8687 170.547C102.339 169.489 106.574 168.959 111.859 166.73C123.431 161.882 130.619 153.403 135.245 147.821C137.495 145.086 139.52 142.172 141.3 139.109C142.507 137.196 144.086 134.818 146.938 131.141C147.597 130.277 148.247 129.45 148.879 128.652C153.309 123.079 157.07 118.993 160.024 115.779C169.41 105.726 179.558 96.411 190.375 87.9166C191.685 86.8856 193.161 85.7433 194.815 84.5081C202.967 78.3772 211.454 72.7032 220.234 67.5119C224.878 64.7257 229.318 62.153 233.711 59.729" stroke="#866678" stroke-width="0.75" stroke-linecap="round" stroke-linejoin="round"/>
<path d="M279.266 44.1354C299.42 41.5071 316.1 44.4234 324.468 45.9929C333.848 47.7204 336.486 49.1321 358.785 57.7138" stroke="#866678" stroke-width="0.75" stroke-linecap="round" stroke-linejoin="round"/>
<path d="M336.356 376.813C333.739 379.612 331.448 382.7 329.53 386.017C328.973 387.03 328.601 387.875 328.322 388.479C324.961 396.367 323.245 404.859 323.279 413.434C323.233 415.96 323.279 418.338 323.335 420.53C323.994 449.423 337.183 470.524 345.402 483.323C363.903 512.114 387.502 527.903 401.889 537.441C410.349 543.016 419.118 548.108 428.154 552.691C441.463 559.369 445.122 559.703 457.576 565.303C474.489 572.91 474.693 575.389 503.299 591.048C526.75 603.902 533.019 605.732 537.978 606.837C546.857 608.787 561.968 612.094 574.2 604.747C581.323 600.475 583.487 595.014 592.069 575.845C600.957 555.941 607.077 542.883 611.935 533.326" stroke="#866678" stroke-width="0.75" stroke-linecap="round" stroke-linejoin="round"/>
<path d="M329.381 385.59C332.526 395.414 337.576 404.522 344.241 412.394C360.875 431.898 382.441 437.349 390.307 438.928C380.218 435.1 370.946 429.393 362.983 422.109C353.844 413.75 341.715 402.605 341.966 386.64C342.179 373.015 351.327 363.152 355.358 359.316C345.409 366.706 336.64 375.565 329.353 385.59H329.381Z" fill="#866678" stroke="#866678" stroke-width="0.75" stroke-linecap="round" stroke-linejoin="round"/>
<path d="M499.454 557.771C483.213 547.96 465.056 541.749 446.209 539.558C463.826 537.175 481.744 540.476 497.354 548.982C512.965 557.488 525.453 570.755 533 586.85C523.539 575.334 512.197 565.502 499.454 557.771Z" fill="#866678" stroke="#866678" stroke-width="0.75" stroke-linecap="round" stroke-linejoin="round"/>
<path d="M579.419 147.208C577.86 141.875 575.589 136.777 572.667 132.051C561.68 114.33 544.489 107.141 537.198 104.597" stroke="#866678" stroke-width="0.75" stroke-linecap="round" stroke-linejoin="round"/>
<path d="M226.912 45.6211C211.476 54.4017 197.527 65.5703 185.583 78.7125C183.298 81.2263 181.156 83.7277 179.156 86.2168C171.768 95.3715 165.361 105.277 160.042 115.77C160.042 115.77 160.042 115.77 160.042 115.844" stroke="#866678" stroke-width="0.75" stroke-linecap="round" stroke-linejoin="round"/>
<path d="M354.086 413.443H349.21H345.188H345.179" stroke="#866678" stroke-width="0.5" stroke-linecap="round" stroke-linejoin="round"/>
<path d="M354.114 413.471H345.207" stroke="#866678" stroke-width="0.5" stroke-linecap="round" stroke-linejoin="round"/>
<path d="M536.938 104.634C536.762 105.015 548.631 108.934 558.086 118.788C563.207 124.2 567.106 130.648 569.519 137.698C573.748 139.687 577.221 142.991 579.419 147.115C578.148 142.501 576.317 138.06 573.967 133.89C568.273 123.992 559.972 115.845 549.969 110.337C543.012 106.352 537.068 104.346 536.938 104.634Z" fill="#866678"/>
<path d="M160.674 114.627C165.925 104.232 172.267 94.4252 179.592 85.3718C192.721 69.2202 208.762 55.674 226.884 45.4355C206.457 59.7337 189.325 78.2367 176.639 99.7024L160.674 114.627Z" fill="#866678"/>
<path d="M677.059 464.237C677.059 464.07 666.267 463.605 652.53 468.091C645.908 470.255 634.736 474.035 624.51 483.88C610.95 496.882 607.142 512.783 605.935 519.618C606.734 507.693 609.892 491.198 622.049 479.682C642.184 460.596 677.059 464.534 677.059 464.237Z" fill="#866678" stroke="#866678" stroke-width="0.75" stroke-linecap="round" stroke-linejoin="round"/>
</g>
<defs>
<clipPath id="clip0_2311_1002">
<rect width="730.88" height="609.501" fill="white" transform="translate(0 0.326172)"/>
</clipPath>
</defs>
</svg>
