<svg id="Layer_1" data-name="Layer 1" xmlns="http://www.w3.org/2000/svg" xmlns:xlink="http://www.w3.org/1999/xlink" viewBox="0 0 288.9 394.55"><defs><style>.cls-1,.cls-10{fill:none;}.cls-12,.cls-2,.cls-8{fill:#866678;}.cls-3{fill:#9da59e;}.cls-4{fill:#fbedf5;}.cls-5{fill:#d4c0de;}.cls-6{fill:#deb69d;}.cls-7{fill:#f79e88;}.cls-10,.cls-8{stroke:#866678;stroke-linecap:round;stroke-linejoin:round;stroke-width:2px;}.cls-9{fill:#bdcac0;}.cls-11{fill:url(#_10_dpi_30_8);}.cls-12{opacity:0.45;}</style><pattern id="_10_dpi_30_8" data-name="10 dpi 30% 8" width="28.8" height="28.8" patternTransform="translate(-0.42 429.54) scale(1.03)" patternUnits="userSpaceOnUse" viewBox="0 0 28.8 28.8"><rect class="cls-1" width="28.8" height="28.8"/><path class="cls-2" d="M28.8,31a2.16,2.16,0,1,0-2.16-2.16A2.16,2.16,0,0,0,28.8,31Z"/><path class="cls-2" d="M14.4,31a2.16,2.16,0,1,0-2.16-2.16A2.16,2.16,0,0,0,14.4,31Z"/><path class="cls-2" d="M28.8,16.56a2.16,2.16,0,1,0-2.16-2.16A2.16,2.16,0,0,0,28.8,16.56Z"/><path class="cls-2" d="M14.4,16.56a2.16,2.16,0,1,0-2.16-2.16A2.16,2.16,0,0,0,14.4,16.56Z"/><path class="cls-2" d="M7.2,23.76A2.16,2.16,0,1,0,5,21.6,2.16,2.16,0,0,0,7.2,23.76Z"/><path class="cls-2" d="M21.6,23.76a2.16,2.16,0,1,0-2.16-2.16A2.16,2.16,0,0,0,21.6,23.76Z"/><path class="cls-2" d="M7.2,9.36A2.16,2.16,0,1,0,5,7.2,2.16,2.16,0,0,0,7.2,9.36Z"/><path class="cls-2" d="M21.6,9.36A2.16,2.16,0,1,0,19.44,7.2,2.16,2.16,0,0,0,21.6,9.36Z"/><path class="cls-2" d="M0,31A2.16,2.16,0,0,0,2.16,28.8,2.16,2.16,0,0,0,0,26.64,2.16,2.16,0,0,0,0,31Z"/><path class="cls-2" d="M0,16.56A2.16,2.16,0,0,0,2.16,14.4,2.16,2.16,0,0,0,0,12.24a2.16,2.16,0,1,0,0,4.32Z"/><path class="cls-2" d="M28.8,2.16A2.16,2.16,0,0,0,31,0a2.16,2.16,0,0,0-4.32,0A2.16,2.16,0,0,0,28.8,2.16Z"/><path class="cls-2" d="M14.4,2.16A2.16,2.16,0,0,0,16.56,0a2.16,2.16,0,1,0-4.32,0A2.16,2.16,0,0,0,14.4,2.16Z"/><path class="cls-2" d="M0,2.16A2.16,2.16,0,0,0,2.16,0,2.16,2.16,0,0,0,0-2.16,2.16,2.16,0,0,0-2.16,0,2.16,2.16,0,0,0,0,2.16Z"/></pattern></defs><title>Topology Website Elements-B</title><path class="cls-3" d="M42.51,49.68l6.62-5.89L79.92,71.07l-8.78,8.47L49.13,70Z"/><path class="cls-4" d="M48.4,44.1,80,70.86c6.91-7,12.85-12.34,17-16,10.33-9,15.42-12.33,20.15-20.56,4.59-8,4.61-13.22,4.55-15-.08-2.32-.33-9.45-5.89-14.26-6-5.15-13.71-3.92-16.22-3.51A24.43,24.43,0,0,0,86.33,8.45Z"/><path class="cls-5" d="M38.23,44.82l12.65,9.09a14.68,14.68,0,0,0-.51,7.75A16.8,16.8,0,0,0,53,67.24C58.05,74.41,71.51,78,72.79,78.3a34,34,0,0,1,.83,7.23,34.32,34.32,0,0,1-2.17,12.09L27,83.36q-6.92-9-13.84-18"/><path class="cls-6" d="M26.76,83.34,19.63,73.5A10.61,10.61,0,0,0,14.2,77a11,11,0,0,0-2.32,6.82c-.07,2.71.78,3.91,1.86,7.29,1.95,6.14.82,7.48,2.17,11.16,1,2.68,3.17,6.31,8.68,9.76l8.52-4.88Q29.93,95.24,26.76,83.34Z"/><path class="cls-7" d="M32.34,106.43a27.19,27.19,0,0,1-7.83-14.1c-.51-2.68-1-5.7.62-8.6,2.1-3.72,6.3-4.72,7.67-5,6.6-1.57,12.14,2.19,13.49,3.18,6.4,4.69,7.3,12,7.44,13.33"/><path class="cls-8" d="M63.57,366.91q-2.28-7.5-4.52-15.09-6.16-20.9-11.68-41.33c7.26-7,15.24-14.17,24-21.39a424.45,424.45,0,0,1,36.89-27.28c-1.44,2.5-3.46,6.05-5.78,10.33a451,451,0,0,0-20.36,42.57c-3,7.35-6.65,16.65-10.33,27.59-.25-25.9.11-39.07.88-43.68.09-.58.47-2.68-.24-3-1-.5-3.76,3-6.12,6.35-.18,1.44-.47,3.91-.77,7-1.38,14-1.12,22.57-1.56,43.16C63.89,355.35,63.77,360.5,63.57,366.91Z"/><path class="cls-9" d="M12,170.89c.11,3-.13,2.27-.21,8-.09,6.55-.13,9.83.31,12.92.73,5,1.85,5.6,4.34,13.74,1.73,5.64,2.47,9.53,3,11.88,1.68,7.49,8.66,32.85,26.25,93.62l64.06-50L98.37,279.64a90.25,90.25,0,0,1,25.57-16.43c14.49-6.08,20.19-3.74,39.06-10.69,7.58-2.8,16-5.89,25.57-12.56,6.34-4.4,12.34-10.16,24.34-21.7,11.28-10.84,12-12.27,16.12-14.72,10.18-6.11,21.14-6.6,28.83-6a28.6,28.6,0,0,0-5,27.13c4.65,13.39,19,17.74,20.56,18.18a62.64,62.64,0,0,1-2.48-7.54,65.51,65.51,0,0,1,.41-33.89,63.74,63.74,0,0,1,13.23-24.08c.91-1.53,1.62-2.86,2.14-3.9a5.46,5.46,0,0,0,.86-2.79c0-.27-.06-1.63-.78-2.17-1.44-1.08-5.11,1.53-5.81,2-7.46,5.22-16.58,7.6-24.41,12.24-13.24,7.85-12.36,5.9-26.2,13.87a314.76,314.76,0,0,0-30.12,19.79,89.91,89.91,0,0,1-18.7-3.2c-2.72-.77-12-3.54-26-12.09a181.07,181.07,0,0,1-30.23-23.41,245.92,245.92,0,0,1-25.88-27.9l-1.71,2.33a62.67,62.67,0,0,1-12.45-14,64.08,64.08,0,0,1-10.12-31.21,125,125,0,0,0-60.76,14l-3.08,2.07-3.25,7.44a9,9,0,0,1,3.22,1.32,9.23,9.23,0,0,1,3.21,3.76,10.47,10.47,0,0,1,.66,7,13.84,13.84,0,0,0-2.08,1.47,10.73,10.73,0,0,0-3.93,6.33,11.5,11.5,0,0,0,.16,3.51,16.93,16.93,0,0,0,.85,3.41C11.7,161.61,11.94,168.38,12,170.89Z"/><path class="cls-4" d="M9.71,153Q31,162.64,52.8,173q11.51,5.49,22.78,11l22.63-32.09-9.14-8.83L70.16,167a66.52,66.52,0,0,0-9.46-7.91c-4.66-3.2-6.05-3.26-12.24-7-9.08-5.44-8.47-6.73-13.8-8.84-7.76-3.07-13.43-2.06-14.8-1.78A14.24,14.24,0,0,0,12,145.34c-2.08,2.2-4,6-2.94,7.28A1.31,1.31,0,0,0,9.71,153Z"/><path class="cls-10" d="M26.15,81.75,13.37,65.49l25-21,12.89,9.79c-.8,2.21-2.08,6.81,0,11,.78,1.57,2.1,3.2,9.31,7.4,2.93,1.7,7,3.91,11.93,6.2a27.34,27.34,0,0,1,1,7.64A30.68,30.68,0,0,1,71.54,96"/><path class="cls-10" d="M32.21,106.63a28.58,28.58,0,0,1-5.91-9c-1.63-4-3.94-9.57-1.25-14.14s9.28-5.77,13.61-5.19c6.51.87,12,6.09,14.32,13.25"/><path class="cls-10" d="M19,73.68c-2.59,1.53-6.24,4.27-7,8.42-.34,1.9.16,2.81,1.25,7,2.65,10.12,1.53,11.81,3.94,15.75a19.52,19.52,0,0,0,6.63,6.45"/><path class="cls-10" d="M43.85,48.5,84.19,10.3A30.07,30.07,0,0,1,93.5,3.86c3.61-1.58,10.69-4.68,17.91-1.43A18.41,18.41,0,0,1,120.48,12a20.12,20.12,0,0,1,.71,12.18A28,28,0,0,1,112.84,39L72.49,78.34"/><path class="cls-10" d="M10.56,124.08a36.57,36.57,0,0,0-2.75,6.78,8.79,8.79,0,0,1,6.67,4,8.77,8.77,0,0,1,.72,7.17"/><path class="cls-10" d="M251.68,213.34a25.81,25.81,0,0,0,.33,7.52,29.38,29.38,0,0,0,14.1,19.58"/><path class="cls-10" d="M251.51,213.33a25,25,0,0,1,3.09-11.51,24.11,24.11,0,0,1,3.08-4.33,49.08,49.08,0,0,0-21.91,2.82c-11.3,4.33-15.2,11.11-29.13,23.87-10.8,9.9-18.41,16.86-29.34,22.44-15.73,8-22.66,5.17-40.59,11.22-9.84,3.32-23.43,9.48-38.31,21.91a1.35,1.35,0,0,0-.19.16,72.14,72.14,0,0,1,3.89-7.5,78.43,78.43,0,0,1,12.65-16.11,366.09,366.09,0,0,0-69.1,54.08c-5.68-17.16-10.3-32.45-14-45.37-8.78-30.73-5.87-25.27-14.08-54.18-4.64-16.3-6.09-19.84-6-27.21.08-5,.88-12.72-1.19-23.41-.57-3-1.21-5.35-1.67-6.91a12.41,12.41,0,0,1,2.61-7.63c3.08-3.81,7.7-4.29,10-4.56a25.5,25.5,0,0,1,14.8,3.35,279.24,279.24,0,0,1,34.14,22.68q9.14-12,18.73-23.89l.37-.47"/><path class="cls-10" d="M187.79,227.31c4.27-4,8.38-7.5,12.21-10.58,5.65-4.54,10.67-8.14,14.76-10.92,0,0,3.46-2.31,7.42-4.72,13.54-8.23,37.28-19.76,40.75-21.45"/><path class="cls-10" d="M263,179.61c3.91-2.13,7.23-4,10.05-5.48,9.31-5,13.13-6.82,14.54-5.32,1.68,1.78-3.66,9.45-4.51,10.67-1.53,2.21-2.08,2.49-3.54,4.56a40.52,40.52,0,0,0-5.09,10.36c-2.69,7.52-5.39,15-5.36,25.43A62.15,62.15,0,0,0,273.63,243l-7.33-2.56"/><path class="cls-10" d="M10.56,124.08a1.76,1.76,0,0,1-.2.09"/><path class="cls-10" d="M200.69,216.79a106.81,106.81,0,0,1-27.22-6.44c-7.35-2.81-16.21-7.13-29.36-16.95a243.36,243.36,0,0,1-44.64-43.69q-5.27,7.78-11,15.76Q81.65,175,74.88,183.85a118,118,0,0,1-20.29-11c-10.22-6.9-13.31-11.32-21.72-15.52A56.87,56.87,0,0,0,9,151.62"/><path class="cls-10" d="M75.27,183.7a153.51,153.51,0,0,0,78.87,27.13"/><path class="cls-10" d="M75.17,109a66.9,66.9,0,0,0,13.26,33.4,62.81,62.81,0,0,0,9.31,9.67"/><path class="cls-10" d="M47,309.18q4.66,16.31,9.31,32.7Q60,355,63.66,368.14c-.18-26.91.34-39.06,1-44.88.21-2,.46-3.43.71-6.68.74-9.27-.12-12,1.67-15.52a14.64,14.64,0,0,1,6.45-6.21c-.78,7.16-1.37,14.81-1.67,22.92-.33,8.71-.29,16.93,0,24.59,3.9-11.62,8.61-24,14.32-37,4.28-9.73,8.7-18.8,13.13-27.22"/><path class="cls-8" d="M85.86,108.13h0c-3.54-.13-7.46-.13-11.66.05a161.92,161.92,0,0,0-43,7.59,156,156,0,0,0-20.57,8.31,27,27,0,0,1,7.26-8.75c2.46-1.89,3.59-2,7.41-4,11.25-6,10.87-9.86,19.8-14.56,4-2.07,12.21-6.41,20.55-3.83,2.79.88,4.88,2.42,9.06,5.5A93,93,0,0,1,85.86,108.13Z"/><path class="cls-8" d="M111.65,24.27q-8.12,7.59-16.24,15.22a32.52,32.52,0,0,1-6.8.88c-3.82.09-8,.2-10.93-2.5-.55-.51-2.73-2.47-2.44-4.78s2.7-3.58,5.61-5.12c5.34-2.86,6.71-1.63,10.38-4,1.54-1,3.13-2.71,6.34-6.1s3.94-4.68,5.37-4.66c1.93,0,3.41,2.27,5.72,5.74A40.21,40.21,0,0,1,111.65,24.27Z"/><path class="cls-10" d="M48.82,44,79.88,70.88"/><path class="cls-11" d="M17,208.63a228,228,0,0,0,79.2,28.26A229.48,229.48,0,0,0,202.1,228.5a93.86,93.86,0,0,1-14.6,12,83.92,83.92,0,0,1-21,10.41c-10.66,3.46-12.53,1.48-25.31,5.28a114.47,114.47,0,0,0-17.08,6.67,116.32,116.32,0,0,0-24.85,16.31,56.13,56.13,0,0,1,15.43-22.78,324.89,324.89,0,0,0-68.85,54q-5.32-16-10.4-32.76C28.31,253.83,22.2,230.8,17,208.63Z"/><path class="cls-8" d="M10.33,156.11a159.29,159.29,0,0,1,18.75,7.13c10.82,4.92,14.1,7.88,26.2,13.48,11.49,5.33,20,8,20.15,7.75s-11.09-2.84-22-11.78c-3.5-2.85-5.74-5.35-11.78-9.76a74,74,0,0,0-9.46-6.2c-9.08-4.79-21.23-7.65-22.94-4.65C8.88,152.71,8.84,153.86,10.33,156.11Z"/><path class="cls-8" d="M48.15,311.42q6.27-5.81,13.17-11.63a378.88,378.88,0,0,1,43.24-31.46c7.38-7.63,8.48-9.74,8.06-10.23-1.52-1.83-26.5,15.6-47.73,33.94-7.8,6.74-14,12.64-18.14,16.74Z"/><ellipse class="cls-12" cx="72.63" cy="385.33" rx="72.63" ry="9.21"/></svg>